<?xml version="1.0" encoding="UTF-8"?><svg id="a" xmlns="http://www.w3.org/2000/svg" viewBox="0 0 331.98 174.35"><path d="M152.51,26.02c3.58-.68,5.95-.61,7.1.2,2.05.61,4.02,1.94,5.9,3.98l1.18.53.12.63-.5.09-.21-.1c.2.4.47.57.8.5-.08-.42-.04-.65.11-.68l.13.21.1.5c.16.87.65,1.72,1.46,2.53v.56s.05.18.05.18c.45.41.8,1.28,1.05,2.61.45,2.38.4,4.23-.16,5.55l.03.14.23-.04c.02.09-.19.39-.62.91.02.09-.28.75-.89,1.99l.02.09.36-.07c-.02.07-.47.42-1.35,1.05-.24.23-.35.39-.33.48l.13-.03c.1.51-.4,1.34-1.49,2.48l-.35-.12c-.15.37-.22.57-.21.6l.32-.06.04.23c-1.85,2.07-6.5,7.75-13.94,17.05l.2.06.72-.14c1.66-.31,5.91-1.88,12.77-4.71l.02.09c.05.24-.74.64-2.35,1.19l-.05.24.54-.1.02.09c-.9.67-1.31,1.26-1.21,1.77.44-.46.8-.87,1.08-1.23l.13-.03v.51s.02.09.02.09c.47-.31.7-.52.67-.64l-.36-.17c-.06-.3.46-.63,1.54-.99-.14.4-.19.72-.15.96l.04.23c1.18-.54,1.74-.95,1.68-1.25.52.12.92.15,1.19.1l.86-.16.03.14c.08.42-.84.81-2.77,1.18-1.53.63-2.26,1.15-2.19,1.54-.6.11-.98.4-1.15.87l-.02.38c1.16-.97,3.78-2.35,7.87-4.16.7-.44,2.09-1.5,4.17-3.18.36-.22.63-.35.82-.39.44.01.69.01.75,0l.02.09-2.09,1.57-.09-.45c-.19.32-1.07,1.16-2.66,2.52-.04.44-.38.9-1.01,1.36-2.85,1.57-4.39,2.61-4.6,3.12-.06.01-.08.06-.07.15.09-.02.21.05.37.21.02.12-.04.19-.19.22-.82.09-1.34.16-1.55.2.01.06-.01.1-.07.11-.02-.09-.12-.15-.31-.17,0,.03-.02.05-.08.06l.12.16.04.23c-.78.15-1.4.61-1.85,1.38l.1.54c7.07-4.15,12.72-8.1,16.94-11.86.12-.02.52-.3,1.2-.84l.04.23c-2.54,2.1-3.99,3.41-4.36,3.91v.23s.04,0,.04,0c.41-.48.72-.74.93-.78l.03.14c-.06.35-.27.71-.64,1.06l-.09.25c-.11-.07-.19-.1-.25-.09l-.04-.23.23-.04-.02-.09-.32.06c-1.57.3-4.83,2.66-9.79,7.09l.02.14h.56c1.52-.89,2.86-1.79,4.03-2.69-.39.92-.88,1.43-1.49,1.54l.15.53c1.09-.52,2.87-1.87,5.36-4.06l.02.09c.08.42-.83,1.39-2.73,2.9l-.19.46.27-.05c.6-.8,1.67-1.56,3.22-2.29-.07-.36.62-.74,2.08-1.14.75-.33,1.52-.77,2.32-1.33l-.18.55.43-.18.18-.03c-.08.23-.78.8-2.11,1.71-.51.91-1.94,1.96-4.27,3.15-.49.56-2.87,1.98-7.15,4.25-.96.71-1.43,1.11-1.41,1.2l.09.5c-.33.06-1.04.54-2.12,1.43l.03.18s.04.04.1.03c.06.3-.77.77-2.49,1.41-10.14,4.92-16.03,7.53-17.65,7.83l-.77.15c-.93.18-2.07-.12-3.4-.9.12-.02.21-.15.26-.38l-.04-.23c-.69.13-1.17-.09-1.43-.66-1.32-2.21-2-3.4-2.03-3.55l-.08-.41.18-1.3c-.13-.66-.58-1.73-1.36-3.21-.18-.96.27-2.42,1.37-4.38.47-.96.71-1.51.72-1.63l-.02-.14-.23.04c-.02-.09.42-.75,1.31-1.98-.02-.12.14-.25.49-.37,0-.16.06-.25.18-.27l.02.09c.98-.75,2.09-2.24,3.32-4.47,2.79-2.56,5.74-5.78,8.84-9.67,4.42-5.8,6.41-9.9,5.95-12.31l-.1-.54c-.27-1.45-1.44-2.1-3.51-1.96l-.36.07c-2.71.51-5.37,2.61-7.98,6.28-1.32,2.59-2.18,4.16-2.57,4.7-.69.82-1.41,1.3-2.16,1.44l-.27.05c-.84.16-2.16-.04-3.95-.61-1.61-1.41-2.66-2.1-3.15-2.07-.04-1.68-.14-2.95-.3-3.83l-.05-.27c-.13-.66-.61-1.09-1.46-1.27.02-1.38,1.07-3.98,3.15-7.8.09-.2.16-.86.24-1.96l.11-.16s.21.13.55.41c.17-.25.45-.41.84-.49.58.26,1.13.43,1.64.49,4.29-2.87,7.61-4.89,9.94-6.05,1.76-.77,3.46-1.31,5.12-1.62h0ZM176.59,56.04c.02.12-.04.26-.2.41l-.09-.22s.13-.07.29-.2ZM176.02,56.52l.02.14c.02.12-.03.19-.15.21l-.02-.09c-.03-.15.02-.24.14-.26ZM176.01,57.93c.13,0,.2.06.21.15l-.18.03-.04-.18ZM175.65,58.04l.04.23-.23.04c0-.16.06-.25.18-.27h0ZM172.79,58.72l.27-.05.02.09-.27.05-.02-.09ZM175.25,58.35l.03.18-.54.34c.07-.29.24-.47.51-.52ZM179.17,57.61l.09-.02c.02.12-.03.19-.15.21l-.09.02c0-.13.06-.2.15-.21ZM178.67,57.89l.27-.05.02.09-.43.22c-.03-.15.02-.24.14-.26ZM178.21,58.21l.18-.03.02.09-.18.03-.02-.09ZM174.32,59.13l.18-.03.02.09c-.15.03-.37.18-.66.45l-.02-.09c.02-.22.18-.36.48-.42ZM172.71,59.53v.05c.04.18-.02.29-.17.31l-.27.05c-.03-.18.11-.32.44-.41ZM170.4,60.2l.03.18c-.06.01-.2.12-.41.31l-.02-.09c-.02-.12.11-.25.39-.4ZM169.69,60.9l.14-.03v.05s-.13.03-.13.03c0,0,0-.05,0-.05ZM177.15,59.53l-.04.52-.5.09-.02-.09c.04-.29.22-.46.55-.53ZM171.86,60.72c-.12.37-.48.85-1.08,1.47-.09.02-.15-.03-.17-.15l-.09-.5c.74-.52,1.19-.79,1.34-.82h0ZM138.67,67.33l.18-.03.03.14-.18.03-.02-.14ZM170.34,61.85l.15.77c-.06.01-.21-.15-.46-.47-.08.08-.19.13-.34.16l.03.18c.03.18.14.25.32.22l-.53.66c-.12-.29-.33-.41-.63-.35-.33.22-.63.35-.91.41.8-.9,1.59-1.42,2.37-1.57h0ZM167.56,62.99c.16,0,.25.08.28.23-.18.03-.25.17-.2.41l-.14.03c-.02-.43,0-.66.06-.67ZM178.26,61.43l.03.18-.36.07-.03-.14c.06-.01.18-.05.35-.11ZM166.03,63.79c.09-.02.29.13.6.45-.18.03-.4.11-.66.22-.03-.15-.07-.28-.12-.4l.18-.27h0ZM168.96,63.47l.18-.03.04.23-.18.03-.04-.23h0ZM179.19,62.38l.23-.04.02.14-.23.04-.02-.14ZM171.95,64.17l.23-.04.02.09-.23.04-.02-.09ZM161.11,66.5l.04.23.39.07.1-.49-.09.02-.43.18ZM180.93,62.66l.14-.03c.16,0,.24.06.27.18l.02.09-.36.07c-.03-.15-.05-.26-.06-.32h0ZM175.66,63.98c.57.05.87.07.9.06l.04.23c-.36.07-.96.45-1.8,1.14,0,0,.85-1.42.85-1.42ZM176.63,64.41c.16,0,.25.06.27.18l.02.09-.23.04-.06-.32ZM176.46,64.76l.23-.04.02.09-.23.04-.02-.09ZM176.11,65.16c.02.12-.08.25-.3.38l-.03-.18c.06-.01.17-.08.34-.2ZM162.2,68.03l.05.27.18-.03c.06-.01.12-.12.17-.31l-.41.08h0ZM166.58,68.41l.13-.03.03.14-.14.03-.02-.14ZM171.55,67.47l.09-.02.08.41-.54.1c-.02-.09.11-.25.38-.49h0ZM175.9,67.02v.05s.19-.03.19-.03l.1-.21c-.13.12-.23.18-.29.2ZM162.17,71.59l.05.27c.09-.02.16-.12.22-.32l-.27.05ZM165.42,76.17l.04.23-.27.05-.02-.09c.09-.02.17-.08.24-.19ZM192.76,18.12c.15-.03.82.36,2,1.17.26-.27.51-.42.75-.47,2.02.15,3.18.49,3.47,1.03.66.37,1.2.83,1.62,1.38-.12.21-.15.42-.12.63.92.57,1.46,1.3,1.63,2.17l.34,1.81c.08.42,1.52,1.83,4.31,4.24l.23-.04-.02-.09c-.7-1.37-1.07-2.21-1.14-2.55l-.04-.23c-.07-.39.1-.94.53-1.64l-.1-.54h.04s.63.34.63.34l.09-.02c-.17-.25-.28-.49-.33-.73l.18-.27.09-.02c.03.18.91.84,2.62,1.98l1.49,1.92.13-.03-1.15-1.89c.24-.05.41-.11.52-.19,1.43.98,2.7,2.89,3.8,5.74.81,3.12,1.29,4.67,1.44,4.64l.41-.08c-.31.65-.45,1.1-.4,1.34l.2,1.04.23-.04.21-.13c.07.39.14.58.2.57-.03.16-.04.27-.03.33l-.09.02-.03-.18c-.15.03-.28.43-.38,1.2l-.09.02-.02-.09c-.07-1.05-.2-2.02-.37-2.93,0-.03-.08-.27-.23-.71-.24.05-.24.81.01,2.29l.33,1.76c.03.15.1.21.22.19l-.04-.23.13-.03.08.41c.03.18-.1.64-.39,1.38l.14-.03c.2-.1.41-.33.62-.68l.09-.02c.04.21.23.39.57.55-.69.13-1.03.34-1.01.61.03.65.05,1.02.07,1.11l.14-.03c.35-.1.61-.16.76-.19v.05c.26,2.17-.02,3.33-.83,3.48.1-.27.15-.45.13-.54-.26.11-.34.41-.25.89.03,0,.05.04.07.13l.36-.3h.51c-.45,1.39-.6,2.53-.43,3.4l.18.43c-.52.54-.94,1.55-1.25,3.04l-.13.03-.04-.18c-.08.05-.12.12-.1.21l.02.09.14-.03c-.81,3.3-1.57,5.71-2.28,7.22l-.18.03-.02-.09c.05-.38.21-.79.47-1.21l-.02-.09c-1,1.16-1.8,2.51-2.41,4.06l.17.15.02.09-.23.04-.05-.27h-.04c.09.49-.28,1.42-1.11,2.79.07.36-.43,1.17-1.5,2.44l-.09.02c.15-.71.83-2.14,2.05-4.27l.12-.35-.06-.32c-2.04,1.88-2.97,3.32-2.79,4.32l.08.41c-.36.07-.74.48-1.12,1.24l-.09.02c-.49-.1-.74-.2-.76-.32.65-.37.96-.62.94-.74l-.02-.14-.2.18-.13.03.45-1.07-.02-.09c-2.92,2.05-4.59,3.11-5.01,3.19-.96.18-2.09.9-3.38,2.14-.61.24-1.1.39-1.46.46l-.45.09c-.75.14-2.29,0-4.62-.44l.05.27c.12-.02.62.13,1.49.47,1.19.21,2.53.18,4-.1l.45-.09c1.32-.25,2.78-.71,4.37-1.39-.37.54-.53.9-.5,1.08l.04.23c-.77.36-1.66.64-2.65.83-1.29.25-3.27.34-5.94.28l.05-.24-.03-.18c-2.47-.34-4.27-1.23-5.42-2.67-.42.08-2.21-.55-5.36-1.89-.99-.59-2.13-2.34-3.43-5.25-1.59-2.97-2.47-4.88-2.63-5.73-.2-.59-.46-1.13-.78-1.63-.69-5.14-.87-7.74-.54-7.8-.1-.51.52-3.7,1.84-9.57.92-3.39,2.47-6.72,4.66-10.01.27-.05,1.54-2.02,3.79-5.91,3.72-4.23,6.24-6.47,7.57-6.72h0ZM187.32,56.81l3.13,5.91c1.25,1.48,2.43,2.11,3.54,1.9l.13-.03c1.26-.24,3.02-1.43,5.27-3.57,3.07-4.04,4.95-6.89,5.63-8.55,1.39-3.38,1.83-6.4,1.33-9.05-1.79-7.33-3.29-11.09-4.47-11.27l-.03-.18c.15-1,.29-1.51.41-1.53.16.53.34.78.52.74l.09-.02c-.03-.15.06-.32.28-.52l1.01-.1.45-.09-.02-.09c-.03-.15-.83-1.28-2.42-3.38-.17-.25-.27-.46-.31-.64l-.36.07c-.3.06-.51.75-.63,2.09-5.13,3.22-9.08,8.3-11.85,15.25-1.85,4.9-2.41,9.25-1.69,13.05ZM205.7,25.63c.16,0,.24.05.26.14l.02.09-.23.04s-.05-.27-.05-.27ZM209.89,25.54l.09-.02.04.23-.09.02-.04-.23h0ZM209.84,26.02c.09-.02.15.03.17.15l-.13.03-.03-.18h0ZM187.08,30.61l.04.23c.15-.03.21-.12.18-.27l-.23.04ZM186.27,32.02l.09-.02c.26-.3.43-.46.52-.47l-.05-.27-.18.03c-.09.02-.22.26-.38.73ZM206.87,27.66l.05.27h.47c-.02-.09-.15-.19-.38-.3l-.13.03ZM205.88,28.59l.18-.03.02.09-.18.03s-.02-.09-.02-.09ZM199.45,31.68l.09-.02c.16,0,.25.06.27.18l-.32.06-.04-.23h0ZM208.78,30.06l.07.36c.12-.05.2-.09.26-.1l-.06-.32-.27.05h0ZM209.4,30.64l.09.5.43.06v-.23c-.05-.11-.09-.25-.12-.4,0,0-.41.08-.41.08ZM209.56,31.97l.02.09c.31.32.51.47.6.45-.22-.33-.43-.51-.62-.54ZM203.89,33.41l.18.95c.15-.03.35.06.61.26-.38-.83-.64-1.24-.79-1.21ZM212.99,32.3l.04.23.55,1.44.23-.04c-.4-1.11-.67-1.65-.82-1.62h0ZM214.06,32.99l.06.32c.19.65.37.96.55.93l-.12-.63c-.03-.15-.15-.44-.35-.87-.12.05-.16.14-.14.26ZM210.83,34.49c.03.15,0,.23-.09.25.12.13.18.23.2.29.12-.02.16-.12.13-.31v-.05c-.04-.15-.11-.21-.23-.19h0ZM215.31,33.92l.13-.03c.15-.03.31.3.47.99-.03.16-.04.3-.01.42-.21.04-.41-.42-.59-1.39ZM216.01,35.38l.09.45c.02.12-.03.19-.15.21-.15.03-.24-.02-.26-.14l-.02-.09c-.02-.12.09-.27.34-.44ZM216.1,36.86c.13,0,.2.06.21.15l-.18.03-.04-.18ZM214.53,37.67l.03.18c.12-.02.17-.09.15-.21,0,0-.18.03-.18.03ZM216.39,37.36l.08.41-.18.03-.03-.18c0-.16.05-.24.14-.26ZM216.71,40.58l.18.48.04.23-.53.15h-.04c.11-.54.23-.83.35-.85ZM216.48,43.06l.54-.1c.06.33-.01.58-.23.75-.23-.05-.35-.11-.36-.17l.05-.48h0ZM215.65,43.59l.12.63.27-.05-.12-.63-.27.05h0ZM216.15,44.76c0,.34,0,.54.02.6l.41-.08-.11-.59-.32.06h0ZM180.55,52.2c-.53,1.5-.72,3.38-.57,5.63l.52.04c.12-.02.21-1.26.28-3.7l-.09.02c-.12.02-.17.11-.14.26h-.04c.16-1.14.21-1.86.16-2.13l-.02-.14s-.09.02-.09.02ZM213.75,46.66l.03.18c.09-.02.12-.09.1-.21,0,0-.13.03-.13.03ZM180.3,54.59l.23-.04.03.14c.03.18-.02.29-.18.31,0,0-.08-.41-.08-.41ZM215.93,49.8l.18-.03-.04-.23c-.12.05-.16.14-.14.26h0ZM215.72,50.87l.02.09h.42s-.07-.35-.07-.35l-.09.02c-.1.14-.19.22-.28.24ZM180.02,58.29l.07.36.18-.03-.07-.36-.18.03ZM180.09,59.16l.08.41c.02.12.08.17.17.15-.01-.06.03-.1.12-.12-.11-.07-.18-.23-.23-.47l-.14.03h0ZM214.13,55.62l.08.41c.09-.02.2-.18.33-.48l-.41.08h0ZM213.07,62.09l.18-.03.04.18-.18.03-.03-.18ZM209.83,64.76l-.06.2.02.09.09-.02c-.01-.06,0-.16.04-.29l-.09.02ZM206.49,68.39l.23-.04c.53-.48.81-.76.82-.86l-.07-.36c-.48.09-.81.51-.98,1.26h0ZM209.46,69.23c.15-.03.24.02.26.14l-.23.04-.03-.18ZM209.29,69.59l.03.14c0,.19-1.02.96-3.07,2.31-1.15,1-2.13,1.57-2.95,1.73-.01-.25.65-.93,2-2.06.15-.03.25.09.3.36,2.04-1.42,3.27-2.24,3.7-2.48ZM190.45,73.86c.02.09.2.15.55.18l-.03-.14c-.23-.05-.4-.06-.52-.04ZM205.73,71.01c.06-.01.16.08.29.27l-.23.04-.06-.32ZM203.35,73.05c-.27.86-.77,1.36-1.49,1.5l-.02-.09c.52-.85,1.03-1.32,1.51-1.41ZM192.03,75.29l.17.15-.36.07c0-.13.07-.2.19-.22ZM198.24,75.24l.04.23.9-.17-.04-.23-.9.17h0ZM233.39,10.7c3.58-.68,5.95-.61,7.1.2,2.05.61,4.02,1.94,5.9,3.98l1.18.53.12.63-.5.09-.21-.1c.2.4.47.57.8.5-.08-.42-.04-.65.11-.68l.13.21.1.5c.16.87.65,1.72,1.46,2.53v.56s.05.18.05.18c.45.41.8,1.28,1.05,2.61.45,2.38.4,4.23-.16,5.55l.03.14.23-.04c.02.09-.19.39-.62.91.02.09-.28.75-.89,1.99l.02.09.36-.07c-.02.07-.47.42-1.35,1.05-.24.23-.35.39-.33.48l.13-.03c.1.51-.4,1.34-1.49,2.48l-.35-.12c-.15.37-.22.57-.21.6l.32-.06.04.23c-1.85,2.07-6.5,7.75-13.94,17.05l.2.06.72-.14c1.66-.31,5.91-1.88,12.77-4.71l.02.09c.04.24-.74.64-2.35,1.19l-.05.24.54-.1.02.09c-.9.67-1.31,1.26-1.21,1.77.44-.46.8-.87,1.08-1.23l.13-.03v.51s.02.09.02.09c.47-.31.7-.52.67-.64l-.36-.17c-.06-.3.46-.63,1.54-.99-.14.4-.19.72-.15.96l.04.23c1.18-.53,1.74-.95,1.68-1.25.52.12.92.15,1.19.1l.86-.16.03.14c.08.42-.84.81-2.77,1.18-1.53.63-2.26,1.15-2.19,1.54-.6.11-.98.4-1.15.87l-.02.38c1.16-.97,3.78-2.35,7.87-4.16.7-.44,2.09-1.5,4.17-3.18.36-.22.64-.35.82-.39.44.01.69.01.75,0l.02.09-2.09,1.57-.08-.45c-.19.32-1.08,1.16-2.66,2.52-.04.44-.38.9-1.01,1.36-2.85,1.57-4.39,2.61-4.6,3.12-.06.01-.08.06-.07.15.09-.02.21.05.37.21.02.12-.04.19-.19.22-.82.09-1.34.16-1.55.2.01.06-.01.1-.07.11-.02-.09-.12-.15-.31-.17,0,.03-.02.05-.08.06l.12.16.04.23c-.78.15-1.4.61-1.85,1.38l.1.54c7.07-4.15,12.72-8.1,16.94-11.86.12-.02.52-.3,1.2-.84l.04.23c-2.53,2.1-3.99,3.41-4.36,3.91v.23s.04,0,.04,0c.41-.48.72-.74.93-.78l.03.14c-.06.35-.27.71-.64,1.06l-.09.25c-.11-.07-.19-.1-.25-.09l-.04-.23.23-.04-.02-.09-.32.06c-1.57.3-4.83,2.66-9.79,7.09l.03.14h.56c1.52-.89,2.86-1.79,4.03-2.69-.39.92-.88,1.43-1.49,1.54l.15.53c1.09-.52,2.87-1.87,5.36-4.06l.02.09c.08.42-.83,1.39-2.73,2.9l-.2.46.27-.05c.6-.8,1.67-1.56,3.21-2.29-.07-.36.62-.74,2.08-1.14.75-.33,1.52-.77,2.32-1.33l-.18.55.43-.18.18-.03c-.08.23-.78.8-2.11,1.71-.51.91-1.94,1.96-4.27,3.15-.49.56-2.87,1.98-7.15,4.25-.96.71-1.43,1.11-1.41,1.2l.09.5c-.33.06-1.04.54-2.12,1.43l.03.18s.04.04.1.03c.06.3-.77.77-2.49,1.41-10.14,4.92-16.03,7.53-17.65,7.83l-.77.15c-.93.18-2.07-.12-3.4-.9.12-.02.21-.15.26-.38l-.04-.23c-.69.13-1.17-.09-1.43-.66-1.32-2.21-2-3.4-2.03-3.55l-.08-.41.18-1.3c-.13-.66-.58-1.73-1.36-3.21-.18-.96.27-2.42,1.37-4.38.47-.96.71-1.51.72-1.63l-.02-.14-.23.04c-.02-.09.42-.75,1.31-1.98-.02-.12.14-.25.49-.37,0-.16.06-.25.18-.27l.02.09c.98-.75,2.09-2.24,3.32-4.47,2.79-2.56,5.74-5.78,8.84-9.67,4.42-5.8,6.41-9.9,5.95-12.31l-.1-.54c-.27-1.45-1.44-2.1-3.51-1.96l-.36.07c-2.71.51-5.37,2.61-7.98,6.28-1.32,2.59-2.18,4.16-2.57,4.7-.69.82-1.41,1.3-2.16,1.44l-.27.05c-.84.16-2.16-.04-3.95-.61-1.61-1.41-2.66-2.1-3.15-2.07-.04-1.68-.14-2.95-.3-3.83l-.05-.27c-.13-.66-.61-1.09-1.46-1.27.02-1.38,1.07-3.98,3.15-7.8.09-.2.16-.86.24-1.96l.11-.16s.21.13.55.41c.17-.25.45-.41.84-.49.58.26,1.13.43,1.64.49,4.29-2.87,7.61-4.89,9.94-6.05,1.76-.77,3.46-1.31,5.12-1.62h0ZM257.46,40.72c.02.12-.05.26-.2.41l-.09-.22s.13-.07.29-.2h0ZM256.89,41.2l.02.14c.02.12-.03.19-.15.21l-.02-.09c-.03-.15.02-.24.14-.26ZM256.88,42.61c.13,0,.2.06.21.15l-.18.03-.04-.18ZM256.53,42.72l.04.23-.23.04c0-.16.06-.25.18-.27ZM253.66,43.41l.27-.05.02.09-.27.05-.02-.09ZM256.12,43.04l.03.18-.55.34c.07-.29.24-.47.51-.52h0ZM260.05,42.29l.09-.02c.02.12-.03.19-.15.21l-.09.02c0-.13.06-.2.15-.21ZM259.54,42.57l.27-.05.02.09-.43.22c-.03-.15.02-.24.14-.26ZM259.09,42.89l.18-.03.02.09-.18.03-.02-.09ZM255.19,43.82l.18-.03.02.09c-.15.03-.37.18-.66.45l-.02-.09c.02-.22.18-.36.48-.42ZM253.58,44.22v.05c.04.18-.01.29-.17.31l-.27.05c-.03-.18.11-.32.44-.41ZM251.28,44.89l.03.18c-.06.01-.2.12-.41.31l-.02-.09c-.02-.12.11-.25.39-.4ZM250.56,45.58l.14-.03v.05s-.13.03-.13.03v-.05ZM258.03,44.22l-.04.52-.5.09-.02-.09c.04-.29.22-.46.55-.53ZM252.73,45.41c-.12.37-.48.85-1.08,1.47-.09.02-.15-.03-.17-.15l-.09-.5c.74-.52,1.19-.79,1.34-.82h0ZM219.55,52.02l.18-.03.03.14-.18.03-.02-.14ZM251.21,46.54l.15.77c-.06.01-.21-.15-.46-.47-.08.08-.19.13-.34.16l.03.18c.03.18.14.25.32.22l-.53.66c-.12-.29-.33-.41-.63-.35-.33.22-.63.35-.91.41.8-.9,1.59-1.42,2.37-1.57h0ZM248.43,47.67c.16,0,.25.08.28.23-.18.03-.25.17-.2.41l-.14.03c-.02-.43,0-.66.06-.67ZM259.13,46.11l.03.18-.36.07-.03-.14c.06-.01.18-.05.35-.11ZM246.9,48.48c.09-.02.29.13.6.45-.18.03-.4.11-.66.22-.03-.15-.07-.28-.12-.4l.18-.27h0ZM249.84,48.16l.18-.03.04.23-.18.03-.04-.23ZM260.06,47.06l.23-.04.02.14-.23.04-.02-.14ZM252.82,48.85l.23-.04.02.09-.23.04-.02-.09ZM241.99,51.19l.04.23.39.07.1-.49-.09.02-.43.18ZM261.8,47.34l.14-.03c.16,0,.24.06.27.18l.02.09-.36.07c-.03-.15-.05-.26-.06-.32ZM256.53,48.67c.57.05.87.07.9.06l.04.23c-.36.07-.96.45-1.8,1.14l.85-1.42ZM257.5,49.09c.16,0,.25.06.27.18l.02.09-.23.04-.06-.32ZM257.33,49.45l.23-.04.02.09-.23.04-.02-.09ZM256.99,49.84c.02.12-.08.25-.3.38l-.03-.18c.06-.01.17-.08.34-.2ZM243.07,52.71l.05.27.18-.03c.06-.01.12-.12.17-.31l-.41.08h0ZM247.45,53.1l.13-.03.03.14-.13.03-.03-.14ZM252.42,52.16l.09-.02.08.41-.54.1c-.02-.09.11-.25.38-.49h0ZM256.78,51.71v.05s.19-.03.19-.03l.1-.21c-.13.12-.23.18-.29.2ZM243.04,56.27l.05.27c.09-.02.16-.12.22-.32l-.27.05ZM246.3,60.85l.04.23-.27.05-.02-.09c.09-.02.17-.08.24-.19ZM278.89.64c.2.21.42.34.68.39.86-.23,1.41-.36,1.65-.41.34,0,.54,0,.6-.02.31-.34.57-.53.78-.57l.14-.03.02.09c.02.09,0,.41-.05.95.06.33.8.69,2.22,1.08.06.3.51.73,1.37,1.29.14.22.94,1.09,2.41,2.59.14.6.23.97.26,1.12.56,6.23-.28,9.55-2.51,9.97-2.82.91-4.55,1.81-5.2,2.71-2.8,2.65-4.83,5.7-6.08,9.15l.14-.03c2.59-1.33,4.75-2.16,6.5-2.49l.9-.17.02.09c-.9.17-3.53,1.93-7.89,5.28l-1.39.82c-.04.29-.04.52,0,.7l.09-.02c1.63-.43,2.42-.82,2.36-1.15l-.02-.09-.27.05-.52-.04-.02-.09c1.63-.31,4.54-1.64,8.74-3.99.9-.51,1.88-.96,2.93-1.35l-.02-.14c-1.45-.23-2.7-.24-3.75-.04-.04-.21.47-.42,1.52-.62l.59-.11c1.93-.21,3.06-.06,3.4.43-.36.07-.8.2-1.33.39l.02.09c.6.04.92.14.94.29l-.63.12.02.09h.75s0,.04,0,.04c-.23.08-.33.2-.3.38l.39-.4c.15.16.25.33.28.51.24-.2.44-.32.59-.35l-1.03-.51.18-.03c.82-.09,1.25-.14,1.28-.15l.02.09c-.1.3-.24.47-.42.5,2.08,1.29,3.44,2.34,4.06,3.16,2.45,3.22,3.94,6.21,4.46,8.98.68,3.61-1.02,8.62-5.11,15.01-.93,1.86-1.63,2.84-2.11,2.93,0-.03.23-.54.69-1.53l-.18.03-.03-.18c.63-.12,1.11-.87,1.45-2.24-1.46,1.52-2.28,2.47-2.45,2.85l.04.23.28.23.02.09c-.84,1-2.7,2.3-5.58,3.91-1.72.98-3.63,1.67-5.74,2.07l-.41.08c-7.29,1.38-12.92-1.34-16.89-8.17-.7-1.21-1.29-3.09-1.77-5.65-1.87-9.88-.2-20.18,5.01-30.89,1.05-2.04,2.08-3.83,3.1-5.36.48-.62.99-1.44,1.55-2.45.29-.12.42-.24.4-.36l-.03-.18-.32.29v-.05c.2-1.38,1.44-3.21,3.73-5.48,1.84-1.66,3.68-2.91,5.51-3.76h0ZM269.49,9.11l.09-.02.02.09c.03.15-.02.24-.14.26l-.23.04c-.02-.09.07-.22.26-.38ZM267.75,11.78l.02.09c-.03.32-.19.5-.46.55-.02-.09.13-.31.44-.64ZM264.49,19.27l.06.32.14-.03-.02-.14c-.02-.12-.08-.17-.17-.15ZM263.76,21.8c.24-.2.34-.44.29-.71-.24.2-.34.44-.29.71ZM262.43,24.95c.01.06,0,.16-.04.29l.09-.02c.15-.03.21-.12.18-.27v-.05s-.24.04-.24.04ZM284.12,28.28l-.23.04-.03-.14.18-.03-.02-.09c-1.06.51-1.68.79-1.86.82l.03.14,1.76-.33c.81-.15,1.31-.48,1.5-.99l-.68.13c-.48.09-.7.24-.66.45ZM280.75,29.53l.03.14.32-.06.65-.26c.08.24.19.34.34.31l.32-.06.43-.18-.05-.27-1.04.2-.04-.23c-.09.02-.41.16-.95.41h0ZM276.9,32.13l.02.09.14-.03c2.08-1.39,3.22-2.11,3.43-2.15l-.04-.23-.09.02c-1.43.71-2.58,1.47-3.45,2.29h0ZM275.98,33.94c.75-.14,2.15-1.14,4.2-3l.23-.04.03.14-1.39,1.06.02.09.09-.02,1.96-1.26-.05-.27c-.02-.12-.11-.17-.26-.14-.89.23-2.52,1.29-4.87,3.17l.05.27h0ZM280.39,30.81l.23-.04.02.09-.23.04-.02-.09ZM272.77,34.78l.02.14.09-.02c.54-.29,1-.47,1.39-.54l.27-.05.02.14-.48.18v.05c.05.24.34.34.86.31.24-.2.36-.35.34-.44l-.02-.09-.18.03.67-.64c-.05-.43.05-.66.29-.71l.2.06-.08-.45c-.02-.12-.1-.17-.21-.15-2.15,1.31-3.22,2.04-3.19,2.19ZM276.5,32.49l.06.32.14-.03.43-.22-.02-.09h-.47s-.14.02-.14.02ZM275.25,33.8l.32-.06v.05s-.85.4-.85.4c.03-.19.2-.32.54-.38h0ZM281.57,33.82l.13.21.02.09c-1.02.19-3.36,1.87-7,5.02-1.31,1.15-2.06,1.75-2.24,1.78l-.02-.09c-.03-.15-.12-.21-.27-.18l.08-1.32c-.87.17-1.17.97-.9,2.42-.11.55-.03,1.88.24,3.98.55,2.89,1.79,4.7,3.74,5.42.77.26,1.57.31,2.42.15l.5-.09c3.07-.58,6.1-2.95,9.09-7.1,1.23-2.26,1.69-4.19,1.39-5.78-.28-1.48-1.39-2.48-3.33-3.02l-.06-.32.14-.03c.21-.04.43-.02.67.06l-.02-.09c-.21-.43-.32-.72-.35-.87-.41.14-.8.31-1.17.5l-.02-.09.4-.83c-1.53.16-2.31.16-2.34-.02l-.1-.54-.98.75h0ZM272.28,36.18c-.07.48-.08.8-.05.95l.14-.03c1.17-.25,1.8-.61,1.9-1.06l-.03-.14c-.22-.02-.88.07-1.96.28h0ZM282.73,34.53l.27-.05.02.09-.27.05-.02-.09ZM281.3,34.9l.18-.03.02.09c-.12.02-1.1.68-2.95,1.96h-.05s0-.04,0-.04c1.72-1.29,2.66-1.95,2.81-1.98ZM283.26,34.62l.77-.15.04.18c-.25-.01-.51,0-.79.06,0,0-.02-.09-.02-.09ZM282.15,35.16l.5-.09c.03.15-.03.24-.18.27l-.27.05-.04-.23ZM289.53,57.11c.22-.14.32-.26.3-.38l-.04-.18-.09.02c-.18.03-.24.22-.18.55Z" style="fill:#ffe7ab;"/><path d="M152.51,26.02c3.58-.68,5.95-.61,7.1.2,2.05.61,4.02,1.94,5.9,3.98l1.18.53.12.63-.5.09-.21-.1c.2.4.47.57.8.5-.08-.42-.04-.65.11-.68l.13.21.1.5c.16.87.65,1.72,1.46,2.53v.56s.05.18.05.18c.45.41.8,1.28,1.05,2.61.45,2.38.4,4.23-.16,5.55l.03.14.23-.04c.02.09-.19.39-.62.91.02.09-.28.75-.89,1.99l.02.09.36-.07c-.02.07-.47.42-1.35,1.05-.24.23-.35.39-.33.48l.13-.03c.1.51-.4,1.34-1.49,2.48l-.35-.12c-.15.37-.22.57-.21.6l.32-.06.04.23c-1.85,2.07-6.5,7.75-13.94,17.05l.2.06.72-.14c1.66-.31,5.91-1.88,12.77-4.71l.02.09c.05.24-.74.64-2.35,1.19l-.05.24.54-.1.02.09c-.9.67-1.31,1.26-1.21,1.77.44-.46.8-.87,1.08-1.23l.13-.03v.51s.02.09.02.09c.47-.31.7-.52.67-.64l-.36-.17c-.06-.3.46-.63,1.54-.99-.14.4-.19.72-.15.96l.04.23c1.18-.54,1.74-.95,1.68-1.25.52.12.92.15,1.19.1l.86-.16.03.14c.08.42-.84.81-2.77,1.18-1.53.63-2.26,1.15-2.19,1.54-.6.11-.98.4-1.15.87l-.02.38c1.16-.97,3.78-2.35,7.87-4.16.7-.44,2.09-1.5,4.17-3.18.36-.22.63-.35.82-.39.44.01.69.01.75,0l.02.09-2.09,1.57-.09-.45c-.19.32-1.07,1.16-2.66,2.52-.04.44-.38.9-1.01,1.36-2.85,1.57-4.39,2.61-4.6,3.12-.06.01-.08.06-.07.15.09-.02.21.05.37.21.02.12-.04.19-.19.22-.82.09-1.34.16-1.55.2.01.06-.01.1-.07.11-.02-.09-.12-.15-.31-.17,0,.03-.02.05-.08.06l.12.16.04.23c-.78.15-1.4.61-1.85,1.38l.1.54c7.07-4.15,12.72-8.1,16.94-11.86.12-.02.52-.3,1.2-.84l.04.23c-2.54,2.1-3.99,3.41-4.36,3.91v.23s.04,0,.04,0c.41-.48.72-.74.93-.78l.03.14c-.06.35-.27.71-.64,1.06l-.09.25c-.11-.07-.19-.1-.25-.09l-.04-.23.23-.04-.02-.09-.32.06c-1.57.3-4.83,2.66-9.79,7.09l.02.14h.56c1.52-.89,2.86-1.79,4.03-2.69-.39.92-.88,1.43-1.49,1.54l.15.53c1.09-.52,2.87-1.87,5.36-4.06l.02.09c.08.42-.83,1.39-2.73,2.9l-.19.46.27-.05c.6-.8,1.67-1.56,3.22-2.29-.07-.36.62-.74,2.08-1.14.75-.33,1.52-.77,2.32-1.33l-.18.55.43-.18.18-.03c-.08.23-.78.8-2.11,1.71-.51.91-1.94,1.96-4.27,3.15-.49.56-2.87,1.98-7.15,4.25-.96.71-1.43,1.11-1.41,1.2l.09.5c-.33.06-1.04.54-2.12,1.43l.03.18s.04.04.1.03c.06.3-.77.77-2.49,1.41-10.14,4.92-16.03,7.53-17.65,7.83l-.77.15c-.93.18-2.07-.12-3.4-.9.12-.02.21-.15.26-.38l-.04-.23c-.69.13-1.17-.09-1.43-.66-1.32-2.21-2-3.4-2.03-3.55l-.08-.41.18-1.3c-.13-.66-.58-1.73-1.36-3.21-.18-.96.27-2.42,1.37-4.38.47-.96.71-1.51.72-1.63l-.02-.14-.23.04c-.02-.09.42-.75,1.31-1.98-.02-.12.14-.25.49-.37,0-.16.06-.25.18-.27l.02.09c.98-.75,2.09-2.24,3.32-4.47,2.79-2.56,5.74-5.78,8.84-9.67,4.42-5.8,6.41-9.9,5.95-12.31l-.1-.54c-.27-1.45-1.44-2.1-3.51-1.96l-.36.07c-2.71.51-5.37,2.61-7.98,6.28-1.32,2.59-2.18,4.16-2.57,4.7-.69.82-1.41,1.3-2.16,1.44l-.27.05c-.84.16-2.16-.04-3.95-.61-1.61-1.41-2.66-2.1-3.15-2.07-.04-1.68-.14-2.95-.3-3.83l-.05-.27c-.13-.66-.61-1.09-1.46-1.27.02-1.38,1.07-3.98,3.15-7.8.09-.2.16-.86.24-1.96l.11-.16s.21.13.55.41c.17-.25.45-.41.84-.49.58.26,1.13.43,1.64.49,4.29-2.87,7.61-4.89,9.94-6.05,1.76-.77,3.46-1.31,5.12-1.62h0ZM176.59,56.04c.02.12-.04.26-.2.41l-.09-.22s.13-.07.29-.2ZM176.02,56.52l.02.14c.02.12-.03.19-.15.21l-.02-.09c-.03-.15.02-.24.14-.26ZM176.01,57.93c.13,0,.2.06.21.15l-.18.03-.04-.18ZM175.65,58.04l.04.23-.23.04c0-.16.06-.25.18-.27h0ZM172.79,58.72l.27-.05.02.09-.27.05-.02-.09ZM175.25,58.35l.03.18-.54.34c.07-.29.24-.47.51-.52ZM179.17,57.61l.09-.02c.02.12-.03.19-.15.21l-.09.02c0-.13.06-.2.15-.21ZM178.67,57.89l.27-.05.02.09-.43.22c-.03-.15.02-.24.14-.26ZM178.21,58.21l.18-.03.02.09-.18.03-.02-.09ZM174.32,59.13l.18-.03.02.09c-.15.03-.37.18-.66.45l-.02-.09c.02-.22.18-.36.48-.42ZM172.71,59.53v.05c.04.18-.02.29-.17.31l-.27.05c-.03-.18.11-.32.44-.41ZM170.4,60.2l.03.18c-.06.01-.2.12-.41.31l-.02-.09c-.02-.12.11-.25.39-.4ZM169.69,60.9l.14-.03v.05s-.13.03-.13.03c0,0,0-.05,0-.05ZM177.15,59.53l-.04.52-.5.09-.02-.09c.04-.29.22-.46.55-.53ZM171.86,60.72c-.12.37-.48.85-1.08,1.47-.09.02-.15-.03-.17-.15l-.09-.5c.74-.52,1.19-.79,1.34-.82h0ZM138.67,67.33l.18-.03.03.14-.18.03-.02-.14ZM170.34,61.85l.15.77c-.06.01-.21-.15-.46-.47-.08.08-.19.13-.34.16l.03.18c.03.18.14.25.32.22l-.53.66c-.12-.29-.33-.41-.63-.35-.33.22-.63.35-.91.41.8-.9,1.59-1.42,2.37-1.57h0ZM167.56,62.99c.16,0,.25.08.28.23-.18.03-.25.17-.2.41l-.14.03c-.02-.43,0-.66.06-.67ZM178.26,61.43l.03.18-.36.07-.03-.14c.06-.01.18-.05.35-.11ZM166.03,63.79c.09-.02.29.13.6.45-.18.03-.4.11-.66.22-.03-.15-.07-.28-.12-.4l.18-.27h0ZM168.96,63.47l.18-.03.04.23-.18.03-.04-.23h0ZM179.19,62.38l.23-.04.02.14-.23.04-.02-.14ZM171.95,64.17l.23-.04.02.09-.23.04-.02-.09ZM161.11,66.5l.04.23.39.07.1-.49-.09.02-.43.18ZM180.93,62.66l.14-.03c.16,0,.24.06.27.18l.02.09-.36.07c-.03-.15-.05-.26-.06-.32h0ZM175.66,63.98c.57.05.87.07.9.06l.04.23c-.36.07-.96.45-1.8,1.14,0,0,.85-1.42.85-1.42ZM176.63,64.41c.16,0,.25.06.27.18l.02.09-.23.04-.06-.32ZM176.46,64.76l.23-.04.02.09-.23.04-.02-.09ZM176.11,65.16c.02.12-.08.25-.3.38l-.03-.18c.06-.01.17-.08.34-.2ZM162.2,68.03l.05.27.18-.03c.06-.01.12-.12.17-.31l-.41.08h0ZM166.58,68.41l.13-.03.03.14-.14.03-.02-.14ZM171.55,67.47l.09-.02.08.41-.54.1c-.02-.09.11-.25.38-.49h0ZM175.9,67.02v.05s.19-.03.19-.03l.1-.21c-.13.12-.23.18-.29.2ZM162.17,71.59l.05.27c.09-.02.16-.12.22-.32l-.27.05ZM165.42,76.17l.04.23-.27.05-.02-.09c.09-.02.17-.08.24-.19ZM192.76,18.12c.15-.03.82.36,2,1.17.26-.27.51-.42.75-.47,2.02.15,3.18.49,3.47,1.03.66.37,1.2.83,1.62,1.38-.12.21-.15.42-.12.63.92.57,1.46,1.3,1.63,2.17l.34,1.81c.08.42,1.52,1.83,4.31,4.24l.23-.04-.02-.09c-.7-1.37-1.07-2.21-1.14-2.55l-.04-.23c-.07-.39.1-.94.53-1.64l-.1-.54h.04s.63.34.63.34l.09-.02c-.17-.25-.28-.49-.33-.73l.18-.27.09-.02c.03.18.91.84,2.62,1.98l1.49,1.92.13-.03-1.15-1.89c.24-.05.41-.11.52-.19,1.43.98,2.7,2.89,3.8,5.74.81,3.12,1.29,4.67,1.44,4.64l.41-.08c-.31.65-.45,1.1-.4,1.34l.2,1.04.23-.04.21-.13c.07.39.14.58.2.57-.03.16-.04.27-.03.33l-.09.02-.03-.18c-.15.03-.28.43-.38,1.2l-.09.02-.02-.09c-.07-1.05-.2-2.02-.37-2.93,0-.03-.08-.27-.23-.71-.24.05-.24.81.01,2.29l.33,1.76c.03.15.1.21.22.19l-.04-.23.13-.03.08.41c.03.18-.1.64-.39,1.38l.14-.03c.2-.1.41-.33.62-.68l.09-.02c.04.21.23.39.57.55-.69.13-1.03.34-1.01.61.03.65.05,1.02.07,1.11l.14-.03c.35-.1.61-.16.76-.19v.05c.26,2.17-.02,3.33-.83,3.48.1-.27.15-.45.13-.54-.26.11-.34.41-.25.89.03,0,.05.04.07.13l.36-.3h.51c-.45,1.39-.6,2.53-.43,3.4l.18.43c-.52.54-.94,1.55-1.25,3.04l-.13.03-.04-.18c-.08.05-.12.12-.1.21l.02.09.14-.03c-.81,3.3-1.57,5.71-2.28,7.22l-.18.03-.02-.09c.05-.38.21-.79.47-1.21l-.02-.09c-1,1.16-1.8,2.51-2.41,4.06l.17.15.02.09-.23.04-.05-.27h-.04c.09.49-.28,1.42-1.11,2.79.07.36-.43,1.17-1.5,2.44l-.09.02c.15-.71.83-2.14,2.05-4.27l.12-.35-.06-.32c-2.04,1.88-2.97,3.32-2.79,4.32l.08.41c-.36.07-.74.48-1.12,1.24l-.09.02c-.49-.1-.74-.2-.76-.32.65-.37.96-.62.94-.74l-.02-.14-.2.18-.13.03.45-1.07-.02-.09c-2.92,2.05-4.59,3.11-5.01,3.19-.96.18-2.09.9-3.38,2.14-.61.24-1.1.39-1.46.46l-.45.09c-.75.14-2.29,0-4.62-.44l.05.27c.12-.02.62.13,1.49.47,1.19.21,2.53.18,4-.1l.45-.09c1.32-.25,2.78-.71,4.37-1.39-.37.54-.53.9-.5,1.08l.04.23c-.77.36-1.66.64-2.65.83-1.29.25-3.27.34-5.94.28l.05-.24-.03-.18c-2.47-.34-4.27-1.23-5.42-2.67-.42.08-2.21-.55-5.36-1.89-.99-.59-2.13-2.34-3.43-5.25-1.59-2.97-2.47-4.88-2.63-5.73-.2-.59-.46-1.13-.78-1.63-.69-5.14-.87-7.74-.54-7.8-.1-.51.52-3.7,1.84-9.57.92-3.39,2.47-6.72,4.66-10.01.27-.05,1.54-2.02,3.79-5.91,3.72-4.23,6.24-6.47,7.57-6.72h0ZM187.32,56.81l3.13,5.91c1.25,1.48,2.43,2.11,3.54,1.9l.13-.03c1.26-.24,3.02-1.43,5.27-3.57,3.07-4.04,4.95-6.89,5.63-8.55,1.39-3.38,1.83-6.4,1.33-9.05-1.79-7.33-3.29-11.09-4.47-11.27l-.03-.18c.15-1,.29-1.51.41-1.53.16.53.34.78.52.74l.09-.02c-.03-.15.06-.32.28-.52l1.01-.1.45-.09-.02-.09c-.03-.15-.83-1.28-2.42-3.38-.17-.25-.27-.46-.31-.64l-.36.07c-.3.06-.51.75-.63,2.09-5.13,3.22-9.08,8.3-11.85,15.25-1.85,4.9-2.41,9.25-1.69,13.05ZM205.7,25.63c.16,0,.24.05.26.14l.02.09-.23.04s-.05-.27-.05-.27ZM209.89,25.54l.09-.02.04.23-.09.02-.04-.23h0ZM209.84,26.02c.09-.02.15.03.17.15l-.13.03-.03-.18h0ZM187.08,30.61l.04.23c.15-.03.21-.12.18-.27l-.23.04ZM186.27,32.02l.09-.02c.26-.3.43-.46.52-.47l-.05-.27-.18.03c-.09.02-.22.26-.38.73ZM206.87,27.66l.05.27h.47c-.02-.09-.15-.19-.38-.3l-.13.03ZM205.88,28.59l.18-.03.02.09-.18.03s-.02-.09-.02-.09ZM199.45,31.68l.09-.02c.16,0,.25.06.27.18l-.32.06-.04-.23h0ZM208.78,30.06l.07.36c.12-.05.2-.09.26-.1l-.06-.32-.27.05h0ZM209.4,30.64l.09.5.43.06v-.23c-.05-.11-.09-.25-.12-.4,0,0-.41.08-.41.08ZM209.56,31.97l.02.09c.31.32.51.47.6.45-.22-.33-.43-.51-.62-.54ZM203.89,33.41l.18.95c.15-.03.35.06.61.26-.38-.83-.64-1.24-.79-1.21ZM212.99,32.3l.04.23.55,1.44.23-.04c-.4-1.11-.67-1.65-.82-1.62h0ZM214.06,32.99l.06.32c.19.65.37.96.55.93l-.12-.63c-.03-.15-.15-.44-.35-.87-.12.05-.16.14-.14.26ZM210.83,34.49c.03.15,0,.23-.09.25.12.13.18.23.2.29.12-.02.16-.12.13-.31v-.05c-.04-.15-.11-.21-.23-.19h0ZM215.31,33.92l.13-.03c.15-.03.31.3.47.99-.03.16-.04.3-.01.42-.21.04-.41-.42-.59-1.39ZM216.01,35.38l.09.45c.02.12-.03.19-.15.21-.15.03-.24-.02-.26-.14l-.02-.09c-.02-.12.09-.27.34-.44ZM216.1,36.86c.13,0,.2.06.21.15l-.18.03-.04-.18ZM214.53,37.67l.03.18c.12-.02.17-.09.15-.21,0,0-.18.03-.18.03ZM216.39,37.36l.08.41-.18.03-.03-.18c0-.16.05-.24.14-.26ZM216.71,40.58l.18.48.04.23-.53.15h-.04c.11-.54.23-.83.35-.85ZM216.48,43.06l.54-.1c.06.33-.01.58-.23.75-.23-.05-.35-.11-.36-.17l.05-.48h0ZM215.65,43.59l.12.63.27-.05-.12-.63-.27.05h0ZM216.15,44.76c0,.34,0,.54.02.6l.41-.08-.11-.59-.32.06h0ZM180.55,52.2c-.53,1.5-.72,3.38-.57,5.63l.52.04c.12-.02.21-1.26.28-3.7l-.09.02c-.12.02-.17.11-.14.26h-.04c.16-1.14.21-1.86.16-2.13l-.02-.14s-.09.02-.09.02ZM213.75,46.66l.03.18c.09-.02.12-.09.1-.21,0,0-.13.03-.13.03ZM180.3,54.59l.23-.04.03.14c.03.18-.02.29-.18.31,0,0-.08-.41-.08-.41ZM215.93,49.8l.18-.03-.04-.23c-.12.05-.16.14-.14.26h0ZM215.72,50.87l.02.09h.42s-.07-.35-.07-.35l-.09.02c-.1.14-.19.22-.28.24ZM180.02,58.29l.07.36.18-.03-.07-.36-.18.03ZM180.09,59.16l.08.41c.02.12.08.17.17.15-.01-.06.03-.1.12-.12-.11-.07-.18-.23-.23-.47l-.14.03h0ZM214.13,55.62l.08.41c.09-.02.2-.18.33-.48l-.41.08h0ZM213.07,62.09l.18-.03.04.18-.18.03-.03-.18ZM209.83,64.76l-.06.2.02.09.09-.02c-.01-.06,0-.16.04-.29l-.09.02ZM206.49,68.39l.23-.04c.53-.48.81-.76.82-.86l-.07-.36c-.48.09-.81.51-.98,1.26h0ZM209.46,69.23c.15-.03.24.02.26.14l-.23.04-.03-.18ZM209.29,69.59l.03.14c0,.19-1.02.96-3.07,2.31-1.15,1-2.13,1.57-2.95,1.73-.01-.25.65-.93,2-2.06.15-.03.25.09.3.36,2.04-1.42,3.27-2.24,3.7-2.48ZM190.45,73.86c.02.09.2.15.55.18l-.03-.14c-.23-.05-.4-.06-.52-.04ZM205.73,71.01c.06-.01.16.08.29.27l-.23.04-.06-.32ZM203.35,73.05c-.27.86-.77,1.36-1.49,1.5l-.02-.09c.52-.85,1.03-1.32,1.51-1.41ZM192.03,75.29l.17.15-.36.07c0-.13.07-.2.19-.22ZM198.24,75.24l.04.23.9-.17-.04-.23-.9.17h0ZM233.39,10.7c3.58-.68,5.95-.61,7.1.2,2.05.61,4.02,1.94,5.9,3.98l1.18.53.12.63-.5.09-.21-.1c.2.4.47.57.8.5-.08-.42-.04-.65.11-.68l.13.21.1.5c.16.87.65,1.72,1.46,2.53v.56s.05.18.05.18c.45.41.8,1.28,1.05,2.61.45,2.38.4,4.23-.16,5.55l.03.14.23-.04c.02.09-.19.39-.62.91.02.09-.28.75-.89,1.99l.02.09.36-.07c-.02.07-.47.42-1.35,1.05-.24.23-.35.39-.33.48l.13-.03c.1.51-.4,1.34-1.49,2.48l-.35-.12c-.15.37-.22.57-.21.6l.32-.06.04.23c-1.85,2.07-6.5,7.75-13.94,17.05l.2.06.72-.14c1.66-.31,5.91-1.88,12.77-4.71l.02.09c.04.24-.74.64-2.35,1.19l-.05.24.54-.1.02.09c-.9.67-1.31,1.26-1.21,1.77.44-.46.8-.87,1.08-1.23l.13-.03v.51s.02.09.02.09c.47-.31.7-.52.67-.64l-.36-.17c-.06-.3.46-.63,1.54-.99-.14.4-.19.72-.15.96l.04.23c1.18-.53,1.74-.95,1.68-1.25.52.12.92.15,1.19.1l.86-.16.03.14c.08.42-.84.81-2.77,1.18-1.53.63-2.26,1.15-2.19,1.54-.6.11-.98.4-1.15.87l-.02.38c1.16-.97,3.78-2.35,7.87-4.16.7-.44,2.09-1.5,4.17-3.18.36-.22.64-.35.82-.39.44.01.69.01.75,0l.02.09-2.09,1.57-.08-.45c-.19.32-1.08,1.16-2.66,2.52-.04.44-.38.9-1.01,1.36-2.85,1.57-4.39,2.61-4.6,3.12-.06.01-.08.06-.07.15.09-.02.21.05.37.21.02.12-.04.19-.19.22-.82.09-1.34.16-1.55.2.01.06-.01.1-.07.11-.02-.09-.12-.15-.31-.17,0,.03-.02.05-.08.06l.12.16.04.23c-.78.15-1.4.61-1.85,1.38l.1.54c7.07-4.15,12.72-8.1,16.94-11.86.12-.02.52-.3,1.2-.84l.04.23c-2.53,2.1-3.99,3.41-4.36,3.91v.23s.04,0,.04,0c.41-.48.72-.74.93-.78l.03.14c-.06.35-.27.71-.64,1.06l-.09.25c-.11-.07-.19-.1-.25-.09l-.04-.23.23-.04-.02-.09-.32.06c-1.57.3-4.83,2.66-9.79,7.09l.03.14h.56c1.52-.89,2.86-1.79,4.03-2.69-.39.92-.88,1.43-1.49,1.54l.15.53c1.09-.52,2.87-1.87,5.36-4.06l.02.09c.08.42-.83,1.39-2.73,2.9l-.2.46.27-.05c.6-.8,1.67-1.56,3.21-2.29-.07-.36.62-.74,2.08-1.14.75-.33,1.52-.77,2.32-1.33l-.18.55.43-.18.18-.03c-.08.23-.78.8-2.11,1.71-.51.91-1.94,1.96-4.27,3.15-.49.56-2.87,1.98-7.15,4.25-.96.71-1.43,1.11-1.41,1.2l.09.5c-.33.06-1.04.54-2.12,1.43l.03.18s.04.04.1.03c.06.3-.77.77-2.49,1.41-10.14,4.92-16.03,7.53-17.65,7.83l-.77.15c-.93.18-2.07-.12-3.4-.9.12-.02.21-.15.26-.38l-.04-.23c-.69.13-1.17-.09-1.43-.66-1.32-2.21-2-3.4-2.03-3.55l-.08-.41.18-1.3c-.13-.66-.58-1.73-1.36-3.21-.18-.96.27-2.42,1.37-4.38.47-.96.71-1.51.72-1.63l-.02-.14-.23.04c-.02-.09.42-.75,1.31-1.98-.02-.12.14-.25.49-.37,0-.16.06-.25.18-.27l.02.09c.98-.75,2.09-2.24,3.32-4.47,2.79-2.56,5.74-5.78,8.84-9.67,4.42-5.8,6.41-9.9,5.95-12.31l-.1-.54c-.27-1.45-1.44-2.1-3.51-1.96l-.36.07c-2.71.51-5.37,2.61-7.98,6.28-1.32,2.59-2.18,4.16-2.57,4.7-.69.82-1.41,1.3-2.16,1.44l-.27.05c-.84.16-2.16-.04-3.95-.61-1.61-1.41-2.66-2.1-3.15-2.07-.04-1.68-.14-2.95-.3-3.83l-.05-.27c-.13-.66-.61-1.09-1.46-1.27.02-1.38,1.07-3.98,3.15-7.8.09-.2.16-.86.24-1.96l.11-.16s.21.13.55.41c.17-.25.45-.41.84-.49.58.26,1.13.43,1.64.49,4.29-2.87,7.61-4.89,9.94-6.05,1.76-.77,3.46-1.31,5.12-1.62h0ZM257.46,40.72c.02.12-.05.26-.2.41l-.09-.22s.13-.07.29-.2h0ZM256.89,41.2l.02.14c.02.12-.03.19-.15.21l-.02-.09c-.03-.15.02-.24.14-.26ZM256.88,42.61c.13,0,.2.06.21.15l-.18.03-.04-.18ZM256.53,42.72l.04.23-.23.04c0-.16.06-.25.18-.27ZM253.66,43.41l.27-.05.02.09-.27.05-.02-.09ZM256.12,43.04l.03.18-.55.34c.07-.29.24-.47.51-.52h0ZM260.05,42.29l.09-.02c.02.12-.03.19-.15.21l-.09.02c0-.13.06-.2.15-.21ZM259.54,42.57l.27-.05.02.09-.43.22c-.03-.15.02-.24.14-.26ZM259.09,42.89l.18-.03.02.09-.18.03-.02-.09ZM255.19,43.82l.18-.03.02.09c-.15.03-.37.18-.66.45l-.02-.09c.02-.22.18-.36.48-.42ZM253.58,44.22v.05c.04.18-.01.29-.17.31l-.27.05c-.03-.18.11-.32.44-.41ZM251.28,44.89l.03.18c-.06.01-.2.12-.41.31l-.02-.09c-.02-.12.11-.25.39-.4ZM250.56,45.58l.14-.03v.05s-.13.03-.13.03v-.05ZM258.03,44.22l-.04.52-.5.09-.02-.09c.04-.29.22-.46.55-.53ZM252.73,45.41c-.12.37-.48.85-1.08,1.47-.09.02-.15-.03-.17-.15l-.09-.5c.74-.52,1.19-.79,1.34-.82h0ZM219.55,52.02l.18-.03.03.14-.18.03-.02-.14ZM251.21,46.54l.15.77c-.06.01-.21-.15-.46-.47-.08.08-.19.13-.34.16l.03.18c.03.18.14.25.32.22l-.53.66c-.12-.29-.33-.41-.63-.35-.33.22-.63.35-.91.41.8-.9,1.59-1.42,2.37-1.57h0ZM248.43,47.67c.16,0,.25.08.28.23-.18.03-.25.17-.2.41l-.14.03c-.02-.43,0-.66.06-.67ZM259.13,46.11l.03.18-.36.07-.03-.14c.06-.01.18-.05.35-.11ZM246.9,48.48c.09-.02.29.13.6.45-.18.03-.4.11-.66.22-.03-.15-.07-.28-.12-.4l.18-.27h0ZM249.84,48.16l.18-.03.04.23-.18.03-.04-.23ZM260.06,47.06l.23-.04.02.14-.23.04-.02-.14ZM252.82,48.85l.23-.04.02.09-.23.04-.02-.09ZM241.99,51.19l.04.23.39.07.1-.49-.09.02-.43.18ZM261.8,47.34l.14-.03c.16,0,.24.06.27.18l.02.09-.36.07c-.03-.15-.05-.26-.06-.32ZM256.53,48.67c.57.05.87.07.9.06l.04.23c-.36.07-.96.45-1.8,1.14l.85-1.42ZM257.5,49.09c.16,0,.25.06.27.18l.02.09-.23.04-.06-.32ZM257.33,49.45l.23-.04.02.09-.23.04-.02-.09ZM256.99,49.84c.02.12-.08.25-.3.38l-.03-.18c.06-.01.17-.08.34-.2ZM243.07,52.71l.05.27.18-.03c.06-.01.12-.12.17-.31l-.41.08h0ZM247.45,53.1l.13-.03.03.14-.13.03-.03-.14ZM252.42,52.16l.09-.02.08.41-.54.1c-.02-.09.11-.25.38-.49h0ZM256.78,51.71v.05s.19-.03.19-.03l.1-.21c-.13.12-.23.18-.29.2ZM243.04,56.27l.05.27c.09-.02.16-.12.22-.32l-.27.05ZM246.3,60.85l.04.23-.27.05-.02-.09c.09-.02.17-.08.24-.19ZM278.89.64c.2.21.42.34.68.39.86-.23,1.41-.36,1.65-.41.34,0,.54,0,.6-.02.31-.34.57-.53.78-.57l.14-.03.02.09c.02.09,0,.41-.05.95.06.33.8.69,2.22,1.08.06.3.51.73,1.37,1.29.14.22.94,1.09,2.41,2.59.14.6.23.97.26,1.12.56,6.23-.28,9.55-2.51,9.97-2.82.91-4.55,1.81-5.2,2.71-2.8,2.65-4.83,5.7-6.08,9.15l.14-.03c2.59-1.33,4.75-2.16,6.5-2.49l.9-.17.02.09c-.9.17-3.53,1.93-7.89,5.28l-1.39.82c-.04.29-.04.52,0,.7l.09-.02c1.63-.43,2.42-.82,2.36-1.15l-.02-.09-.27.05-.52-.04-.02-.09c1.63-.31,4.54-1.64,8.74-3.99.9-.51,1.88-.96,2.93-1.35l-.02-.14c-1.45-.23-2.7-.24-3.75-.04-.04-.21.47-.42,1.52-.62l.59-.11c1.93-.21,3.06-.06,3.4.43-.36.07-.8.2-1.33.39l.02.09c.6.04.92.14.94.29l-.63.12.02.09h.75s0,.04,0,.04c-.23.08-.33.2-.3.38l.39-.4c.15.16.25.33.28.51.24-.2.44-.32.59-.35l-1.03-.51.18-.03c.82-.09,1.25-.14,1.28-.15l.02.09c-.1.3-.24.47-.42.5,2.08,1.29,3.44,2.34,4.06,3.16,2.45,3.22,3.94,6.21,4.46,8.98.68,3.61-1.02,8.62-5.11,15.01-.93,1.86-1.63,2.84-2.11,2.93,0-.03.23-.54.69-1.53l-.18.03-.03-.18c.63-.12,1.11-.87,1.45-2.24-1.46,1.52-2.28,2.47-2.45,2.85l.04.23.28.23.02.09c-.84,1-2.7,2.3-5.58,3.91-1.72.98-3.63,1.67-5.74,2.07l-.41.08c-7.29,1.38-12.92-1.34-16.89-8.17-.7-1.21-1.29-3.09-1.77-5.65-1.87-9.88-.2-20.18,5.01-30.89,1.05-2.04,2.08-3.83,3.1-5.36.48-.62.99-1.44,1.55-2.45.29-.12.42-.24.4-.36l-.03-.18-.32.29v-.05c.2-1.38,1.44-3.21,3.73-5.48,1.84-1.66,3.68-2.91,5.51-3.76h0ZM269.49,9.11l.09-.02.02.09c.03.15-.02.24-.14.26l-.23.04c-.02-.09.07-.22.26-.38ZM267.75,11.78l.02.09c-.03.32-.19.5-.46.55-.02-.09.13-.31.44-.64ZM264.49,19.27l.06.32.14-.03-.02-.14c-.02-.12-.08-.17-.17-.15ZM263.76,21.8c.24-.2.34-.44.29-.71-.24.2-.34.44-.29.71ZM262.43,24.95c.01.06,0,.16-.04.29l.09-.02c.15-.03.21-.12.18-.27v-.05s-.24.04-.24.04ZM284.12,28.28l-.23.04-.03-.14.18-.03-.02-.09c-1.06.51-1.68.79-1.86.82l.03.14,1.76-.33c.81-.15,1.31-.48,1.5-.99l-.68.13c-.48.09-.7.24-.66.45ZM280.75,29.53l.03.14.32-.06.65-.26c.08.24.19.34.34.31l.32-.06.43-.18-.05-.27-1.04.2-.04-.23c-.09.02-.41.16-.95.41h0ZM276.9,32.13l.02.09.14-.03c2.08-1.39,3.22-2.11,3.43-2.15l-.04-.23-.09.02c-1.43.71-2.58,1.47-3.45,2.29h0ZM275.98,33.94c.75-.14,2.15-1.14,4.2-3l.23-.04.03.14-1.39,1.06.02.09.09-.02,1.96-1.26-.05-.27c-.02-.12-.11-.17-.26-.14-.89.23-2.52,1.29-4.87,3.17l.05.27h0ZM280.39,30.81l.23-.04.02.09-.23.04-.02-.09ZM272.77,34.78l.02.14.09-.02c.54-.29,1-.47,1.39-.54l.27-.05.02.14-.48.18v.05c.05.24.34.34.86.31.24-.2.36-.35.34-.44l-.02-.09-.18.03.67-.64c-.05-.43.05-.66.29-.71l.2.06-.08-.45c-.02-.12-.1-.17-.21-.15-2.15,1.31-3.22,2.04-3.19,2.19ZM276.5,32.49l.06.32.14-.03.43-.22-.02-.09h-.47s-.14.02-.14.02ZM275.25,33.8l.32-.06v.05s-.85.4-.85.4c.03-.19.2-.32.54-.38h0ZM281.57,33.82l.13.21.02.09c-1.02.19-3.36,1.87-7,5.02-1.31,1.15-2.06,1.75-2.24,1.78l-.02-.09c-.03-.15-.12-.21-.27-.18l.08-1.32c-.87.17-1.17.97-.9,2.42-.11.55-.03,1.88.24,3.98.55,2.89,1.79,4.7,3.74,5.42.77.26,1.57.31,2.42.15l.5-.09c3.07-.58,6.1-2.95,9.09-7.1,1.23-2.26,1.69-4.19,1.39-5.78-.28-1.48-1.39-2.48-3.33-3.02l-.06-.32.14-.03c.21-.04.43-.02.67.06l-.02-.09c-.21-.43-.32-.72-.35-.87-.41.14-.8.31-1.17.5l-.02-.09.4-.83c-1.53.16-2.31.16-2.34-.02l-.1-.54-.98.75h0ZM272.28,36.18c-.07.48-.08.8-.05.95l.14-.03c1.17-.25,1.8-.61,1.9-1.06l-.03-.14c-.22-.02-.88.07-1.96.28h0ZM282.73,34.53l.27-.05.02.09-.27.05-.02-.09ZM281.3,34.9l.18-.03.02.09c-.12.02-1.1.68-2.95,1.96h-.05s0-.04,0-.04c1.72-1.29,2.66-1.95,2.81-1.98ZM283.26,34.62l.77-.15.04.18c-.25-.01-.51,0-.79.06,0,0-.02-.09-.02-.09ZM282.15,35.16l.5-.09c.03.15-.03.24-.18.27l-.27.05-.04-.23ZM289.53,57.11c.22-.14.32-.26.3-.38l-.04-.18-.09.02c-.18.03-.24.22-.18.55Z" style="fill:none;"/><path d="M34.26.39c2.28,0,3.87.78,4.77,2.34,0,.48,1.53,1.89,4.59,4.23,5.1,5.75,8.06,8.87,8.9,9.35,1.44,2.7,2.25,5.21,2.43,7.55,0,.54.12,1.32.36,2.34h.45v-1.71c0-.18-.09-.27-.27-.27.18-.24.27-.42.27-.54h.36c.12.54.18.99.18,1.35h.63v-.18c0-.12-.06-.66-.18-1.62.36-.84.54-1.44.54-1.8,0-.24-.12-.36-.36-.36h-.18l-.63.36h-.18v-.54c0-.3.45-.45,1.35-.45,1.14,1.74,1.95,2.61,2.43,2.61,0,.42-.15,1.35-.45,2.79l.45.18h.54c0-.54.42-.81,1.26-.81.12.66.51,1.26,1.17,1.8-.54.72-.81,1.2-.81,1.44h.45c.24,0,.36-.21.36-.63h.18c.3.06.45.21.45.45v.18l-1.44.99c.3,0,.9.54,1.8,1.62h1.62v.72c.24-.12.42-.18.54-.18.9,2.64,2.1,3.96,3.6,3.96.84.72,1.71,1.08,2.61,1.08.12,0,.93-.15,2.43-.45.12.24.18.51.18.81h.54c0-.24.81-.84,2.43-1.8.6.42.99.63,1.17.63,2.52-.24,5.3-1.38,8.36-3.42,0-.18,1.2-.72,3.6-1.62,8.63-4.92,14.15-7.37,16.54-7.37.36-.36,2.13-1.35,5.31-2.97l.27-.36-.99-.99v-.45h1.53c.72,0,1.86-.06,3.42-.18,0,.72,1.8,1.86,5.39,3.42.6,2.22,1.38,3.33,2.34,3.33l.18.45-.18,1.8c.12,0,.51.78,1.17,2.34.42,0,.63.27.63.81h1.17v.18c-.48.6-.72,1.14-.72,1.62v.18c0,.3.12.45.36.45.24-.18.51-.27.81-.27v.81h.18l.99-.54.45,1.17c-.18,0-.27.06-.27.18l-.36-.18h-.45c-.48,1.62-.72,2.67-.72,3.15.18,0,.36.21.54.63-.9,1.5-1.83,5.22-2.79,11.15-1.08,2.22-3.66,4.95-7.73,8.18-.42.6-.63.99-.63,1.17h-1.17c-.6.84-1.86,1.98-3.78,3.42-2.4,3.66-3.78,5.69-4.14,6.11,0,.3.06.57.18.81-.12.24-.18.45-.18.63,2.64,4.08,5,6.44,7.1,7.1.42.6,1.29,2.19,2.61,4.77.72-.12,1.26-.18,1.62-.18l.54.81c1.38-.42,5.31-1.08,11.78-1.98.66.24.99.45.99.63.6-.3,1.26-.45,1.98-.45,5.51.54,8.51.87,8.99.99,0,.18.24.45.72.81h1.8v-.36c0-.36-.24-.57-.72-.63v-.18h.99c.24,0,.36.12.36.36l-.18,1.44.54.36h.45v-.36l-.45-.63v-.18l1.08-.18c0,.24.51.42,1.53.54v1.26c.36,0,1.02.18,1.98.54l-.18,1.44c.36,0,.63.51.81,1.53,2.28,2.34,4.14,5.45,5.57,9.35h-.36v.63h.18l.36-.18.18.36v.18c-.9,1.56-1.5,2.37-1.8,2.43h-.72v-.18c.78-.66,1.17-1.26,1.17-1.8v-.18h-.18c-.48.9-1.23,1.35-2.25,1.35v-.81h-.81v.45c0,.24.21.36.63.36v1.17l1.17.99h.27v-.54h.54l.63,1.98-.18.36c-.66-.36-1.32-.54-1.98-.54v.18c0,.48.18,1.26.54,2.34,0,1.2-.45,1.8-1.35,1.8-1.32,0-2.52-.78-3.6-2.34l.81-.99v-.45l-1.8-.18-.45.18c-3.42-.6-5.12-1.26-5.12-1.98-.78-.24-1.17-.51-1.17-.81l.36-.54v-.18h-.36c-1.2,0-1.8-.42-1.8-1.26h-2.61c-.18.36-1.83.78-4.95,1.26,0,.12-.09.18-.27.18l-.18-.45c.3,0,.45-.12.45-.36v-.18h-.27c-1.38.24-2.31.36-2.79.36l-.18-.99h.18l.63.36c1.86-.12,2.79-.57,2.79-1.35l1.17.18c2.4-.78,3.6-1.38,3.6-1.8v-.18c-.18,0-.45-.12-.81-.36l.18-.45v-.54c-.48,0-.72-.42-.72-1.26h-1.8c-1.74,0-5.46,1.26-11.15,3.78-.42,0-.96.15-1.62.45v-.45l.36-.54v-.27h-.36c-.54.24-.81.72-.81,1.44v.36c.66.12.99.45.99.99-.9,1.68-1.5,3.21-1.8,4.58.18.24.27.51.27.81-.42,0-.69.66-.81,1.98.3,0,.63.15.99.45-.78,2.7-1.17,4.41-1.17,5.12,0,.12.06.66.18,1.62-1.5,2.94-2.25,4.79-2.25,5.57v.18c.42,0,.63.06.63.18-.66,1.2-.99,2.13-.99,2.79h.36c.84-.78,1.44-1.17,1.8-1.17v.18c0,.96-.27,1.44-.81,1.44-.24-.12-.42-.18-.54-.18-1.32,1.86-1.98,3.12-1.98,3.78l.36.18c.42-.3.81-.45,1.17-.45,0,.18.09.27.27.27-.66,1.92-1.08,3.36-1.26,4.32.18.3.27.51.27.63h.18c.6-1.62,1.05-2.43,1.35-2.43v.27c-2.28,6.11-4.86,11.42-7.73,15.91h.99l.36-.27v.45c0,.24-.39.57-1.17.99l-.36.63v.36h.36c-.48,2.04-.87,3.09-1.17,3.15h-.45v-.54h-.54c-.42.96-.63,1.56-.63,1.8l.99-.81h.45v.54c0,.42-1.02,1.29-3.06,2.61l-.36,1.44c.12,0,.18.06.18.18.6-.3.93-.57.99-.81-.12,0-.18-.06-.18-.18l.45-.18.18.36c-.78,1.68-1.71,2.94-2.79,3.78h-.45l.27-.36c0-1.44-1.8-2.31-5.39-2.61h-.63v.18c.12.42.18.9.18,1.44-.9,0-1.35.51-1.35,1.53h-1.8l-.36-.18.18-.36c0-.6-.33-1.26-.99-1.98l-1.26-1.44c0-.24-.33-.69-.99-1.35v-.27h-.36c-1.32,0-1.98-.72-1.98-2.16-.24,0-.45-.21-.63-.63v-1.8c-1.32,0-1.98-1.05-1.98-3.15l.18-1.35-.81-2.07h.45l.36.27v-4.05l-.18-.99c.42-.12.63-.24.63-.36-.6-1.26-1.41-2.58-2.43-3.96v-.27c0-.36.39-.54,1.17-.54v-.45c0-.18-.18-.36-.54-.54-.3,0-.45.12-.45.36-.54-.18-.81-.36-.81-.54l.27-1.44h.36c.42,0,.63.27.63.81h.36c0-.42.27-.75.81-.99.06.24.18.36.36.36l.27-.36c-.54-1.5-.81-2.37-.81-2.61,1.38,1.32,2.31,1.98,2.79,1.98l.18-.36-.18-.45c.12-.24.18-.42.18-.54-2.28-5.87-4.02-8.81-5.22-8.81-.42-1.92-2.46-5.76-6.11-11.51-.72,0-2.31.54-4.77,1.62l-.81-.45-1.62.81c0-.48-1.05-1.02-3.15-1.62-.78-2.34-1.38-3.51-1.8-3.51h-2.43c-.18,0-.51-.48-.99-1.44.18-.24.27-.51.27-.81-.42-1.32-1.02-2.19-1.8-2.61v-3.51c0-.3.12-.45.36-.45h.18c.24,0,.78,1.59,1.62,4.76.18,0,.45.15.81.45l.18-.45-.18-.36c0-.12.06-.18.18-.18,0-.84-.39-1.65-1.17-2.43.24-.12.42-.18.54-.18,0-.96-.39-1.44-1.17-1.44,0-.12.06-.18.18-.18l-.18-.99v-.18h.45c0,.66.12.99.36.99.12-.24.18-.45.18-.63l.63.45-.18.99c.54.54,1.2,1.59,1.98,3.15h1.17c-1.44-1.86-2.16-3.63-2.16-5.31l.36-3.24h.36c0,.18.6,2.52,1.8,7.01.06.24.21.36.45.36h.18v-.18c0-.48-.12-1.62-.36-3.42.66-.18.99-.36.99-.54v-.63l-.99-1.17.54-.45-.18-.36v-.81h1.17c0,.78.87,1.38,2.61,1.8,0,.3.6.48,1.8.54,6.29-1.02,15.97-3.27,29.04-6.74,0-.12.06-.18.18-.18-.24-.42-.36-.81-.36-1.17h.36v-.18c0-.3-.51-.51-1.53-.63,0-.3-.21-.78-.63-1.44.54-.18.81-.36.81-.54-1.08,0-2.22-2.4-3.42-7.19-.12,0-.24-.33-.36-.99.54-4.5,1.05-8.21,1.53-11.15l4.86-7.19v-.54h-.45c-5.45,3.72-9.95,5.57-13.49,5.57,0-.3-.6-.51-1.8-.63-.12.24-.18.57-.18.99h-.27c-.24,0-.36-.27-.36-.81h-.99l-.63-.36c-.36.12-.54.24-.54.36l-2.07-.18h-.99c-2.58-.9-4.44-2.22-5.57-3.96,0-.12-.33-.18-.99-.18,0-.84.42-1.26,1.26-1.26v-.18c0-.18-.42-.36-1.26-.54l.45-1.44-.45-.18c-.72.12-1.23.18-1.53.18l-.45-.81c.12-.24.18-.42.18-.54h.27l.72.54.27-.36v-.63c-1.32-.24-2.13-.36-2.43-.36,0,.24-.12.36-.36.36-.06-.9-1.47-2.49-4.23-4.77l-2.61-6.74c-.72-.72-1.5-1.92-2.34-3.6-.42,0-.63-.06-.63-.18.54-1.08.81-1.95.81-2.61l-1.35.18c-.18-.66-.39-.99-.63-.99h-.18c-.3,0-.51.33-.63.99.12.72.18,1.11.18,1.17-.36.96-1.14,1.89-2.34,2.79v.45h.36v.18c-1.02,2.4-1.53,3.93-1.53,4.59h-.27c-.24,0-.36-.33-.36-.99h-.45c0,.66-.66,1.86-1.98,3.6v.99l.63.81v.18c-.48.6-.87,1.2-1.17,1.8l.18.81c-.24,1.26-.84,2.31-1.8,3.15,0,.96-.33,1.44-.99,1.44v.18c0,.54.99.99,2.97,1.35l-.36.63h1.17c0-.42.12-.63.36-.63h.63c.24,0,.36.27.36.81h.63c0-.66.48-.99,1.44-.99h2.34c.12,0,.18-.06.18-.18,2.94,0,4.41.6,4.41,1.8h.18l.81-.63h.18l.45.18-.18.45.18.36.36-.18h.45v.36c-.66,0-1.14.15-1.44.45l-.18-.45-2.43.27h-.54l-.63-.45h-.36c-.96.96-1.71,1.44-2.25,1.44h-.18v-.63h-.99v.36l.18.45c-.66,0-1.26.27-1.8.81h-.18l.18-.99v-.27h-.18c-.18,0-.57.42-1.17,1.26v1.17h.54c0-.18.15-.45.45-.81l2.61,1.17c2.76.54,4.14,1.14,4.14,1.8-.12,0-.18.09-.18.27l-1.44-.27h-.54v.45c0,.24.39.36,1.17.36v.63l-.99.18.18.99h-.81l-1.35.18v-.54h-.45l-.72.81-1.44-.27c-.54.24-.81.45-.81.63v.36c1.5,1.02,2.76,3.75,3.78,8.18l.45.18h.18l.18-.99v-.54c0-2.22-.45-4.29-1.35-6.2v-.18l.36.18h.45v-.81c2.88,2.94,4.32,6.92,4.32,11.96,0,.66-.27,2.04-.81,4.14.3,0,.45.21.45.63-1.5,2.94-2.49,4.68-2.97,5.22l.18.99c-.06,0-.87.99-2.43,2.97v.36h.63v.63c-.42,0-.81.33-1.17.99v.18l.36.63v.54c-1.26,0-2.25,1.14-2.97,3.42v.18l.36.63v.18c-.66.3-.99.63-.99.99l-1.98,2.43c.18,0,.39.18.63.54v.27c-.9,0-1.38.18-1.44.54v.63c.54.06.81.24.81.54l-.36.27-.63-.45c-.12,0-.51.42-1.17,1.26,0,.54.06,1.26.18,2.16v.18h-.18l-.18-.99h-1.62c-.18,0-.39.21-.63.63v.36h1.17v.63c0,.18-.39.36-1.17.54,0,.24-.18.45-.54.63-.3,0-.45-.21-.45-.63-.96.66-2.55,2.73-4.77,6.2v.36c0,.24.39.57,1.17.99l1.44-.36v.18c-.12.24-.18.51-.18.81,0,.12,2.19,1.44,6.56,3.96h.54c-.24-2.16-.42-4.2-.54-6.11h.36c0,.6.48,1.59,1.44,2.97.84,3.6,1.5,5.4,1.98,5.4h.36v-.27c0-.36-.21-1.68-.63-3.96v-.18h.27l.54,1.44.45-.27h.18v.63h-.45c0,1.32.42,2.1,1.26,2.34.36,1.2.69,1.8.99,1.8h.18v-1.8l-.18-.99.36-.18c1.62,4.08,2.82,6.26,3.6,6.56h.63l.18-1.17h.36v.63c0,1.14.42,1.98,1.26,2.52-.18.3-.27.51-.27.63l.45.18h.36v-.36h.45c1.2.96,2.13,2.07,2.79,3.33.3,0,1.23.93,2.79,2.79,0,.06-.09.33-.27.81l.63,1.26c-.78,0-1.32.33-1.62.99h-.18c-.3-.96-.63-1.44-.99-1.44-.6.54-1.05.81-1.35.81-.54,0-2.07-.93-4.59-2.79-.84,0-1.26-.39-1.26-1.17h-.72v.54c.66,1.74,1.65,2.82,2.97,3.24,1.02,1.02,2.4,3,4.14,5.93l-.18.99h-.18c-.48,0-1.02-.27-1.62-.81h-.63v.27c.42.84.9,1.56,1.44,2.16v1.17c-.42,0-.96.27-1.62.81l-.81.18c-.66,0-1.77-.51-3.33-1.53-.6,0-1.2-.54-1.8-1.62-1.14,0-2.28-1.08-3.42-3.24l-.36-.18-.45.18c-.72-.36-1.29-.54-1.71-.54,0,.12-.09.18-.27.18-.12-.24-.18-.45-.18-.63l.63-.99v-.36h-.63c-.3.24-.51.36-.63.36h-.18c-.18,0-.96-1.65-2.34-4.95-2.1-2.4-3.36-3.6-3.78-3.6h-.27l-.36.18c-.18-.54-.39-.81-.63-.81h-.18l-.81.63-4.95-4.14h-.81c-1.2.24-1.8.57-1.8.99v.18c.42,0,.63.12.63.36,0,.3-.15.45-.45.45l-.72-.45-.99.27-.27-.45v-.36c.36,0,.84-.27,1.44-.81-.24-.54-.45-.81-.63-.81h-.18c-.66.66-1.98,1.92-3.96,3.78v.18h.18l1.98-.18-.36.63v.36h.36v.18c0,.3-.12.45-.36.45h-.63c0-.42-.21-.63-.63-.63,0,.18-.18.39-.54.63h-.27v-.63h-.18c-.24.06-.51.39-.81.99l.45.18c.24-.12.42-.18.54-.18-.48.54-.72,1.02-.72,1.44l-.81-.27c-.06,0-1.38,1.02-3.96,3.06-.3,0-.51.27-.63.81-2.22,1.14-3.48,1.71-3.78,1.71,0-.3-.54-.54-1.62-.72l-.36.18c-.66-.18-.99-.39-.99-.63v-.18h.72c0-.42-1.71-.96-5.12-1.62,0-.36-.48-.54-1.44-.54v-.45c0-.18.21-.36.63-.54h1.17v-.27c-.12-.36-.51-.54-1.17-.54h-.81c-1.02,0-2.28.06-3.78.18-.24-.12-.42-.18-.54-.18v-.45c1.68,0,4.59-.45,8.72-1.35h3.15v-.63c0-.84-.99-1.44-2.97-1.8-.96,0-1.5-.18-1.62-.54h.45v-.45h-1.98c-.3,0-.45-.12-.45-.36.24,0,.57-.15.99-.45-.18-.54-.36-.81-.54-.81l-.63.45h-.36v-.45c0-.06.78-.45,2.34-1.17,1.14.12,2.01.18,2.61.18,7.97-1.2,11.96-2.91,11.96-5.12v-.45c-1.2,0-2.52-.57-3.96-1.71h-.27c-.3.24-.57.36-.81.36-.18,0-1.62-.66-4.32-1.98h-.18c-.24.54-.45.81-.63.81h-.18v-1.26c0-.24-.15-.36-.45-.36-1.2.24-1.8.45-1.8.63-.48-.24-.72-.45-.72-.63v-.18l1.35-.18h.81v-.27c0-.24-.15-.36-.45-.36h-1.98l-.81-1.62c-.36-2.22-.87-3.33-1.53-3.33l.18-.99-.18-.81h-.45v.36h-.54v-.18l.54-.99c-.12,0-.18-.06-.18-.18-.18,0-.78.45-1.8,1.35-2.76-1.14-4.14-2.61-4.14-4.4.12-.66.3-.99.54-.99h.27v.99h.54c0-.36,1.08-1.8,3.24-4.32.66-2.58,2.76-7.04,6.29-13.4,1.08-3.78,2.76-8.33,5.04-13.67h-.99c-.06,0-.48.39-1.26,1.17,0-.24-.12-.36-.36-.36h-.36c-.84.84-2.46,1.56-4.86,2.16-1.08,1.08-1.92,1.62-2.52,1.62-1.02-.42-1.89-1.08-2.61-1.98-.66.36-1.32.54-1.98.54-1.98-1.62-2.97-3-2.97-4.14-1.26,0-2.79-1.47-4.59-4.41-.54-1.14-.81-1.86-.81-2.16,0-.18.06-.84.18-1.98h-.36c0,.48-.15.72-.45.72h-.18v-.54c.72-.9,1.11-1.38,1.17-1.44.42.3.75.45.99.45v-.18c-.12-.9-.18-1.65-.18-2.25l.45-.18c.6.54.93.81.99.81h.18v-1.98h.36c1.5,1.38,2.25,2.7,2.25,3.96.48.24.99.36,1.53.36h.45v-.54c-1.32-.24-1.98-1.17-1.98-2.79.36-.12.54-.27.54-.45.3,0,.72.54,1.26,1.62.72.78,1.44,1.17,2.16,1.17.24,0,1.44-.12,3.6-.36-.3.54-.72.81-1.26.81v.54c.6,0,2.22-.33,4.86-.99.24.18.42.27.54.27l-.18-.45c.12,0,.18-.06.18-.18l1.8.36c1.8-1.32,2.94-1.98,3.42-1.98h.18c-1.32.96-1.98,1.5-1.98,1.62v.36c5.16-.84,7.73-1.95,7.73-3.33l1.44-3.78h.18c.24.66.36,1.05.36,1.17.48,0,1.02-.27,1.62-.81v.18l-.18.45.18.81c-.42,1.14-.81,1.71-1.17,1.71v.27c.3,0,.54.06.72.18,1.08-1.26,2.37-5.04,3.87-11.33,1.8-8.45,2.7-14.3,2.7-17.53v-2.16l-.18-.99h-.36v2.34c0,1.98-.27,3.45-.81,4.41h.18c0,1.44-.39,2.16-1.17,2.16l-.81,1.44v.36c.42,0,.63.15.63.45-.66.12-.99.3-.99.54v.99h.99c0,.06-.42.48-1.26,1.26.12,1.32.27,1.98.45,1.98h.18v.36c0,.36-.66,1.41-1.98,3.15l-.63,2.07c.54.06.81.24.81.54-.54.66-1.2,1.92-1.98,3.78.12.3.18.51.18.63l-1.17.99v-.18c2.52-8.99,3.78-15.17,3.78-18.52l-.18-1.17c1.56-7.19,2.34-13.04,2.34-17.53v-3.6c0-.9-1.59-4.2-4.77-9.89l-.54-3.42c.24-.12.42-.18.54-.18.84.54,1.44.81,1.8.81V.75c.06-.24.21-.36.45-.36ZM47.74,9.92c.18,0,.39.21.63.63h-.27c-.24,0-.36-.15-.36-.45v-.18ZM54.94,18.91c.6.24.93.48.99.72,0,.3-.15.45-.45.45-.24,0-.42-.39-.54-1.17ZM110.59,22.69v.18c.06.24.21.36.45.36,1.02-.54,1.53-1.05,1.53-1.53h-.72c-.84.42-1.26.75-1.26.99ZM112.39,23.68v.18h.18c1.38-.18,2.07-.45,2.07-.81-.3,0-.45-.21-.45-.63h-.36c-.96.66-1.44,1.08-1.44,1.26ZM58.71,23.23v.81h.54v-.81h-.54ZM126.96,28.8h.18v.99h-.63v-.54c.06-.3.21-.45.45-.45h0ZM128.31,29.61c.3.12.51.18.63.18v.45c0,.24-.15.36-.45.36-.12-.18-.18-.51-.18-.99ZM105.29,52.27v.45h.36c.54-.3.93-.72,1.17-1.26v-.36h-.36c-.18,0-.57.39-1.17,1.17ZM53.5,54.88v.18h.81v-.18h-.81ZM69.05,55.5h.36c.3,0,.45.18.45.54-.3.84-.57,1.26-.81,1.26,0,0,0-1.8,0-1.8ZM54.49,58.65c0-.12-.06-.18-.18-.18v.36c.18,0,.45.15.81.45h.18c.78,0,1.17-.54,1.17-1.62h-.18c-.66.24-1.26.57-1.8.99ZM60.06,63.06v.18c.12,0,.54.06,1.26.18l.18-.36-.45-.18s-.99.18-.99.18ZM52.96,64.41l-.99-.18-2.79,1.44c-.54.06-.81.24-.81.54v.18l.18,1.44c-.66,0-1.2,1.2-1.62,3.6l-1.35,1.98.18.36-.18.81c.12.24.18.51.18.81-.54,0-.87.81-.99,2.43-.42,0-.96,1.11-1.62,3.33-.54,0-2.07,3-4.59,8.99-.66,2.88-1.38,4.32-2.16,4.32l.18.81c-1.14,2.52-2.94,5.63-5.39,9.35-.24.6-.36.93-.36.99l.18.45c-.24.9-.84,1.89-1.8,2.97,0,.18,1.53.78,4.59,1.8,2.88,1.56,4.53,2.34,4.95,2.34.78-.96,3.84-6.98,9.17-18.07,5.45-10.43,8.18-16.93,8.18-19.51v-1.8c0-.66-.39-1.77-1.17-3.33.18-.96.45-1.44.81-1.44-.54-.78-.81-1.23-.81-1.35.12-1.74.63-2.61,1.53-2.61v-.36c0-.3-.12-.45-.36-.45h-.18c-.84.78-1.59,1.17-2.25,1.17,0-.12-.24-.18-.72-.18v-.54c.9,0,1.41-.27,1.53-.81-.24-.18-.42-.27-.54-.27l-.99.81h0ZM112.84,64.05h.18c0,.24-.15.36-.45.36h-.18c.06-.24.21-.36.45-.36ZM60.69,64.41v.63h-.45v-.18c.06-.3.21-.45.45-.45ZM5.21,65.84v.54h.54v-.54h-.54ZM8.99,66.83v.18h2.52v-.36l-1.35-.27h-.81c-.24.06-.36.21-.36.45ZM2.79,67.19l-.18.45c.6,1.14,1.11,1.74,1.53,1.8v-.27c-.3-1.32-.75-1.98-1.35-1.98ZM101.51,70.43v3.15l.36,1.44h.18v-.45c-.12-1.68-.18-2.61-.18-2.79l.18-1.35s-.54,0-.54,0ZM27.69,73.58c.12.3.18.51.18.63h.18c.3,0,.51-.48.63-1.44l-.45-.18c-.3,0-.48.33-.54.99ZM26.7,75.56v.18l.18.99c-.12,0-.54.6-1.26,1.8l.27.99c.54,0,.99-1.32,1.35-3.96h-.54ZM103.85,77.53l-.18.45.36.18h.18v-.18c0-.3-.12-.45-.36-.45ZM22.12,77.8v.54c-.84.3-1.38.45-1.62.45.6-.66,1.14-.99,1.62-.99ZM142.69,79.51h1.17c.78.12,1.17.33,1.17.63-.66.3-1.11.45-1.35.45l-.99-.81v-.27ZM23.92,82.3l.36.27h.36l.45-1.44h-.18c-.66.18-.99.57-.99,1.17ZM22.66,82.3v.27c.06.24.21.36.45.36l.18-.36v-.27h-.63ZM23.65,82.93v.63h.63v-.63h-.63ZM131.09,83.11v.27l.18.36-.36.18h-.36c-2.28,0-3.42.27-3.42.81v.18h.18c1.8-.24,3-.36,3.6-.36,1.92,0,4.44.39,7.55,1.17h.18c.6-.78,1.08-1.17,1.44-1.17l.18-.45v-.36c-2.1-.18-3.15-.39-3.15-.63l-.99.63c-.84-.54-2.31-.81-4.41-.81-.3.12-.51.18-.63.18h0ZM22.3,83.56v.36h.54c0-.12.09-.3.27-.54l-.45-.27c-.24.06-.36.21-.36.45ZM22.3,85.54l-1.17-.18c-.78,1.38-1.26,2.91-1.44,4.59-.9,1.02-1.44,2.01-1.62,2.97-.66.06-.99.39-.99.99l.27.36c-.54,1.2-1.29,2.4-2.25,3.6v1.17c-.54,0-.99.81-1.35,2.43-.24,0-.72.93-1.44,2.79l.18.36c-.48,1.5-.72,2.43-.72,2.79v.18c1.2-1.08,2.97-3.72,5.3-7.91,4.56-8.63,6.83-13.61,6.83-14.93-.18,0-.27-.06-.27-.18-.12,0-.57.33-1.35.99ZM124.98,86.34v.36h.99l.99-.18v-.63l-.99-.18h-.45c-.18,0-.36.21-.54.63ZM130.73,86.34c-.3-.18-.51-.27-.63-.27h-1.17v-.18h-.99c-.3.06-.45.21-.45.45v.36h.99l.45-.18c0,.24.12.36.36.36h1.44l2.34.27v-.45l-.18-.36.45-.27c0,.24.33.45.99.63l-.27.45v.36h.27c.6,0,1.38-.39,2.34-1.17,0-.42-.87-.63-2.61-.63h-1.17c-.3.24-1.02.45-2.16.63h0ZM104.03,86.7c.12,0,.18.06.18.18.3-.12.51-.18.63-.18v-.36h-.36c-.3,0-.45.12-.45.36ZM122.73,86.7v.18h.18c.3,0,.45-.12.45-.36v-.18h-.18c-.3,0-.45.12-.45.36ZM140.08,86.7v.18h.36v-.54c-.24,0-.36.12-.36.36ZM22.3,86.52h.36c0,.18-.33.51-.99.99-.24,0-.36-.12-.36-.36l.99-.63ZM121.2,86.7v.45h.54v-.45h-.54ZM137.3,88.5v.18h.18c.6-.24.93-.51.99-.81v-.18h-.18c-.6.3-.93.57-.99.81ZM121.92,91.92c.66.18.99.78.99,1.8-.24,0-.36.12-.36.36v.36c.78,0,1.32.33,1.62.99,6.11-2.88,9.5-4.32,10.16-4.32l.18-.45v-.36c-1.32-.12-2.31-.18-2.97-.18h-.45c-.24,0-.36-.15-.36-.45,1.2-.24,1.8-.51,1.8-.81v-.18l-1.8.18-1.17-.18c-.18.3-.27.51-.27.63-.24,0-.84-.21-1.8-.63-2.76.6-4.46,1.08-5.12,1.44-.3.84-.45,1.44-.45,1.8ZM134.69,88.68v.45h.63v-.45h-.63ZM101.24,90.93v.18c.54,0,.81.18.81.54h.81c.72,0,1.11-.18,1.17-.54v-.18h-.36l-1.17.18h-.27v-.18c1.8-.66,2.73-.99,2.79-.99h.27c0,.12-.09.18-.27.18.18.24.27.42.27.54h.54c.3-.06.57-.39.81-.99-.18-.54-.39-.81-.63-.81h-.54c-2.16,1.08-3.48,1.62-3.96,1.62,0,0-.27.45-.27.45ZM107.63,88.86l-.18,1.08.99.18c.12-.3.18-.51.18-.63-.12-.24-.18-.45-.18-.63,0,0-.81,0-.81,0ZM20.86,89.49h.27v.18c0,.3-.15.45-.45.45h-.18v-.18c0-.3.12-.45.36-.45ZM100.25,90.48c0,.12-.33.45-.99.99l-.36-.18h-.45c0,.24-.06.36-.18.36l.45.81c-.18,0-.27.09-.27.27h.63c.24,0,.36-.15.36-.45-.12-.24-.18-.51-.18-.81.96,0,1.44-.18,1.44-.54,0-.3-.15-.45-.45-.45ZM143.23,91.11v.18c.06.24.21.36.45.36s.36-.12.36-.36l-.36-.18h-.45ZM148.81,91.11v.18c0,1.2.48,2.25,1.44,3.15.24,0,.36-.12.36-.36v-.81c0-.24-.12-.36-.36-.36l-.45.18c-.24-.54-.36-.93-.36-1.17.12-.3.18-.51.18-.63l-.36-.18h-.45,0ZM107,92.73h-.54v-.63c-.72,0-2.13.78-4.23,2.34-13.55,5.46-20.44,9.38-20.68,11.78,3.12,5.51,7.91,11.54,14.39,18.07,3,1.74,4.98,2.61,5.93,2.61.66,0,1.86-3.24,3.6-9.71v-.27l-.63.45h-.36c-.3,0-.45-.33-.45-.99h-.54c0,.54-.27.93-.81,1.17h-.18c0-1.26.33-2.19.99-2.79-.18-.24-.27-.45-.27-.63.6-.24.93-.48.99-.72v-.27c0-.12-.06-.18-.18-.18,1.2-2.16,2.13-5.21,2.79-9.17l1.98-11.06c-.12-.24-.18-.51-.18-.81h-.36l-1.26.81h0ZM18.88,93.9h.18c0,.18-.24.45-.72.81v-.27c0-.18.18-.36.54-.54ZM17.53,95.43c.54.24.81.45.81.63l-.63.45h-.63l.45-1.08h0ZM131.54,96.5h.72v.18h-.72v-.18ZM127.77,97.67h.54v.36h-.18c-.24,0-.36-.12-.36-.36ZM125.34,97.85c.24.12.45.18.63.18v.45c0,.3-.75.63-2.25.99,0,0,1.62-1.62,1.62-1.62ZM129.56,98.84h.36v.45l-1.44.18v-.45l1.08-.18ZM64.47,99.65v.18c.24.54.69.81,1.35.81v-.63c-.18,0-.42-.12-.72-.36h-.63ZM62.67,99.65h.36l-.18.36.63.81v.45h-.18c-.42-.18-.63-.6-.63-1.26,0,0,0-.36,0-.36ZM126.96,100.01v.63l-.81.18-.18-.36c.42-.3.75-.45.99-.45ZM147.82,100.82v.81h.81c.24,0,.36-.12.36-.36v-.27c0-.24-.18-.36-.54-.36-.3.12-.51.18-.63.18h0ZM14.3,109l.45.18c1.2-.24,1.8-.84,1.8-1.8v-.36c-.3,0-.45-.06-.45-.18-.6,0-1.2.72-1.8,2.16ZM10.52,108.19v.63c.24,1.2.84,1.8,1.8,1.8l.18-.45v-.18l-.36-1.35h-.18l-.45.18c0-.3-.33-.51-.99-.63ZM52.51,108.19l.63,2.61c-.12.24-.18.45-.18.63h-.27c-.12-1.56-.3-2.58-.54-3.06l.36-.18ZM16.72,109v.36h.81c.18,0,.36-.18.54-.54v-.18h-.99c-.24,0-.36.12-.36.36h0ZM27.06,111.97v.18c3.48,2.76,6.47,4.44,8.99,5.04.36,0,.69-.6.99-1.8-4.8-2.28-8.06-3.42-9.8-3.42h-.18,0ZM57.72,113.14c.24,0,.42.42.54,1.26l-.36.18-.18-.45v-.99ZM81.19,113.59h.36l.18.99v.18c-.36-.12-.54-.51-.54-1.17h0ZM47.11,114.76h.45v.45h-.81c.06-.3.18-.45.36-.45ZM104.21,115.21v.54h.63v-.54h-.63ZM57.9,115.21h.18c.3,0,.57.93.81,2.79-.42,0-.75-.93-.99-2.79ZM83.17,116.38h.18c.54.18,1.02.96,1.44,2.34h-.27l.27.45v.36h-.45l-1.17-2.97v-.18ZM41.54,121.14v.63c0,.18.21.36.63.54h.18v-.81h1.98v.45l-.54.81v.54c3.24,1.8,6.68,4.2,10.34,7.19h.36c0-3.96-.72-5.93-2.16-5.93-3.12-2.58-5.24-3.93-6.38-4.05-.36.18-.54.33-.54.45l-1.08-.18-1.35.18c0-.3-.12-.45-.36-.45h-.45c-.18,0-.39.21-.63.63h0ZM42.98,122.49h.18c.3,0,.45-.12.45-.36h-.27c-.24.06-.36.18-.36.36ZM119.13,122.13h.27v.99c0,.18-.21.39-.63.63l-.18-.45c.06-.78.24-1.17.54-1.17h0ZM118.42,124.11h.36v.18c0,.24-.21.45-.63.63h-.18v-.36c.06-.3.21-.45.45-.45h0ZM88.56,124.74h.36c0,.18.15.45.45.81v.18h-.27c-.18,0-.36-.21-.54-.63v-.36ZM85.15,127.35h.81v.72h-.18c-.24,0-.45-.24-.63-.72ZM37.04,128.06v.63h.18c.24,0,.36-.12.36-.36v-.27h-.54ZM57.09,129.05v.45c.3,1.56.57,2.34.81,2.34h.18v-1.53c0-.84-.33-1.26-.99-1.26ZM87.94,129.68v.45c.06.24.18.36.36.36v-.36c0-.3-.12-.45-.36-.45ZM13.49,130.49h.81v.18c-.3,0-.57.06-.81.18v-.36ZM13.49,131.12h.27v.36h-.63c.06-.24.18-.36.36-.36ZM35.25,131.66h.54v.63h-.54v-.63ZM26.7,136.25v.63h.72v-.63h-.72ZM23.92,139.48h.72v-.45h-.36c-.24.06-.36.21-.36.45ZM50.35,139.03c.18,0,.63.48,1.35,1.44h-.54c-.36,0-.63-.48-.81-1.44ZM73.82,139.03c.24.06.36.21.36.45v.36c-.24,0-.36-.12-.36-.36v-.45ZM54.76,143.98h.18c.24.06.36.21.36.45v.18h-.18c-.24,0-.36-.12-.36-.36v-.27ZM54.76,145.6h.54v1.62h-.18c-.18,0-.45-.27-.81-.81v-.36c.06-.3.21-.45.45-.45ZM90.54,148.56v.45c0,.24.12.36.36.36h.45v-.81h-.81ZM101.06,153.96v.36h.63v-.36h-.63ZM91.71,154.95h.45c1.02.54,1.68,1.08,1.98,1.62l-.45.18c-.9,0-1.56-.6-1.98-1.8h0ZM101.06,155.76v.18l-.36.63c-.3-.12-.51-.18-.63-.18v-.45l.99-.18ZM94.32,158.9h.18c.24.06.36.21.36.45v.18h-.18c-.24,0-.36-.12-.36-.36v-.27h0Z" style="fill:#fff;"/><path d="M175.75,68.93h.28c1.77,0,4.46,3.22,8.05,9.66,0,.47,1.26,2.31,3.78,5.53l.28.98c0,.93-1.1,3.03-3.29,6.3-.09.61-.14,1-.14,1.19.33.61.49,1.07.49,1.4-1.21,1.96-2.22,4.67-3.01,8.12l-.77,4.34,1.05-1.33v.14c-.09,1.31-.49,1.96-1.19,1.96v.14c.09,0,.14.05.14.14.33-.19.58-.28.77-.28-.33.7-.56,1.45-.7,2.24.14.23.21.37.21.42,0,.09-.3.77-.91,2.03.42,0,.63.09.63.28-.14.42-.35.84-.63,1.26v.21c0,.14.16.3.49.49,7-5.74,10.5-9.82,10.5-12.25-1.03-1.77-1.54-4.15-1.54-7.14,0-1.31.16-1.96.49-1.96h.14c.28,1.03,2.33,2.94,6.16,5.74,1.45.89,3.55,3.03,6.3,6.44,0,1.45-.63,2.17-1.89,2.17-1.59,1.77-2.87,2.66-3.85,2.66v-.35h-.14l-.56.42c0-.14-.12-.21-.35-.21-4.67,4.53-7.51,6.79-8.54,6.79-.89.93-2.08,1.75-3.57,2.45v.28c2.47,3.64,5.06,5.46,7.77,5.46.23,0,.58.44,1.05,1.33l.28.21h1.68c.28.56.89,1.31,1.82,2.24.19-.09.37-.14.56-.14,0,1.31,1.28,3.13,3.85,5.46-.05,2.05-.28,3.08-.7,3.08-.37,0-1.66-1.1-3.85-3.29h-.14c-1.03.09-1.54.28-1.54.56,1.91,1.87,2.87,3.13,2.87,3.78-.33,0-.84.26-1.54.77-.23,0-.98-.4-2.24-1.19h-.28c0,.23-.4.4-1.19.49,0-.09-.21-.26-.63-.49h-.14v.28l.14.21h-.14c-.51-.33-.82-.49-.91-.49l-3.71,1.61v-.07c0-.23.35-.47,1.05-.7v-.14h-.49c-3.69,2.52-5.58,3.78-5.67,3.78v-.21c3.13-1.96,5.37-3.64,6.72-5.04h-.14c0,.09-1.31.86-3.92,2.31v-.21c0-.09.96-.96,2.87-2.59h-.14c-.19.14-.35.21-.49.21l.35-.63h-.49c0,.56-1.1,1.4-3.29,2.52l1.75-1.89h-.07c-.75.33-1.21.49-1.4.49.75-.98,1.21-1.66,1.4-2.03-.51,0-.84-.21-.98-.63.28-.23.51-.35.7-.35l-.77-.98v-.21l.07-.28h-.07l-.98.14c-1.54-1.49-3.17-2.73-4.9-3.71-.47.23-.72.44-.77.63v.98h-.35v.49l-.07,1.05h.28c0-.28.12-.79.35-1.54h.21c-.37,3.64-1.1,7.86-2.17,12.67-.09.84-.14,1.59-.14,2.24v.91c0,2.33.89,3.92,2.66,4.76,1.4.42,2.8.63,4.2.63h2.59c2.89,0,7.58-.44,14.07-1.33v.14l-.28.49v.21c.98-.65,1.47-1.19,1.47-1.61l.77.28c0-.09.26-.33.77-.7l.35,1.05c1.45-.98,3.03-3.48,4.76-7.49,0-1.03.44-2.26,1.33-3.71,1.12-4.43,1.68-6.95,1.68-7.56v-.98l-.21-.28c.56,0,1.07-3.34,1.54-10.01.28-1.12.42-2.08.42-2.87v-1.4c0-2.47-.07-6.23-.21-11.27v-.7h.14c0,.89.07,1.33.21,1.33,0-.09.05-.58.14-1.47.23.05.35.14.35.28v1.19c0,1.45.14,2.54.42,3.29-.05.56-.07.98-.07,1.26v.7h.07c0-.7.09-1.05.28-1.05,0,1.03.26,1.68.77,1.96-.05-.65-.14-.98-.28-.98l.21-.35-.7-3.78v-.14h.14c.05.37.26.7.63.98l-.07-.35v-2.17h.07c0,1.68.4,3.1,1.19,4.27v.49h.35v-.84c.28,0,.63.96,1.05,2.87.42.51.65.77.7.77l-1.4-6.79v-.14h.07l.63,2.24h.14v-.28c-.23-.75-.35-1.19-.35-1.33v-.14h.21c1.49,3.31,2.24,6.04,2.24,8.19.09,0,.26.4.49,1.19h.07v-.07c-.65-6.53-1.31-10.24-1.96-11.13v-.63h.7c-.47-2.47-.86-4.69-1.19-6.65.19.09.98,1.61,2.38,4.55.7.14,1.05.35,1.05.63v.07c0,.37-.07.65-.21.84,2.33,8.91,3.5,14.98,3.5,18.2.51,2.8,1.1,9.33,1.75,19.6-.14,4.25-.21,6.95-.21,8.12,0,2.05.44,3.5,1.33,4.34.14,0,.61-1.87,1.4-5.6h.21v.21c-.47,2.66-.7,4.41-.7,5.25v.14c.65,2.52.98,3.99.98,4.41-.09.33-.33.84-.7,1.54.28.42.42.7.42.84l1.05-.63v.14l-.42,2.59v.14h.14l.14-.56h.14c0,.37.09.56.28.56-.19.89-.28,1.54-.28,1.96v2.1c-.42,0-1.26.89-2.52,2.66-.47.51-1.42,1.03-2.87,1.54-1.21,1.63-2.52,2.45-3.92,2.45-.42.28-.84.61-1.26.98l-.49-.07c-.75.14-1.49.21-2.24.21-8.68-1.4-13.11-2.1-13.3-2.1l-.14-.77h-.56v.21c.09.19.14.35.14.49h-.14l-.63-.21c0-.19.14-.28.42-.28v-.21h-.35c-.7.05-1.47.3-2.31.77-.09-.19-.14-.33-.14-.42-1.03.09-1.77.14-2.24.14h-.21v-.14l.77-.63h-1.47v-.07l.21-.35h-.21c-4.01-.09-6.93-.14-8.75-.14v-.35c.28,0,.68-.05,1.19-.14v-.07c-1.31-.23-2.73-.4-4.27-.49v.49c-3.17-.65-5.83-1.68-7.98-3.08-2.29-1.07-4.95-3.22-7.98-6.44-1.35-1.45-2.61-3.85-3.78-7.21-.79-2.71-1.19-5.02-1.19-6.93,0-1.12,1.17-5.18,3.5-12.18,2.1-9.15,4.69-22.54,7.77-40.18.79-3.03,1.19-5.04,1.19-6.02v-1.47c0-1.87-1.19-5.11-3.57-9.73-.75-1.68-1.12-3.15-1.12-4.41v-.14c.23,0,.35-.07.35-.21,1.59.65,4.13,3.27,7.63,7.84.65,1.31,1.07,1.96,1.26,1.96v-.56l-4.55-11.27v-.21l.35.21v-.21c-.09-.14-.14-.28-.14-.42h0ZM144.6,76.49c5.09,2.38,8.89,6.07,11.41,11.06,3.13,3.73,4.69,6.93,4.69,9.59-.28,2.71-.89,4.06-1.82,4.06-.7,3.13-1.05,5.62-1.05,7.49v.35c0,.79.05,1.84.14,3.15-.33.84-.49,1.68-.49,2.52l.21.63c-.61,1.07-1.31,3.87-2.1,8.4h-.14c0,.33.05.56.14.7-.47,1.91-.7,3.2-.7,3.85v.7c0,5.23-.63,10.48-1.89,15.75v1.19c0,.28.07.49.21.63,0,2.47-1.87,5.93-5.6,10.36,0,1.26-1.84,3.76-5.53,7.49,0,.19-1.31,1.75-3.92,4.69-2.19,3.03-3.29,4.78-3.29,5.25-.56-.47-.96-.7-1.19-.7h-1.47c-1.68-1.87-2.52-3.2-2.52-3.99v-.42c.65,0,1.52-.65,2.59-1.96v-.14h-.28c.14-.19.21-.33.21-.42h.42l-.21.28.63-.28c.23.09.4.14.49.14l-.63.63h.28l.7-.49c0-.37-.16-.56-.49-.56.19-.65.35-.98.49-.98h.21v-.07c0-.23-.09-.35-.28-.35,0,.14-.05.21-.14.21l-.14-.35c.61,0,.91-.47.91-1.4,0-.33.23-.68.7-1.05v-.42c-3.73,2.24-5.6,4.71-5.6,7.42h-.07c-.33,0-.61.05-.84.14-.33-.47-.49-.98-.49-1.54v-.35c0-1.07.23-2.61.7-4.62.37.19.65.28.84.28h.21c0-.56.44-.91,1.33-1.05,1.4-1.07,2.47-2.31,3.22-3.71h.14c.05.23.14.35.28.35h.07c0-.28.98-1.8,2.94-4.55,0-.33.14-.49.42-.49.23.09.4.14.49.14,0-.09.05-.14.14-.14-.19-.28-.28-.58-.28-.91v-.14c.51,0,.96-.35,1.33-1.05h-.49v-.14c1.35-1.59,2.61-4.18,3.78-7.77l.42-2.24h-.28v-.21c.51-.42.77-.96.77-1.61l-.14-.7c1.4-3.78,2.1-6.35,2.1-7.7v-.49h-.21l-.28.14c.09-.42.14-.77.14-1.05h.14l.35.14.21-.28v-.14c0-.75.02-1.87.07-3.36h-.63c.14-.14.21-.28.21-.42h.14l.28.21.28-.77h-.28c0,.28-.09.42-.28.42,0-.19-.12-.28-.35-.28-1.68,1.4-2.52,2.8-2.52,4.2l-.28-.14c-.42,0-.63.28-.63.84h-.14v-.28c-.51,0-.82.26-.91.77.19.09.35.14.49.14v.42h-.21c-.23-.19-.37-.28-.42-.28-.19.05-.28.14-.28.28v.35h.56v.35c0,.14-.09.21-.28.21v-.42h-.42c-.28,0-.79.86-1.54,2.59.09,0,.14.05.14.14h-.42l.07-.28h-.49c0,.47-1,1.8-3.01,3.99l-.49.7h.14c.93-.75,1.4-1.14,1.4-1.19-.14,0-.21-.02-.21-.07l.49-.28c0,.09.05.14.14.14,0,.09-.61.79-1.82,2.1-.37.42-.56.91-.56,1.47.37,0,.56.12.56.35l-1.4,1.47v.07l.56-.21v.14c-.14.19-.21.33-.21.42h-.14l-.28-.14c0,2.75-2.12,4.85-6.37,6.3-.33-.28-1.73-1.05-4.2-2.31-1.12-1.26-2.12-4.01-3.01-8.26-.05,0-.28-.4-.7-1.19.47-.05.7-.16.7-.35l-.07-.91c0-.7.65-1.12,1.96-1.26,0-.56,1.17-2.59,3.5-6.09v.14c-.47.79-.79,1.52-.98,2.17l.28-.14v.14c-.47,1.35-.7,2.22-.7,2.59v.63c.14-.05.68-1,1.61-2.87,1.35-1.49,3.1-4.25,5.25-8.26v-.14h-.21c0,.51-.75,1.17-2.24,1.96h-.14v-.14c3.45-3.97,5.72-6.93,6.79-8.89-2.57-.7-3.97-1.05-4.2-1.05h-2.87c-.51,0-.79-.14-.84-.42l.07-.35c-.37,0-.56-.14-.56-.42,0-.93.58-1.4,1.75-1.4h1.75c.19,0,.28-.09.28-.28-2.05-.47-3.31-.7-3.78-.7h-1.05v-.21l1.54-1.89c-.37,0-.77-.3-1.19-.91.37,0,.56-.19.56-.56v-.49c1.59-.93,5.72-1.84,12.39-2.73,1.17-.09,2.19-.14,3.08-.14.37,0,1.91.96,4.62,2.87l1.12.35h.21c-1.07-10.87-1.82-16.89-2.24-18.06-.89-1.96-2.33-4.41-4.34-7.35h.14l2.87.84v-.14c-.19-.47-.28-.82-.28-1.05,0-.09.26-.44.77-1.05.28,0,1.38.19,3.29.56v-.07c-2.66-2.85-3.99-4.64-3.99-5.39h.21ZM213.48,101.41h.21c0,.28.05.61.14.98h-.35v-.98ZM212.5,102.39l.14.77c-.09.19-.14.35-.14.49h-.35v-.91c0-.23.12-.35.35-.35ZM211.59,103.3h.21v.63h-.21v-.63ZM213.83,103.79h.21v.7h-.21v-.7ZM215.65,107.64l.42.35c-.05.19-.07.37-.07.56-.23,0-.35-.07-.35-.21v-.7h0ZM217.05,108.2v.14c.09,0,.21.02.35.07v-.07l-.21-.14h-.14ZM181.28,108.34v.35h.21v-.35h-.21ZM150.34,108.41v.77c.09.61.23.91.42.91v-.42c0-.14-.09-.56-.28-1.26h-.14ZM217.19,108.9v.14c.23,2.1.82,4.85,1.75,8.26h.14v-.49c-.56-4.25-1.14-6.88-1.75-7.91h-.14ZM151.39,109.81v.7h.14v-.7h-.14ZM181,109.88c0,.42-.23.63-.7.63.05.23.16.35.35.35.14,0,.4-.26.77-.77l-.28-.21h-.14ZM213.06,111.7v1.05h.21v-1.05h-.21ZM216.35,111.7v.21c.65,2.71,1.45,9.54,2.38,20.51.28.89.54,1.33.77,1.33h.35v-.35h.14l.28.14v-1.12h-.14v.49h-.14l-.14-.7v-1.26l.42-.56v-.35l-.14-1.05h-.14c0,.61-.09.91-.28.91,0-.75-.07-1.28-.21-1.61l.63.35v-.14c0-.14-.09-.89-.28-2.24h-.14v.35h-.21c-.37-5.37-1.03-9.68-1.96-12.95-.56-1.31-.96-1.96-1.19-1.96h0ZM211.1,111.91c.23,0,.35.09.35.28l-.35.21v-.49ZM211.1,112.47h.35v.28c0,.23-.12.35-.35.35v-.63ZM180.09,112.75v1.4h.14c0-.47.02-.7.07-.7-.05-.23-.07-.47-.07-.7h-.14ZM213.48,112.75c.14.47.21.82.21,1.05h.35c-.23-.47-.35-.82-.35-1.05h-.21ZM214.46,112.89v.77h.14v-.77h-.14ZM213.69,114.29v5.6h.42c.09-1.03.14-1.77.14-2.24v-1.4c0-.37-.07-1.03-.21-1.96h-.35,0ZM183.8,114.64c0,.56-.49.84-1.47.84l-.14.28h.42l-.14.35-.77-.21c-.7.37-1.05.63-1.05.77v.14h.35l.42-.28h.07c-.56.7-.84,1.07-.84,1.12,1.12-.51,2.31-1.38,3.57-2.59l.21-.35c-.23,0-.44-.02-.63-.07h0ZM213.06,114.64c-.05,1.21-.07,2.1-.07,2.66,0,.09.02.49.07,1.19h.28v-.14c0-.51.05-1.47.14-2.87l-.14-.84h-.28ZM146.14,114.71v.21c.61,1.68,1.26,2.71,1.96,3.08v-1.33c-.09,0-.75-.65-1.96-1.96ZM219.5,115.9v.35s.12.4.35,1.05h.14v-.14c-.19-.75-.28-1.17-.28-1.26h-.21ZM181.98,116.11h.21c0,.23-.12.35-.35.35h-.14c0-.23.09-.35.28-.35ZM149.15,117.44h.14l-.35.7h.21l.42-.49v-.49h-.07c-.23,0-.35.09-.35.28h0ZM150.2,117.3c-.61,1.07-.91,1.7-.91,1.89l.28.21c.14,0,.51-.7,1.12-2.1h-.49,0ZM219.85,117.79v.07c.19,3.17.68,7.84,1.47,14-.37.7-.56,1.21-.56,1.54v.35l.14,1.89h.14c.33-2.33.49-4.2.49-5.6,0-.93-.47-4.95-1.4-12.04-.09,0-.14-.07-.14-.21h-.14ZM150.34,119.54c0-.23.05-.44.14-.63v-.07h-.14c0,.19-.23.54-.7,1.05h.21c0-.23.12-.35.35-.35h.14l-.14.77c.19,0,.28-.21.28-.63h.28v.21l-.07,1.05c.42-.42.77-.63,1.05-.63-.47.47-.7.75-.7.84.23.93.47,1.4.7,1.4l.42-2.38h-.35v-.21l.35-.42c-.42,0-.63-.12-.63-.35v-.07c.28-.42.42-.75.42-.98-.79.37-1.21.84-1.26,1.4h-.35ZM213.06,119.12v.84h.21v-.84h-.21ZM128.99,128.43l.21.21c-1.26,2.52-2.08,4.34-2.45,5.46h.14c.19.09.35.14.49.14v.49h-.63c0,.09-.05.23-.14.42h.28c-.19.33-.28.63-.28.91v.77c2.29-.23,6.53-3.08,12.74-8.54.23,0,1.8-1.68,4.69-5.04l.7-.21v-.14c0-.61-1-1.24-3.01-1.89h-.42c-2.29,1.82-3.57,2.73-3.85,2.73v-.35h-.49l.14.35-.28.63c-.23-.14-.4-.21-.49-.21v-.21l1.54-2.03c-.51.19-1.66,1.14-3.43,2.87l.14.35-.35.07v-.28l-.7.63c0-.09-.05-.14-.14-.14,0,.28-.56.84-1.68,1.68,0,.05.05.07.14.07-.09.42-.42.63-.98.63v-.14c4.01-4.25,6.14-7.07,6.37-8.47-.79.75-2.03,1.59-3.71,2.52l-2.31,3.08c-.42.61-1.17,1.82-2.24,3.64h0ZM133.68,122.2v.21c0,.19-.09.28-.28.28v-.14c0-.23.09-.35.28-.35ZM145.23,123.11c-.33.56-.49.91-.49,1.05l.35-.07v.07c-.56.84-.91,1.26-1.05,1.26h-.14v-.21l.42-.77h-.14c-.56.65-1.12,1.31-1.68,1.96v.35c.51-.7.82-1.05.91-1.05h.14c0,.19-.35.89-1.05,2.1v.14c.14,0,.4-.26.77-.77l-.14-.21h.14l.28.14.84-1.12h-.21c1.17-1.49,1.75-2.36,1.75-2.59h-.14l-.56-.28ZM151.53,123.11c-.23.84-.63,1.26-1.19,1.26-.19.05-.47.07-.84.07-.79-.05-1.26-.14-1.4-.28-.61,2.99-.91,5.3-.91,6.93l.28-.14h.14v.14c-.61,4.48-.98,7.05-1.12,7.7l-.7.21v.14l.35-.07h.35c-.65,1.68-1.28,4.57-1.89,8.68,1.31-1.12,2.31-2.99,3.01-5.6.79-3.97,1.19-6.53,1.19-7.7v-3.36c0-.65.12-1.35.35-2.1l.35.21c-.23.79-.35,1.61-.35,2.45v.35c0,.37.12,1.24.35,2.59-.37,1.03-.7,2.61-.98,4.76v.14h.14c1.91-5.6,2.87-10.73,2.87-15.4.14,0,.21-.28.21-.84v-.14h-.21ZM219.5,123.39v.77h.21v-.77h-.21ZM145.65,124.44c-.37.51-.56.77-.56.77h.14s.19-.26.56-.77h-.14ZM145.65,124.93c-.37.47-.56.72-.56.77l.35.14c0-.14.12-.44.35-.91h-.14ZM151.39,125.14v.07c-.14.23-.21.4-.21.49h-.14v-.49l.35-.07ZM145.09,126.61h.42v.14s-.19.07-.42.21v-.35ZM140.89,128.29h.14c.51-.51.91-.96,1.19-1.33h-.28c-.61.56-.96,1-1.05,1.33ZM219.5,126.96c.23,0,.35.07.35.21v.98c-.23,0-.35-.12-.35-.35v-.84ZM149.15,127.66h.14v.84h-.14v-.84ZM147.61,128.29c.23.05.35.12.35.21l-.35.14v-.35ZM129.9,128.99l.14.35v.14c0,.19-.12.28-.35.28h-.21v-.14c.09-.42.23-.63.42-.63h0ZM220.13,131.09v.77h.14v-.77h-.14ZM194.02,132v.42c0,.19.16.28.49.28.28-.19.51-.28.7-.28v-.07c-.75-.23-1.14-.35-1.19-.35h0ZM127.8,132.7v.21c-.19.42-.33.63-.42.63h-.21c.28-.56.49-.84.63-.84h0ZM219.99,134.1v.63l.14.7h.14v-.42c-.09-.51-.14-.82-.14-.91h-.14ZM128.22,134.1v.14c-.05.23-.07.4-.07.49h-.21v-.49l.28-.14h0ZM138.79,135.15h.28v.49h-.42c.09-.23.14-.4.14-.49ZM219.85,135.92c.23.37.37,1.12.42,2.24h.28c-.05-1.59-.19-2.38-.42-2.38l-.28.14ZM122.97,136.2c-.19.98-.28,1.54-.28,1.68h.7l.84-.14c-.42-.89-.77-1.4-1.05-1.54,0,0-.21,0-.21,0ZM220.9,136.9c.09.23.14.42.14.56h.21v-.56h-.35ZM221.04,138.16v.28l.21,1.05h.07v-1.33h-.28ZM148.17,139.98v.56h.35v-.56h-.35ZM133.89,141.73c0,.23-.12.35-.35.35v.28h.14c.37-.19.56-.33.56-.42l-.35-.21h0ZM182.19,141.94v.14c0,.19-.12.28-.35.28h-.14c0-.19.16-.33.49-.42ZM228.25,145.72h.14v.98h-.14v-.98ZM200.74,150.48c0,.19-.49.58-1.47,1.19v.14h.14c1.49-.28,2.24-.54,2.24-.77-.47,0-.7-.09-.7-.28.09,0,.14-.05.14-.14l-.35-.14ZM139.14,152.16v.14c0,.19-.07.28-.21.28v-.14c0-.19.07-.28.21-.28ZM229.58,157.55h.21v.42l-.21,1.05c-.19,0-.28-.09-.28-.28.19-.65.28-1.05.28-1.19ZM205.85,171.34v.42h.35v-.42h-.35Z" style="fill:#fff;"/><path d="M280.26,55.22c1.87,0,5.27,4.53,10.22,13.58.65,1.45.98,2.38.98,2.8,0,.28-.58,1.63-1.75,4.06v.14h.49c0,.19-.89,3.29-2.66,9.31-.19,0-.28-.16-.28-.49h-.35c-.19.05-.28.14-.28.28v.49h.28l.49-.28v.14c-.61,2.89-1.07,4.34-1.4,4.34-.19-.09-.4-.14-.63-.14l-.14.28.49.63v.14c0,.14-.16.3-.49.49h-.14v-.35h-.49c0,.28-.35.86-1.05,1.75v.42c.09,0,.23.05.42.14-.23.7-.79,1.59-1.68,2.66-.09.19-.14.4-.14.63.23.19.54.28.91.28l-.49.77v.49c.33,0,.49.09.49.28l-.14.98h.14l1.4-.14v.28l-.63.14v.14h.35l1.05-.28c.19.09.35.14.49.14l.14-.28v-.14h-.35l-.28.14-.14-.35c0-.19.09-.28.28-.28h.14c.14,0,.21.05.21.14l.28-.14h.35c.23,0,.42.05.56.14.37-.19,1.1-.35,2.17-.49v.49c-.28,0-.63.05-1.05.14v.21h.14c.14,0,.7-.12,1.68-.35l-.14-.77h.14l.49.28h.77v-.42h-.63v-.35l1.4-.14c.19.42.35.63.49.63.79-1.26,1.61-1.89,2.45-1.89,1.31.23,2.15.35,2.52.35,1.96-.51,3.5-.77,4.62-.77l.63.14v.14l-.35.49,3.01,1.68c0,.09.3.3.91.63l.77-.14c0,.14.14.3.42.49l.84-.21c0,.19.14.35.42.49l.35-.14c.79.42,1.26.68,1.4.77-.23.33-.35.63-.35.91l.35.14.56-.63c.19,0,.4.21.63.63v.77h.77c.56,0,1.03.33,1.4.98-.42,0-.63.09-.63.28v.49c.05.19.16.28.35.28s.28-.35.28-1.05l.49.28-.14.77c0,.09.19.4.56.91l.35-.14h.63v1.75h.63c.09.33.23,1.24.42,2.73-.51.7-.77,1.21-.77,1.54.23.14.4.21.49.21-.51,1.63-1.35,2.45-2.52,2.45-.75.51-1.66.93-2.73,1.26-.37-.23-.63-.35-.77-.35,0,.23-.12.35-.35.35l.14.77c0,.09-.26.3-.77.63-.42-.09-.77-.14-1.05-.14l.14-.84-.28-.14h-.49c-.75.23-1.17.35-1.26.35-2.19,0-3.99-.79-5.39-2.38h-.49l.14-1.05c-.23,0-.7-.26-1.4-.77-1.49-.23-2.31-.35-2.45-.35h-.14c-.84,0-2.24.28-4.2.84-.56-.14-1.03-.21-1.4-.21-2.01.75-4.57,1.42-7.7,2.03v-.14c1.49-1.45,3.64-2.54,6.44-3.29l.49-.56v-.21h-.14c-.09,0-.14.07-.14.21-.42-.23-.79-.35-1.12-.35,0,.23-.09.35-.28.35l-.98-.49h-.14c0,.37-1.28.63-3.85.77-.23.33-.61.49-1.12.49h-.28v-.21l.14-.77c-.23,0-.49-.09-.77-.28h-.28c-2.19.42-3.29,1.24-3.29,2.45-.09,0-1.07,1.05-2.94,3.15-.14,0-.28.14-.42.42v.35l.28.42-1.54.98h-.14v-.35h-1.54v.77c-.65.09-.98.47-.98,1.12l.14.91c-.89.23-1.33.58-1.33,1.05.19.05.28.16.28.35-.19.09-.4.14-.63.14v.35h.49c.19,0,.28-.12.28-.35-.09,0-.14-.05-.14-.14.79,0,1.52-.47,2.17-1.4v-.28c0-.23-.16-.35-.49-.35v-.49c.75-.61,1.38-1,1.89-1.19v.14l-.35.49v.28c.33,0,.49.09.49.28v.35c-.23,0-.84.77-1.82,2.31-.65,0-.98.16-.98.49.33,0,.7.05,1.12.14.14,0,.4-.26.77-.77.19,0,.28.09.28.28-.19.14-.33.21-.42.21v.42l2.45.35c0-.23.05-.35.14-.35.65.09.98.26.98.49l.77-.14h.14v.42h.42l.63-.42h.35l.77.14v-.14c1.87.33,3.92,1.05,6.16,2.17,1.12,0,2.26.44,3.43,1.33l4.2,2.17c.65.75,2.87,1.68,6.65,2.8.51.33.77.54.77.63v.14h-1.26v.35c0,.28,1.87.68,5.6,1.19h3.43l1.54-.14c.09.19.14.4.14.63h.14c0-.42.12-.63.35-.63h2.94v.49h.14l.77-.63,3.57,1.54.14-.77h.14c.75.61,1.17.91,1.26.91l.77-.14v.49c-.75.23-1.12.49-1.12.77l1.89.63c0-.19.35-.44,1.05-.77,0-.37.07-.63.21-.77l2.17,1.19c.19-.09.4-.14.63-.14v-.28l-.35-.49v-.14h.35l1.05.77c.19-.09.4-.14.63-.14l.28,1.05v.49c-.28.42-.42.84-.42,1.26h-.49c-.37-1.45-1-2.17-1.89-2.17v.42c.93,1.21,1.4,2.05,1.4,2.52h-.14c-1.26-.75-1.94-1.21-2.03-1.4l.35-.49v-.14c0-.42-.63-.63-1.89-.63h-.63v.28c1.26,1.63,1.89,2.52,1.89,2.66v.14h-.14c-1.17-.65-1.75-1.33-1.75-2.03-.89-.19-1.49-.58-1.82-1.19-.47,0-1.03.05-1.68.14l-.84-.14c-.37.05-.56.14-.56.28-.14,0-.47-.21-.98-.63h-.14l-.63.49h-2.17v-.28c0-.37.77-.65,2.31-.84l1.61.49h.14c0-.33.05-.49.14-.49-.14-.37-.3-.56-.49-.56-.65.19-1.12.28-1.4.28,0-.19-.09-.28-.28-.28l-.63.42c-.14-.42-.61-.63-1.4-.63l-.28.21-.35-.21-5.88.77v.35h.35c.42,0,1.35-.16,2.8-.49,1.63.28,2.45.54,2.45.77-.7.42-1.47.63-2.31.63-.42.09-.63.3-.63.63h-.14l-.77-.49c0,.23-.51.4-1.54.49v.28c4.71.37,7.07.7,7.07.98v.42h1.54l1.12-.14c0,.23,1.28.7,3.85,1.4.51-.14.77-.4.77-.77h.35c.14,0,.28.16.42.49-.09,0-.23.05-.42.14.09.19.14.33.14.42h.49v-.28l-.21-.28h.21c1.45,1.21,2.52,1.82,3.22,1.82.75,0,1.21-.14,1.4-.42v-1.12c.33,0,.49-.26.49-.77h.42c0,.7.84,1.68,2.52,2.94.61.79.91,1.31.91,1.54l-1.26.35c0,.79.84,2.17,2.52,4.13v.35c0,.61-.26.91-.77.91l-.63-.28c-.09,0-.14.05-.14.14l-.84-.14h-1.54l.21,1.05v.35c.47,0,.86.35,1.19,1.05,1.45.33,2.17.79,2.17,1.4,0,.09-.26.44-.77,1.05v.35l1.54,2.03c-.51.61-.77.96-.77,1.05l.14.91c-.09,0-.14.07-.14.21.51,0,.77.09.77.28v.63c0,.14-.98.4-2.94.77v.14l.35.49-.35.42v.21l1.4.28v.49h-.91c-1.03.42-1.54.98-1.54,1.68.56,0,1.03.3,1.4.91v.21l-.63.14.14,1.05c-.33,0-.49.16-.49.49l.35.63c-.42,0-1.19.3-2.31.91-2.1-.42-3.66-.63-4.69-.63h-4.34c-1.45,0-5.72-1.14-12.81-3.43-1.35,0-2.45-.72-3.29-2.17-3.41-2.85-5.32-5.11-5.74-6.79-1.12-1.26-1.68-2.71-1.68-4.34s-1.49-4.71-4.48-9.1c-.33-.51-.49-.89-.49-1.12.09,0,.14-.05.14-.14l.35.14h.14v-.28c-1.35-.98-2.03-1.7-2.03-2.17,0-.98-1.19-2.38-3.57-4.2-.42,0-1.75-.63-3.99-1.89v-.14h.14c.56.09,1.03.14,1.4.14h.63v-.14c0-.23-.37-.44-1.12-.63,0-.93-3.29-1.8-9.87-2.59v-.35l5.74.63v-.28h-.35c-.14,0-.7-.12-1.68-.35h-1.54c-.51-.28-.77-.49-.77-.63v-.14c4.9.56,8.52,1.54,10.85,2.94,3.08,1.77,4.78,2.66,5.11,2.66h.14v-.14c-.65-.84-2.01-1.68-4.06-2.52-.09-.19-1.38-.75-3.85-1.68-.98-.61-2.17-1.07-3.57-1.4v-.28h-.28c-2.1-.65-4.43-.98-7-.98,0,.19-.3.56-.91,1.12.23.09.7.19,1.4.28-.37.51-.58.77-.63.77-1.45.14-2.17.4-2.17.77v.21c0,.19.14.28.42.28-.51.56-.91,1.12-1.19,1.68l-.35-.14c-.14,0-.28.16-.42.49.09.19.14.33.14.42-1.35,1.73-2.03,2.61-2.03,2.66,0,.23-.3.65-.91,1.26-.23.33-.35.63-.35.91.14.19.21.35.21.49-.23,0-.82.77-1.75,2.31-.19,0-.91.77-2.17,2.31l.21.28v.35c-.65.47-1.24,1.03-1.75,1.68l.14.35c0,.09-.26.4-.77.91-.09-.09-.44-.14-1.05-.14,0-.09.35-.42,1.05-.98v-.14h-.77l.14-.28v-.14c0-.23-.09-.35-.28-.35-.42.14-.72.4-.91.77v.14c0,.23.09.35.28.35-.09.7-.61,1.05-1.54,1.05l-.28-.14c-2.15.51-3.66,1.4-4.55,2.66,0,.7-.86,1.42-2.59,2.17,0,.19-.42.54-1.26,1.05-.05.51-.77,1.1-2.17,1.75-.65.33-1.17.77-1.54,1.33-.19,0-.86.42-2.03,1.26-.23,0-.75.37-1.54,1.12-2.24.7-4.5,1.05-6.79,1.05v-.14c0-.23.47-.44,1.4-.63h1.19v-.28c-1.54-.33-2.36-.49-2.45-.49v.14l-.28-.14c-2.8.75-4.62,1.17-5.46,1.26,0,.09-.05.14-.14.14-.19,0-.28-.09-.28-.28v-.21c.09-.14.75-.44,1.96-.91v-.14c-.09,0-.14-.05-.14-.14l-.28.14h-.49l-1.54-.14v-.35l2.03-.42h1.19l.35-.49.77.14h1.05c.65,0,1.38-.3,2.17-.91,1.35,0,2.19-.37,2.52-1.12,2.05-.79,3.08-1.26,3.08-1.4.05-.19.14-.28.28-.28l-.14-.28c0-.19.58-.65,1.75-1.4l.77.14.14-.35v-.14c0-.09-.05-.14-.14-.14,0-.33.3-.58.91-.77v-.49h-.77c-.05.56-1.19,1.19-3.43,1.89,0,.61-.61,1.12-1.82,1.54,0,.79-1.77,1.47-5.32,2.03l-.91-.14h-2.17l-1.54.14c0-.23-.09-.35-.28-.35h-2.66c-.23,0-.35-.19-.35-.56h-2.17l-1.05.14c.33-.75,2.71-1.21,7.14-1.4.75.09,1.14.14,1.19.14,0-.14.21-.35.63-.63h.35c-.23.33-.35.63-.35.91h.21l2.31-.91c.42,0,.98.05,1.68.14.23,0,.65-.4,1.26-1.19,4.01-2.8,6.07-4.2,6.16-4.2.51-.93,4.04-4.25,10.57-9.94,1.4-1.68,3.57-5.44,6.51-11.27,2.33-3.17,3.83-5.76,4.48-7.77l-.14-.77c.61-.98.91-1.66.91-2.03v-.14c-2.47.89-3.71,1.87-3.71,2.94-2.66,1.26-5.86,3.73-9.59,7.42v.35l.14.28c-1.82.79-3.1,1.77-3.85,2.94-.56,0-1.24.42-2.03,1.26-1.68,1.12-2.71,1.68-3.08,1.68-3.13-1.49-4.69-2.78-4.69-3.85-1.96-2.61-3.1-4.83-3.43-6.65,0-.61-.56-1.33-1.68-2.17v-.14c0-.14.05-.21.14-.21,0-.09-.26-.44-.77-1.05.51-1.26.89-1.89,1.12-1.89.51-.09.77-.23.77-.42-.33-1.45-.49-3.01-.49-4.69,0-.47.37-.86,1.12-1.19,0-.93.14-1.4.42-1.4h1.12c3.41-.09,7.68-2.26,12.81-6.51.33-.75.79-1.26,1.4-1.54v-.21c-.47,0-1.28.12-2.45.35l.14-.77c-2.57-.98-3.85-2.43-3.85-4.34-1.26-.51-1.89-1.61-1.89-3.29-.28-.84-.75-1.61-1.4-2.31v-.14c0-.14.12-.7.35-1.68v-.35c-.51-1.68-.77-2.71-.77-3.08.19-.09.4-.14.63-.14,3.69.98,5.53,2.17,5.53,3.57,1.17.61,3.08.91,5.74.91h1.89c.98,0,2.82.93,5.53,2.8-.19.33-.28.58-.28.77,1.07.56,2.31,1.8,3.71,3.71-.19.65-.28,1.12-.28,1.4.37.05.56.19.56.42v.49c-.33.33-.63.84-.91,1.54l.35.49-.63.49h-.77c-1.35,0-2.03.14-2.03.42v.14c.51.09.77.26.77.49v.14c-.19,0-.82.37-1.89,1.12,0-.33-.09-.49-.28-.49h-.14c-.28,0-1,.21-2.17.63-.09-.33-.4-.49-.91-.49h-.21c-1.4,0-3.71,1.49-6.93,4.48l-.35-.14c-.33,0-.63.16-.91.49l.14.28v.21c-.75.84-2.33,2.01-4.76,3.5,0,.23.09.35.28.35,3.59-.84,5.6-1.26,6.02-1.26l.63.35c1.07-1.17,2.43-1.75,4.06-1.75l-.14.35v.14h.42v-.63h.49c.09,0,.14.05.14.14,1.4-.61,2.29-.91,2.66-.91.33.19.58.28.77.28,0-.61,2.47-1.26,7.42-1.96.28-.33.79-.65,1.54-.98l.91.21c2.89-.75,4.34-1.42,4.34-2.03,1.96-6.67,3.83-12.41,5.6-17.22v-1.4h-.28l.14-1.05c-.65-.37-.98-.63-.98-.77-.09,0-.4.21-.91.63h-.42c-.42-.33-.75-.49-.98-.49-.47.61-1.12.91-1.96.91l-.35-.63c-.51.33-.93.49-1.26.49-1.54-.33-2.31-.63-2.31-.91,0-.14-.3-.4-.91-.77,0-.28-.37-.65-1.12-1.12-1.07-.61-1.68-1.17-1.82-1.68-1.07-.56-2.17-1.33-3.29-2.31h-.28c0,.23-.51.49-1.54.77v-.21c0-.33.3-1.49.91-3.5-.56-.98-3.29-2.68-8.19-5.11-2.8-1.63-4.2-3.41-4.2-5.32-.19,0-.28-.26-.28-.77.89-.42,1.82-.63,2.8-.63,3.41.42,5.51.63,6.3.63.61,0,2.47-.4,5.6-1.19,1.82.56,3.48,1.59,4.97,3.08.79,1.96,2.08,2.94,3.85,2.94.47,0,1.24.42,2.31,1.26.28,0,.79.44,1.54,1.33,1.21.19,2.66,1.7,4.34,4.55.47.05.89.44,1.26,1.19.33-2.29,1-5.83,2.03-10.64v-.63c-.51-1.31-.77-2.29-.77-2.94v-.35c-.28,0-.75-1.03-1.4-3.08.09,0,.14-.05.14-.14.89,0,1.61.93,2.17,2.8h.28v-.35l-.91-3.57v-.14c1.03-.19,1.54-.33,1.54-.42h0ZM284.59,92.53h.35v.28c0,.23-.26.4-.77.49v-.35c0-.14.14-.28.42-.42h0ZM272.84,100.44v.28h.49v-.63h-.21c-.19.05-.28.16-.28.35ZM275.01,100.58v.49h.14c.19,0,.35-.16.49-.49,0-.23-.12-.35-.35-.35-.19.05-.28.16-.28.35ZM283.4,102.12v.14c2.05,0,4.15-.61,6.3-1.82h-.14c-1.4.51-3.41.98-6.02,1.4l-.14.28h0ZM310.49,101.49l-.14.35v.14h.42v-.14c0-.23-.09-.35-.28-.35ZM285.99,104.78h-.28c-.14,0-.21-.07-.21-.21-4.01.98-6.02,2.12-6.02,3.43v.49c1.03,0,4.08-1.35,9.17-4.06v-.14c0-.19-.12-.28-.35-.28h-.28c-.75.51-1.42.77-2.03.77ZM312.94,104.43v.49h.35c.19,0,.28-.12.28-.35v-.14h-.63ZM285.5,107.86h-.42v.28h.14l1.12-.14v-.28l-.84.14ZM283.82,108c0,.19-.21.56-.63,1.12h.77c0-.33.12-.65.35-.98l-.35-.14h-.14ZM282.01,113.25v.63h-1.61v-.14c0-.33.54-.49,1.61-.49ZM279.21,122.28v.14c2.57.93,3.97,1.4,4.2,1.4v-.14c0-.61-1.26-1.07-3.78-1.4h-.42ZM271.44,123.05c.09.61.26.91.49.91l1.05-.14c.42.14.63.28.63.42-.19.05-.28.16-.28.35,2.66.93,4.62,1.4,5.88,1.4h.14v-.14c-2.8-.7-4.2-1.38-4.2-2.03-.7,0-1.05-.26-1.05-.77h-.14c-.42,0-.84.05-1.26.14-.37-.09-.79-.14-1.26-.14h0ZM277.67,123.82v.63h.14c.19,0,.28-.12.28-.35,0-.19-.09-.28-.28-.28h-.14ZM265.84,125.01l.35.21h.14v-.49h-.14c-.23.05-.35.14-.35.28ZM267.59,125.22v.42c0,.23.09.35.28.35h.35v-.77h-.63ZM281.03,126.27v.14c0,.61,1.24,1.19,3.71,1.75v-.14c-1.59-1.17-2.75-1.75-3.5-1.75h-.21ZM285.22,126.27v.63h.28c.23,0,.35-.09.35-.28,0-.23-.12-.35-.35-.35h-.28ZM286.62,127.04c0,.19-.16.35-.49.49l-.28-.14v.28c.79.19,2.03.96,3.71,2.31v.21h-.28c-.79-.79-2.1-1.38-3.92-1.75v.14c0,.19.84.61,2.52,1.26,0,.28.86.79,2.59,1.54v-.14c0-.09-.26-.44-.77-1.05h.14c1.82,1.31,2.96,1.96,3.43,1.96h.14v-.14c-3.5-2.85-5.76-4.5-6.79-4.97ZM240.92,128.44c.09,0,.14.05.14.14,1.17-.37,1.75-.68,1.75-.91l-.35-.14c-.98.42-1.49.72-1.54.91ZM291.87,128.16v.14c.79.93,1.52,1.4,2.17,1.4h.14v-.35c-.33,0-1.05-.4-2.17-1.19h-.14ZM294.67,129.84v.49l.77.14v-.49l-.77-.14ZM282.29,132.29l.49.35h.28c-.09-.19-.14-.44-.14-.77h-.14c-.19,0-.35.14-.49.42h0ZM283.82,132.29v.21l.63.14h.14v-.14l-.63-.21h-.14ZM316.79,134.18v.28c.14.33.47.49.98.49.05,0,.35-.09.91-.28-.09-.33-.4-.49-.91-.49h-.98ZM325.33,134.95v.14c0,.19.16.35.49.49l.14-.28v-.35h-.63ZM325.19,142.86v.28c.42.47.63.72.63.77v.35l-.77-.14v.28c0,.14.14.3.42.49h.49c.14,0,.3-.16.49-.49l-.49-.63v-.14l.14-.28c.33,0,.58.26.77.77.65.42,1.28.63,1.89.63h.28v-.49c-1.12-.33-1.68-.58-1.68-.77v-.14h.63v-.49h-1.4c-.23,0-.35-.16-.35-.49-.7.14-1.05.3-1.05.49h0ZM244,144.4c.14,0,.21.05.21.14.61-.19.91-.4.91-.63v-.28h-.14c-.42.14-.75.4-.98.77h0ZM321.48,143.77v.14c0,.23.09.35.28.35h.49c.19,0,.28-.12.28-.35l-.28-.14h-.77ZM253.17,144.4v.35h1.4v-.21c0-.14-.21-.35-.63-.63h-.28c-.19,0-.35.16-.49.49h0ZM243.72,145.31h.14c.23,0,.35-.09.35-.28h-.21c-.19,0-.28.09-.28.28ZM254.08,145.66h.98v.14c0,.19-.12.28-.35.28h-.63v-.42ZM241.55,147.2h.63v-.35h-.35c-.19.05-.28.16-.28.35ZM249.74,147.69h.63v.28h-.63v-.28ZM253.03,148.11c0,.09.05.14.14.14-.7.7-1.05,1.33-1.05,1.89l-2.66,1.68c-.09,0-.91.37-2.45,1.12-.19-.09-.4-.14-.63-.14v-.21c.7-.56,1.89-1.07,3.57-1.54,1.03-.7,1.54-1.38,1.54-2.03l1.54-.91h0ZM234.13,149.65v.49h.63c.19,0,.28-.09.28-.28v-.35h-.14l-.77.14ZM248.34,149.65h.21v.35h-.49c.05-.23.14-.35.28-.35ZM242.46,154.48c-.28.51-.63.77-1.05.77v-.14c0-.23.35-.44,1.05-.63ZM231.33,155.39v.49h.14c.19,0,.35-.16.49-.49v-.14h-.14c-.23.09-.4.14-.49.14ZM221.39,157.28h.63v.28h-.63v-.28ZM237.7,157.28h.42c0,.19-.09.28-.28.28h-.49c.05-.19.16-.28.35-.28ZM327.08,158.33v.49h.14s.7.05,1.96.14v-.91c-1.21.19-1.91.28-2.1.28Z" style="fill:#fff;"/></svg>