<svg width="85" height="279" viewBox="0 0 85 279" fill="none" xmlns="http://www.w3.org/2000/svg">
<path d="M84.1718 272.201L40.1656 278.072L0.260254 55.3578L19.6051 1.87241L31.6108 0.270142L64.2724 46.8142L84.1718 272.201Z" fill="#DDC6A2" stroke="#AF8446" stroke-width="0.504209" stroke-miterlimit="10"/>
<path d="M43.8017 273.277L4.57422 55.5429L22.9274 5.76071L29.1572 4.92596L60.0036 48.0918L79.6677 268.454L43.8017 273.277Z" stroke="#AF8446" stroke-width="0.504209" stroke-miterlimit="10"/>
<path d="M33.4709 81.7894C45.1758 81.7894 54.6645 72.3007 54.6645 60.5958C54.6645 48.8909 45.1758 39.4022 33.4709 39.4022C21.766 39.4022 12.2773 48.8909 12.2773 60.5958C12.2773 72.3007 21.766 81.7894 33.4709 81.7894Z" fill="#C7A470"/>
<path d="M20.4341 58.8592L22.9271 49.7666L26.888 50.7862L26.6583 51.537L32.4287 50.7638L32.8824 54.1364L28.0364 54.7863L30.7143 55.7555L29.7787 58.2653L26.1092 56.932L26.8375 54.9488L25.6947 55.1L24.2941 59.9404L20.4341 58.8536V58.8592ZM21.4873 62.1534L32.8768 57.0216L46.0927 59.2906L44.8994 62.7752L40.0142 61.8788L40.3559 64.4391L27.7843 66.131L27.4258 63.4643L39.566 61.834L33.3754 60.7248L23.2408 65.3019L21.4873 62.159V62.1534ZM47.0395 67.582L47.4933 70.9546L23.1624 74.2264L22.7086 70.8538L25.9748 70.4168L25.5882 67.5316L29.6723 66.9826L30.0589 69.8678L33.0505 69.4644L32.6639 66.5792L36.748 66.0302L37.1346 68.9154L40.1262 68.512L39.7453 65.6828L43.8294 65.1338L44.2103 67.963L47.0395 67.582ZM35.1682 48.5117L39.1626 49.3577L38.9778 50.0467L43.9862 49.3745L44.44 52.7471L40.1935 53.3185L43.6333 54.5734L42.6585 57.2009L38.8097 55.7779L39.7061 53.3857L38.0198 53.6098L36.9833 57.4586L33.0785 56.4334L35.1738 48.5061L35.1682 48.5117Z" fill="#F7E3BE"/>
</svg>
