<svg width="75" height="279" viewBox="0 0 75 279" fill="none" xmlns="http://www.w3.org/2000/svg">
<path d="M44.4976 278.162L0.261719 274.335L9.67362 48.2706L40.1726 0.264343L52.2401 1.30638L74.0163 53.8337L44.4976 278.162Z" fill="#FBD089" stroke="#AF8446" stroke-width="0.504209" stroke-miterlimit="10"/>
<path d="M4.8501 270.442L13.8474 49.3858L42.5705 4.78009L48.8339 5.31791L69.5681 54.1533L40.9122 273.529L4.8501 270.442Z" fill="url(#paint0_linear_695_802)" stroke="#AF8446" stroke-width="0.504209" stroke-miterlimit="10"/>
<path d="M40.9568 81.7891C52.6616 81.7891 62.1503 72.3004 62.1503 60.5955C62.1503 48.8906 52.6616 39.4019 40.9568 39.4019C29.2519 39.4019 19.7632 48.8906 19.7632 60.5955C19.7632 72.3004 29.2519 81.7891 40.9568 81.7891Z" fill="#DC8200"/>
<path d="M28.6093 56.0691L33.0127 47.7385L36.6598 49.5928L36.2733 50.2763L42.0717 50.7749L41.7803 54.1699L36.9119 53.7554L39.3153 55.2848L37.8531 57.5313L34.559 55.4305L35.7018 53.6545L34.5534 53.5537L32.1388 57.9795L28.6093 56.0803V56.0691ZM28.923 59.5145L41.1585 56.9767L53.5676 62.0636L51.646 65.2065L47.0689 63.2737L46.8505 65.8452L34.2116 64.7639L34.4413 62.0804L46.6432 63.1224L40.8448 60.6966L29.9595 62.96L28.9342 59.5089L28.923 59.5145ZM52.6881 70.3606L52.3967 73.7556L27.937 71.666L28.2283 68.271L31.5113 68.5511L31.7578 65.6491L35.8643 66.002L35.6178 68.904L38.6262 69.1617L38.8727 66.2597L42.9792 66.6127L42.7327 69.5147L45.7412 69.7724L45.9821 66.9264L50.0886 67.2794L49.8477 70.1253L52.6937 70.3662L52.6881 70.3606ZM45.237 49.1671L48.9513 50.8646L48.6208 51.4976L53.6573 51.929L53.366 55.324L49.097 54.9599L52.1782 56.9319L50.6544 59.2792L47.209 57.0551L48.604 54.915L46.9065 54.7694L45.0633 58.3044L41.4722 56.4557L45.237 49.1727V49.1671Z" fill="#F7E3BE"/>
<defs>
<linearGradient id="paint0_linear_695_802" x1="43.8539" y1="194.907" x2="68.9179" y2="21.6624" gradientUnits="userSpaceOnUse">
<stop stop-color="#FDB948"/>
<stop offset="1" stop-color="#FFE9C5" stop-opacity="0.7"/>
</linearGradient>
</defs>
</svg>
