<svg width="66" height="278" viewBox="0 0 66 278" fill="none" xmlns="http://www.w3.org/2000/svg">
<path d="M54.5302 276.772L10.1262 276.727L0.254883 50.6843L26.5522 0.252258L38.6588 0.263463L64.8328 50.746L54.5302 276.772Z" fill="#DDC6A2" stroke="#AF8446" stroke-width="0.504209" stroke-miterlimit="10"/>
<path d="M14.3728 272.458L4.50146 51.4407L29.3253 4.54926H35.6111L60.4294 51.4407L50.5637 272.458H14.3728Z" stroke="#AF8446" stroke-width="0.504209" stroke-miterlimit="10"/>
<path d="M32.468 81.4917C44.1729 81.4917 53.6616 72.003 53.6616 60.2981C53.6616 48.5932 44.1729 39.1046 32.468 39.1046C20.7631 39.1046 11.2744 48.5932 11.2744 60.2981C11.2744 72.003 20.7631 81.4917 32.468 81.4917Z" fill="#C7A470"/>
<path d="M19.779 56.8416L23.4598 48.1636L27.2469 49.6987L26.9164 50.4102H32.7372V53.8164H27.852L30.3786 55.1329L29.1181 57.4971L25.6559 55.6876L26.6419 53.822H25.4878L23.4542 58.4327L19.7734 56.8416H19.779ZM20.3841 60.2422L32.3563 56.6736L45.152 60.6848L43.5049 63.979L38.7821 62.444V65.0266H26.0985V62.3375H38.3451L32.3619 60.4159L21.7062 63.6036L20.3897 60.2534L20.3841 60.2422ZM44.9895 69.0323V72.4385H20.4401V69.0323H23.7343V66.1191H27.852V69.0323H30.8716V66.1191H34.9893V69.0323H38.009V66.1751H42.1267V69.0323H44.9839H44.9895ZM35.7625 48.5446L39.6057 49.9172L39.3311 50.5782H44.3844V53.9844H40.0987L43.3368 55.6876L42.0203 58.1582L38.3956 56.2366L39.6057 53.9844H37.9025L36.3675 57.6652L32.6308 56.1301L35.7625 48.5502V48.5446Z" fill="#F7E3BE"/>
</svg>
