<svg width="85" height="279" viewBox="0 0 85 279" fill="none" xmlns="http://www.w3.org/2000/svg">
<path d="M84.1718 272.201L40.16 278.072L0.260254 55.3578L19.6051 1.87241L31.6052 0.270142L64.2724 46.8142L84.1718 272.201Z" fill="#FBD089" stroke="#AF8446" stroke-width="0.504209" stroke-miterlimit="10"/>
<path d="M43.7956 273.276L4.57373 55.5421L22.9269 5.75992L29.1511 4.92517L59.9975 48.0911L79.6672 268.453L43.7956 273.276Z" fill="url(#paint0_linear_695_784)" stroke="#AF8446" stroke-width="0.504209" stroke-miterlimit="10"/>
<path d="M33.4651 81.7896C45.17 81.7896 54.6586 72.3009 54.6586 60.596C54.6586 48.8912 45.17 39.4025 33.4651 39.4025C21.7602 39.4025 12.2715 48.8912 12.2715 60.596C12.2715 72.3009 21.7602 81.7896 33.4651 81.7896Z" fill="#DC8200"/>
<path d="M20.4341 58.8588L22.9271 49.7663L26.888 50.7859L26.6583 51.5366L32.4286 50.7635L32.8824 54.1361L28.0364 54.7859L30.7143 55.7551L29.7788 58.265L26.1092 56.9316L26.8375 54.9484L25.6947 55.0997L24.2941 59.9401L20.4341 58.8532V58.8588ZM21.4873 62.153L32.8768 57.0213L46.0927 59.2902L44.8994 62.7748L40.0142 61.8785L40.3559 64.4387L27.7843 66.1306L27.4258 63.4639L39.566 61.8337L33.3754 60.7244L23.2408 65.3015L21.4873 62.1586V62.153ZM47.0395 67.5816L47.4933 70.9542L23.1624 74.226L22.7086 70.8534L25.9748 70.4164L25.5882 67.5312L29.6723 66.9822L30.0589 69.8674L33.0505 69.464L32.6639 66.5788L36.748 66.0298L37.1346 68.915L40.1262 68.5116L39.7453 65.6825L43.8294 65.1334L44.2103 67.9626L47.0395 67.5816ZM35.1682 48.5113L39.1626 49.3573L38.9778 50.0464L43.9862 49.3741L44.44 52.7467L40.1935 53.3181L43.6333 54.573L42.6585 57.2005L38.8097 55.7776L39.7061 53.3854L38.0198 53.6094L36.9833 57.4582L33.0785 56.433L35.1738 48.5057L35.1682 48.5113Z" fill="#F7E3BE"/>
<defs>
<linearGradient id="paint0_linear_695_784" x1="49.8306" y1="194.77" x2="71.4828" y2="20.8575" gradientUnits="userSpaceOnUse">
<stop stop-color="#FDB948"/>
<stop offset="1" stop-color="#FFE9C5" stop-opacity="0.7"/>
</linearGradient>
</defs>
</svg>
