<svg width="117" height="455" viewBox="0 0 117 455" fill="none" xmlns="http://www.w3.org/2000/svg">
<path d="M94.9069 454.413L21.1577 454.341L0.418945 83.2129L47.6525 0.413147L69.4017 0.431117L116.419 83.3147L94.9069 454.413Z" fill="#FCD999" stroke="#AF8446" stroke-width="0.825928" stroke-miterlimit="10"/>
<path d="M28.581 446.959L8.3916 84.3883L53.1134 7.46329H63.4196L108.141 84.3883L87.952 446.959H28.581Z" fill="url(#paint0_linear_637_1537)" stroke="#AF8446" stroke-width="0.825928" stroke-miterlimit="10"/>
<path d="M57.2789 165.453H39.5989V162.653H46.5989V148.293H49.7989V153.113H57.0989V155.873H49.7989V162.653H57.2789V165.453ZM59.2189 154.853L61.8989 148.533L64.6589 149.653L64.4189 150.173H68.6589V152.653H65.0989L66.9389 153.613L66.0189 155.333L63.4989 154.013L64.2189 152.653H63.3789L61.8989 156.013L59.2189 154.853ZM70.8589 148.813L73.6589 149.813L73.4589 150.293H77.1389V152.773H74.0189L76.3789 154.013L75.4189 155.813L72.7789 154.413L73.6589 152.773H72.4189L71.2989 155.453L68.5789 154.333L70.8589 148.813ZM59.6589 157.333L68.3789 154.733L77.6989 157.653L76.4989 160.053L73.0589 158.933V160.813H63.8189V158.853H72.7389L68.3789 157.453L60.6189 159.773L59.6589 157.333ZM77.5789 163.733V166.213H59.6989V163.733H62.0989V161.613H65.0989V163.733H67.2989V161.613H70.2989V163.733H72.4989V161.653H75.4989V163.733H77.5789Z" fill="#B66D02"/>
<path d="M58.4189 139.413C80.5103 139.413 98.4189 121.281 98.4189 98.9131C98.4189 76.5456 80.5103 58.4131 58.4189 58.4131C36.3276 58.4131 18.4189 76.5456 18.4189 98.9131C18.4189 121.281 36.3276 139.413 58.4189 139.413Z" fill="#FBD6A0"/>
<path d="M41.7029 90.0011L56.3109 89.9571L56.0909 96.6451L44.3869 95.9851L44.3429 102.233L52.8349 102.409C54.0082 102.438 55.0202 102.878 55.8709 103.729C56.7216 104.58 57.1469 105.606 57.1469 106.809V116.709C57.1469 117.912 56.7069 118.938 55.8269 119.789C54.9762 120.669 53.9496 121.109 52.7469 121.109H41.9669C40.7642 121.109 39.7229 120.684 38.8429 119.833C37.9922 118.982 37.5669 117.956 37.5669 116.753L37.3469 94.4451C37.3176 93.2131 37.7282 92.1718 38.5789 91.3211C39.4589 90.4411 40.5002 90.0011 41.7029 90.0011ZM44.2549 108.305L44.1669 114.993L50.6789 114.861V108.173L44.2549 108.305ZM65.0349 90.0011L79.6429 89.9571L79.4229 96.6451L67.7189 95.9851L67.6749 102.233L76.1669 102.409C77.3403 102.438 78.3523 102.878 79.2029 103.729C80.0536 104.58 80.4789 105.606 80.4789 106.809V116.709C80.4789 117.912 80.0389 118.938 79.1589 119.789C78.3083 120.669 77.2816 121.109 76.0789 121.109H65.2989C64.0963 121.109 63.0549 120.684 62.1749 119.833C61.3243 118.982 60.8989 117.956 60.8989 116.753L60.6789 94.4451C60.6496 93.2131 61.0603 92.1718 61.9109 91.3211C62.7909 90.4411 63.8323 90.0011 65.0349 90.0011ZM67.5869 108.305L67.4989 114.993L74.0109 114.861V108.173L67.5869 108.305Z" fill="#B66D02"/>
<path d="M51.9389 69.3971V69.4451L57.3789 76.5651L57.2829 69.3971H60.3229V80.7091H57.4429L52.0029 73.3971L52.0989 80.7091H49.0589V69.3971H51.9389ZM62.0538 80.2291C61.7552 79.9305 61.6058 79.5625 61.6058 79.1251V74.4211C61.6058 73.9945 61.7552 73.6318 62.0538 73.3331C62.3632 73.0238 62.7312 72.8691 63.1578 72.8691H67.2378C67.6645 72.8691 68.0272 73.0238 68.3258 73.3331C68.6352 73.6318 68.7898 73.9945 68.7898 74.4211V79.1251C68.7898 79.5518 68.6352 79.9145 68.3258 80.2131C68.0272 80.5225 67.6645 80.6771 67.2378 80.6771H63.1578C62.7312 80.6771 62.3632 80.5278 62.0538 80.2291ZM66.3578 75.0771L64.0218 75.1571V78.3891L66.3578 78.3251V75.0771ZM72.5866 80.3731H70.0746L70.2186 78.0051H72.5866V80.3731Z" fill="#B66D02"/>
<path d="M78.0869 251.441H55.8229V219.321C55.8229 218.353 56.1603 217.532 56.8349 216.857C57.5389 216.153 58.3749 215.801 59.3429 215.801H62.1589L63.8749 211.929L71.8389 213.249L70.6069 215.801H74.5669C75.5349 215.801 76.3563 216.153 77.0309 216.857C77.7349 217.532 78.0869 218.353 78.0869 219.321V251.441ZM51.1149 238.549V247.921C51.1149 248.889 50.7629 249.71 50.0589 250.385C49.3843 251.089 48.5629 251.441 47.5949 251.441H40.2029V245.897H44.0309V239.517L40.1149 240.045L39.2349 234.061L44.0309 233.401V225.789H39.9829V219.717H44.0309V212.325H51.1149V219.717H54.3269V225.789H51.1149V232.389L54.6789 231.905L55.4269 237.933L51.1149 238.549ZM62.2029 221.301V230.673H71.7069V221.301H62.2029ZM62.2029 236.833V245.941H71.7069V236.833H62.2029ZM39.3229 274.873V271.133C39.3229 270.165 39.6603 269.344 40.3349 268.669C41.0096 267.965 41.8456 267.613 42.8429 267.613H55.5149L55.1629 265.325L62.1589 264.621L62.5989 267.613H74.6109C75.5789 267.613 76.4003 267.95 77.0749 268.625C77.7496 269.3 78.1016 270.121 78.1309 271.089L78.1749 274.873H71.0909V272.673H46.3629V274.873H39.3229ZM62.3349 297.885V305.277H55.3829V297.885L41.7869 305.233L39.0149 300.261L46.4509 296.433H39.4549V291.417H42.2269L40.4229 287.325L47.9029 285.257L47.2869 285.125C46.7589 284.978 46.3336 284.7 46.0109 284.289C45.6883 283.849 45.5269 283.365 45.5269 282.837C45.5269 282.338 45.6736 281.898 45.9669 281.517L46.2749 281.077H39.5869V276.237H49.6189L51.8189 273.025L57.6269 275.313L56.9229 276.237H77.9109V281.077H71.4429L72.8069 283.189L68.6709 284.817L77.1629 287.413L75.5349 291.417H78.0429V296.433H71.2669L78.6589 300.261L75.8869 305.233L62.3349 297.885ZM52.6109 282.089L58.8589 283.101L64.0069 281.077H53.3589L52.6109 282.089ZM55.3829 291.417V289.173H62.3349V291.417H72.8509L58.9469 287.369L44.5589 291.417H55.3829ZM76.8989 358.101H70.1229V348.905L64.5789 350.137C64.1976 350.225 63.8163 350.269 63.4349 350.269C62.7016 350.269 61.9829 350.108 61.2789 349.785C60.6043 349.433 60.0176 348.964 59.5189 348.377C58.7856 347.468 58.4189 346.412 58.4189 345.209V320.701H65.2389V344.153L70.1229 343.097V318.545H76.8989V358.101ZM51.5989 320.261C52.8016 320.261 53.8283 320.686 54.6789 321.537C55.5589 322.388 55.9989 323.429 55.9989 324.661V355.241H40.0709V324.661C40.0709 323.429 40.4963 322.388 41.3469 321.537C42.2269 320.686 43.2683 320.261 44.4709 320.261H51.5989ZM49.6189 349.433V326.069H46.3189V349.433H49.6189ZM78.2189 401.553V407.625C78.2189 408.622 77.8669 409.458 77.1629 410.133C76.4883 410.808 75.6669 411.145 74.6989 411.145H58.4629C57.3776 411.145 56.4389 410.764 55.6469 410.001C54.8843 409.238 54.5029 408.3 54.5029 407.185V386.989L54.5469 386.285L54.1509 386.109L47.4629 396.273L52.6109 395.569L53.1389 400.981L44.3829 401.993L43.8989 402.037C43.0483 402.037 42.2709 401.802 41.5669 401.333C40.8629 400.834 40.3496 400.189 40.0269 399.397C39.8216 398.957 39.7189 398.444 39.7189 397.857C39.7189 396.977 39.9536 396.2 40.4229 395.525L43.9869 390.201L43.8109 390.245C42.9016 390.304 42.0509 390.128 41.2589 389.717C40.4963 389.306 39.8656 388.72 39.3669 387.957C38.8976 387.224 38.6629 386.388 38.6629 385.449C38.6629 384.657 38.8683 383.894 39.2789 383.161L45.6149 371.589L51.5549 374.361L44.9989 385.229L47.4629 385.097L49.7069 381.753L52.3029 383.205L58.4189 371.237L64.1829 373.349L63.4789 374.801H72.7189C73.7456 374.801 74.6403 375.182 75.4029 375.945C76.1363 376.678 76.5029 377.573 76.5029 378.629C76.5029 379.128 76.4149 379.597 76.2389 380.037L74.9629 383.161C75.7256 383.366 76.3563 383.792 76.8549 384.437C77.3536 385.053 77.6029 385.757 77.6029 386.549V396.317C77.6029 397.285 77.2509 398.121 76.5469 398.825C75.8723 399.5 75.0509 399.837 74.0829 399.837H60.8829V405.997H73.7309V401.553H78.2189ZM59.5629 383.029H68.2309L69.5069 379.949H61.0589L59.5629 383.029ZM63.4789 388.133H60.8829V394.733H63.4789V388.133ZM71.2229 388.133H68.6269V394.733H71.2229V388.133ZM54.4589 409.429L39.5869 410.925L39.0149 405.381L53.8869 403.885L54.4589 409.429Z" fill="#B66D02"/>
<defs>
<linearGradient id="paint0_linear_637_1537" x1="68.5082" y1="318.385" x2="111.885" y2="35.8001" gradientUnits="userSpaceOnUse">
<stop stop-color="#FFE9C5"/>
<stop offset="1" stop-color="white"/>
</linearGradient>
</defs>
</svg>
