<svg width="117" height="455" viewBox="0 0 117 455" fill="none" xmlns="http://www.w3.org/2000/svg">
<path d="M94.9069 454.413L21.1577 454.341L0.418945 83.2129L47.6525 0.413147L69.4017 0.431117L116.419 83.3147L94.9069 454.413Z" fill="#FCD999" stroke="#AF8446" stroke-width="0.825928" stroke-miterlimit="10"/>
<path d="M28.581 446.959L8.3916 84.3883L53.1134 7.46329H63.4196L108.141 84.3883L87.952 446.959H28.581Z" fill="url(#paint0_linear_637_1543)" stroke="#AF8446" stroke-width="0.825928" stroke-miterlimit="10"/>
<path d="M28.8809 156.203V157.103H31.6169V159.335H28.8809V163.997C28.8809 164.345 28.7549 164.639 28.5029 164.879C28.2629 165.131 27.9689 165.257 27.6209 165.257H25.6409V163.205H26.2889V159.335H23.5169V157.103H26.2889V156.203H23.3549V153.971H24.5249L24.1469 152.585L26.1089 152.135H23.6429V149.885H26.4329L26.3429 149.165L28.8449 148.859L28.9889 149.885H31.7069V152.135H29.0969L31.1849 152.675L30.8069 153.971H31.7969V156.203H28.8809ZM39.4829 154.223V156.563H38.2589V165.275H35.6669V156.563H35.0189C34.9949 158.207 34.8629 159.809 34.6229 161.369L34.0109 165.347L31.4189 164.951L31.4729 164.627L30.0689 164.915L29.1509 160.019L31.1489 159.659L31.7249 163.025L32.0489 160.865C32.2769 159.449 32.3909 157.973 32.3909 156.437V151.505C32.3909 151.049 32.5469 150.653 32.8589 150.317C33.1709 149.969 33.5549 149.771 34.0109 149.723L39.2489 149.183L39.5009 151.541L35.0189 151.973V154.223H39.4829ZM28.7909 152.135H26.5229L27.0269 153.971H28.3049L28.7909 152.135ZM25.9649 160.127L25.1189 164.933L23.1209 164.537L23.8949 159.767L25.9649 160.127ZM51.5969 160.955V165.293H48.7169V160.955H41.5709V158.435H43.1369V156.257L41.0669 155.249L44.1809 148.319L46.8449 149.507L46.5569 150.155H56.4929V152.675H51.5969V154.151H56.5289V156.671H51.5969V158.435H56.8349V160.955H51.5969ZM44.7389 154.151H48.7169V152.675H45.4049L44.7389 154.151ZM48.7169 156.671H46.0169V158.435H48.7169V156.671ZM65.3849 156.131L64.3049 154.421V165.257H61.6409V154.151L61.2629 157.319L59.4989 157.103L60.1109 151.991L61.6409 152.171V149.057H64.3049V152.855L64.8269 152.531L66.6269 155.375L65.3849 156.131ZM69.8669 160.577L66.9869 165.311L64.6829 163.907L67.4909 159.281H65.4569L65.4749 156.833H68.4269C68.4509 156.545 68.4629 156.323 68.4629 156.167V153.647H66.0869V151.217H68.4629V149.057H71.1629V151.217H73.3049C73.7009 151.217 74.0369 151.361 74.3129 151.649C74.6009 151.925 74.7449 152.261 74.7449 152.657V156.833H75.8069L75.8249 159.281C74.0849 159.281 72.7649 159.329 71.8649 159.425C70.9649 159.509 70.4549 159.611 70.3349 159.731L69.8669 160.577ZM72.1709 156.833V153.665H71.1629V155.915C71.1629 156.215 71.1449 156.521 71.1089 156.833H72.1709ZM73.8989 165.563L70.5509 161.225L72.6029 159.605L75.9509 163.907L73.8989 165.563ZM84.7529 155.987V153.197H87.5609V155.987H93.0689V158.399H87.5609L87.5429 163.079C87.5429 163.571 87.3629 163.991 87.0029 164.339C86.6549 164.699 86.2349 164.873 85.7429 164.861H82.0529V162.593L84.7529 162.575V158.399H80.9369C80.4449 158.399 80.0189 158.225 79.6589 157.877C79.3109 157.517 79.1369 157.091 79.1369 156.599L79.1549 152.189C79.1549 151.745 79.2989 151.355 79.5869 151.019C79.8869 150.671 80.2589 150.467 80.7029 150.407L91.7729 148.913L92.1329 151.199L81.8549 152.603V155.987H84.7529ZM82.9349 160.487L79.5509 164.681L77.5889 163.025L80.9729 158.831L82.9349 160.487ZM93.3209 163.097L91.1969 164.609L88.1909 160.487L90.2609 158.957L93.3209 163.097Z" fill="#B66D02"/>
<path d="M58.4189 139.413C80.5103 139.413 98.4189 121.281 98.4189 98.9131C98.4189 76.5456 80.5103 58.4131 58.4189 58.4131C36.3276 58.4131 18.4189 76.5456 18.4189 98.9131C18.4189 121.281 36.3276 139.413 58.4189 139.413Z" fill="#FBD6A0"/>
<path d="M36.6693 97.2251L33.2533 97.4211L33.3093 99.4651H29.1093L28.9973 95.8531C28.96 95.0505 29.212 94.3691 29.7533 93.8091C30.3133 93.2305 30.9947 92.9411 31.7973 92.9411L39.0493 92.9691C39.8707 92.9691 40.5707 93.2585 41.1493 93.8371C41.728 94.4158 42.0173 95.1158 42.0173 95.9371C42.0173 96.4411 41.8867 96.8798 41.6253 97.2531L34.2893 108.929L41.9893 108.285L42.1293 112.765L31.0413 112.737C30.4253 112.737 29.884 112.532 29.4173 112.121C28.9693 111.71 28.7267 111.197 28.6893 110.581C28.6333 110.058 28.7547 109.573 29.0533 109.125L36.6693 97.2251ZM44.3573 95.7971C44.3573 95.0131 44.628 94.3505 45.1693 93.8091C45.7293 93.2678 46.392 92.9971 47.1573 92.9971H55.8373C56.6026 92.9971 57.256 93.2678 57.7973 93.8091C58.3573 94.3505 58.6373 95.0131 58.6373 95.7971V109.937C58.6373 110.702 58.3573 111.356 57.7973 111.897C57.256 112.457 56.6026 112.737 55.8373 112.737H47.1573C46.392 112.737 45.7293 112.457 45.1693 111.897C44.628 111.356 44.3573 110.702 44.3573 109.937V95.7971ZM48.5853 96.9731V108.733H54.4093V96.9731H48.5853ZM68.8529 97.2251L65.4369 97.4211L65.4929 99.4651H61.2929L61.1809 95.8531C61.1436 95.0505 61.3956 94.3691 61.9369 93.8091C62.4969 93.2305 63.1783 92.9411 63.9809 92.9411L71.2329 92.9691C72.0543 92.9691 72.7543 93.2585 73.3329 93.8371C73.9116 94.4158 74.2009 95.1158 74.2009 95.9371C74.2009 96.4411 74.0703 96.8798 73.8089 97.2531L66.4729 108.929L74.1729 108.285L74.3129 112.765L63.2249 112.737C62.6089 112.737 62.0676 112.532 61.6009 112.121C61.1529 111.71 60.9103 111.197 60.8729 110.581C60.8169 110.058 60.9383 109.573 61.2369 109.125L68.8529 97.2251ZM79.3129 92.9691L88.6089 92.9411L88.4689 97.1971L81.0209 96.7771L80.9929 100.753L86.3969 100.865C87.1436 100.884 87.7876 101.164 88.3289 101.705C88.8702 102.246 89.1409 102.9 89.1409 103.665V109.965C89.1409 110.73 88.8609 111.384 88.3009 111.925C87.7596 112.485 87.1062 112.765 86.3409 112.765H79.4809C78.7156 112.765 78.0529 112.494 77.4929 111.953C76.9516 111.412 76.6809 110.758 76.6809 109.993L76.5409 95.7971C76.5222 95.0131 76.7836 94.3505 77.3249 93.8091C77.8849 93.2491 78.5476 92.9691 79.3129 92.9691ZM80.9369 104.617L80.8809 108.873L85.0249 108.789V104.533L80.9369 104.617Z" fill="#B66D02"/>
<path d="M75.6329 228.399L73.1249 228.437V232.009C73.1249 232.845 72.8209 233.554 72.2129 234.137C71.6303 234.745 70.9209 235.049 70.0849 235.049L62.6369 235.011V230.869H67.1209V228.399H49.7169V235.353H43.7129V228.399H41.2049V223.763H43.7129V213.009C43.7129 211.97 44.0803 211.084 44.8149 210.349C45.5749 209.589 46.4743 209.209 47.5129 209.209H55.4169V207.195H41.3949V202.635H75.3669V207.195H61.3449V209.209H69.3249C70.3636 209.209 71.2503 209.589 71.9849 210.349C72.7449 211.084 73.1249 211.97 73.1249 213.009V223.763H75.6329V228.399ZM49.7169 213.731V216.543H55.4169V213.731H49.7169ZM61.3449 213.731V216.543H67.1209V213.731H61.3449ZM49.7169 220.913V223.763H55.4169V220.875L49.7169 220.913ZM61.3449 220.875V223.763H67.1209V220.875H61.3449ZM71.7949 282.189L68.0329 276.793C65.5756 273.297 64.0556 269.421 63.4729 265.165V267.027H60.3189V274.475L64.7649 273.449L65.7909 278.085L53.0609 281.049L52.7569 279.605L48.9189 281.011C48.4883 281.138 48.0956 281.201 47.7409 281.201C47.1836 281.201 46.6516 281.074 46.1449 280.821C45.6383 280.593 45.2203 280.264 44.8909 279.833C44.6376 279.453 44.4603 279.111 44.3589 278.807C44.2323 278.376 44.1689 277.984 44.1689 277.629V264.785H41.3569V259.275H46.4109C47.3483 259.275 48.1463 259.617 48.8049 260.301C49.4889 260.96 49.8309 261.758 49.8309 262.695V274.969L51.8449 274.323L52.3389 276.299L54.6949 275.767V267.027H52.3009V262.087H63.2069V261.555V258.705H51.6929V253.385H63.2069V248.141H68.8309V253.385H70.4269L69.4009 248.749L73.4669 247.837L74.5689 252.701L71.4909 253.385H75.4809V258.705H68.8309V261.555C68.8309 263.708 69.1476 265.811 69.7809 267.863C70.4396 269.89 71.3896 271.79 72.6309 273.563L76.4309 278.997L71.7949 282.189ZM50.1349 255.741H44.3209V249.965H50.1349V255.741ZM71.7949 328.189L68.0329 322.793C65.5756 319.297 64.0556 315.421 63.4729 311.165V313.027H60.3189V320.475L64.7649 319.449L65.7909 324.085L53.0609 327.049L52.7569 325.605L48.9189 327.011C48.4883 327.138 48.0956 327.201 47.7409 327.201C47.1836 327.201 46.6516 327.074 46.1449 326.821C45.6383 326.593 45.2203 326.264 44.8909 325.833C44.6376 325.453 44.4603 325.111 44.3589 324.807C44.2323 324.376 44.1689 323.984 44.1689 323.629V310.785H41.3569V305.275H46.4109C47.3483 305.275 48.1463 305.617 48.8049 306.301C49.4889 306.96 49.8309 307.758 49.8309 308.695V320.969L51.8449 320.323L52.3389 322.299L54.6949 321.767V313.027H52.3009V308.087H63.2069V307.555V304.705H51.6929V299.385H63.2069V294.141H68.8309V299.385H70.4269L69.4009 294.749L73.4669 293.837L74.5689 298.701L71.4909 299.385H75.4809V304.705H68.8309V307.555C68.8309 309.708 69.1476 311.811 69.7809 313.863C70.4396 315.89 71.3896 317.79 72.6309 319.563L76.4309 324.997L71.7949 328.189ZM50.1349 301.741H44.3209V295.965H50.1349V301.741ZM75.7849 364.385H62.4089V370.617C62.4089 371.453 62.1049 372.162 61.4969 372.745C60.9143 373.353 60.2049 373.657 59.3689 373.657H49.8309V368.717H56.4049V364.385H42.0789V359.141H56.4049V355.303H43.6369V350.135H56.4049V346.677L43.4849 347.133L43.2569 341.813L74.4929 340.673L74.7209 345.993L62.4089 346.449V350.135H74.3029V355.303H62.4089V359.141H75.7849V364.385ZM76.7349 417.225L72.0989 420.531L68.5269 415.515C67.6149 414.223 66.9183 412.83 66.4369 411.335C65.9556 409.815 65.7149 408.27 65.7149 406.699V404.761H44.3969V400.885L41.3189 400.125L45.4229 385.381L51.2369 386.635L50.9709 387.623H74.9869V392.259H49.7169L47.6649 399.821H67.6149C68.6536 399.821 69.5403 400.201 70.2749 400.961C71.0349 401.696 71.4149 402.582 71.4149 403.621V406.091C71.4149 408.548 72.1243 410.752 73.5429 412.703L76.7349 417.225ZM49.7929 393.855H73.6189V398.187H49.7929V393.855Z" fill="#B66D02"/>
<defs>
<linearGradient id="paint0_linear_637_1543" x1="68.5082" y1="318.385" x2="111.885" y2="35.8001" gradientUnits="userSpaceOnUse">
<stop stop-color="#FFE9C5"/>
<stop offset="1" stop-color="white"/>
</linearGradient>
</defs>
</svg>
