<svg width="117" height="455" viewBox="0 0 117 455" fill="none" xmlns="http://www.w3.org/2000/svg">
<path d="M94.9069 454.413L21.1577 454.341L0.418945 83.2129L47.6525 0.413147L69.4017 0.431117L116.419 83.3147L94.9069 454.413Z" fill="#FCD999" stroke="#AF8446" stroke-width="0.825928" stroke-miterlimit="10"/>
<path d="M28.581 446.959L8.3916 84.3883L53.1134 7.46329H63.4196L108.141 84.3883L87.952 446.959H28.581Z" fill="url(#paint0_linear_637_1531)" stroke="#AF8446" stroke-width="0.825928" stroke-miterlimit="10"/>
<path d="M47.2789 165.453H29.5989V162.653H36.5989V148.293H39.7989V153.113H47.0989V155.873H39.7989V162.653H47.2789V165.453ZM67.2789 165.453H49.5989V162.653H56.5989V148.293H59.7989V153.113H67.0989V155.873H59.7989V162.653H67.2789V165.453ZM69.2189 154.853L71.8989 148.533L74.6589 149.653L74.4189 150.173H78.6589V152.653H75.0989L76.9389 153.613L76.0189 155.333L73.4989 154.013L74.2189 152.653H73.3789L71.8989 156.013L69.2189 154.853ZM80.8589 148.813L83.6589 149.813L83.4589 150.293H87.1389V152.773H84.0189L86.3789 154.013L85.4189 155.813L82.7789 154.413L83.6589 152.773H82.4189L81.2989 155.453L78.5789 154.333L80.8589 148.813ZM69.6589 157.333L78.3789 154.733L87.6989 157.653L86.4989 160.053L83.0589 158.933V160.813H73.8189V158.853H82.7389L78.3789 157.453L70.6189 159.773L69.6589 157.333ZM87.5789 163.733V166.213H69.6989V163.733H72.0989V161.613H75.0989V163.733H77.2989V161.613H80.2989V163.733H82.4989V161.653H85.4989V163.733H87.5789Z" fill="#B66D02"/>
<path d="M58.4189 139.413C80.5103 139.413 98.4189 121.281 98.4189 98.9131C98.4189 76.5456 80.5103 58.4131 58.4189 58.4131C36.3276 58.4131 18.4189 76.5456 18.4189 98.9131C18.4189 121.281 36.3276 139.413 58.4189 139.413Z" fill="#FBD6A0"/>
<path d="M35.5364 94.4451C35.5364 93.2131 35.9617 92.1718 36.8124 91.3211C37.6924 90.4705 38.7337 90.0451 39.9364 90.0451H53.5764C54.779 90.0451 55.8057 90.4705 56.6564 91.3211C57.5364 92.1718 57.9764 93.2131 57.9764 94.4451V116.665C57.9764 117.868 57.5364 118.894 56.6564 119.745C55.8057 120.625 54.779 121.065 53.5764 121.065H39.9364C38.7337 121.065 37.6924 120.625 36.8124 119.745C35.9617 118.894 35.5364 117.868 35.5364 116.665V94.4451ZM42.1804 96.2931V114.773H51.3324V96.2931H42.1804ZM63.4695 116.841L68.0455 116.577L67.7375 96.4691L64.3055 96.8211L64.0855 90.1331H70.7295C71.9322 90.1331 72.9588 90.5731 73.8095 91.4531C74.6895 92.3038 75.1295 93.3305 75.1295 94.5331L74.9975 116.137L79.0455 115.873L79.2655 120.977L63.4695 120.933V116.841Z" fill="#B66D02"/>
<path d="M51.9389 69.3971V69.4451L57.3789 76.5651L57.2829 69.3971H60.3229V80.7091H57.4429L52.0029 73.3971L52.0989 80.7091H49.0589V69.3971H51.9389ZM62.0538 80.2291C61.7552 79.9305 61.6058 79.5625 61.6058 79.1251V74.4211C61.6058 73.9945 61.7552 73.6318 62.0538 73.3331C62.3632 73.0238 62.7312 72.8691 63.1578 72.8691H67.2378C67.6645 72.8691 68.0272 73.0238 68.3258 73.3331C68.6352 73.6318 68.7898 73.9945 68.7898 74.4211V79.1251C68.7898 79.5518 68.6352 79.9145 68.3258 80.2131C68.0272 80.5225 67.6645 80.6771 67.2378 80.6771H63.1578C62.7312 80.6771 62.3632 80.5278 62.0538 80.2291ZM66.3578 75.0771L64.0218 75.1571V78.3891L66.3578 78.3251V75.0771ZM72.5866 80.3731H70.0746L70.2186 78.0051H72.5866V80.3731Z" fill="#B66D02"/>
<path d="M78.3069 246.161H70.0789V252.189H63.2589V246.161H55.0309V231.157L51.9949 236.261L50.3669 235.205V252.189H44.4709V236.481L41.8749 242.157L37.6509 239.957L47.0229 221.389H39.6309V215.757H44.3389L43.6789 212.941L49.3549 212.237L50.1029 215.757H50.8949C51.9216 215.757 52.7869 216.124 53.4909 216.857C54.2243 217.561 54.5909 218.426 54.5909 219.453C54.5909 220.157 54.4443 220.758 54.1509 221.257L50.4109 228.121L55.0309 230.849V219.629C55.0309 218.661 55.3683 217.84 56.0429 217.165C56.7469 216.461 57.5829 216.109 58.5509 216.109H63.2589V212.721H70.0789V216.109H74.7869C75.7549 216.109 76.5763 216.461 77.2509 217.165C77.9549 217.84 78.3069 218.661 78.3069 219.629V246.161ZM60.7949 222.533V227.901H64.1389V222.533H60.7949ZM69.1989 222.533V227.901H72.6309V222.533H69.1989ZM60.7949 233.533V239.693H64.1389V233.533H60.7949ZM69.1989 233.533V239.693H72.6309V233.533H69.1989ZM70.0789 290.537L78.1749 301.361L72.4109 305.541L62.1589 290.537H61.8069L61.7629 305.541H54.7229L54.7669 290.537H54.4149L44.1189 305.541L38.3549 301.581L46.5389 290.537H38.5749V284.465H44.3389L42.7549 278.041L49.1789 276.941L51.1149 284.465H54.8109V275.665H39.8949V269.681H54.8549V265.941H61.8949V269.681H76.8549V275.665H61.8509V284.465H65.4149L67.5709 276.941L73.9949 278.041L72.2349 284.465H78.1749V290.537H70.0789ZM77.4269 356.957H63.3469C60.8829 356.957 58.4776 356.546 56.1309 355.725C53.7843 354.904 51.6429 353.73 49.7069 352.205L49.2669 351.853L42.5789 357.485L38.0909 352.117L64.8429 329.721H41.8309V323.649H55.1629L54.1949 319.337L60.8829 317.797L62.2029 323.649H71.7509C72.8656 323.649 73.8189 324.045 74.6109 324.837C75.4323 325.629 75.8429 326.582 75.8429 327.697C75.8429 328.313 75.7109 328.9 75.4469 329.457C75.2123 329.985 74.8603 330.44 74.3909 330.821L54.7669 347.277C57.7883 349.36 60.6923 350.401 63.4789 350.401H77.4269V356.957ZM76.8109 404.325V407.669C76.8109 408.637 76.4589 409.458 75.7549 410.133C75.0803 410.837 74.2589 411.189 73.2909 411.189H58.2429C57.1576 411.189 56.2189 410.793 55.4269 410.001C54.6643 409.238 54.2829 408.314 54.2829 407.229V404.149L39.0149 404.677L38.7949 399.397L54.2829 398.781V397.285L40.9509 397.901L40.7309 392.885L54.2829 392.269V390.685L41.8749 391.213L41.6549 386.021L68.6709 384.965L66.2509 380.653H65.1949L62.3349 385.141L57.2309 381.973L58.0669 380.653H53.8869L54.9869 382.589L50.3229 385.053L47.8149 380.653H46.7589L43.8989 385.141L38.7949 381.973L45.5709 371.237L50.8949 374.141L50.2789 375.109H58.8589V379.421L64.0069 371.237L69.3309 374.141L68.7149 375.109H77.2949V380.653H72.3229L73.4229 382.589L69.0229 384.965L75.3149 384.701L75.5349 389.717L61.5429 390.333V391.917L75.5349 391.301L75.7549 396.317L61.5429 396.933V398.517L77.8229 397.901L78.0429 403.269L61.5429 403.885V406.261L71.0469 406.085V404.325H76.8109Z" fill="#B66D02"/>
<defs>
<linearGradient id="paint0_linear_637_1531" x1="68.5082" y1="318.385" x2="111.885" y2="35.8001" gradientUnits="userSpaceOnUse">
<stop stop-color="#FFE9C5"/>
<stop offset="1" stop-color="white"/>
</linearGradient>
</defs>
</svg>
