<svg width="117" height="455" viewBox="0 0 117 455" fill="none" xmlns="http://www.w3.org/2000/svg">
<path d="M94.9069 454.413L21.1577 454.341L0.418945 83.2129L47.6525 0.413147L69.4017 0.431117L116.419 83.3147L94.9069 454.413Z" fill="#FCD999" stroke="#AF8446" stroke-width="0.825928" stroke-miterlimit="10"/>
<path d="M28.581 446.959L8.3916 84.3883L53.1134 7.46329H63.4196L108.141 84.3883L87.952 446.959H28.581Z" fill="url(#paint0_linear_637_1527)" stroke="#AF8446" stroke-width="0.825928" stroke-miterlimit="10"/>
<path d="M57.2789 165.453H39.5989V162.653H46.5989V148.293H49.7989V153.113H57.0989V155.873H49.7989V162.653H57.2789V165.453ZM59.2189 154.853L61.8989 148.533L64.6589 149.653L64.4189 150.173H68.6589V152.653H65.0989L66.9389 153.613L66.0189 155.333L63.4989 154.013L64.2189 152.653H63.3789L61.8989 156.013L59.2189 154.853ZM70.8589 148.813L73.6589 149.813L73.4589 150.293H77.1389V152.773H74.0189L76.3789 154.013L75.4189 155.813L72.7789 154.413L73.6589 152.773H72.4189L71.2989 155.453L68.5789 154.333L70.8589 148.813ZM59.6589 157.333L68.3789 154.733L77.6989 157.653L76.4989 160.053L73.0589 158.933V160.813H63.8189V158.853H72.7389L68.3789 157.453L60.6189 159.773L59.6589 157.333ZM77.5789 163.733V166.213H59.6989V163.733H62.0989V161.613H65.0989V163.733H67.2989V161.613H70.2989V163.733H72.4989V161.653H75.4989V163.733H77.5789Z" fill="#B66D02"/>
<path d="M58.4189 139.413C80.5103 139.413 98.4189 121.281 98.4189 98.9131C98.4189 76.5456 80.5103 58.4131 58.4189 58.4131C36.3276 58.4131 18.4189 76.5456 18.4189 98.9131C18.4189 121.281 36.3276 139.413 58.4189 139.413Z" fill="#FBD6A0"/>
<path d="M55.3396 119.437C54.489 120.317 53.4623 120.757 52.2596 120.757H38.8836C37.681 120.757 36.6396 120.317 35.7596 119.437C34.909 118.586 34.4836 117.56 34.4836 116.357V94.7091C34.4836 93.4771 34.909 92.4358 35.7596 91.5851C36.6396 90.7345 37.681 90.3091 38.8836 90.3091H52.2596C53.4623 90.3091 54.489 90.7345 55.3396 91.5851C56.2196 92.4358 56.6596 93.4771 56.6596 94.7091V116.357C56.6596 117.56 56.2196 118.586 55.3396 119.437ZM41.0396 102.013H50.1916V95.5891H41.0396V102.013ZM41.0396 107.821V114.641L50.1916 114.509V107.821H41.0396ZM81.0349 119.437C80.1843 120.317 79.1576 120.757 77.9549 120.757H64.5789C63.3763 120.757 62.3349 120.317 61.4549 119.437C60.6043 118.586 60.1789 117.56 60.1789 116.357V94.7091C60.1789 93.4771 60.6043 92.4358 61.4549 91.5851C62.3349 90.7345 63.3763 90.3091 64.5789 90.3091H77.9549C79.1576 90.3091 80.1843 90.7345 81.0349 91.5851C81.9149 92.4358 82.3549 93.4771 82.3549 94.7091V116.357C82.3549 117.56 81.9149 118.586 81.0349 119.437ZM66.7349 102.013H75.8869V95.5891H66.7349V102.013ZM66.7349 107.821V114.641L75.8869 114.509V107.821H66.7349Z" fill="#B66D02"/>
<path d="M51.9389 69.3971V69.4451L57.3789 76.5651L57.2829 69.3971H60.3229V80.7091H57.4429L52.0029 73.3971L52.0989 80.7091H49.0589V69.3971H51.9389ZM62.0538 80.2291C61.7552 79.9305 61.6058 79.5625 61.6058 79.1251V74.4211C61.6058 73.9945 61.7552 73.6318 62.0538 73.3331C62.3632 73.0238 62.7312 72.8691 63.1578 72.8691H67.2378C67.6645 72.8691 68.0272 73.0238 68.3258 73.3331C68.6352 73.6318 68.7898 73.9945 68.7898 74.4211V79.1251C68.7898 79.5518 68.6352 79.9145 68.3258 80.2131C68.0272 80.5225 67.6645 80.6771 67.2378 80.6771H63.1578C62.7312 80.6771 62.3632 80.5278 62.0538 80.2291ZM66.3578 75.0771L64.0218 75.1571V78.3891L66.3578 78.3251V75.0771ZM72.5866 80.3731H70.0746L70.2186 78.0051H72.5866V80.3731Z" fill="#B66D02"/>
<path d="M41.4349 227.945C40.6429 227.065 40.2469 226.009 40.2469 224.777V212.677H46.8469V215.757H57.2749V220.597H46.8469V224.469L57.5389 222.885L58.1989 227.813L45.8789 229.617C45.7029 229.646 45.4536 229.661 45.1309 229.661C44.4269 229.661 43.7523 229.514 43.1069 229.221C42.4616 228.928 41.9043 228.502 41.4349 227.945ZM76.8109 221.037V225.965C76.8109 226.816 76.5029 227.549 75.8869 228.165C75.3003 228.752 74.5816 229.045 73.7309 229.045H63.3909C62.4229 229.045 61.5869 228.708 60.8829 228.033C60.2083 227.329 59.8709 226.493 59.8709 225.525V212.677H66.4709V216.065L76.3709 214.921L76.8549 219.717L66.4709 220.861V224.029H72.4549V221.037H76.8109ZM70.6069 231.465C71.7216 231.465 72.6603 231.846 73.4229 232.609C74.1856 233.372 74.5669 234.31 74.5669 235.425V251.749H42.2269V235.425C42.2269 234.31 42.6083 233.372 43.3709 232.609C44.1629 231.846 45.1016 231.465 46.1869 231.465H52.3909L52.6549 228.957L59.4309 229.529L59.2549 231.465H70.6069ZM49.0029 239.165H67.7909V236.569H49.0029V239.165ZM49.0029 243.829V246.469H67.7909V243.829H49.0029ZM71.2229 305.453L59.6069 286.621L65.1069 283.321H56.7909L45.7469 305.409L39.4109 302.285L48.9149 283.321H39.5869V277.161H51.9949L57.6709 265.765L64.0949 268.669L59.8709 277.161H77.1629V283.321H65.8109L77.2949 301.845L71.2229 305.453ZM73.5549 322.549C74.5523 322.549 75.3883 322.901 76.0629 323.605C76.7669 324.28 77.1043 325.116 77.0749 326.113V335.265H71.0469V328.181H63.0829L61.0149 337.773L54.9429 336.409L59.1229 317.841L65.8109 319.205L65.0189 322.549H73.5549ZM73.6429 357.969L66.7789 345.341L60.9269 357.617L56.4829 355.461L52.0389 357.397L48.5189 348.729L45.3949 357.441L39.3669 355.461L44.9989 340.149L40.9069 330.117L46.3189 328.313L47.9469 332.185L49.8389 326.993H40.1589V321.273H52.5229C53.5789 321.273 54.4883 321.64 55.2509 322.373C56.0429 323.077 56.4829 323.957 56.5709 325.013V325.321C56.5709 325.79 56.4829 326.245 56.3069 326.685L51.4229 340.501L56.5269 352.733L62.0709 341.117C62.6576 339.885 62.9509 338.624 62.9509 337.333V331.745H69.0229V336.453C69.0229 338.037 68.8176 339.621 68.4069 341.205L70.6509 339.885L78.7909 354.845L73.6429 357.969ZM38.8389 377.793V373.217H54.9869V371.897H61.8509V373.217H77.9989V377.793H61.8509V379.333H77.3389V383.733H39.4989V379.333H54.9869V377.793H38.8389ZM78.2189 400.145H38.6189V395.657H44.8669L44.4709 394.337H41.0389V388.133C41.0389 387.282 41.3323 386.564 41.9189 385.977C42.5349 385.361 43.2683 385.053 44.1189 385.053H72.7189C73.5696 385.053 74.2883 385.361 74.8749 385.977C75.4909 386.564 75.7989 387.282 75.7989 388.133V394.337H72.6309L72.1909 395.657H78.2189V400.145ZM69.5509 390.465V388.925H47.2869V390.465H69.5509ZM65.3269 395.657L65.7229 394.337H51.3349L51.7749 395.657H65.3269ZM72.9389 401.245C73.9069 401.245 74.7283 401.582 75.4029 402.257C76.1069 402.932 76.4589 403.768 76.4589 404.765V411.057H40.3789V404.765C40.3789 403.768 40.7163 402.932 41.3909 402.257C42.0949 401.582 42.9309 401.245 43.8989 401.245H72.9389ZM69.6829 406.921V405.381H47.1549V406.921H69.6829Z" fill="#B66D02"/>
<defs>
<linearGradient id="paint0_linear_637_1527" x1="68.5082" y1="318.385" x2="111.885" y2="35.8001" gradientUnits="userSpaceOnUse">
<stop stop-color="#FFE9C5"/>
<stop offset="1" stop-color="white"/>
</linearGradient>
</defs>
</svg>
