<svg width="117" height="455" viewBox="0 0 117 455" fill="none" xmlns="http://www.w3.org/2000/svg">
<path d="M94.9069 454.413L21.1577 454.341L0.418945 83.2129L47.6525 0.413147L69.4017 0.431117L116.419 83.3147L94.9069 454.413Z" fill="#FCD999" stroke="#AF8446" stroke-width="0.825928" stroke-miterlimit="10"/>
<path d="M28.581 446.959L8.3916 84.3883L53.1134 7.46329H63.4196L108.141 84.3883L87.952 446.959H28.581Z" fill="url(#paint0_linear_637_1638)" stroke="#AF8446" stroke-width="0.825928" stroke-miterlimit="10"/>
<path d="M47.2789 165.453H29.5989V162.653H36.5989V148.293H39.7989V153.113H47.0989V155.873H39.7989V162.653H47.2789V165.453ZM67.2789 165.453H49.5989V162.653H56.5989V148.293H59.7989V153.113H67.0989V155.873H59.7989V162.653H67.2789V165.453ZM69.2189 154.853L71.8989 148.533L74.6589 149.653L74.4189 150.173H78.6589V152.653H75.0989L76.9389 153.613L76.0189 155.333L73.4989 154.013L74.2189 152.653H73.3789L71.8989 156.013L69.2189 154.853ZM80.8589 148.813L83.6589 149.813L83.4589 150.293H87.1389V152.773H84.0189L86.3789 154.013L85.4189 155.813L82.7789 154.413L83.6589 152.773H82.4189L81.2989 155.453L78.5789 154.333L80.8589 148.813ZM69.6589 157.333L78.3789 154.733L87.6989 157.653L86.4989 160.053L83.0589 158.933V160.813H73.8189V158.853H82.7389L78.3789 157.453L70.6189 159.773L69.6589 157.333ZM87.5789 163.733V166.213H69.6989V163.733H72.0989V161.613H75.0989V163.733H77.2989V161.613H80.2989V163.733H82.4989V161.653H85.4989V163.733H87.5789Z" fill="#B66D02"/>
<path d="M58.4189 139.413C80.5103 139.413 98.4189 121.281 98.4189 98.9131C98.4189 76.5456 80.5103 58.4131 58.4189 58.4131C36.3276 58.4131 18.4189 76.5456 18.4189 98.9131C18.4189 121.281 36.3276 139.413 58.4189 139.413Z" fill="#FBD6A0"/>
<path d="M48.7424 96.6891L43.3744 96.9971L43.4624 100.209H36.8624L36.6864 94.5331C36.6277 93.2718 37.0237 92.2011 37.8744 91.3211C38.7544 90.4118 39.825 89.9571 41.0864 89.9571L52.4824 90.0011C53.7731 90.0011 54.8731 90.4558 55.7824 91.3651C56.6917 92.2745 57.1464 93.3745 57.1464 94.6651C57.1464 95.4571 56.9411 96.1465 56.5304 96.7331L45.0024 115.081L57.1024 114.069L57.3224 121.109L39.8984 121.065C38.9304 121.065 38.0797 120.742 37.3464 120.097C36.6424 119.452 36.261 118.645 36.2024 117.677C36.1144 116.856 36.305 116.093 36.7744 115.389L48.7424 96.6891ZM65.1795 90.0011L79.7875 89.9571L79.5675 96.6451L67.8635 95.9851L67.8195 102.233L76.3115 102.409C77.4848 102.438 78.4968 102.878 79.3475 103.729C80.1981 104.58 80.6235 105.606 80.6235 106.809V116.709C80.6235 117.912 80.1835 118.938 79.3035 119.789C78.4528 120.669 77.4261 121.109 76.2235 121.109H65.4435C64.2408 121.109 63.1995 120.684 62.3195 119.833C61.4688 118.982 61.0435 117.956 61.0435 116.753L60.8235 94.4451C60.7941 93.2131 61.2048 92.1718 62.0555 91.3211C62.9355 90.4411 63.9768 90.0011 65.1795 90.0011ZM67.7315 108.305L67.6435 114.993L74.1555 114.861V108.173L67.7315 108.305Z" fill="#B66D02"/>
<path d="M51.9389 69.3971V69.4451L57.3789 76.5651L57.2829 69.3971H60.3229V80.7091H57.4429L52.0029 73.3971L52.0989 80.7091H49.0589V69.3971H51.9389ZM62.0538 80.2291C61.7552 79.9305 61.6058 79.5625 61.6058 79.1251V74.4211C61.6058 73.9945 61.7552 73.6318 62.0538 73.3331C62.3632 73.0238 62.7312 72.8691 63.1578 72.8691H67.2378C67.6645 72.8691 68.0272 73.0238 68.3258 73.3331C68.6352 73.6318 68.7898 73.9945 68.7898 74.4211V79.1251C68.7898 79.5518 68.6352 79.9145 68.3258 80.2131C68.0272 80.5225 67.6645 80.6771 67.2378 80.6771H63.1578C62.7312 80.6771 62.3632 80.5278 62.0538 80.2291ZM66.3578 75.0771L64.0218 75.1571V78.3891L66.3578 78.3251V75.0771ZM72.5866 80.3731H70.0746L70.2186 78.0051H72.5866V80.3731Z" fill="#B66D02"/>
<path d="M54.4589 236.305L50.4549 237.229V248.009C50.4549 248.977 50.1029 249.798 49.3989 250.473C48.7243 251.177 47.9029 251.529 46.9349 251.529H39.7629V245.985H43.5909V238.769L40.0709 239.561L38.6629 233.621L43.5909 232.521V225.877H39.5429V219.805H43.5909V212.413H50.4549V219.805H53.8869V225.877H50.4549V231.025L53.5349 230.321L54.4589 236.305ZM73.2469 251.925L67.3509 239.561L62.1589 252.057L55.6469 249.373L61.6749 234.765L61.7629 234.589H55.1629V228.561H63.1269C63.1563 228.268 63.1709 227.813 63.1709 227.197V223.677H56.3069V217.693H63.1709V212.501H70.2549V217.693H78.2189V223.677H70.2549V227.285C70.2549 227.872 70.2403 228.297 70.2109 228.561H78.7469V234.589H69.2429C69.0083 235.41 68.6709 236.349 68.2309 237.405L72.8069 235.117L79.3629 248.581L73.2469 251.925ZM52.7429 267.569L77.0749 265.985L77.3829 271.529L53.0509 273.113L52.7429 267.569ZM67.8789 299.689H71.7949V296.477H77.3389V301.581C77.3389 302.549 76.9869 303.37 76.2829 304.045C75.6083 304.749 74.7869 305.101 73.8189 305.101H55.2949C54.3269 305.101 53.4909 304.749 52.7869 304.045C52.1123 303.37 51.7749 302.549 51.7749 301.581V296.477H57.3189V299.689H61.4549V295.025H51.2029V290.317H55.7349L51.9949 289.085L52.1269 290.009L48.5189 290.625L48.3429 301.669C48.3136 302.637 47.9469 303.458 47.2429 304.133C46.5683 304.808 45.7616 305.145 44.8229 305.145H39.2349V299.601H42.7109V291.637L39.5429 292.165L38.5749 286.401L42.7109 285.697V279.317H39.0149V273.421H42.7109V266.029H48.6949V273.421H52.1269V279.317H48.6949L48.6069 284.729L51.3789 284.289L51.7309 286.885L53.7989 280.329L55.1629 280.813L53.8869 275.005L59.2109 273.729L60.8389 281.429L58.4629 281.913L58.9469 282.089L58.7709 282.661H76.4589V287.281H67.8789V290.317H77.6469V295.025H67.8789V299.689ZM71.4429 272.849L76.6349 274.125L74.9629 281.913L69.8149 280.637L71.4429 272.849ZM66.9549 272.893L68.5829 280.593L63.4349 281.693L61.7629 274.169L66.9549 272.893ZM61.4549 287.281H57.1869L56.1749 290.317H61.4549V287.281ZM42.9749 352.381V331.349C42.9749 330.234 43.3563 329.296 44.1189 328.533C44.9109 327.77 45.8496 327.389 46.9349 327.389H54.9429V325.541H39.6749V320.437H54.9429V318.633H61.8069V320.437H77.2509V325.541H61.8069V327.389H70.2989C71.4136 327.389 72.3523 327.77 73.1149 328.533C73.8776 329.296 74.2589 330.234 74.2589 331.349V352.381H78.1749V357.749H38.6189V352.381H42.9749ZM49.3989 334.429H67.8349V332.669H49.3989V334.429ZM49.3989 340.325H67.8349V338.565H49.3989V340.325ZM49.3989 346.221H67.8349V344.461H49.3989V346.221ZM49.3989 352.381H67.8349V350.357H49.3989V352.381ZM77.9109 408.901H39.0149V402.741H54.4149V371.149H61.4549V381.753H77.5149V387.825H61.4549V402.741H77.9109V408.901Z" fill="#B66D02"/>
<defs>
<linearGradient id="paint0_linear_637_1638" x1="68.5082" y1="318.385" x2="111.885" y2="35.8001" gradientUnits="userSpaceOnUse">
<stop stop-color="#FFE9C5"/>
<stop offset="1" stop-color="white"/>
</linearGradient>
</defs>
</svg>
