<svg width="117" height="455" viewBox="0 0 117 455" fill="none" xmlns="http://www.w3.org/2000/svg">
<path d="M94.9069 454.413L21.1577 454.341L0.418945 83.2129L47.6525 0.413147L69.4017 0.431117L116.419 83.3147L94.9069 454.413Z" fill="#FCD999" stroke="#AF8446" stroke-width="0.825928" stroke-miterlimit="10"/>
<path d="M28.581 446.959L8.3916 84.3883L53.1134 7.46329H63.4196L108.141 84.3883L87.952 446.959H28.581Z" fill="url(#paint0_linear_637_1545)" stroke="#AF8446" stroke-width="0.825928" stroke-miterlimit="10"/>
<path d="M57.2789 165.453H39.5989V162.653H46.5989V148.293H49.7989V153.113H57.0989V155.873H49.7989V162.653H57.2789V165.453ZM59.2189 154.853L61.8989 148.533L64.6589 149.653L64.4189 150.173H68.6589V152.653H65.0989L66.9389 153.613L66.0189 155.333L63.4989 154.013L64.2189 152.653H63.3789L61.8989 156.013L59.2189 154.853ZM70.8589 148.813L73.6589 149.813L73.4589 150.293H77.1389V152.773H74.0189L76.3789 154.013L75.4189 155.813L72.7789 154.413L73.6589 152.773H72.4189L71.2989 155.453L68.5789 154.333L70.8589 148.813ZM59.6589 157.333L68.3789 154.733L77.6989 157.653L76.4989 160.053L73.0589 158.933V160.813H63.8189V158.853H72.7389L68.3789 157.453L60.6189 159.773L59.6589 157.333ZM77.5789 163.733V166.213H59.6989V163.733H62.0989V161.613H65.0989V163.733H67.2989V161.613H70.2989V163.733H72.4989V161.653H75.4989V163.733H77.5789Z" fill="#B66D02"/>
<path d="M58.4189 139.413C80.5103 139.413 98.4189 121.281 98.4189 98.9131C98.4189 76.5456 80.5103 58.4131 58.4189 58.4131C36.3276 58.4131 18.4189 76.5456 18.4189 98.9131C18.4189 121.281 36.3276 139.413 58.4189 139.413Z" fill="#FBD6A0"/>
<path d="M56.6589 93.8291C56.6589 94.0051 56.6296 94.2398 56.5709 94.5331L51.5989 121.109H45.1309L49.1789 95.9851L38.3989 96.6451L38.1789 89.9571L52.7869 90.0011C53.8723 90.0011 54.7816 90.3825 55.5149 91.1451C56.2776 91.8785 56.6589 92.7731 56.6589 93.8291ZM78.6589 93.8291C78.6589 94.0051 78.6296 94.2398 78.5709 94.5331L73.5989 121.109H67.1309L71.1789 95.9851L60.3989 96.6451L60.1789 89.9571L74.7869 90.0011C75.8723 90.0011 76.7816 90.3825 77.5149 91.1451C78.2776 91.8785 78.6589 92.7731 78.6589 93.8291Z" fill="#B66D02"/>
<path d="M51.9389 69.3971V69.4451L57.3789 76.5651L57.2829 69.3971H60.3229V80.7091H57.4429L52.0029 73.3971L52.0989 80.7091H49.0589V69.3971H51.9389ZM62.0538 80.2291C61.7552 79.9305 61.6058 79.5625 61.6058 79.1251V74.4211C61.6058 73.9945 61.7552 73.6318 62.0538 73.3331C62.3632 73.0238 62.7312 72.8691 63.1578 72.8691H67.2378C67.6645 72.8691 68.0272 73.0238 68.3258 73.3331C68.6352 73.6318 68.7898 73.9945 68.7898 74.4211V79.1251C68.7898 79.5518 68.6352 79.9145 68.3258 80.2131C68.0272 80.5225 67.6645 80.6771 67.2378 80.6771H63.1578C62.7312 80.6771 62.3632 80.5278 62.0538 80.2291ZM66.3578 75.0771L64.0218 75.1571V78.3891L66.3578 78.3251V75.0771ZM72.5866 80.3731H70.0746L70.2186 78.0051H72.5866V80.3731Z" fill="#B66D02"/>
<path d="M73.8629 221.917C74.7136 222.064 75.4176 222.46 75.9749 223.105C76.5323 223.75 76.8109 224.513 76.8109 225.393V234.501C76.8109 235.469 76.4736 236.305 75.7989 237.009C75.1243 237.684 74.2883 238.021 73.2909 238.021H55.6029V233.709H70.4749V231.685H56.1309V228.077H70.4749V226.185H55.6909V223.237L54.1069 222.753L57.8909 211.841L63.9629 213.029L63.2589 214.833H72.2789C73.1589 214.833 73.9069 215.141 74.5229 215.757C75.1683 216.402 75.4909 217.15 75.4909 218.001C75.4909 218.5 75.3736 218.984 75.1389 219.453L73.8629 221.917ZM55.0749 239.605L51.9069 240.441L50.2349 231.905V252.277H43.8989V233.621L42.4029 243.609L38.2669 242.421L40.9949 229.001H38.8829V223.501H43.7229V220.333L39.7629 220.597L39.2349 214.921L54.0189 213.777L54.5469 219.541L50.4109 219.849V223.501H54.2829V229.001H50.2349V231.685L53.3149 231.025L55.0749 239.605ZM67.5709 221.873L68.8029 219.497H61.5869L60.7069 221.873H67.5709ZM69.6829 243.785L66.0749 244.445L65.1069 238.901L68.7149 238.329L69.6829 243.785ZM75.3149 251.089L74.4349 245.589V248.801C74.4349 249.652 74.1269 250.37 73.5109 250.957C72.9243 251.573 72.2056 251.881 71.3549 251.881H62.0269C61.0296 251.881 60.1936 251.529 59.5189 250.825C58.8443 250.15 58.5069 249.329 58.5069 248.361V239.121H64.6669V246.953H70.2989V242.069H73.9069L73.5549 239.869L76.8109 239.297L78.5709 250.429L75.3149 251.089ZM58.2429 240.397L56.8349 251.221L53.3149 250.737L54.6349 240.089L58.2429 240.397ZM39.0589 284.201V278.085H44.1189V267.877H50.8949V278.085H55.9109V265.413H62.8629V268.845H75.6229V274.565H62.8629V278.085H77.9989V284.201H62.3349V293.309H55.3829V284.201H50.1469L53.4029 287.985L43.8989 295.949L39.8069 291.197L48.1669 284.201H39.0589ZM77.9549 289.613L68.1869 299.337C66.5443 300.98 64.6376 302.241 62.4669 303.121C60.3256 304.03 58.0816 304.485 55.7349 304.485H39.4989V298.105H54.8989C56.6589 298.105 58.3456 297.768 59.9589 297.093C61.5723 296.418 63.0096 295.465 64.2709 294.233L73.3789 285.081L77.9549 289.613ZM72.1029 332.933H78.0869V338.389H72.1029V342.437H78.0869V347.893H72.1029V352.117H78.7469V357.837H60.7949V358.673H54.0189V335.309L50.9829 333.769L51.4229 332.757H49.5749V339.181L52.2589 338.653L53.3149 344.153L49.5749 344.945V354.713C49.5749 355.681 49.2229 356.502 48.5189 357.177C47.8443 357.881 47.0229 358.233 46.0549 358.233H39.8069V352.777H42.8869V346.441L39.7629 347.101L38.6189 341.381L42.8869 340.545V332.757H39.1909V326.949H42.8869V319.117H49.5749V326.949H52.3469V330.733L57.7589 318.677L63.8309 321.537L63.0389 323.253H65.3709L64.8869 319.205L71.6189 318.457L72.2349 323.253H78.7469V328.885H72.1029V332.933ZM60.7949 328.885V332.933H65.3269V328.885H60.7949ZM60.7949 338.389V342.437H65.3269V338.389H60.7949ZM60.7949 347.893V352.117H65.3269V347.893H60.7949ZM77.5149 393.457H71.9709V403.269H65.7229V393.457H61.2349C61.0883 394.865 60.8536 396.713 60.5309 399.001L59.7829 403.357L53.6229 402.345L54.5469 396.713C54.7816 395.393 54.9429 394.308 55.0309 393.457H49.4429V387.473H55.4269V385.933V382.369H50.9389V376.385H55.4269V371.633H61.6749V376.385H65.7229V371.633H71.9709V376.385H75.9309V382.369H71.9709V387.473H77.5149V393.457ZM40.5549 379.949V372.909H47.5949V379.949H40.5549ZM61.6749 382.369V384.613C61.6749 385.874 61.6603 386.828 61.6309 387.473H65.7229V382.369H61.6749ZM77.6469 404.105V410.485H60.6629C58.1403 410.485 55.6616 410.162 53.2269 409.517C50.8216 408.872 48.5336 407.918 46.3629 406.657L45.7029 406.261L43.5909 410.969L37.5189 408.241L40.5549 401.465C41.3176 399.852 41.6989 398.048 41.6989 396.053V389.277H38.4429V383.381H44.8669C45.8349 383.381 46.6563 383.733 47.3309 384.437C48.0349 385.112 48.3869 385.933 48.3869 386.901V395.613C48.3869 397.109 48.2256 398.634 47.9029 400.189L49.5749 401.157C52.9776 403.122 56.6443 404.105 60.5749 404.105H77.6469Z" fill="#B66D02"/>
<defs>
<linearGradient id="paint0_linear_637_1545" x1="68.5082" y1="318.385" x2="111.885" y2="35.8001" gradientUnits="userSpaceOnUse">
<stop stop-color="#FFE9C5"/>
<stop offset="1" stop-color="white"/>
</linearGradient>
</defs>
</svg>
