<svg width="117" height="455" viewBox="0 0 117 455" fill="none" xmlns="http://www.w3.org/2000/svg">
<path d="M94.9069 454.413L21.1577 454.341L0.418945 83.2129L47.6525 0.413147L69.4017 0.431117L116.419 83.3147L94.9069 454.413Z" fill="#FCD999" stroke="#AF8446" stroke-width="0.825928" stroke-miterlimit="10"/>
<path d="M28.581 446.959L8.3916 84.3883L53.1134 7.46329H63.4196L108.141 84.3883L87.952 446.959H28.581Z" fill="url(#paint0_linear_637_1541)" stroke="#AF8446" stroke-width="0.825928" stroke-miterlimit="10"/>
<path d="M45.4789 159.733V166.473H42.4789V160.313L40.0789 160.773L39.5789 158.113L42.4789 157.573V154.233H41.8589L41.5789 156.793L39.3389 156.533L40.1789 149.053L42.0789 149.333L41.8189 151.633H42.4789V148.433H45.4789V151.633H46.7189V154.233H45.4789V156.993L46.7589 156.753L47.2589 159.393L45.4789 159.733ZM57.5589 156.593H47.0189V154.033H50.7589V152.453H47.7589V149.933H50.7589V148.453H53.8389V149.933H57.0989V152.453H53.8389V154.033H57.5589V156.593ZM57.3989 157.673V160.233H55.7589V164.713C55.7589 165.153 55.6056 165.526 55.2989 165.833C54.9923 166.153 54.6123 166.313 54.1589 166.313H50.0389V163.853H52.6389V160.233H49.8189L51.4589 162.133L49.7389 163.513L47.7789 161.213L49.0189 160.233H47.2989V157.673H52.6389V156.893H55.7589V157.673H57.3989ZM59.2189 154.853L61.8989 148.533L64.6589 149.653L64.4189 150.173H68.6589V152.653H65.0989L66.9389 153.613L66.0189 155.333L63.4989 154.013L64.2189 152.653H63.3789L61.8989 156.013L59.2189 154.853ZM70.8589 148.813L73.6589 149.813L73.4589 150.293H77.1389V152.773H74.0189L76.3789 154.013L75.4189 155.813L72.7789 154.413L73.6589 152.773H72.4189L71.2989 155.453L68.5789 154.333L70.8589 148.813ZM59.6589 157.333L68.3789 154.733L77.6989 157.653L76.4989 160.053L73.0589 158.933V160.813H63.8189V158.853H72.7389L68.3789 157.453L60.6189 159.773L59.6589 157.333ZM77.5789 163.733V166.213H59.6989V163.733H62.0989V161.613H65.0989V163.733H67.2989V161.613H70.2989V163.733H72.4989V161.653H75.4989V163.733H77.5789Z" fill="#B66D02"/>
<path d="M58.4189 139.413C80.5103 139.413 98.4189 121.281 98.4189 98.9131C98.4189 76.5456 80.5103 58.4131 58.4189 58.4131C36.3276 58.4131 18.4189 76.5456 18.4189 98.9131C18.4189 121.281 36.3276 139.413 58.4189 139.413Z" fill="#FBD6A0"/>
<path d="M36.6693 97.2251L33.2533 97.4211L33.3093 99.4651H29.1093L28.9973 95.8531C28.96 95.0505 29.212 94.3691 29.7533 93.8091C30.3133 93.2305 30.9947 92.9411 31.7973 92.9411L39.0493 92.9691C39.8707 92.9691 40.5707 93.2585 41.1493 93.8371C41.728 94.4158 42.0173 95.1158 42.0173 95.9371C42.0173 96.4411 41.8867 96.8798 41.6253 97.2531L34.2893 108.929L41.9893 108.285L42.1293 112.765L31.0413 112.737C30.4253 112.737 29.884 112.532 29.4173 112.121C28.9693 111.71 28.7267 111.197 28.6893 110.581C28.6333 110.058 28.7547 109.573 29.0533 109.125L36.6693 97.2251ZM44.3573 95.7971C44.3573 95.0131 44.628 94.3505 45.1693 93.8091C45.7293 93.2678 46.392 92.9971 47.1573 92.9971H55.8373C56.6026 92.9971 57.256 93.2678 57.7973 93.8091C58.3573 94.3505 58.6373 95.0131 58.6373 95.7971V109.937C58.6373 110.702 58.3573 111.356 57.7973 111.897C57.256 112.457 56.6026 112.737 55.8373 112.737H47.1573C46.392 112.737 45.7293 112.457 45.1693 111.897C44.628 111.356 44.3573 110.702 44.3573 109.937V95.7971ZM48.5853 96.9731V108.733H54.4093V96.9731H48.5853ZM68.8529 97.2251L65.4369 97.4211L65.4929 99.4651H61.2929L61.1809 95.8531C61.1436 95.0505 61.3956 94.3691 61.9369 93.8091C62.4969 93.2305 63.1783 92.9411 63.9809 92.9411L71.2329 92.9691C72.0543 92.9691 72.7543 93.2585 73.3329 93.8371C73.9116 94.4158 74.2009 95.1158 74.2009 95.9371C74.2009 96.4411 74.0703 96.8798 73.8089 97.2531L66.4729 108.929L74.1729 108.285L74.3129 112.765L63.2249 112.737C62.6089 112.737 62.0676 112.532 61.6009 112.121C61.1529 111.71 60.9103 111.197 60.8729 110.581C60.8169 110.058 60.9383 109.573 61.2369 109.125L68.8529 97.2251ZM79.3129 92.9691L88.6089 92.9411L88.4689 97.1971L81.0209 96.7771L80.9929 100.753L86.3969 100.865C87.1436 100.884 87.7876 101.164 88.3289 101.705C88.8702 102.246 89.1409 102.9 89.1409 103.665V109.965C89.1409 110.73 88.8609 111.384 88.3009 111.925C87.7596 112.485 87.1062 112.765 86.3409 112.765H79.4809C78.7156 112.765 78.0529 112.494 77.4929 111.953C76.9516 111.412 76.6809 110.758 76.6809 109.993L76.5409 95.7971C76.5222 95.0131 76.7836 94.3505 77.3249 93.8091C77.8849 93.2491 78.5476 92.9691 79.3129 92.9691ZM80.9369 104.617L80.8809 108.873L85.0249 108.789V104.533L80.9369 104.617Z" fill="#B66D02"/>
<path d="M51.9389 69.3971V69.4451L57.3789 76.5651L57.2829 69.3971H60.3229V80.7091H57.4429L52.0029 73.3971L52.0989 80.7091H49.0589V69.3971H51.9389ZM62.0538 80.2291C61.7552 79.9305 61.6058 79.5625 61.6058 79.1251V74.4211C61.6058 73.9945 61.7552 73.6318 62.0538 73.3331C62.3632 73.0238 62.7312 72.8691 63.1578 72.8691H67.2378C67.6645 72.8691 68.0272 73.0238 68.3258 73.3331C68.6352 73.6318 68.7898 73.9945 68.7898 74.4211V79.1251C68.7898 79.5518 68.6352 79.9145 68.3258 80.2131C68.0272 80.5225 67.6645 80.6771 67.2378 80.6771H63.1578C62.7312 80.6771 62.3632 80.5278 62.0538 80.2291ZM66.3578 75.0771L64.0218 75.1571V78.3891L66.3578 78.3251V75.0771ZM72.5866 80.3731H70.0746L70.2186 78.0051H72.5866V80.3731Z" fill="#B66D02"/>
<path d="M71.2229 252.453L59.6069 233.621L65.1069 230.321H56.7909L45.7469 252.409L39.4109 249.285L48.9149 230.321H39.5869V224.161H51.9949L57.6709 212.765L64.0949 215.669L59.8709 224.161H77.1629V230.321H65.8109L77.2949 248.845L71.2229 252.453ZM77.7789 293.661H74.6989L77.6469 296.829L73.7749 299.953L76.3269 302.901L70.9589 306.157L60.1349 293.661H56.1749V299.865L62.5989 298.545L63.8749 303.825L54.7229 305.761C54.5176 305.82 54.1949 305.849 53.7549 305.849C52.9043 305.849 52.1269 305.629 51.4229 305.189C50.7776 304.778 50.2789 304.236 49.9269 303.561C49.5749 302.916 49.3989 302.212 49.3989 301.449V293.661H47.6389C47.5509 294.306 47.3896 295.274 47.1549 296.565L45.4389 305.761L38.9709 304.529L40.6869 295.157C41.4203 291.285 41.7869 287.281 41.7869 283.145V269.989C41.7869 269.021 42.1243 268.2 42.7989 267.525C43.5029 266.821 44.3389 266.469 45.3069 266.469H73.7309C74.6989 266.469 75.5203 266.821 76.1949 267.525C76.8989 268.2 77.2509 269.021 77.2509 269.989V275.401C77.2509 276.369 76.8989 277.205 76.1949 277.909C75.5203 278.584 74.6989 278.921 73.7309 278.921H48.3869V281.869H52.3029V279.757H58.7709V281.869H65.1949V279.757H71.6629V281.869H76.5909V286.313H71.6629V288.821H77.7789V293.661ZM48.3869 273.861H70.6509V271.529H48.3869V273.861ZM52.3029 286.313H48.2989C48.2989 286.87 48.2843 287.354 48.2549 287.765C48.2256 288.176 48.1963 288.528 48.1669 288.821H52.3029V286.313ZM65.1949 286.313H58.7709V288.821H65.1949V286.313ZM73.2909 293.661H68.2309L70.4749 296.213L73.2909 293.661ZM78.0429 354.493C78.0429 355.344 77.7349 356.062 77.1189 356.649C76.5323 357.265 75.8136 357.573 74.9629 357.573H64.4469V352.381H71.7509V343.317H64.2269C63.2589 343.317 62.4229 342.98 61.7189 342.305C61.0443 341.63 60.7069 340.794 60.7069 339.797V324.573C60.7069 323.576 61.0443 322.74 61.7189 322.065C62.4229 321.39 63.2589 321.053 64.2269 321.053H65.4149L65.7669 318.237L71.7069 318.589L71.3549 321.053H74.3029C75.2709 321.053 76.0923 321.39 76.7669 322.065C77.4709 322.74 77.8229 323.576 77.8229 324.573V333.373C77.8229 334.224 77.5149 334.957 76.8989 335.573C76.3123 336.16 75.5936 336.453 74.7429 336.453H68.4069V332.405H72.3669V326.157H66.8229V337.861H74.5229C75.4909 337.861 76.3123 338.213 76.9869 338.917C77.6909 339.592 78.0429 340.413 78.0429 341.381V354.493ZM40.1149 327.037V319.909H47.2429V327.037H40.1149ZM60.3989 353.085L48.1669 354.581L47.6829 348.685L50.8509 348.245V327.125H48.2109V321.405H59.8709V327.125H57.3189V347.453L59.8709 347.101L60.3989 353.085ZM67.9669 327.301L70.1669 326.949L70.8269 331.261L68.6269 331.701L67.9669 327.301ZM47.3749 331.085V338.213H40.2469V331.085H47.3749ZM43.5909 357.397L37.9149 354.845L43.8109 340.325L49.3549 342.965L43.5909 357.397ZM60.7069 350.357V345.253H70.6509V350.357H60.7069ZM76.1949 409.253H40.3789L40.3349 377.661C40.3349 376.458 40.7603 375.432 41.6109 374.581C42.4909 373.701 43.5323 373.261 44.7349 373.261H71.7949C72.9976 373.261 74.0243 373.701 74.8749 374.581C75.7549 375.432 76.1949 376.458 76.1949 377.661V409.253ZM56.1309 379.069L57.1429 379.685L56.3069 380.829L65.3709 380.785C66.3096 380.756 67.1163 381.078 67.7909 381.753C68.4656 382.428 68.8029 383.249 68.8029 384.217C68.8029 384.804 68.6416 385.361 68.3189 385.889C68.0256 386.417 67.6296 386.842 67.1309 387.165L63.5229 389.277L69.3749 392.313L67.1309 396.493L58.9469 392.005L55.5589 394.029L64.7989 395.789L64.1389 398.605L53.5789 396.669L53.8869 394.997L50.0589 397.285L47.5949 393.237L54.1949 389.409L51.1589 387.737L50.6749 388.353L47.4189 385.933L52.1709 379.069H46.9789V403.357H65.1069L50.6309 400.805L51.3789 397.153L67.2629 400.013L66.6469 403.357H69.5949V379.069H56.1309ZM53.1389 385.009L58.3749 387.605L63.2149 384.965L53.1389 385.009Z" fill="#B66D02"/>
<defs>
<linearGradient id="paint0_linear_637_1541" x1="68.5082" y1="318.385" x2="111.885" y2="35.8001" gradientUnits="userSpaceOnUse">
<stop stop-color="#FFE9C5"/>
<stop offset="1" stop-color="white"/>
</linearGradient>
</defs>
</svg>
