<svg width="117" height="455" viewBox="0 0 117 455" fill="none" xmlns="http://www.w3.org/2000/svg">
<path d="M94.9069 454.413L21.1577 454.341L0.418945 83.2129L47.6525 0.413147L69.4017 0.431117L116.419 83.3147L94.9069 454.413Z" fill="#FCD999" stroke="#AF8446" stroke-width="0.825928" stroke-miterlimit="10"/>
<path d="M28.581 446.959L8.3916 84.3883L53.1134 7.46329H63.4196L108.141 84.3883L87.952 446.959H28.581Z" fill="url(#paint0_linear_637_1533)" stroke="#AF8446" stroke-width="0.825928" stroke-miterlimit="10"/>
<path d="M57.2789 165.453H39.5989V162.653H46.5989V148.293H49.7989V153.113H57.0989V155.873H49.7989V162.653H57.2789V165.453ZM59.2189 154.853L61.8989 148.533L64.6589 149.653L64.4189 150.173H68.6589V152.653H65.0989L66.9389 153.613L66.0189 155.333L63.4989 154.013L64.2189 152.653H63.3789L61.8989 156.013L59.2189 154.853ZM70.8589 148.813L73.6589 149.813L73.4589 150.293H77.1389V152.773H74.0189L76.3789 154.013L75.4189 155.813L72.7789 154.413L73.6589 152.773H72.4189L71.2989 155.453L68.5789 154.333L70.8589 148.813ZM59.6589 157.333L68.3789 154.733L77.6989 157.653L76.4989 160.053L73.0589 158.933V160.813H63.8189V158.853H72.7389L68.3789 157.453L60.6189 159.773L59.6589 157.333ZM77.5789 163.733V166.213H59.6989V163.733H62.0989V161.613H65.0989V163.733H67.2989V161.613H70.2989V163.733H72.4989V161.653H75.4989V163.733H77.5789Z" fill="#B66D02"/>
<path d="M58.4189 139.413C80.5103 139.413 98.4189 121.281 98.4189 98.9131C98.4189 76.5456 80.5103 58.4131 58.4189 58.4131C36.3276 58.4131 18.4189 76.5456 18.4189 98.9131C18.4189 121.281 36.3276 139.413 58.4189 139.413Z" fill="#FBD6A0"/>
<path d="M55.3396 119.437C54.489 120.317 53.4623 120.757 52.2596 120.757H38.8836C37.681 120.757 36.6396 120.317 35.7596 119.437C34.909 118.586 34.4836 117.56 34.4836 116.357V94.7091C34.4836 93.4771 34.909 92.4358 35.7596 91.5851C36.6396 90.7345 37.681 90.3091 38.8836 90.3091H52.2596C53.4623 90.3091 54.489 90.7345 55.3396 91.5851C56.2196 92.4358 56.6596 93.4771 56.6596 94.7091V116.357C56.6596 117.56 56.2196 118.586 55.3396 119.437ZM41.0396 102.013H50.1916V95.5891H41.0396V102.013ZM41.0396 107.821V114.641L50.1916 114.509V107.821H41.0396ZM81.0349 119.437C80.1843 120.317 79.1576 120.757 77.9549 120.757H64.5789C63.3763 120.757 62.3349 120.317 61.4549 119.437C60.6043 118.586 60.1789 117.56 60.1789 116.357V94.7091C60.1789 93.4771 60.6043 92.4358 61.4549 91.5851C62.3349 90.7345 63.3763 90.3091 64.5789 90.3091H77.9549C79.1576 90.3091 80.1843 90.7345 81.0349 91.5851C81.9149 92.4358 82.3549 93.4771 82.3549 94.7091V116.357C82.3549 117.56 81.9149 118.586 81.0349 119.437ZM66.7349 102.013H75.8869V95.5891H66.7349V102.013ZM66.7349 107.821V114.641L75.8869 114.509V107.821H66.7349Z" fill="#B66D02"/>
<path d="M51.9389 69.3971V69.4451L57.3789 76.5651L57.2829 69.3971H60.3229V80.7091H57.4429L52.0029 73.3971L52.0989 80.7091H49.0589V69.3971H51.9389ZM62.0538 80.2291C61.7552 79.9305 61.6058 79.5625 61.6058 79.1251V74.4211C61.6058 73.9945 61.7552 73.6318 62.0538 73.3331C62.3632 73.0238 62.7312 72.8691 63.1578 72.8691H67.2378C67.6645 72.8691 68.0272 73.0238 68.3258 73.3331C68.6352 73.6318 68.7898 73.9945 68.7898 74.4211V79.1251C68.7898 79.5518 68.6352 79.9145 68.3258 80.2131C68.0272 80.5225 67.6645 80.6771 67.2378 80.6771H63.1578C62.7312 80.6771 62.3632 80.5278 62.0538 80.2291ZM66.3578 75.0771L64.0218 75.1571V78.3891L66.3578 78.3251V75.0771ZM72.5866 80.3731H70.0746L70.2186 78.0051H72.5866V80.3731Z" fill="#B66D02"/>
<path d="M70.3869 212.809C71.5016 212.809 72.4403 213.19 73.2029 213.953C73.9656 214.716 74.3469 215.654 74.3469 216.769V227.857C74.3469 228.942 73.9656 229.881 73.2029 230.673C72.4403 231.436 71.5016 231.817 70.3869 231.817H40.6869V226.625H67.1309V224.689H42.2269V220.201H67.1309V218.221H41.1269V212.809H70.3869ZM74.1269 251.573L57.6709 243.609C56.8496 244.254 56.0869 244.753 55.3829 245.105L41.9189 251.617L38.9709 245.501L51.8189 239.253C52.5816 238.901 53.1829 238.373 53.6229 237.669C54.0629 236.936 54.2829 236.144 54.2829 235.293V232.257H61.1029V235.997C61.1029 236.701 61.0443 237.332 60.9269 237.889L77.8669 245.413L74.1269 251.573ZM49.4869 238.813L43.7669 242.113L39.3669 235.733L44.8669 232.433L49.4869 238.813ZM76.3269 235.733L71.9269 242.113L66.2069 238.813L70.8269 232.433L76.3269 235.733ZM77.2949 300.261C77.2949 301.112 76.9869 301.83 76.3709 302.417C75.7843 303.033 75.0656 303.341 74.2149 303.341L63.5669 303.385C62.7163 303.385 61.9829 303.077 61.3669 302.461C60.7803 301.874 60.4869 301.156 60.4869 300.305V286.269H53.7549V291.241C53.7549 292.385 53.5203 293.5 53.0509 294.585C52.6109 295.67 51.9803 296.638 51.1589 297.489L44.5149 304.089L39.5429 299.117L45.3949 293.265C46.2749 292.385 46.7149 291.344 46.7149 290.141V286.269H38.8829V280.285H54.7669V264.489H61.8069V280.285H76.9429V286.269H67.5269V297.533H71.2669V291.637H77.2949V300.261ZM76.0189 268.537L70.2989 279.141L64.1389 275.841L69.9029 265.281L76.0189 268.537ZM52.4349 275.885L46.2749 279.185L40.5549 268.581L46.6709 265.325L52.4349 275.885ZM60.0469 332.449H75.5789V338.521H60.0469V342.921H75.5789V348.993H60.0469V357.749H53.0069V328.137H49.3989L44.5149 339.005L38.0469 336.365L46.6709 317.005L53.1389 319.733L52.1269 321.977H77.6469V328.137H60.0469V332.449ZM77.9549 406.965C77.9549 407.816 77.6469 408.534 77.0309 409.121C76.4443 409.737 75.7256 410.045 74.8749 410.045H68.6709C67.7029 410.045 66.8669 409.693 66.1629 408.989C65.4883 408.314 65.1509 407.493 65.1509 406.525V401.861L59.6069 411.013L54.1949 408.373L55.0309 406.965L39.2349 408.153L38.7949 401.993L42.9749 401.685V392.093H39.4549V386.021H42.9749V378.057H39.1029V371.985H54.3709V378.057H49.9709V386.021H53.9309V392.093H49.9709V401.201L54.6789 400.893L55.0749 406.877L61.2789 396.713C62.5696 394.63 63.2149 392.342 63.2149 389.849V380.741L69.1989 380.697L69.1549 391.565C69.1549 392.416 68.9643 393.31 68.5829 394.249H71.3549V377.397H61.3229V396.097H55.0309V374.845C55.0309 373.877 55.3683 373.056 56.0429 372.381C56.7469 371.677 57.5829 371.325 58.5509 371.325H74.1269C75.0949 371.325 75.9163 371.677 76.5909 372.381C77.2949 373.056 77.6469 373.877 77.6469 374.845V396.097H71.3549V404.589H73.0269V400.277H77.9549V406.965Z" fill="#B66D02"/>
<defs>
<linearGradient id="paint0_linear_637_1533" x1="68.5082" y1="318.385" x2="111.885" y2="35.8001" gradientUnits="userSpaceOnUse">
<stop stop-color="#FFE9C5"/>
<stop offset="1" stop-color="white"/>
</linearGradient>
</defs>
</svg>
