<svg width="117" height="455" viewBox="0 0 117 455" fill="none" xmlns="http://www.w3.org/2000/svg">
<path d="M94.9069 454.413L21.1577 454.341L0.418945 83.2129L47.6525 0.413147L69.4017 0.431117L116.419 83.3147L94.9069 454.413Z" fill="#FCD999" stroke="#AF8446" stroke-width="0.825928" stroke-miterlimit="10"/>
<path d="M28.581 446.959L8.3916 84.3883L53.1134 7.46329H63.4196L108.141 84.3883L87.952 446.959H28.581Z" fill="url(#paint0_linear_637_1539)" stroke="#AF8446" stroke-width="0.825928" stroke-miterlimit="10"/>
<path d="M45.4789 159.733V166.473H42.4789V160.313L40.0789 160.773L39.5789 158.113L42.4789 157.573V154.233H41.8589L41.5789 156.793L39.3389 156.533L40.1789 149.053L42.0789 149.333L41.8189 151.633H42.4789V148.433H45.4789V151.633H46.7189V154.233H45.4789V156.993L46.7589 156.753L47.2589 159.393L45.4789 159.733ZM57.5589 156.593H47.0189V154.033H50.7589V152.453H47.7589V149.933H50.7589V148.453H53.8389V149.933H57.0989V152.453H53.8389V154.033H57.5589V156.593ZM57.3989 157.673V160.233H55.7589V164.713C55.7589 165.153 55.6056 165.526 55.2989 165.833C54.9923 166.153 54.6123 166.313 54.1589 166.313H50.0389V163.853H52.6389V160.233H49.8189L51.4589 162.133L49.7389 163.513L47.7789 161.213L49.0189 160.233H47.2989V157.673H52.6389V156.893H55.7589V157.673H57.3989ZM59.2189 154.853L61.8989 148.533L64.6589 149.653L64.4189 150.173H68.6589V152.653H65.0989L66.9389 153.613L66.0189 155.333L63.4989 154.013L64.2189 152.653H63.3789L61.8989 156.013L59.2189 154.853ZM70.8589 148.813L73.6589 149.813L73.4589 150.293H77.1389V152.773H74.0189L76.3789 154.013L75.4189 155.813L72.7789 154.413L73.6589 152.773H72.4189L71.2989 155.453L68.5789 154.333L70.8589 148.813ZM59.6589 157.333L68.3789 154.733L77.6989 157.653L76.4989 160.053L73.0589 158.933V160.813H63.8189V158.853H72.7389L68.3789 157.453L60.6189 159.773L59.6589 157.333ZM77.5789 163.733V166.213H59.6989V163.733H62.0989V161.613H65.0989V163.733H67.2989V161.613H70.2989V163.733H72.4989V161.653H75.4989V163.733H77.5789Z" fill="#B66D02"/>
<path d="M58.4189 139.413C80.5103 139.413 98.4189 121.281 98.4189 98.9131C98.4189 76.5456 80.5103 58.4131 58.4189 58.4131C36.3276 58.4131 18.4189 76.5456 18.4189 98.9131C18.4189 121.281 36.3276 139.413 58.4189 139.413Z" fill="#FBD6A0"/>
<path d="M36.6693 97.2251L33.2533 97.4211L33.3093 99.4651H29.1093L28.9973 95.8531C28.96 95.0505 29.212 94.3691 29.7533 93.8091C30.3133 93.2305 30.9947 92.9411 31.7973 92.9411L39.0493 92.9691C39.8707 92.9691 40.5707 93.2585 41.1493 93.8371C41.728 94.4158 42.0173 95.1158 42.0173 95.9371C42.0173 96.4411 41.8867 96.8798 41.6253 97.2531L34.2893 108.929L41.9893 108.285L42.1293 112.765L31.0413 112.737C30.4253 112.737 29.884 112.532 29.4173 112.121C28.9693 111.71 28.7267 111.197 28.6893 110.581C28.6333 110.058 28.7547 109.573 29.0533 109.125L36.6693 97.2251ZM44.3573 95.7971C44.3573 95.0131 44.628 94.3505 45.1693 93.8091C45.7293 93.2678 46.392 92.9971 47.1573 92.9971H55.8373C56.6026 92.9971 57.256 93.2678 57.7973 93.8091C58.3573 94.3505 58.6373 95.0131 58.6373 95.7971V109.937C58.6373 110.702 58.3573 111.356 57.7973 111.897C57.256 112.457 56.6026 112.737 55.8373 112.737H47.1573C46.392 112.737 45.7293 112.457 45.1693 111.897C44.628 111.356 44.3573 110.702 44.3573 109.937V95.7971ZM48.5853 96.9731V108.733H54.4093V96.9731H48.5853ZM68.8529 97.2251L65.4369 97.4211L65.4929 99.4651H61.2929L61.1809 95.8531C61.1436 95.0505 61.3956 94.3691 61.9369 93.8091C62.4969 93.2305 63.1783 92.9411 63.9809 92.9411L71.2329 92.9691C72.0543 92.9691 72.7543 93.2585 73.3329 93.8371C73.9116 94.4158 74.2009 95.1158 74.2009 95.9371C74.2009 96.4411 74.0703 96.8798 73.8089 97.2531L66.4729 108.929L74.1729 108.285L74.3129 112.765L63.2249 112.737C62.6089 112.737 62.0676 112.532 61.6009 112.121C61.1529 111.71 60.9103 111.197 60.8729 110.581C60.8169 110.058 60.9383 109.573 61.2369 109.125L68.8529 97.2251ZM79.3129 92.9691L88.6089 92.9411L88.4689 97.1971L81.0209 96.7771L80.9929 100.753L86.3969 100.865C87.1436 100.884 87.7876 101.164 88.3289 101.705C88.8702 102.246 89.1409 102.9 89.1409 103.665V109.965C89.1409 110.73 88.8609 111.384 88.3009 111.925C87.7596 112.485 87.1062 112.765 86.3409 112.765H79.4809C78.7156 112.765 78.0529 112.494 77.4929 111.953C76.9516 111.412 76.6809 110.758 76.6809 109.993L76.5409 95.7971C76.5222 95.0131 76.7836 94.3505 77.3249 93.8091C77.8849 93.2491 78.5476 92.9691 79.3129 92.9691ZM80.9369 104.617L80.8809 108.873L85.0249 108.789V104.533L80.9369 104.617Z" fill="#B66D02"/>
<path d="M51.9389 69.3971V69.4451L57.3789 76.5651L57.2829 69.3971H60.3229V80.7091H57.4429L52.0029 73.3971L52.0989 80.7091H49.0589V69.3971H51.9389ZM62.0538 80.2291C61.7552 79.9305 61.6058 79.5625 61.6058 79.1251V74.4211C61.6058 73.9945 61.7552 73.6318 62.0538 73.3331C62.3632 73.0238 62.7312 72.8691 63.1578 72.8691H67.2378C67.6645 72.8691 68.0272 73.0238 68.3258 73.3331C68.6352 73.6318 68.7898 73.9945 68.7898 74.4211V79.1251C68.7898 79.5518 68.6352 79.9145 68.3258 80.2131C68.0272 80.5225 67.6645 80.6771 67.2378 80.6771H63.1578C62.7312 80.6771 62.3632 80.5278 62.0538 80.2291ZM66.3578 75.0771L64.0218 75.1571V78.3891L66.3578 78.3251V75.0771ZM72.5866 80.3731H70.0746L70.2186 78.0051H72.5866V80.3731Z" fill="#B66D02"/>
<path d="M77.2069 247.613L71.9269 252.453L59.2989 238.681L63.3909 234.985H57.6269L46.1429 252.629L40.0269 249.065L48.9589 234.985H38.8829L38.8389 228.913H52.8309L53.3149 228.121C54.6056 226.126 55.2949 223.926 55.3829 221.521H40.9949L40.9509 215.449H75.5789L75.6229 221.521H62.4229V221.785C62.4229 224.278 61.9829 226.654 61.1029 228.913H77.8669L77.9109 234.985H65.4149L77.2069 247.613ZM74.5229 278.745V301.625C74.5229 302.593 74.1709 303.414 73.4669 304.089C72.7923 304.793 71.9709 305.145 71.0029 305.145H62.7309V299.601H67.7909V278.745H55.2069V272.585H67.7909V265.809H74.5229V272.585H79.2309V278.745H74.5229ZM51.2029 268.801C52.0536 268.801 52.7723 269.109 53.3589 269.725C53.9749 270.312 54.2829 271.03 54.2829 271.881V299.865H40.6869V271.881C40.6869 271.03 40.9803 270.312 41.5669 269.725C42.1829 269.109 42.9163 268.801 43.7669 268.801H51.2029ZM48.8269 281.561V274.565H46.2309V281.561H48.8269ZM59.2989 295.113L56.9669 282.573L62.5549 281.561L64.9309 294.101L59.2989 295.113ZM48.8269 294.145V287.017H46.2309V294.145H48.8269ZM53.0949 351.589L38.9709 353.789L38.2229 347.981L42.2709 347.365V335.793H38.7069V329.809H42.2709V318.149H48.8709V329.809H52.2149V335.793H48.8709V346.309L52.3029 345.781L53.0949 351.589ZM77.4709 353.261C77.4709 354.229 77.1189 355.05 76.4149 355.725C75.7403 356.429 74.9189 356.781 73.9509 356.781H58.0229C57.0549 356.781 56.2189 356.429 55.5149 355.725C54.8403 355.05 54.5029 354.229 54.5029 353.261V336.849L53.4909 337.025L52.3909 331.041L54.5029 330.601V320.613H61.1029V328.973L62.6869 328.577V318.149H68.9789V327.169L72.8069 326.201C73.1296 326.113 73.4229 326.069 73.6869 326.069C74.6549 326.069 75.4763 326.421 76.1509 327.125C76.8549 327.8 77.2069 328.636 77.2069 329.633V344.065H71.0029V332.581L68.6269 333.153V346.441H62.6869V334.605L61.1029 334.957V350.621H71.4869V345.561H77.4709V353.261ZM62.9949 409.605L63.0389 403.973H70.5629V370.577H77.5149L77.5589 405.205C77.5589 406.408 77.1189 407.434 76.2389 408.285C75.3883 409.165 74.3616 409.605 73.1589 409.605H62.9949ZM61.2349 398.341L56.4829 401.333L52.9629 395.789V410.089H46.0109V394.689L43.3709 404.677L37.6949 402.433L41.6549 388.925H38.7509L38.7949 382.765H46.0109V378.233L40.1589 378.893L39.4989 372.777L59.2989 370.621L59.9149 376.737L52.9629 377.485V382.765H60.6189V388.925H52.9629V392.049L56.0869 390.157L61.2349 398.341ZM62.4669 399.309L62.4229 375.725H68.4069V399.309H62.4669Z" fill="#B66D02"/>
<defs>
<linearGradient id="paint0_linear_637_1539" x1="68.5082" y1="318.385" x2="111.885" y2="35.8001" gradientUnits="userSpaceOnUse">
<stop stop-color="#FFE9C5"/>
<stop offset="1" stop-color="white"/>
</linearGradient>
</defs>
</svg>
