<svg width="117" height="455" viewBox="0 0 117 455" fill="none" xmlns="http://www.w3.org/2000/svg">
<path d="M94.9069 454.413L21.1577 454.341L0.418945 83.2129L47.6525 0.413147L69.4017 0.431117L116.419 83.3147L94.9069 454.413Z" fill="#FCD999" stroke="#AF8446" stroke-width="0.825928" stroke-miterlimit="10"/>
<path d="M28.581 446.959L8.3916 84.3883L53.1134 7.46329H63.4196L108.141 84.3883L87.952 446.959H28.581Z" fill="url(#paint0_linear_637_1547)" stroke="#AF8446" stroke-width="0.825928" stroke-miterlimit="10"/>
<path d="M57.2789 165.453H39.5989V162.653H46.5989V148.293H49.7989V153.113H57.0989V155.873H49.7989V162.653H57.2789V165.453ZM59.2189 154.853L61.8989 148.533L64.6589 149.653L64.4189 150.173H68.6589V152.653H65.0989L66.9389 153.613L66.0189 155.333L63.4989 154.013L64.2189 152.653H63.3789L61.8989 156.013L59.2189 154.853ZM70.8589 148.813L73.6589 149.813L73.4589 150.293H77.1389V152.773H74.0189L76.3789 154.013L75.4189 155.813L72.7789 154.413L73.6589 152.773H72.4189L71.2989 155.453L68.5789 154.333L70.8589 148.813ZM59.6589 157.333L68.3789 154.733L77.6989 157.653L76.4989 160.053L73.0589 158.933V160.813H63.8189V158.853H72.7389L68.3789 157.453L60.6189 159.773L59.6589 157.333ZM77.5789 163.733V166.213H59.6989V163.733H62.0989V161.613H65.0989V163.733H67.2989V161.613H70.2989V163.733H72.4989V161.653H75.4989V163.733H77.5789Z" fill="#B66D02"/>
<path d="M58.4189 139.413C80.5103 139.413 98.4189 121.281 98.4189 98.9131C98.4189 76.5456 80.5103 58.4131 58.4189 58.4131C36.3276 58.4131 18.4189 76.5456 18.4189 98.9131C18.4189 121.281 36.3276 139.413 58.4189 139.413Z" fill="#FBD6A0"/>
<path d="M56.6589 93.8291C56.6589 94.0051 56.6296 94.2398 56.5709 94.5331L51.5989 121.109H45.1309L49.1789 95.9851L38.3989 96.6451L38.1789 89.9571L52.7869 90.0011C53.8723 90.0011 54.7816 90.3825 55.5149 91.1451C56.2776 91.8785 56.6589 92.7731 56.6589 93.8291ZM78.6589 93.8291C78.6589 94.0051 78.6296 94.2398 78.5709 94.5331L73.5989 121.109H67.1309L71.1789 95.9851L60.3989 96.6451L60.1789 89.9571L74.7869 90.0011C75.8723 90.0011 76.7816 90.3825 77.5149 91.1451C78.2776 91.8785 78.6589 92.7731 78.6589 93.8291Z" fill="#B66D02"/>
<path d="M51.9389 69.3971V69.4451L57.3789 76.5651L57.2829 69.3971H60.3229V80.7091H57.4429L52.0029 73.3971L52.0989 80.7091H49.0589V69.3971H51.9389ZM62.0538 80.2291C61.7552 79.9305 61.6058 79.5625 61.6058 79.1251V74.4211C61.6058 73.9945 61.7552 73.6318 62.0538 73.3331C62.3632 73.0238 62.7312 72.8691 63.1578 72.8691H67.2378C67.6645 72.8691 68.0272 73.0238 68.3258 73.3331C68.6352 73.6318 68.7898 73.9945 68.7898 74.4211V79.1251C68.7898 79.5518 68.6352 79.9145 68.3258 80.2131C68.0272 80.5225 67.6645 80.6771 67.2378 80.6771H63.1578C62.7312 80.6771 62.3632 80.5278 62.0538 80.2291ZM66.3578 75.0771L64.0218 75.1571V78.3891L66.3578 78.3251V75.0771ZM72.5866 80.3731H70.0746L70.2186 78.0051H72.5866V80.3731Z" fill="#B66D02"/>
<path d="M78.1749 242.773L71.5749 246.029L63.7869 229.881H49.1789C48.9736 232.14 48.5483 234.486 47.9029 236.921L44.9109 248.361L38.5309 246.645L41.7429 234.413C42.4176 231.92 42.7549 229.294 42.7549 226.537V217.913C42.7549 216.71 43.1803 215.684 44.0309 214.833C44.9109 213.953 45.9523 213.513 47.1549 213.513H71.0469C72.2496 213.513 73.2763 213.953 74.1269 214.833C75.0069 215.684 75.4469 216.71 75.4469 217.913V226.361C75.4469 227.329 75.0949 228.165 74.3909 228.869C73.7163 229.544 72.8949 229.881 71.9269 229.881H71.7069L78.1749 242.773ZM68.8469 219.453H49.3549V223.941H68.8469V219.453ZM65.1949 236.305L63.3029 242.157L50.8949 238.901L52.9629 233.093L65.1949 236.305ZM70.5189 247.261L68.8469 253.157L46.7589 248.449L48.3869 242.509L70.5189 247.261ZM76.6789 275.269H52.8749L47.7709 284.553H50.1909V304.661H43.4149V291.417L37.6949 288.689L45.0869 275.269H40.3789V269.197H48.4749L48.7389 268.757C48.9736 268.258 49.0909 267.554 49.0909 266.645V264.929H55.9549V267.261C55.9549 267.994 55.8963 268.64 55.7789 269.197H76.6789V275.269ZM76.8989 298.105V304.177H51.6869V298.105H60.7509V288.557H52.7869V282.485H60.7509V277.469H67.6589V282.485H76.0189V288.557H67.6589V298.105H76.8989ZM73.5989 324.353C74.4496 324.353 75.1683 324.661 75.7549 325.277C76.3709 325.864 76.6789 326.582 76.6789 327.433V333.329H72.1909V337.641H44.9109V333.329H39.9829V327.433C39.9829 326.582 40.2763 325.864 40.8629 325.277C41.4789 324.661 42.2123 324.353 43.0629 324.353H44.3829L43.1509 321.625L49.1349 319.337L51.3349 324.353H54.8549V319.205H61.8949V324.353H65.2389L67.8789 319.117L73.4669 321.801L72.1909 324.353H73.5989ZM69.1109 330.249C70.0496 330.249 70.8416 330.616 71.4869 331.349V329.061H45.6149V331.349C46.2603 330.616 47.0523 330.249 47.9909 330.249H69.1109ZM65.1509 333.329H51.3349V334.561H65.1509V333.329ZM75.7109 347.849V352.909H62.2909V355.417C62.2909 356.268 61.9829 356.986 61.3669 357.573C60.7803 358.189 60.0616 358.497 59.2109 358.497H50.5869V354.229H55.2509V352.909H40.5549V347.849H55.2509V346.925H42.7549V343.933H55.2509V342.965L42.3589 343.141V338.785L74.4349 338.257V342.657L62.2909 342.833V343.933H74.1709V346.925H62.2909V347.849H75.7109ZM75.8429 372.513C76.6936 372.513 77.4123 372.821 77.9989 373.437C78.6149 374.024 78.9229 374.742 78.9229 375.593V381.313C78.9229 382.164 78.6149 382.897 77.9989 383.513C77.4123 384.1 76.6936 384.393 75.8429 384.393H59.4749V384.701C59.4749 390.274 59.1816 395.994 58.5949 401.861L57.6269 411.761L51.5989 411.189L52.8309 398.341L52.9189 397.813L49.4869 398.385V407.845C49.4869 408.813 49.1496 409.634 48.4749 410.309C47.8003 411.013 46.9643 411.365 45.9669 411.365H39.7629V405.821H43.2389V399.441L40.0709 399.969L39.1029 394.205L43.2389 393.545V385.361H39.5429V379.465H43.2389V372.073H49.4869V379.465L52.8309 379.025V384.921L49.4869 385.361V392.533L52.2149 392.093L52.9189 397.417C53.2123 394.308 53.3589 391.052 53.3589 387.649V375.593C53.3589 374.742 53.6523 374.024 54.2389 373.437C54.8549 372.821 55.5883 372.513 56.4389 372.513H75.8429ZM73.5549 377.221L59.4749 377.265V379.509H73.5549V377.221ZM71.8829 406.701H79.1869V411.365H58.8589V406.701H65.6789V404.545H59.7829V400.321H65.6789V398.033L64.3589 398.165C63.5376 398.253 62.7456 398.077 61.9829 397.637C61.2496 397.197 60.7216 396.596 60.3989 395.833C60.2229 395.334 60.1349 394.85 60.1349 394.381C60.1349 393.56 60.3843 392.782 60.8829 392.049L61.9829 390.597H59.8709V385.889H78.3069V390.597H76.8989L79.5829 397.241L75.0069 399.221L74.2149 397.153L71.8829 397.373V400.321H78.5709V404.545H71.8829V406.701ZM65.8109 393.809L72.7189 393.061L72.1029 391.477L74.6989 390.597H68.1869L65.8109 393.809Z" fill="#B66D02"/>
<defs>
<linearGradient id="paint0_linear_637_1547" x1="68.5082" y1="318.385" x2="111.885" y2="35.8001" gradientUnits="userSpaceOnUse">
<stop stop-color="#FFE9C5"/>
<stop offset="1" stop-color="white"/>
</linearGradient>
</defs>
</svg>
