<svg width="117" height="455" viewBox="0 0 117 455" fill="none" xmlns="http://www.w3.org/2000/svg">
<path d="M94.9069 454.413L21.1577 454.341L0.418945 83.2129L47.6525 0.413147L69.4017 0.431117L116.419 83.3147L94.9069 454.413Z" fill="#FCD999" stroke="#AF8446" stroke-width="0.825928" stroke-miterlimit="10"/>
<path d="M28.581 446.959L8.3916 84.3883L53.1134 7.46329H63.4196L108.141 84.3883L87.952 446.959H28.581Z" fill="url(#paint0_linear_637_1535)" stroke="#AF8446" stroke-width="0.825928" stroke-miterlimit="10"/>
<path d="M57.2789 165.453H39.5989V162.653H46.5989V148.293H49.7989V153.113H57.0989V155.873H49.7989V162.653H57.2789V165.453ZM59.2189 154.853L61.8989 148.533L64.6589 149.653L64.4189 150.173H68.6589V152.653H65.0989L66.9389 153.613L66.0189 155.333L63.4989 154.013L64.2189 152.653H63.3789L61.8989 156.013L59.2189 154.853ZM70.8589 148.813L73.6589 149.813L73.4589 150.293H77.1389V152.773H74.0189L76.3789 154.013L75.4189 155.813L72.7789 154.413L73.6589 152.773H72.4189L71.2989 155.453L68.5789 154.333L70.8589 148.813ZM59.6589 157.333L68.3789 154.733L77.6989 157.653L76.4989 160.053L73.0589 158.933V160.813H63.8189V158.853H72.7389L68.3789 157.453L60.6189 159.773L59.6589 157.333ZM77.5789 163.733V166.213H59.6989V163.733H62.0989V161.613H65.0989V163.733H67.2989V161.613H70.2989V163.733H72.4989V161.653H75.4989V163.733H77.5789Z" fill="#B66D02"/>
<path d="M58.4189 139.413C80.5103 139.413 98.4189 121.281 98.4189 98.9131C98.4189 76.5456 80.5103 58.4131 58.4189 58.4131C36.3276 58.4131 18.4189 76.5456 18.4189 98.9131C18.4189 121.281 36.3276 139.413 58.4189 139.413Z" fill="#FBD6A0"/>
<path d="M41.7029 90.0011L56.3109 89.9571L56.0909 96.6451L44.3869 95.9851L44.3429 102.233L52.8349 102.409C54.0082 102.438 55.0202 102.878 55.8709 103.729C56.7216 104.58 57.1469 105.606 57.1469 106.809V116.709C57.1469 117.912 56.7069 118.938 55.8269 119.789C54.9762 120.669 53.9496 121.109 52.7469 121.109H41.9669C40.7642 121.109 39.7229 120.684 38.8429 119.833C37.9922 118.982 37.5669 117.956 37.5669 116.753L37.3469 94.4451C37.3176 93.2131 37.7282 92.1718 38.5789 91.3211C39.4589 90.4411 40.5002 90.0011 41.7029 90.0011ZM44.2549 108.305L44.1669 114.993L50.6789 114.861V108.173L44.2549 108.305ZM65.0349 90.0011L79.6429 89.9571L79.4229 96.6451L67.7189 95.9851L67.6749 102.233L76.1669 102.409C77.3403 102.438 78.3523 102.878 79.2029 103.729C80.0536 104.58 80.4789 105.606 80.4789 106.809V116.709C80.4789 117.912 80.0389 118.938 79.1589 119.789C78.3083 120.669 77.2816 121.109 76.0789 121.109H65.2989C64.0963 121.109 63.0549 120.684 62.1749 119.833C61.3243 118.982 60.8989 117.956 60.8989 116.753L60.6789 94.4451C60.6496 93.2131 61.0603 92.1718 61.9109 91.3211C62.7909 90.4411 63.8323 90.0011 65.0349 90.0011ZM67.5869 108.305L67.4989 114.993L74.0109 114.861V108.173L67.5869 108.305Z" fill="#B66D02"/>
<path d="M51.9389 69.3971V69.4451L57.3789 76.5651L57.2829 69.3971H60.3229V80.7091H57.4429L52.0029 73.3971L52.0989 80.7091H49.0589V69.3971H51.9389ZM62.0538 80.2291C61.7552 79.9305 61.6058 79.5625 61.6058 79.1251V74.4211C61.6058 73.9945 61.7552 73.6318 62.0538 73.3331C62.3632 73.0238 62.7312 72.8691 63.1578 72.8691H67.2378C67.6645 72.8691 68.0272 73.0238 68.3258 73.3331C68.6352 73.6318 68.7898 73.9945 68.7898 74.4211V79.1251C68.7898 79.5518 68.6352 79.9145 68.3258 80.2131C68.0272 80.5225 67.6645 80.6771 67.2378 80.6771H63.1578C62.7312 80.6771 62.3632 80.5278 62.0538 80.2291ZM66.3578 75.0771L64.0218 75.1571V78.3891L66.3578 78.3251V75.0771ZM72.5866 80.3731H70.0746L70.2186 78.0051H72.5866V80.3731Z" fill="#B66D02"/>
<path d="M40.1149 260.665V254.505H76.7669V260.665H40.1149ZM78.3949 294.525V299.717H55.2949V294.525H63.3909L63.2149 293.469L69.0229 292.237L69.4629 294.525H78.3949ZM75.0509 311.597C76.0189 311.597 76.8403 311.934 77.5149 312.609C78.2189 313.284 78.5709 314.12 78.5709 315.117V328.669C78.5709 329.52 78.2629 330.238 77.6469 330.825C77.0603 331.441 76.3416 331.749 75.4909 331.749H69.7269V328.669H60.5749V319.957C60.5749 319.224 60.8243 318.608 61.3229 318.109C61.8509 317.581 62.4816 317.317 63.2149 317.317H69.7269C70.4603 317.317 71.0763 317.581 71.5749 318.109C72.1029 318.608 72.3669 319.224 72.3669 319.957V327.701H73.2469V316.349H59.7389V332.189H54.4149V319.693L52.6109 320.661L50.7189 316.613V332.101H44.9989V311.333L43.2829 323.477L38.2669 322.245L40.8629 308.869H39.2349V303.149H44.9989V299.541L39.5869 300.245L38.9269 294.613L54.1069 292.677L54.6789 298.397L50.7189 298.925V303.149H54.9429V308.869H50.7189V311.157L52.7869 310.101L54.5909 313.973C54.8256 313.269 55.2509 312.697 55.8669 312.257C56.4829 311.817 57.1723 311.597 57.9349 311.597H75.0509ZM74.1269 300.685C74.9776 300.685 75.6963 300.993 76.2829 301.609C76.8989 302.196 77.2069 302.914 77.2069 303.765V310.805H56.4389V303.765C56.4389 302.914 56.7323 302.196 57.3189 301.609C57.9349 300.993 58.6683 300.685 59.5189 300.685H74.1269ZM71.0469 304.645H62.5989V306.757H71.0469V304.645ZM67.6589 320.837H65.2389V325.237H67.6589V320.837ZM77.9549 351.221V356.853H72.5869V372.429C72.5869 373.426 72.2349 374.262 71.5309 374.937C70.8563 375.612 70.0349 375.949 69.0669 375.949H58.5069V370.581H66.1629V356.853H50.8509V351.221H66.1629V345.765H72.5869V351.221H77.9549ZM41.1709 354.037V347.085H48.1229V354.037H41.1709ZM77.2509 383.957H61.1909C58.6976 383.957 56.2336 383.634 53.7989 382.989C51.3643 382.344 49.0616 381.39 46.8909 380.129L46.1429 379.689L43.8989 384.661L37.8269 381.977L40.8629 375.201C41.6549 373.47 42.0509 371.666 42.0509 369.789V363.277H38.6629V357.381H45.1749C46.1429 357.381 46.9643 357.733 47.6389 358.437C48.3429 359.112 48.6949 359.933 48.6949 360.901V369.305C48.6949 370.596 48.5483 372.018 48.2549 373.573L50.1469 374.629C53.5789 376.624 57.2456 377.621 61.1469 377.621H77.2509V383.957ZM62.4669 366.709L57.3629 368.381L54.8989 360.373L60.0909 358.789L62.4669 366.709Z" fill="#B66D02"/>
<defs>
<linearGradient id="paint0_linear_637_1535" x1="68.5082" y1="318.385" x2="111.885" y2="35.8001" gradientUnits="userSpaceOnUse">
<stop stop-color="#FFE9C5"/>
<stop offset="1" stop-color="white"/>
</linearGradient>
</defs>
</svg>
