<svg width="300" height="255" viewBox="0 0 300 255" fill="none" xmlns="http://www.w3.org/2000/svg">
<g clip-path="url(#clip0_553_3827)">
<path d="M284.584 75.0672C298.2 110.013 267.54 155.838 213.68 186.85C203.125 192.926 191.673 198.437 179.487 203.185C158.294 211.442 137.16 216.503 117.416 218.54C67.9133 223.652 27.0594 209.819 15.4176 179.939C-0.869558 138.135 46.1836 80.7752 120.512 51.8159C194.84 22.8562 268.297 33.2639 284.584 75.0672Z" fill="black" fill-opacity="0.25"/>
<path d="M122.101 151.502L82.2203 61.3551C81.4553 59.626 82.2474 57.6084 83.9891 56.849C92.0936 53.3155 101.549 56.9733 105.108 65.0188L139.929 143.729L122.101 151.502Z" fill="#FFBECF"/>
<path d="M105.313 65.0513C104.922 64.1436 104.455 63.2948 103.929 62.502L117.837 139.502L135.929 136.107L105.313 65.0513Z" fill="#FFCCD3"/>
<path d="M112.929 137.502V41.7261C112.929 39.3932 114.847 37.502 117.214 37.502C126.998 37.502 134.929 45.3198 134.929 54.9639V137.501L112.929 137.502Z" fill="#FFBECF"/>
<path d="M116.929 76.1139V129.736C116.929 133.473 119.946 136.502 123.667 136.502H125.929C130.9 136.502 134.929 132.456 134.929 127.465V55.0611C134.929 51.953 134.121 49.0348 132.71 46.502L120.758 63.8161C118.264 67.4291 116.929 71.7189 116.929 76.1139Z" fill="#FFCCD3"/>
<path d="M153.226 33.1403C151.613 32.0134 149.399 32.4178 148.28 34.0438L122.71 71.2188C120.248 74.7985 118.929 79.0499 118.929 83.405V137.502H140.379V83.4753L157.739 58.2357C163.37 50.0491 161.349 38.8141 153.226 33.1403Z" fill="#FFBECF"/>
<path d="M138.969 68.7076C133.441 71.3821 129.929 76.9858 129.929 83.1306V131.222C129.929 134.138 132.29 136.502 135.204 136.502C137.27 136.502 139.054 135.31 139.92 133.578V83.6154L155.929 60.502L138.969 68.7076Z" fill="#FFCCD3"/>
<path d="M199.929 94.8489V151.273C199.929 161.738 196.455 171.895 190.07 180.123L171.134 204.502H112.929V136.274H132.542V87.6783C132.542 81.5036 136.032 75.8738 141.528 73.1859L175.058 56.7813C176.447 56.1009 178.109 56.7085 178.776 58.1144C183.278 67.579 179.36 78.9506 170.012 83.5225L154.139 91.2892V127.675C154.139 130.048 155.089 132.196 156.629 133.755C158.163 135.312 160.286 136.274 162.637 136.274C167.333 136.274 171.134 132.421 171.134 127.675V111.698C171.134 98.9938 181.316 88.7019 193.871 88.7019C197.217 88.7079 199.929 91.4577 199.929 94.8489Z" fill="#FFCCD3"/>
<path d="M171.929 199.502V223.666C164.909 225.514 157.521 226.502 149.897 226.502C136.637 226.502 124.085 223.514 112.929 218.189V199.502H171.929Z" fill="#FFCCD3"/>
<path d="M199.209 83.8693L178.414 86.5107L185.69 66.8514L212.14 54.5115L223.068 49.4167C224.309 48.838 225.489 50.3229 224.641 51.3968L217.207 60.8899L199.209 83.8693Z" fill="white"/>
<path d="M217.205 60.8898L212.139 54.512L223.067 49.4171C224.308 48.8385 225.487 50.3234 224.64 51.3973L217.205 60.8898Z" fill="#2E294E"/>
<path d="M199.388 83.7272L90.2084 170.466L76.6885 153.449L185.868 66.71C186.397 66.9615 186.875 67.3389 187.261 67.8252L187.669 68.338C189.068 70.0989 188.774 72.6613 187.013 74.0605C188.774 72.6613 191.337 72.9548 192.735 74.7158L193.143 75.2285C194.542 76.9894 194.248 79.5518 192.487 80.951C194.248 79.5518 196.811 79.8453 198.209 81.6063L198.617 82.119C199.003 82.6042 199.262 83.1552 199.388 83.7272Z" fill="#FE6924"/>
<path d="M80.7109 158.512L191.394 70.5801" stroke="white" stroke-width="1.868" stroke-miterlimit="10" stroke-linecap="round"/>
<path d="M196.868 77.4702L86.1855 165.403" stroke="white" stroke-width="1.868" stroke-miterlimit="10" stroke-linecap="round"/>
<path d="M92.7249 160.813L86.6609 153.18L76.6887 153.449L74.1719 163.102L80.2358 170.735L90.2086 170.466L92.7249 160.813Z" fill="white"/>
<path d="M84.6561 163.478C83.8157 164.146 82.5938 164.006 81.9266 163.166C81.2593 162.325 81.3989 161.104 82.2392 160.436C83.0796 159.769 84.3015 159.909 84.9687 160.749C85.6366 161.589 85.4964 162.811 84.6561 163.478Z" fill="#2E294E"/>
<path d="M170.297 83.8524L154.951 91.276L180.534 70.9458C179.309 76.3838 175.707 81.2397 170.297 83.8524Z" fill="#D7263D"/>
<path d="M192.674 89.0664L172.433 105.139C175.158 96.2941 183.108 89.7378 192.674 89.0664Z" fill="#D7263D"/>
<path d="M170.297 83.8524L154.951 91.276L165.729 74.7253L180.534 70.9458C179.309 76.3838 175.707 81.2397 170.297 83.8524Z" fill="#FFCCD3"/>
<path d="M192.674 89.0664L187.836 101.448L172.434 105.139C175.158 96.2941 183.108 89.7378 192.674 89.0664Z" fill="#FFCCD3"/>
<path d="M199.929 97.502H199.347C193.041 97.502 187.929 102.674 187.929 109.055V116.502H199.929V97.502Z" fill="#FBE1E0"/>
<path d="M71.5768 111.35C80.219 111.35 87.2249 104.344 87.2249 95.7023C87.2249 87.0601 80.219 80.0542 71.5768 80.0542C62.9346 80.0542 55.9287 87.0601 55.9287 95.7023C55.9287 104.344 62.9346 111.35 71.5768 111.35Z" fill="white"/>
<path d="M71.5768 111.351C80.219 111.351 87.2249 104.345 87.2249 95.7028C87.2249 87.0606 80.219 80.0547 71.5768 80.0547C62.9346 80.0547 55.9287 87.0606 55.9287 95.7028C55.9287 104.345 62.9346 111.351 71.5768 111.351Z" fill="white"/>
<path d="M233.334 82.0034C235.453 79.8846 235.453 76.4494 233.334 74.3306C231.216 72.2118 227.78 72.2118 225.662 74.3306C223.543 76.4494 223.543 79.8846 225.662 82.0034C227.78 84.1222 231.216 84.1222 233.334 82.0034Z" fill="white"/>
</g>
<defs>
<clipPath id="clip0_553_3827">
<rect width="300" height="255" fill="white"/>
</clipPath>
</defs>
</svg>
