<svg width="300" height="255" viewBox="0 0 300 255" fill="none" xmlns="http://www.w3.org/2000/svg">
<path d="M271.122 97.3751L278.389 101.605C274.85 107.078 268.874 110.418 262.449 110.418C259.247 110.418 256.065 109.566 253.247 107.952C251.08 106.712 249.208 105.09 247.665 103.119L254.482 98.1598C255.273 99.0567 256.196 99.8095 257.239 100.406C258.84 101.323 260.649 101.807 262.47 101.807C265.884 101.807 269.08 100.141 271.122 97.3751ZM270.641 95.2983C268.92 98.4547 265.742 100.239 262.47 100.239C260.943 100.239 259.395 99.8507 257.966 99.0322C256.649 98.2783 255.577 97.2394 254.776 96.0318L245.523 102.763C247.283 105.403 249.635 107.674 252.521 109.325C255.673 111.129 259.083 111.986 262.449 111.986C269.685 111.986 276.711 108.029 280.496 101.034L270.641 95.2983Z" fill="white"/>
<path d="M240.277 79.6915C240.292 79.6623 240.309 79.6352 240.324 79.6064L250.837 85.725C248.945 89.3001 249.288 93.5252 251.37 96.6686L241.499 103.85C236.878 96.9145 236.107 87.5721 240.277 79.6915Z" fill="white"/>
<path d="M254.277 85.7741L244.422 80.0382C249.941 69.7117 262.495 65.9445 272.454 71.6465C282.44 77.3636 286.093 90.4659 280.598 100.854C280.566 100.916 280.53 100.973 280.497 101.035L270.642 95.2986C270.663 95.2621 270.684 95.2266 270.703 95.1895C273.196 90.4768 271.539 84.5331 267.009 81.9395C262.482 79.348 256.772 81.0682 254.277 85.7741Z" fill="white"/>
<path d="M258.85 98.149C258.726 98.149 258.602 98.1176 258.487 98.0513C256.576 96.9571 255.188 95.1513 254.579 92.9659C253.969 90.7811 254.213 88.4824 255.265 86.4944C256.317 84.5058 258.053 83.0623 260.153 82.4285C262.253 81.7947 264.462 82.0485 266.375 83.1427C268.286 84.237 269.674 86.0428 270.283 88.2281C270.892 90.413 270.648 92.7116 269.596 94.6997C269.395 95.0797 268.936 95.2165 268.572 95.0087C268.208 94.7999 268.075 94.3233 268.276 93.9442C269.134 92.3227 269.333 90.448 268.835 88.6651C268.338 86.8823 267.206 85.409 265.647 84.5168C264.089 83.6246 262.286 83.4178 260.573 83.9352C258.859 84.4521 257.443 85.6298 256.585 87.2508C255.727 88.8724 255.528 90.7471 256.026 92.53C256.523 94.3128 257.655 95.7856 259.214 96.6783C259.578 96.8871 259.711 97.3638 259.51 97.7428C259.373 98.0023 259.116 98.149 258.85 98.149Z" fill="white"/>
<path d="M80.8973 67.3442C80.3157 67.3442 79.8442 66.974 79.8442 66.5169V55.8488C79.8442 55.3917 80.3157 55.0215 80.8973 55.0215C81.4789 55.0215 81.9503 55.3922 81.9503 55.8488V66.5169C81.9503 66.9736 81.4789 67.3442 80.8973 67.3442Z" fill="white"/>
<path d="M85.7181 67.3437C85.1365 67.3437 84.665 66.9734 84.665 66.5164V52.1266C84.665 51.6696 85.1365 51.2993 85.7181 51.2993C86.2997 51.2993 86.7711 51.6696 86.7711 52.1266V66.516C86.7711 66.973 86.2997 67.3437 85.7181 67.3437Z" fill="white"/>
<path d="M90.5399 67.344C89.9582 67.344 89.4868 66.9738 89.4868 66.5167V57.3019C89.4868 56.8449 89.9582 56.4746 90.5399 56.4746C91.1215 56.4746 91.5929 56.8449 91.5929 57.3019V66.5163C91.5929 66.9733 91.1215 67.344 90.5399 67.344Z" fill="white"/>
<path d="M95.3621 67.344C94.7805 67.344 94.3091 66.9738 94.3091 66.5167V47.0226C94.3091 46.5656 94.7805 46.1953 95.3621 46.1953C95.9437 46.1953 96.4152 46.5656 96.4152 47.0226V66.5167C96.4152 66.9733 95.9437 67.344 95.3621 67.344Z" fill="white"/>
<path d="M100.183 67.3439C99.6018 67.3439 99.1304 66.9736 99.1304 66.5166V52.8727C99.1304 52.4157 99.6018 52.0454 100.183 52.0454C100.765 52.0454 101.236 52.4161 101.236 52.8727V66.5162C101.236 66.9732 100.765 67.3439 100.183 67.3439Z" fill="white"/>
<path d="M105.005 67.3438C104.424 67.3438 103.952 66.9735 103.952 66.5165V41.9176C103.952 41.4606 104.424 41.0903 105.005 41.0903C105.587 41.0903 106.058 41.461 106.058 41.9176V66.5165C106.058 66.9731 105.586 67.3438 105.005 67.3438Z" fill="white"/>
<path d="M109.826 67.3439C109.245 67.3439 108.773 66.9736 108.773 66.5166V45.1798C108.773 44.7228 109.245 44.3525 109.826 44.3525C110.408 44.3525 110.88 44.7228 110.88 45.1798V66.5162C110.88 66.9732 110.408 67.3439 109.826 67.3439Z" fill="white"/>
<path d="M114.648 67.344C114.066 67.344 113.595 66.9737 113.595 66.5167V36.8131C113.595 36.3561 114.066 35.9858 114.648 35.9858C115.229 35.9858 115.701 36.3561 115.701 36.8131V66.5163C115.701 66.9733 115.229 67.344 114.648 67.344Z" fill="white"/>
<path d="M196.228 74.3287C195.852 74.0493 195.529 73.6974 195.28 73.289L175.852 41.4765C175.366 40.6823 175.214 39.7663 175.424 38.899C175.634 38.0306 176.18 37.3145 176.962 36.8808L192.647 28.189C193.429 27.7559 194.353 27.6577 195.249 27.9128C196.144 28.168 196.906 28.7462 197.39 29.54L216.819 61.3525C217.821 62.9922 217.321 65.0537 215.708 65.9481L200.023 74.6399C199.242 75.073 198.317 75.1713 197.421 74.9162C196.986 74.7924 196.583 74.5923 196.228 74.3287ZM195.165 30.2163C195.039 30.1226 194.896 30.0516 194.741 30.0076C194.423 29.9165 194.094 29.9514 193.816 30.1055L178.131 38.7972C177.853 38.9513 177.66 39.2054 177.584 39.5145C177.51 39.8234 177.564 40.149 177.736 40.4309L197.164 72.2435C197.339 72.5261 197.607 72.7301 197.926 72.8222C198.244 72.9134 198.573 72.8784 198.851 72.7244L214.536 64.0326C214.814 63.8786 215.008 63.6239 215.083 63.3154C215.158 63.0069 215.103 62.6813 214.931 62.3994L195.503 30.5858C195.414 30.4408 195.299 30.3155 195.165 30.2163Z" fill="white"/>
<path d="M196.847 53.5399C195.483 52.5272 194.7 51.0386 194.661 49.3714L193.941 29.2934C193.92 28.6907 194.399 28.2128 195.011 28.2248C195.624 28.2359 196.138 28.7347 196.16 29.3383L196.88 49.4304C196.905 50.5212 197.446 51.4309 198.387 52.0054L216.326 62.455C216.865 62.7676 217.068 63.4414 216.778 63.9553C216.488 64.4691 215.815 64.6317 215.275 64.3167L197.316 53.8551C197.153 53.7562 196.997 53.6513 196.847 53.5399Z" fill="white"/>
<path d="M58.7617 102.363L34.3765 110.31C32.6405 110.875 30.6725 110.181 29.982 108.759L17.7188 83.5133C15.2077 78.3443 18.2884 72.4864 24.5999 70.4296L40.7021 65.1828C42.4381 64.6173 44.4054 65.3112 45.0966 66.7332L60.655 98.764C61.3455 100.186 60.4977 101.798 58.7617 102.363Z" fill="white"/>
<path d="M41.8585 74.6101L25.026 80.0951C24.7353 80.19 24.4061 80.0735 24.2901 79.8353C24.1748 79.5972 24.3167 79.3272 24.6067 79.2329L41.4391 73.7479C41.7299 73.653 42.059 73.7695 42.175 74.0076C42.2911 74.2458 42.1492 74.5157 41.8585 74.6101Z" fill="#B3B6B7"/>
<path d="M43.2172 76.1509C43.1019 75.9128 42.772 75.7969 42.4813 75.8912L39.2399 76.9472C38.9492 77.0421 38.8073 77.3115 38.9233 77.5496C39.0386 77.7878 39.3685 77.9037 39.6592 77.8093L42.9006 76.7534C43.1913 76.6585 43.3332 76.3885 43.2172 76.1509Z" fill="#B3B6B7"/>
<path d="M36.9205 78.7023L26.0683 82.2385C25.7776 82.3334 25.4484 82.2169 25.3324 81.9788C25.2164 81.7407 25.3589 81.4707 25.649 81.3764L36.5011 77.8402C36.7919 77.7453 37.121 77.8618 37.2371 78.0999C37.3531 78.338 37.2112 78.6074 36.9205 78.7023Z" fill="#B3B6B7"/>
<path d="M41.554 79.5139L27.0412 84.243C26.7504 84.3379 26.4213 84.2214 26.3052 83.9833C26.1899 83.7451 26.3318 83.4752 26.6218 83.3808L41.1347 78.6517C41.4254 78.5568 41.7546 78.6733 41.8706 78.9114C41.9866 79.149 41.8448 79.419 41.554 79.5139Z" fill="#B3B6B7"/>
<path d="M45.2749 80.3863C45.1596 80.1482 44.8297 80.0322 44.539 80.1266L43.6172 80.4266C43.3264 80.5216 43.1845 80.7909 43.2999 81.0291C43.4152 81.2672 43.745 81.3832 44.0358 81.2888L44.9576 80.9887C45.249 80.8944 45.3909 80.6244 45.2749 80.3863Z" fill="#B3B6B7"/>
<path d="M40.3048 82.5056L28.1254 86.4743C27.8347 86.5692 27.5055 86.4527 27.3895 86.2145C27.2735 85.9764 27.4161 85.7064 27.7061 85.6121L39.8854 81.6434C40.1762 81.5485 40.5053 81.665 40.6213 81.9031C40.7374 82.1413 40.5955 82.4112 40.3048 82.5056Z" fill="#B3B6B7"/>
<path d="M45.6943 82.5047L36.9821 85.3436C36.6913 85.4385 36.5495 85.7084 36.6655 85.946C36.7808 86.1841 37.1107 86.3001 37.4014 86.2057L46.1136 83.3669C46.4043 83.272 46.5462 83.0026 46.4309 82.7645C46.3142 82.5263 45.985 82.4098 45.6943 82.5047Z" fill="#B3B6B7"/>
<path d="M34.9683 86.4991C34.8529 86.261 34.5231 86.145 34.2323 86.2394L28.8615 87.9893C28.5707 88.0842 28.4289 88.3536 28.5449 88.5917C28.6609 88.8298 28.9901 88.9458 29.2808 88.8514L34.6517 87.101C34.9417 87.0072 35.0836 86.7372 34.9683 86.4991Z" fill="#B3B6B7"/>
<path d="M47.4706 84.9068C47.3553 84.6687 47.0254 84.5527 46.7347 84.6471L43.4933 85.7036C43.2026 85.798 43.0607 86.0679 43.1767 86.306C43.292 86.5442 43.6219 86.6601 43.9126 86.5658L47.154 85.5098C47.4447 85.4149 47.5866 85.1449 47.4706 84.9068Z" fill="#B3B6B7"/>
<path d="M41.1736 87.4588L30.3207 90.995C30.03 91.0899 29.7008 90.9734 29.5848 90.7352C29.4688 90.4971 29.6114 90.2271 29.9014 90.1328L40.7536 86.596C41.0443 86.5011 41.3735 86.6176 41.4895 86.8558C41.6062 87.0939 41.4643 87.3639 41.1736 87.4588Z" fill="#B3B6B7"/>
<path d="M45.807 88.2697L31.2941 92.9988C31.0034 93.0938 30.6742 92.9773 30.5582 92.7391C30.4429 92.501 30.5847 92.231 30.8748 92.1367L45.3876 87.4076C45.6784 87.3127 46.0075 87.4292 46.1235 87.6673C46.2396 87.9054 46.0977 88.1754 45.807 88.2697Z" fill="#B3B6B7"/>
<path d="M49.529 89.1431C49.4137 88.905 49.0838 88.7891 48.793 88.8834L47.8712 89.1835C47.5805 89.2784 47.4386 89.5478 47.5546 89.7859C47.67 90.0241 47.9998 90.14 48.2906 90.0457L49.2117 89.7456C49.5024 89.6507 49.6443 89.3813 49.529 89.1431Z" fill="#B3B6B7"/>
<path d="M44.5589 91.2624L32.3795 95.2311C32.0888 95.326 31.7596 95.2095 31.6436 94.9714C31.5283 94.7332 31.6702 94.4633 31.9602 94.3689L44.1395 90.4002C44.4303 90.3053 44.7594 90.4218 44.8755 90.66C44.9915 90.8981 44.8496 91.1675 44.5589 91.2624Z" fill="#B3B6B7"/>
<path d="M50.6952 91.546C50.5799 91.3078 50.25 91.1919 49.9593 91.2862L46.7179 92.3422C46.4272 92.4371 46.2853 92.7065 46.4013 92.9446C46.5166 93.1828 46.8465 93.2987 47.1372 93.2044L50.3786 92.1484C50.6694 92.0541 50.8112 91.7841 50.6952 91.546Z" fill="#B3B6B7"/>
<path d="M44.399 94.0979L33.5468 97.634C33.2561 97.7289 32.9269 97.6124 32.8109 97.3743C32.6949 97.1362 32.8374 96.8662 33.1275 96.7719L43.9796 93.2357C44.2704 93.1408 44.5995 93.2573 44.7156 93.4954C44.8316 93.733 44.6897 94.0029 44.399 94.0979Z" fill="#B3B6B7"/>
<path d="M49.0319 94.9094L34.519 99.6385C34.2282 99.7334 33.8991 99.6169 33.7831 99.3788C33.6671 99.1406 33.8096 98.8707 34.0997 98.7763L48.6125 94.0472C48.9033 93.9523 49.2324 94.0688 49.3484 94.3069C49.4645 94.5451 49.3226 94.815 49.0319 94.9094Z" fill="#B3B6B7"/>
<path d="M52.7526 95.7823C52.6373 95.5442 52.3074 95.4282 52.0167 95.5226L51.0949 95.8226C50.8041 95.9176 50.6623 96.187 50.7783 96.4251C50.8936 96.6632 51.2235 96.7792 51.5142 96.6848L52.4353 96.3847C52.726 96.2898 52.8679 96.0204 52.7526 95.7823Z" fill="#B3B6B7"/>
<path d="M47.7833 97.9011L35.6039 101.87C35.3132 101.965 34.984 101.848 34.868 101.61C34.752 101.372 34.8946 101.102 35.1853 101.008L47.3646 97.0389C47.6554 96.944 47.9845 97.0605 48.1005 97.2986C48.2159 97.5368 48.074 97.8062 47.7833 97.9011Z" fill="#B3B6B7"/>
<path d="M205.848 160.933L202.814 156.04C200.993 153.105 199.425 150.037 198.155 146.922L184.239 121.501C182.236 117.317 180.306 119.465 175.154 121.016L169.763 122.639C165.026 124.065 162.409 128.131 163.42 132.181C163.739 133.576 162.863 134.889 163.287 136.26C163.793 137.897 165.92 139.04 167.261 140.455C170.93 144.328 168.515 149.984 172.845 153.467C173.642 154.108 174.614 154.616 175.383 155.276C177.689 157.256 177.757 160.205 180.09 162.167C181.005 162.936 182.21 163.496 183.044 164.314C184.137 165.385 184.44 166.735 185.153 167.952C186.639 170.487 190.154 172.388 193.634 172.655C193.832 172.702 194.027 172.756 194.227 172.793C196.495 173.22 198.947 173.045 201.187 172.159C206.344 170.122 208.43 165.096 205.848 160.933ZM176.299 147.739C176.16 147.473 176.031 147.204 175.919 146.932L176.299 147.739Z" fill="#76B9F4"/>
<path d="M225.406 110.18C226.037 110.213 226.515 110.721 226.468 111.308L226.048 116.607C226.002 117.194 225.447 117.647 224.816 117.613C224.185 117.58 223.708 117.072 223.754 116.485L224.174 111.186C224.221 110.598 224.775 110.146 225.406 110.18Z" fill="#F48F7D"/>
<path d="M236.527 114.944C236.795 114.163 236.974 113.349 236.736 112.719C236.552 112.231 236.136 111.898 235.707 111.6C234.603 110.832 233.358 110.212 231.999 109.756C230.753 109.337 229.134 109.116 227.693 110.083C226.3 111.017 225.556 112.45 225.373 113.794C225.026 116.342 224.93 117.254 226.103 119.13C227.57 121.479 229.963 122.129 232.801 119.325C234.26 117.883 235.943 116.641 236.527 114.944Z" fill="#F48F7D"/>
<path d="M228.986 111.448L234.612 106.052C234.993 105.686 234.939 105.131 234.493 104.819C234.047 104.507 233.37 104.551 232.988 104.916L227.362 110.313C226.982 110.678 227.035 111.233 227.481 111.545C227.928 111.858 228.605 111.814 228.986 111.448Z" fill="#F48F7D"/>
<path d="M231.929 112.195L237.554 106.798C237.935 106.433 237.882 105.878 237.435 105.566C236.989 105.253 236.312 105.297 235.931 105.663L230.305 111.06C229.924 111.426 229.977 111.981 230.424 112.292C230.87 112.605 231.547 112.561 231.929 112.195Z" fill="#F48F7D"/>
<path d="M233.108 113.605L238.733 108.209C239.114 107.843 239.062 107.289 238.615 106.977C238.169 106.664 237.491 106.708 237.11 107.074L231.484 112.47C231.103 112.836 231.157 113.391 231.603 113.703C232.05 114.015 232.727 113.971 233.108 113.605Z" fill="#F48F7D"/>
<path d="M234.952 117.27L238.489 113.685C239.57 112.588 240.038 111.164 239.755 109.773C239.551 108.772 239.213 107.884 238.982 107.723L238.023 107.974C237.577 107.662 236.281 108.388 235.899 108.753L232.451 116.192C232.07 116.558 232.124 117.113 232.57 117.425C233.015 117.737 234.571 117.636 234.952 117.27Z" fill="#F48F7D"/>
<path d="M219.146 123.642L224.578 116.424C226.325 113.755 227.227 111.912 230.092 113.099C231.336 113.615 232.211 114.497 232.659 115.548C233.242 116.917 231.942 118.271 230.955 119.78L226.303 127.347L219.146 123.642Z" fill="#F48F7D"/>
<path d="M211.272 126.204L208.142 131.198C206.266 134.193 204.13 137.142 201.796 139.962L188.988 158.515C186.257 162.514 185.103 167.131 188.814 169.7C191.001 171.214 194.513 172.423 194.513 172.423C198.329 174.022 202.22 172.231 205.586 168.914C206.76 167.787 208.473 167.365 209.57 166.197C210.88 164.804 210.879 162.867 211.545 161.171C213.368 156.529 220.045 153.975 221.151 149.242C221.355 148.37 221.34 147.496 221.577 146.626C222.287 144.02 225.082 141.967 225.761 139.358C226.027 138.335 225.942 137.298 226.296 136.285C226.76 134.959 227.9 133.872 228.699 132.652C230.366 130.112 230.374 126.903 228.833 124.829C228.777 124.689 228.727 124.547 228.66 124.412C227.898 122.888 226.463 121.676 224.456 121.064C219.838 119.654 213.934 121.956 211.272 126.204ZM213.87 151.28C213.686 151.539 213.494 151.792 213.291 152.039L213.87 151.28Z" fill="#76B9F4"/>
<path d="M93.9805 172.159C96.2211 173.045 98.6731 173.22 100.941 172.793C101.141 172.756 101.336 172.702 101.533 172.654C105.014 172.388 108.529 170.487 110.015 167.952C110.728 166.735 111.031 165.385 112.124 164.314C112.958 163.496 114.163 162.936 115.078 162.167C117.411 160.205 117.479 157.256 119.785 155.276C120.553 154.616 121.526 154.108 122.323 153.467C126.652 149.984 124.238 144.328 127.906 140.455C129.247 139.039 131.374 137.897 131.88 136.26C132.304 134.889 131.428 133.576 131.743 132.199C132.757 128.132 130.141 124.065 125.404 122.639L120.013 121.017C114.862 119.466 112.932 117.317 110.928 121.502L97.0122 146.922C95.7412 150.038 94.1738 153.106 92.3534 156.04L89.3189 160.933C86.7368 165.095 88.8235 170.122 93.9805 172.159ZM119.249 146.931C119.136 147.203 119.008 147.473 118.868 147.739L119.249 146.931Z" fill="#76B9F4"/>
<path d="M68.6693 112.066C68.0405 112.12 67.5873 112.643 67.6618 113.228L68.3349 118.51C68.4094 119.095 68.9848 119.53 69.6136 119.476C70.2424 119.422 70.6956 118.899 70.6211 118.314L69.948 113.033C69.8736 112.448 69.2982 112.013 68.6693 112.066Z" fill="#F48F7D"/>
<path d="M57.7849 117.185C57.4792 116.414 57.2621 115.606 57.4694 114.969C57.6303 114.475 58.0301 114.129 58.4446 113.817C59.5111 113.015 60.7259 112.356 62.0615 111.856C63.2868 111.397 64.8937 111.125 66.3804 112.044C67.8172 112.933 68.6293 114.341 68.8759 115.678C69.3446 118.212 69.4844 119.121 68.4031 121.032C67.0485 123.426 64.6885 124.153 61.7187 121.443C60.1905 120.049 58.4495 118.862 57.7849 117.185Z" fill="#F48F7D"/>
<path d="M65.1512 113.449L59.2719 108.237C58.8735 107.884 58.9002 107.328 59.3316 107.002C59.763 106.676 60.441 106.698 60.8394 107.051L66.7186 112.263C67.117 112.616 67.0903 113.172 66.6589 113.498C66.2282 113.825 65.5495 113.802 65.1512 113.449Z" fill="#F48F7D"/>
<path d="M62.2493 114.291L56.37 109.079C55.9717 108.726 55.9984 108.17 56.4298 107.844C56.8611 107.518 57.5398 107.539 57.9375 107.893L63.8168 113.105C64.2152 113.458 64.1885 114.014 63.7571 114.34C63.3264 114.666 62.6477 114.644 62.2493 114.291Z" fill="#F48F7D"/>
<path d="M61.1375 115.737L55.2582 110.525C54.8598 110.172 54.8865 109.616 55.3179 109.29C55.7493 108.963 56.428 108.985 56.8264 109.339L62.7057 114.551C63.104 114.904 63.0773 115.46 62.646 115.786C62.2146 116.112 61.5359 116.09 61.1375 115.737Z" fill="#F48F7D"/>
<path d="M59.4703 119.46L55.7655 115.99C54.6322 114.928 54.0969 113.52 54.3125 112.122C54.4678 111.115 54.7636 110.218 54.987 110.049L55.9573 110.269C56.3887 109.943 57.718 110.626 58.1164 110.979L61.9181 118.301C62.3165 118.655 62.2898 119.211 61.8584 119.537C61.4277 119.863 59.8686 119.813 59.4703 119.46Z" fill="#F48F7D"/>
<path d="M75.5692 125.317L69.7954 118.28C67.9223 115.669 66.9323 113.856 64.1269 115.134C62.9086 115.689 62.076 116.599 61.679 117.664C61.1619 119.05 62.5257 120.361 63.5845 121.837L68.5946 129.25L75.5692 125.317Z" fill="#F48F7D"/>
<path d="M70.1381 122.912C68.1617 123.588 66.7854 124.845 66.0975 126.393C66.0364 126.53 65.995 126.674 65.9451 126.815C64.5034 128.937 64.6657 132.143 66.453 134.628C67.3102 135.82 68.5011 136.871 69.028 138.18C69.4306 139.181 69.3955 140.22 69.7103 141.235C70.5133 143.819 73.4052 145.781 74.2384 148.362C74.5167 149.223 74.5434 150.098 74.7893 150.963C76.1214 155.656 82.9154 157.994 84.96 162.573C85.7068 164.247 85.7982 166.182 87.1731 167.532C88.3254 168.664 90.0573 169.03 91.2699 170.105C94.8068 173.325 98.7806 174.99 102.517 173.27C102.517 173.27 105.969 171.95 108.082 170.366C111.668 167.68 110.293 163.104 107.373 159.196L93.6868 141.068C91.2193 138.325 88.9444 135.447 86.9258 132.514L83.559 127.624C80.6953 123.465 74.6853 121.355 70.1381 122.912ZM82.777 153.505C82.5627 153.265 82.3583 153.018 82.1623 152.765L82.777 153.505Z" fill="#76B9F4"/>
<path d="M151.133 178.309L151.707 214.969L152.498 217.088L153.075 218.634C144.827 221.128 132.307 223.012 126.904 223.461C121.345 223.924 115.748 223.568 110.217 224.27C101.839 225.332 94.2501 229.564 85.7818 229.949C83.1464 230.069 80.5272 230.267 78.021 230.505C68.2143 231.441 59.5928 225.181 59.486 217.095L59.4403 213.629C59.3757 208.772 62.994 204.388 68.5185 202.621C96.1015 193.8 132.679 184.277 151.133 178.309Z" fill="#001443"/>
<path d="M168.223 210.256C168.168 209.109 167.416 208.039 166.349 207.321C165.281 206.591 163.922 206.173 162.543 206.085L154.214 205.77L137.55 205.157L104.219 204.05L87.5539 203.501L79.2219 203.226L75.0555 203.089L73.0223 203.109L71.0016 203.271C65.6591 203.895 60.552 206.247 57.5723 209.909C56.1207 211.745 55.2769 213.885 55.2018 216.057C55.0809 218.235 55.8727 220.397 57.202 222.272C58.5145 224.172 60.4923 225.739 62.7321 226.939C64.9839 228.133 67.5385 228.962 70.1957 229.351C70.8646 229.422 71.53 229.527 72.2023 229.57C72.881 229.595 73.5422 229.646 74.2356 229.653C75.6218 229.666 77.0081 229.674 78.3879 229.657C81.1302 229.67 83.8204 229.281 86.5464 228.848C89.2647 228.412 92.0161 227.936 94.8412 227.768C97.6719 227.595 100.49 227.788 103.257 228.033C106.026 228.276 108.772 228.57 111.525 228.585C114.28 228.622 117.042 228.429 119.797 228.183C125.302 227.679 130.826 226.898 136.423 226.941C142.005 226.98 147.529 227.623 153.087 227.43C155.861 227.358 158.632 227.162 161.382 226.843C162.07 226.766 162.756 226.676 163.441 226.582C164.125 226.492 164.795 226.355 165.423 226.121C166.678 225.666 167.773 224.867 168.347 223.838C168.634 223.327 168.785 222.763 168.775 222.2L168.7 220.494L168.541 217.082L168.223 210.256ZM168.223 210.256L168.592 217.08L168.777 220.493L168.864 222.199C168.879 222.774 168.729 223.35 168.44 223.873C167.861 224.927 166.751 225.746 165.476 226.217C164.839 226.458 164.15 226.603 163.465 226.696C162.78 226.794 162.092 226.887 161.405 226.968C158.652 227.301 155.877 227.512 153.095 227.597C147.525 227.824 141.964 227.279 136.425 227.303C130.878 227.331 125.405 228.176 119.881 228.754C117.116 229.036 114.329 229.268 111.521 229.266C108.709 229.287 105.922 229.023 103.163 228.817C100.404 228.607 97.6494 228.458 94.9311 228.66C92.2072 228.854 89.5128 229.364 86.7797 229.807C84.0593 230.255 81.2433 230.676 78.4132 230.678C77.013 230.702 75.619 230.701 74.2258 230.694C73.5295 230.691 72.8037 230.643 72.0941 230.618C71.3817 230.575 70.677 230.469 69.9674 230.397C67.1479 229.998 64.4233 229.133 62.0028 227.866C59.5965 226.593 57.4437 224.918 56.0006 222.848C54.5624 220.795 53.7144 218.411 53.8605 216.025C53.9582 213.644 54.906 211.303 56.4945 209.326C59.7524 205.379 65.2024 202.937 70.8365 202.304L72.9668 202.144L75.1026 202.149L79.2669 202.339L87.5954 202.719L104.252 203.48L137.562 204.991L154.22 205.687L162.548 206.044C163.936 206.139 165.299 206.566 166.366 207.304C167.432 208.031 168.177 209.109 168.223 210.256Z" fill="#113E99"/>
<path d="M154.772 178.837L141.83 213.524L141.04 215.643L140.463 217.19C148.711 219.683 161.231 221.567 166.634 222.016C172.193 222.479 177.79 222.123 183.322 222.825C191.699 223.888 199.288 228.12 207.756 228.505C210.392 228.625 213.011 228.822 215.517 229.061C225.324 229.996 233.945 223.736 234.052 215.65L234.099 212.185C234.163 207.327 230.545 202.943 225.02 201.176C197.437 192.355 173.225 184.806 154.772 178.837Z" fill="#001443"/>
<path d="M146.536 108.147C142.487 107.943 138.143 108.219 133.567 109.195L137.42 190.247L147.633 189.848L157.845 190.247L161.698 109.195C157.122 108.219 152.777 107.943 148.729 108.147C147.998 108.184 147.266 108.184 146.536 108.147Z" fill="white"/>
<path d="M134.984 108.864C133.834 109.103 132.668 109.4 131.484 109.765C128.812 110.591 126.059 111.746 123.239 113.315C121.603 114.225 113.033 116.258 110.35 122.123C108.363 126.468 110.595 133.609 110.59 134.107C110.551 139.12 112.979 140.564 112.775 145.648C112.603 149.919 111.761 153.793 111.8 158.079C111.847 163.242 115.508 167.885 116.251 173.03C116.799 176.821 115.724 180.545 114.847 184.194C113.125 191.356 112.218 199.313 115.587 206.123C116.479 207.926 118.585 209.18 122.864 209.283C125.964 209.357 129.504 209.117 133.113 208.469C133.172 208.458 133.231 208.449 133.291 208.437C134.229 208.267 135.181 208.083 136.114 207.935C137.703 207.683 138.826 206.59 138.777 205.337L134.984 108.864Z" fill="#76B9F4"/>
<path d="M160.281 108.864C161.43 109.103 162.596 109.4 163.78 109.765C166.453 110.591 169.206 111.746 172.025 113.315C173.662 114.225 182.232 116.258 184.914 122.123C186.901 126.468 184.67 133.609 184.674 134.107C184.713 139.12 182.285 140.564 182.49 145.648C182.661 149.919 183.503 153.793 183.464 158.079C183.417 163.242 179.757 167.885 179.013 173.03C178.466 176.821 179.541 180.545 180.418 184.194C182.14 191.356 183.047 199.313 179.678 206.123C178.786 207.926 176.679 209.18 172.401 209.283C169.301 209.357 165.761 209.117 162.153 208.469C162.093 208.458 162.034 208.449 161.974 208.437C161.036 208.267 160.084 208.083 159.152 207.935C157.562 207.683 156.44 206.59 156.489 205.337L160.281 108.864Z" fill="#76B9F4"/>
<path d="M134.657 108.864C133.929 110.364 133.14 111.84 132.338 113.309C131.538 114.78 130.704 116.237 129.867 117.692L129.907 117.334C130.486 118.789 131.044 120.249 131.575 121.715C132.11 123.18 132.622 124.651 133.107 126.128C133.596 127.604 134.058 129.087 134.487 130.578C134.919 132.068 135.316 133.566 135.646 135.08C134.923 133.661 134.269 132.224 133.648 130.779C133.026 129.335 132.436 127.883 131.873 126.425C131.306 124.967 130.767 123.503 130.25 122.034C129.728 120.565 129.235 119.09 128.762 117.609L128.698 117.408L128.802 117.251C129.739 115.837 130.68 114.424 131.654 113.026C132.625 111.626 133.611 110.232 134.657 108.864Z" fill="#4398BA"/>
<path d="M160.609 108.864C161.655 110.232 162.641 111.626 163.612 113.026C164.586 114.424 165.527 115.837 166.464 117.251L166.569 117.408L166.504 117.609C166.031 119.09 165.538 120.565 165.016 122.034C164.498 123.503 163.959 124.967 163.393 126.425C162.83 127.883 162.239 129.335 161.618 130.779C160.997 132.224 160.343 133.661 159.62 135.08C159.949 133.566 160.347 132.068 160.778 130.578C161.207 129.087 161.67 127.604 162.158 126.128C162.644 124.651 163.156 123.18 163.69 121.715C164.221 120.249 164.779 118.789 165.358 117.334L165.398 117.692C164.561 116.237 163.727 114.78 162.927 113.309C162.126 111.84 161.337 110.364 160.609 108.864Z" fill="#4398BA"/>
<path d="M117.699 185.074C119.388 184.838 121.077 184.714 122.766 184.63C124.455 184.538 126.144 184.514 127.833 184.503C129.522 184.513 131.211 184.537 132.9 184.628C134.589 184.712 136.278 184.836 137.967 185.074C136.278 185.313 134.589 185.437 132.9 185.521C131.211 185.611 129.522 185.636 127.833 185.646C126.144 185.634 124.455 185.61 122.766 185.519C121.077 185.435 119.388 185.311 117.699 185.074Z" fill="#4398BA"/>
<path d="M177.566 185.074C175.877 185.311 174.188 185.435 172.499 185.519C170.81 185.61 169.121 185.634 167.432 185.646C165.743 185.635 164.053 185.611 162.364 185.521C160.675 185.437 158.986 185.312 157.297 185.074C158.986 184.836 160.675 184.711 162.364 184.628C164.053 184.537 165.743 184.513 167.432 184.503C169.121 184.514 170.81 184.539 172.499 184.63C174.188 184.714 175.877 184.838 177.566 185.074Z" fill="#4398BA"/>
<path d="M147.633 115.862L146.683 116.926L147.633 117.776L148.583 116.926L147.633 115.862Z" fill="#F9D5CD"/>
<path d="M168.223 210.256C168.11 208.02 165.564 206.202 162.328 206.048C132.051 204.601 102.608 203.503 75.0367 202.618C63.8486 202.259 54.5049 208.529 54.5049 216.388C54.5049 223.925 63.1369 230.075 73.8774 230.171C76.8508 230.198 79.3506 230.18 80.6574 230.09C85.7294 229.738 90.5801 228.397 95.6647 228.169C100.631 227.945 105.5 228.795 110.458 228.915C118.691 229.115 126.829 227.303 135.082 227.135C139.67 227.041 144.217 227.458 148.797 227.539C153.803 227.628 158.845 227.305 163.756 226.597C166.798 226.158 168.929 224.256 168.821 222.115L168.223 210.256Z" fill="#001443"/>
<path d="M127.462 76.7197C128.017 75.721 128.839 74.7857 129.022 73.7064C129.177 72.7825 128.841 71.8523 128.904 70.9222C128.967 69.9926 129.664 68.943 130.832 68.8636C131.385 68.8259 131.931 69.0179 132.483 68.9801C134.039 68.8733 134.493 67.2798 135.257 66.1931C136.114 64.9755 137.849 64.1779 139.596 64.1985C140.851 64.2128 142.262 64.5801 143.26 63.9654C144.045 63.4797 144.286 62.5067 145.21 62.2124C146.564 61.7811 147.756 63.1929 149.205 63.2757C150.225 63.3329 151.093 62.7267 152.016 62.3678C153.736 61.6982 155.935 61.9256 157.359 62.9192C158.12 63.4511 158.695 64.1882 159.633 64.4973C160.845 64.8949 162.365 64.4687 163.481 65.0115C165.8 66.1428 164.012 68.2928 164.088 70.2777C164.182 72.7757 167.44 75.1199 166.065 77.3819C165.744 77.9121 165.171 78.3972 165.205 78.9823C165.239 79.5771 165.902 80.0399 166.016 80.6278C166.23 81.7299 164.549 82.5487 164.023 83.5348C164.004 83.6383 163.852 84.2153 163.871 84.3005C162.347 90.8059 157.171 95.8167 150.57 96.3035C145.102 96.7074 140.642 92.2297 136.76 89.3964C136.684 89.3929 136.623 89.4078 136.547 89.4027C134.756 89.293 133.362 88.4999 132.204 87.4315C130.079 85.4712 131.449 83.2137 129.969 81.3734C129.401 80.6701 128.21 80.449 127.536 79.8096C126.661 78.9817 126.907 77.7179 127.462 76.7197Z" fill="#001443"/>
<path d="M154.715 92.9626C154.688 91.6462 153.581 90.5835 152.255 90.6018L142.608 90.7338C141.282 90.7526 140.219 91.8445 140.246 93.1615L140.609 110.937C140.676 114.219 143.986 116.832 147.992 116.764C151.977 116.697 155.146 114.003 155.079 110.739L154.715 92.9626Z" fill="#F48F7D"/>
<path d="M152.043 73.6901C154.233 72.8977 156.724 73.2336 158.641 74.4089C159.279 74.8003 159.665 75.4488 159.779 76.9731L160.59 87.4426C160.803 90.2074 160.318 92.9916 159.03 95.553C157.136 99.32 154.177 101.405 149.313 101.651C142.546 101.993 136.677 97.8156 136.209 91.6124L135.656 84.4287C135.44 81.6188 137.384 78.9963 140.528 77.8582L152.043 73.6901Z" fill="#F48F7D"/>
<path d="M137.261 84.7275C135.283 84.7589 133.718 86.3662 133.765 88.3168C133.812 90.2674 135.451 91.8232 137.428 91.7918C139.406 91.7603 140.97 90.1531 140.925 88.2025C140.878 86.2519 139.238 84.6961 137.261 84.7275Z" fill="#F48F7D"/>
<path d="M158.992 84.7275C157.014 84.7589 155.45 86.3662 155.496 88.3168C155.542 90.2674 157.182 91.8232 159.159 91.7918C161.137 91.7603 162.701 90.1531 162.656 88.2025C162.609 86.2519 160.969 84.6961 158.992 84.7275Z" fill="#F48F7D"/>
<path d="M148.757 85.4277C149.166 85.97 149.431 86.5327 149.664 87.0995C149.887 87.668 150.056 88.244 150.179 88.8262C150.239 89.1176 150.29 89.4101 150.327 89.7049L150.353 89.926C150.375 90.0426 150.368 90.218 150.315 90.3522C150.214 90.6345 149.958 90.8728 149.617 90.9773C149.453 91.0339 149.234 91.0367 149.18 91.0282L148.906 91.0122L148.355 90.967C147.986 90.9213 147.618 90.879 147.242 90.7848C147.583 90.6259 147.932 90.5191 148.28 90.4082L148.806 90.266C148.955 90.2231 149.247 90.1711 149.158 90.1586C149.147 90.1403 149.133 90.1209 149.117 90.1163C149.106 90.1066 149.099 90.1311 149.088 90.1026L149.022 89.8872C148.937 89.5992 148.866 89.309 148.804 89.0181C148.682 88.4354 148.607 87.8463 148.586 87.2492C148.572 86.6539 148.593 86.0511 148.757 85.4277Z" fill="#E56E5E"/>
<path d="M159.094 94.9614C158.726 95.9042 158.237 96.8269 157.556 97.6611C156.887 98.4998 156.04 99.2506 155.061 99.8705C154.081 100.489 152.975 100.981 151.803 101.318C150.623 101.639 149.392 101.806 148.161 101.881C145.659 101.747 143.18 101.15 141.153 99.9402C140.143 99.3403 139.255 98.6004 138.542 97.7645C138.363 97.5554 138.19 97.344 138.034 97.1234C137.96 97.0115 137.865 96.9092 137.794 96.7961C137.731 96.6789 137.686 96.5549 137.632 96.4355C137.441 95.9476 137.278 95.4597 137.181 94.962C137.498 95.3945 137.805 95.8202 138.154 96.219C138.242 96.3184 138.339 96.4127 138.419 96.5144C138.485 96.6218 138.556 96.7269 138.632 96.8298C138.779 97.0383 138.944 97.2377 139.111 97.4342C139.783 98.2221 140.615 98.9141 141.562 99.4768C143.46 100.611 145.805 101.182 148.16 101.31H148.114C149.295 101.249 150.462 101.063 151.582 100.768C152.709 100.493 153.794 100.091 154.773 99.5466C155.752 99.0032 156.625 98.3227 157.34 97.5377C158.061 96.7538 158.644 95.8819 159.094 94.9614Z" fill="#E56E5E"/>
<path d="M158.141 82.5054C158.081 82.5054 158.02 82.4929 157.965 82.4666L157.894 82.4317C156.515 81.7478 154.424 81.181 152.296 82.3809C152.139 82.4706 151.919 82.438 151.81 82.3072C151.701 82.1769 151.741 81.9992 151.9 81.9095C153.798 80.8388 156.057 80.8502 158.257 81.9421L158.317 81.9718C158.484 82.0512 158.54 82.2266 158.443 82.3632C158.377 82.4546 158.261 82.5054 158.141 82.5054Z" fill="#001443"/>
<path d="M139.207 82.5047C139.087 82.5047 138.97 82.4539 138.905 82.363C138.808 82.2265 138.864 82.0511 139.031 81.9717L139.091 81.9419C141.29 80.8507 143.547 80.8387 145.447 81.9088C145.606 81.9985 145.646 82.1762 145.537 82.3065C145.428 82.4367 145.211 82.4704 145.052 82.3802C142.924 81.1809 140.833 81.746 139.453 82.431L139.383 82.4659C139.328 82.4922 139.267 82.5047 139.207 82.5047Z" fill="#001443"/>
<path d="M148.668 94.7842C148.001 94.7842 147.3 94.679 146.596 94.4093C146.422 94.3425 146.346 94.1722 146.427 94.0288C146.509 93.8865 146.716 93.8248 146.892 93.8911C148.523 94.5156 150.176 94.1077 151.274 93.6552C151.446 93.5843 151.656 93.6403 151.743 93.782C151.83 93.9231 151.761 94.0951 151.589 94.1659C150.814 94.4859 149.789 94.7842 148.668 94.7842Z" fill="white"/>
<path d="M155.134 85.8773C153.92 85.8773 152.969 85.3791 152.969 84.7438C152.969 84.5855 153.125 84.4575 153.318 84.4575C153.511 84.4575 153.667 84.5855 153.667 84.7438C153.667 85.0089 154.295 85.3054 155.134 85.3054C155.974 85.3054 156.6 85.0089 156.6 84.7438C156.6 84.5855 156.756 84.4575 156.95 84.4575C157.143 84.4575 157.299 84.5855 157.299 84.7438C157.299 85.3797 156.348 85.8773 155.134 85.8773Z" fill="#001443"/>
<path d="M142.805 85.8773C141.591 85.8773 140.64 85.3791 140.64 84.7438C140.64 84.5855 140.796 84.4575 140.989 84.4575C141.183 84.4575 141.339 84.5855 141.339 84.7438C141.339 85.0089 141.966 85.3054 142.805 85.3054C143.644 85.3054 144.271 85.0089 144.271 84.7438C144.271 84.5855 144.427 84.4575 144.62 84.4575C144.814 84.4575 144.97 84.5855 144.97 84.7438C144.97 85.3797 144.018 85.8773 142.805 85.8773Z" fill="#001443"/>
<path d="M147.982 117.787L144.159 120.643C144.159 120.643 135.066 113.244 140.735 109.129L147.965 115.872L155.073 109.202C160.818 113.376 151.857 120.682 151.857 120.682L147.982 117.787Z" fill="#F9D5CD"/>
<path d="M148.112 116.388C147.977 116.378 147.835 116.419 147.747 116.513L145.832 118.56C145.736 118.662 145.736 118.799 145.831 118.902L147.947 121.177C147.991 121.225 148.049 121.259 148.112 121.28C148.176 121.259 148.234 121.225 148.278 121.177L150.394 118.902C150.489 118.799 150.489 118.662 150.393 118.56L148.478 116.513C148.389 116.419 148.248 116.378 148.112 116.388Z" fill="#FC5810"/>
<path d="M148.112 119.682C148.109 119.663 143.041 159.812 143.041 159.812L147.539 163.921L152.144 159.72L148.115 119.663L148.112 119.682Z" fill="#FC5810"/>
<path d="M100.072 212.424C100.072 212.424 95.6132 212.305 95.0525 212.656L95.394 215.829C93.5764 216.967 96.5048 217.454 96.1507 219.073L111.665 220.832C111.208 220.001 110.913 219.963 110.76 219.027L111.242 217.233C110.454 214.445 109.406 214.163 111.528 212.177L100.072 212.424Z" fill="#F48F7D"/>
<path d="M94.6502 208.723C93.6054 208.473 92.5396 208.88 92.2698 209.633L84.9685 230.031C84.5757 231.128 85.4905 232.307 87.0018 232.677L95.5031 208.929L94.6502 208.723Z" fill="#2C2655"/>
<path d="M88.0031 232.908C89.2692 233.195 90.5921 232.888 91.3278 232.136L95.1913 227.987L102.34 220.229C102.666 219.875 102.688 219.379 102.386 219.011C101.524 217.959 100.573 217.9 101.16 216.258L102.769 211.764C102.968 211.209 102.505 210.609 101.735 210.424L100.628 210.158L100.39 210.101L95.5011 208.927L87.0005 232.675C87.0054 232.682 88.0031 232.908 88.0031 232.908Z" fill="#AA461A"/>
<path d="M108.676 208.375C108.806 206.089 111.723 204.231 115.433 204.073C150.139 202.596 183.89 201.473 215.496 200.569C228.322 200.202 239.032 206.61 239.032 214.641C239.032 222.344 229.137 228.629 216.825 228.726C213.417 228.753 210.551 228.736 209.053 228.643C203.239 228.284 197.679 226.914 191.85 226.68C186.157 226.452 180.576 227.321 174.892 227.444C165.454 227.647 156.126 225.795 146.665 225.624C141.406 225.528 136.193 225.955 130.943 226.037C125.205 226.128 119.425 225.799 113.796 225.075C110.31 224.626 107.867 222.683 107.99 220.495L108.676 208.375Z" fill="#001443"/>
<path d="M108.608 208.372C108.676 207.05 109.706 205.884 111.003 205.165C112.312 204.428 113.885 204.057 115.457 203.978C118.577 203.851 121.699 203.749 124.818 203.595L143.533 202.73C156.01 202.141 168.496 201.685 180.984 201.303L199.72 200.803L209.088 200.558L213.771 200.415C215.325 200.357 216.908 200.334 218.478 200.422C221.621 200.594 224.723 201.201 227.621 202.209C230.504 203.228 233.225 204.661 235.331 206.606C235.827 207.112 236.376 207.584 236.78 208.147C236.994 208.42 237.225 208.686 237.424 208.967L237.956 209.84C238.042 209.987 238.139 210.129 238.219 210.279L238.42 210.739L238.819 211.661L239.071 212.619L239.196 213.098C239.22 213.26 239.23 213.424 239.246 213.586L239.338 214.565C239.34 214.892 239.3 215.219 239.282 215.546L239.248 216.037C239.232 216.2 239.18 216.359 239.147 216.521L238.924 217.487C238.813 217.802 238.682 218.111 238.56 218.424L238.375 218.892L238.124 219.339L237.617 220.23L236.991 221.069L236.678 221.488L236.312 221.877L235.58 222.655L234.759 223.369C234.486 223.608 234.214 223.848 233.903 224.053L232.999 224.696C232.702 224.915 232.36 225.086 232.042 225.282C231.715 225.468 231.403 225.675 231.062 225.843L230.035 226.344C229.364 226.701 228.618 226.939 227.91 227.238C227.187 227.512 226.431 227.721 225.691 227.964C224.928 228.149 224.168 228.347 223.397 228.51C222.618 228.636 221.844 228.802 221.056 228.894C220.266 228.967 219.481 229.094 218.685 229.121C217.894 229.149 217.086 229.209 216.308 229.21C214.744 229.228 213.178 229.24 211.607 229.228C208.441 229.25 205.276 228.847 202.2 228.416C199.115 227.98 196.06 227.502 192.995 227.311C189.937 227.111 186.852 227.274 183.755 227.502C180.658 227.736 177.528 228.02 174.358 228.049C171.191 228.089 168.041 227.91 164.919 227.645C158.677 227.109 152.514 226.307 146.326 226.164C140.141 226.029 133.886 226.615 127.598 226.418C124.46 226.34 121.33 226.138 118.22 225.823C116.663 225.663 115.118 225.482 113.567 225.253C111.997 225.009 110.466 224.439 109.335 223.489C108.774 223.016 108.323 222.447 108.069 221.817C107.782 221.19 107.83 220.495 107.881 219.872L108.123 216.038L108.608 208.372ZM108.748 208.377L108.366 216.047L108.175 219.882C108.134 220.527 108.093 221.146 108.376 221.731C108.631 222.311 109.069 222.832 109.61 223.263C110.698 224.13 112.164 224.64 113.658 224.836C115.188 225.028 116.744 225.175 118.291 225.298C121.39 225.543 124.503 225.663 127.613 225.665C133.828 225.682 140.033 225.037 146.35 225.074C152.673 225.114 158.881 225.977 165.065 226.471C168.158 226.726 171.252 226.893 174.335 226.847C177.416 226.81 180.504 226.519 183.63 226.314C186.751 226.103 189.93 225.953 193.106 226.179C196.273 226.398 199.364 226.904 202.429 227.355C205.5 227.808 208.538 228.203 211.629 228.218C213.182 228.247 214.741 228.252 216.3 228.251C217.085 228.257 217.835 228.207 218.605 228.189C219.372 228.172 220.127 228.056 220.889 227.995C223.92 227.641 226.888 226.87 229.569 225.661L230.567 225.197C230.899 225.041 231.201 224.847 231.519 224.674C231.828 224.49 232.162 224.333 232.451 224.128L233.331 223.527C233.635 223.335 233.9 223.11 234.165 222.886L234.968 222.216L235.684 221.486L236.043 221.12L236.35 220.726L236.964 219.936L237.463 219.094L237.712 218.672L237.897 218.23C238.018 217.935 238.15 217.642 238.263 217.344L238.494 216.428C238.528 216.275 238.582 216.124 238.6 215.969L238.642 215.502C238.665 215.19 238.711 214.879 238.716 214.568L238.648 213.632C238.635 213.476 238.63 213.319 238.611 213.164L238.5 212.703L238.279 211.782L237.913 210.89L237.73 210.444C237.656 210.3 237.565 210.161 237.483 210.019L236.976 209.172C236.786 208.9 236.564 208.642 236.359 208.376C235.973 207.829 235.441 207.367 234.964 206.873C232.93 204.97 230.277 203.549 227.451 202.533C224.61 201.519 221.534 200.974 218.446 200.816C216.901 200.741 215.354 200.775 213.789 200.843L209.108 201.028L199.749 201.439L181.031 202.25C168.55 202.744 156.067 203.161 143.574 203.447L124.835 203.894C121.712 203.959 118.591 204.075 115.468 204.167C113.93 204.231 112.39 204.583 111.107 205.29C109.834 205.981 108.829 207.102 108.748 208.377Z" fill="#113E99"/>
</svg>
