<svg width="300" height="255" viewBox="0 0 300 255" fill="none" xmlns="http://www.w3.org/2000/svg">
<path d="M243.006 194.764C277.182 167.622 305.89 97.2548 223.184 51.0132C140.478 4.77158 53.6703 79.1603 35.2152 132.439C16.7601 185.717 42.734 216.377 68.7078 218.388C94.6817 220.398 243.006 194.764 243.006 194.764Z" fill="black" fill-opacity="0.25"/>
<path d="M170.615 189.902C170.973 189.982 171.326 190.106 171.672 190.251C181.294 168.893 201.272 127.248 216.192 114.274L214.471 112.974C199.037 126.395 178.989 168.292 169.377 189.722C169.803 189.757 170.22 189.814 170.615 189.902Z" fill="#A0AC76"/>
<path d="M232.015 96.6937C235.711 96.7375 234.6 99.456 232.288 102.57C229.977 105.684 225.036 106.189 221.869 108.815C218.702 111.441 218.973 113.92 216.31 115.51C213.647 117.101 209.615 118.59 210.766 116.708C211.917 114.827 213.574 115.307 214.382 112.551C215.19 109.795 218.157 103.086 221.153 101.721C224.15 100.357 228.432 96.6514 232.015 96.6937Z" fill="#A0AC76"/>
<path d="M205.107 98.6503C207.543 96.9056 208.807 99.2069 209.581 102.341C210.354 105.476 207.51 108.174 207.37 111.402C207.23 114.629 209.219 116.111 208.649 118.423C208.08 120.735 206.546 123.637 205.919 121.861C205.292 120.085 206.721 119.603 205.232 117.423C203.742 115.242 200.767 109.456 201.718 107.131C202.669 104.806 202.745 100.341 205.107 98.6503Z" fill="#A0AC76"/>
<path d="M233.744 119.337C235.111 116.946 232.026 116.624 228.098 116.92C224.169 117.217 221.79 120.197 218.013 121.23C214.236 122.262 211.913 121.142 209.341 122.246C206.769 123.35 203.775 125.371 206.055 125.349C208.335 125.327 208.497 124.081 211.502 124.612C214.508 125.144 222.205 125.798 224.683 124.394C227.161 122.99 232.42 121.653 233.744 119.337Z" fill="#A0AC76"/>
<path d="M192.11 115.577C194.349 113.667 195.857 115.87 196.965 118.938C198.074 122.005 195.531 124.895 195.739 128.12C195.948 131.344 198.089 132.68 197.771 135.024C197.453 137.367 196.238 140.367 195.422 138.642C194.606 136.917 195.977 136.336 194.258 134.269C192.54 132.202 188.952 126.648 189.649 124.265C190.346 121.882 189.94 117.429 192.11 115.577Z" fill="#A0AC76"/>
<path d="M222.869 134.16C223.973 131.682 220.866 131.578 216.984 132.152C213.102 132.726 211.054 135.863 207.402 137.158C203.75 138.453 201.316 137.503 198.873 138.784C196.43 140.065 193.665 142.291 195.934 142.108C198.203 141.925 198.229 140.671 201.281 140.988C204.333 141.306 212.07 141.412 214.387 139.838C216.704 138.265 221.799 136.561 222.869 134.16Z" fill="#A0AC76"/>
<path d="M182.058 133.143C184.297 131.233 185.805 133.436 186.913 136.504C188.022 139.571 185.479 142.461 185.687 145.686C185.896 148.91 188.037 150.246 187.719 152.59C187.401 154.933 186.186 157.933 185.37 156.208C184.554 154.483 185.925 153.902 184.207 151.835C182.488 149.768 178.9 144.214 179.597 141.831C180.294 139.447 179.889 134.995 182.058 133.143Z" fill="#A0AC76"/>
<path d="M212.816 151.725C213.92 149.247 210.813 149.144 206.931 149.717C203.049 150.291 201.001 153.428 197.349 154.724C193.697 156.019 191.263 155.068 188.82 156.349C186.377 157.631 183.612 159.856 185.881 159.673C188.15 159.49 188.176 158.237 191.228 158.554C194.28 158.871 202.017 158.977 204.334 157.404C206.651 155.83 211.746 154.126 212.816 151.725Z" fill="#A0AC76"/>
<path d="M171.295 150.571C173.263 148.474 175.059 150.53 176.574 153.482C178.089 156.433 175.951 159.53 176.592 162.717C177.234 165.904 179.543 167.043 179.542 169.4C179.542 171.758 178.738 174.847 177.695 173.205C176.651 171.563 177.936 170.864 175.949 168.961C173.962 167.058 169.647 161.855 170.019 159.424C170.39 156.993 169.388 152.603 171.295 150.571Z" fill="#A0AC76"/>
<path d="M203.549 168.828C204.653 166.35 201.546 166.247 197.664 166.82C193.782 167.394 191.734 170.531 188.082 171.827C184.43 173.122 181.996 172.171 179.553 173.452C177.11 174.734 174.345 176.959 176.614 176.776C178.883 176.593 178.909 175.34 181.961 175.657C185.012 175.974 192.75 176.08 195.067 174.507C197.384 172.933 202.479 171.229 203.549 168.828Z" fill="#A0AC76"/>
<path d="M163.788 180.177C163.513 182.085 166.931 186.146 168.501 187.629C169.488 188.561 169.46 189.126 169.507 189.735C169.887 189.771 170.26 189.823 170.615 189.902C170.778 189.939 170.939 189.99 171.1 190.04C171.246 189.413 171.328 188.646 171.322 187.958C171.306 186.109 169.489 185.227 168.965 182.731C168.44 180.234 170.096 177.796 168.889 175.489C167.681 173.181 166.26 171.576 164.73 173.229C163.248 174.831 164.064 178.269 163.788 180.177Z" fill="#A0AC76"/>
<path d="M186.078 182.739C183.265 183.155 181.78 185.429 179.133 186.368C176.486 187.306 174.722 186.617 172.951 187.546C171.518 188.298 169.966 189.483 170.285 189.842C170.395 189.863 170.508 189.878 170.616 189.903C170.676 189.916 170.736 189.938 170.796 189.954C170.807 189.953 170.809 189.956 170.82 189.955C172.465 189.823 172.484 188.914 174.696 189.144C176.908 189.374 182.517 189.451 184.196 188.31C185.876 187.17 189.569 185.935 190.344 184.194C191.145 182.398 188.892 182.323 186.078 182.739Z" fill="#A0AC76"/>
<path d="M95.614 155.645C95.614 155.645 103.036 139.353 91.1493 126.275C84.1832 118.61 66.4969 111.611 66.4969 111.611C66.4969 111.611 28.6568 132.143 31.0324 140.346C33.408 148.548 60.2147 170.053 60.2147 170.053L95.614 155.645Z" fill="#FF946E"/>
<path d="M91.1496 145.227C93.4964 144.148 94.9653 142.019 94.6837 139.703C92.9771 125.674 91.9217 108.426 93.1925 105.022C94.3149 102.005 92.2096 98.8212 88.4853 97.9094C84.7601 97.0001 80.831 98.7072 79.7042 101.722C77.0481 108.852 79.7676 133.453 80.6645 140.821C81.0469 143.958 84.4936 146.249 88.3641 145.94C89.3776 145.859 90.3183 145.61 91.1496 145.227Z" fill="#FF946E"/>
<path d="M72.1302 129.928C72.7588 129.813 73.379 129.626 73.9712 129.364C77.3838 127.85 78.6353 124.384 76.768 121.619C76.6298 121.417 63.0723 101.331 57.6597 91.257L52.0562 80.8255C50.5045 77.9367 46.3683 76.5904 42.7873 77.8709C39.221 79.1278 37.5876 82.4883 39.1397 85.3789L44.7432 95.8104C50.4088 106.356 63.8418 126.256 64.4095 127.099C65.9528 129.382 69.1438 130.472 72.1302 129.928Z" fill="#FF946E"/>
<path d="M61.2181 134.119C61.8285 133.952 62.4212 133.713 62.9766 133.403C66.1757 131.608 66.9745 128.056 64.7616 125.464C64.5983 125.275 48.53 106.443 41.8507 96.8803L34.9357 86.9786C33.0207 84.2366 28.7337 83.2469 25.3371 84.8227C21.9518 86.3738 20.7597 89.8539 22.6755 92.5977L29.5905 102.499C36.5823 112.509 52.5025 131.167 53.1755 131.957C55.0041 134.097 58.318 134.912 61.2181 134.119Z" fill="#FF946E"/>
<path d="M73.0916 157.115C73.1156 157.104 73.1403 157.09 73.164 157.075C73.4184 156.915 73.4635 156.615 73.2632 156.408C58.9735 141.604 74.0303 129.799 74.6797 129.304C74.9143 129.123 74.9256 128.824 74.7036 128.631C74.4806 128.441 74.1002 128.432 73.8746 128.611C73.7083 128.738 57.38 141.497 72.3403 156.995C72.522 157.183 72.8424 157.229 73.0916 157.115Z" fill="#3C251D"/>
<path d="M34.2919 136.927C34.3457 136.911 34.3963 136.888 34.4444 136.859C34.6672 136.721 56.7071 123.063 65.2288 118.755C65.5024 118.616 65.5862 118.323 65.4152 118.099C65.2429 117.878 64.8919 117.811 64.6051 117.948C56.0379 122.279 33.9521 135.965 33.7314 136.103C33.4746 136.263 33.4252 136.561 33.621 136.77C33.7817 136.939 34.0554 136.998 34.2919 136.927Z" fill="#3C251D"/>
<path d="M59.6791 121.186C59.7481 121.178 59.8113 121.159 59.8719 121.124C60.0882 121.009 60.1458 120.774 59.9994 120.599L52.4012 111.433C52.2547 111.258 51.9652 111.214 51.7525 111.33C51.5362 111.445 51.4785 111.68 51.625 111.855L59.2232 121.021C59.3274 121.147 59.505 121.207 59.6791 121.186Z" fill="#3C251D"/>
<path d="M55.7751 132.728C56.1836 134.839 55.2033 137.054 52.9408 138.419C50.2057 140.07 46.5299 139.927 43.9838 138.277C44.3797 140.186 43.5016 142.2 41.4528 143.436C38.539 145.195 34.4156 144.707 32.2423 142.346L20.0632 129.106C19.499 128.492 19.1227 127.813 18.925 127.113C18.3614 125.117 19.252 122.948 21.4094 121.646C23.4464 120.416 26.0639 120.307 28.2038 121.146C28.0472 120.839 27.9018 120.53 27.812 120.212C27.1831 117.986 28.1769 115.566 30.5834 114.113C32.7179 112.825 35.4257 112.637 37.726 113.393C37.314 111.28 58.0706 133.475 55.7751 132.728Z" fill="#E9623D"/>
<path d="M55.5413 132.86C55.5598 132.882 55.5833 132.9 55.6083 132.915C55.7024 132.97 55.8339 132.974 55.9345 132.918C56.0644 132.846 56.0963 132.703 56.0073 132.598L46.8032 121.793C46.7173 121.687 46.5387 121.664 46.41 121.735C46.2801 121.807 46.2482 121.95 46.3372 122.055" fill="#3C251D"/>
<path d="M39.804 134.322C39.8972 134.376 40.0265 134.381 40.1279 134.326C40.2575 134.256 40.2925 134.112 40.2044 134.008L29.9366 121.666C29.8525 121.557 29.674 121.532 29.5443 121.604C29.4148 121.674 29.3797 121.817 29.4679 121.922L39.7357 134.264C39.7538 134.288 39.7781 134.306 39.804 134.322Z" fill="#3C251D"/>
<path d="M43.8177 138.463C43.9074 138.516 44.03 138.523 44.1304 138.474C44.2639 138.408 44.3065 138.267 44.2263 138.158L42.8877 136.37C42.8027 136.26 42.6312 136.226 42.4985 136.292C42.3649 136.358 42.3223 136.499 42.4026 136.608L43.7411 138.396C43.7617 138.424 43.7882 138.446 43.8177 138.463Z" fill="#3C251D"/>
<path d="M42.6476 133.424C42.6561 133.447 42.67 133.467 42.6853 133.486L46.0174 137.493C46.0667 137.554 46.1474 137.592 46.2357 137.597C46.374 137.608 49.6488 137.805 52.1954 135.742C52.3073 135.647 52.3032 135.496 52.1947 135.406C52.0785 135.312 51.8946 135.313 51.7797 135.405C49.7113 137.08 47.0497 137.139 46.4225 137.128L43.2467 133.309C44.3298 130.012 48.554 129.116 49.4728 128.958L52.2972 132.247C52.3889 132.355 52.5716 132.382 52.7047 132.307C52.8385 132.232 52.8684 132.08 52.7784 131.977L49.8454 128.56C49.7826 128.485 49.6716 128.447 49.5605 128.46C49.5034 128.468 43.8858 129.215 42.643 133.297C42.631 133.339 42.6318 133.383 42.6476 133.424Z" fill="#3C251D"/>
<path d="M31.0202 138.71C31.0282 138.731 31.0415 138.751 31.0559 138.769L34.212 142.564C34.2586 142.621 34.3351 142.657 34.4186 142.663C34.5496 142.673 37.6514 142.859 40.0634 140.905C40.1694 140.816 40.1656 140.672 40.0629 140.587C39.9528 140.498 39.7785 140.499 39.6698 140.586C37.7108 142.172 35.1898 142.229 34.5957 142.218L31.5876 138.601C32.6136 135.478 36.6144 134.629 37.4848 134.479L40.16 137.595C40.2468 137.698 40.4198 137.723 40.5459 137.652C40.6727 137.581 40.7009 137.437 40.6158 137.339L37.8377 134.103C37.7781 134.032 37.6731 133.996 37.5679 134.008C37.5138 134.016 32.193 134.723 31.0159 138.59C31.0045 138.629 31.0051 138.671 31.0202 138.71Z" fill="#3C251D"/>
<path d="M57.4668 181.075L107.94 160.452L131.166 217.617H73.5467L57.4668 181.075Z" fill="#ADB9EB"/>
<path d="M204.905 174.962C210.069 161.87 220.002 157.233 221.854 145.231C222.777 139.252 233.977 140.958 234.314 147.504C234.651 154.051 227.242 167.871 232.967 168.143C238.691 168.416 254.855 168.416 254.855 168.416L233.64 205.784L204.905 174.962Z" fill="#FF946E"/>
<path d="M204.523 180.851C204.523 180.851 215.761 169.051 234.313 169.144C245.186 169.198 261.055 174.552 261.055 174.552C261.055 174.552 262.665 208.665 253.793 211.687C244.92 214.709 210.464 210.153 210.464 210.153L204.523 180.851Z" fill="#FF946E"/>
<path d="M215.154 189.61C215.151 189.591 215.151 189.571 215.152 189.551C215.16 189.335 215.387 189.163 215.656 189.171C234.907 189.72 237.347 175.766 237.44 175.171C237.475 174.955 237.719 174.802 237.987 174.829C238.253 174.858 238.446 175.061 238.408 175.27C238.383 175.423 235.774 190.535 215.62 189.96C215.376 189.953 215.18 189.801 215.154 189.61Z" fill="#3C251D"/>
<path d="M255.178 207.851C255.164 207.809 255.158 207.766 255.158 207.721C255.164 207.511 255.797 186.717 255.142 179.207C255.122 178.965 255.347 178.756 255.647 178.737C255.945 178.721 256.198 178.898 256.227 179.146C256.885 186.697 256.252 207.533 256.245 207.742C256.236 207.985 255.988 208.177 255.688 208.172C255.444 208.167 255.241 208.033 255.178 207.851Z" fill="#3C251D"/>
<path d="M255.915 183.895C255.885 183.849 255.869 183.8 255.867 183.744C255.856 183.55 256.042 183.387 256.283 183.381L268.887 183.002C269.128 182.996 269.326 183.148 269.336 183.339C269.346 183.533 269.161 183.696 268.919 183.702L256.316 184.082C256.143 184.087 255.991 184.012 255.915 183.895Z" fill="#3C251D"/>
<path d="M269.554 167.908L248.837 167.932C245.138 167.939 242.076 170.688 241.989 174.076C241.915 176.887 243.93 179.229 246.726 179.95C243.763 180.598 241.508 183.012 241.433 185.909C241.375 188.126 242.621 190.049 244.516 191.124C242.363 192.154 240.846 194.178 240.785 196.535C240.712 199.385 242.78 201.756 245.637 202.442C243.675 203.356 242.29 205.187 242.234 207.322C242.155 210.358 244.777 212.816 248.089 212.813L266.662 212.791C267.523 212.79 268.345 212.622 269.092 212.323C271.221 211.468 272.743 209.532 272.802 207.284C272.857 205.162 271.578 203.342 269.679 202.428C270.044 202.343 270.404 202.25 270.744 202.114C273.119 201.16 274.816 199.001 274.882 196.494C274.94 194.269 273.685 192.341 271.779 191.268C273.935 190.24 275.468 188.227 275.529 185.867C275.603 183.058 273.59 180.717 270.796 179.994C271.192 179.907 271.58 179.801 271.947 179.654C274.321 178.701 276.019 176.542 276.084 174.034C276.173 170.647 273.249 167.905 269.554 167.908Z" fill="#E9623D"/>
<path d="M246.645 180.176C246.541 180.146 246.467 180.056 246.469 179.95C246.474 179.818 246.592 179.714 246.734 179.714L270.804 179.758C270.945 179.758 271.058 179.865 271.056 179.995C271.051 180.126 270.933 180.231 270.79 180.23L246.721 180.186C246.695 180.186 246.668 180.183 246.645 180.176Z" fill="#3C251D"/>
<path d="M244.433 191.351C244.333 191.322 244.26 191.237 244.258 191.135C244.256 191.003 244.37 190.894 244.514 190.888L259.283 190.378C259.426 190.371 259.541 190.476 259.544 190.606C259.546 190.737 259.432 190.847 259.289 190.852L244.519 191.362C244.489 191.363 244.46 191.359 244.433 191.351Z" fill="#3C251D"/>
<path d="M251.47 202.798C251.371 202.769 251.299 202.686 251.296 202.584C251.292 202.454 251.405 202.342 251.548 202.336L268.289 201.59C268.433 201.579 268.55 201.683 268.552 201.814C268.556 201.944 268.443 202.056 268.301 202.062L251.56 202.808C251.528 202.811 251.498 202.806 251.47 202.798Z" fill="#3C251D"/>
<path d="M245.554 202.669C245.458 202.641 245.387 202.564 245.379 202.466C245.369 202.336 245.476 202.221 245.618 202.207L247.965 201.999C248.111 201.988 248.233 202.082 248.242 202.211C248.252 202.341 248.145 202.457 248.003 202.47L245.656 202.678C245.62 202.682 245.585 202.678 245.554 202.669Z" fill="#3C251D"/>
<path d="M252.659 177.314C252.634 177.323 252.608 177.329 252.583 177.332L247.174 177.955C247.093 177.965 247.013 177.94 246.957 177.888C246.867 177.808 244.79 175.881 245.093 172.879C245.11 172.744 245.244 172.644 245.384 172.651C245.534 172.661 245.64 172.777 245.627 172.912C245.382 175.349 246.879 177.065 247.254 177.452L252.409 176.859C254.634 173.94 252.95 170.674 252.552 169.988L248.06 170.443C247.913 170.459 247.783 170.362 247.771 170.227C247.757 170.093 247.872 169.971 248.014 169.957L252.679 169.484C252.78 169.473 252.879 169.517 252.932 169.595C252.958 169.637 255.582 173.678 252.771 177.231C252.742 177.267 252.704 177.296 252.659 177.314Z" fill="#3C251D"/>
<path d="M250.617 189.052C250.592 189.061 250.565 189.064 250.54 189.065L245.106 189.309C245.024 189.313 244.946 189.283 244.895 189.227C244.812 189.141 242.906 187.071 243.457 184.093C243.485 183.959 243.626 183.868 243.766 183.886C243.914 183.906 244.01 184.029 243.986 184.163C243.539 186.581 244.886 188.399 245.227 188.813L250.407 188.58C252.863 185.82 251.459 182.439 251.12 181.726L246.612 181.867C246.464 181.872 246.343 181.767 246.343 181.631C246.34 181.495 246.464 181.382 246.607 181.378L251.289 181.232C251.391 181.227 251.485 181.278 251.531 181.36C251.554 181.404 253.829 185.625 250.736 188.977C250.704 189.011 250.663 189.037 250.617 189.052Z" fill="#3C251D"/>
<path d="M250.796 200.341C250.772 200.349 250.745 200.352 250.72 200.354L245.285 200.597C245.204 200.602 245.126 200.571 245.075 200.515C244.992 200.429 243.086 198.359 243.637 195.381C243.665 195.248 243.806 195.157 243.946 195.174C244.093 195.194 244.189 195.318 244.165 195.451C243.718 197.869 245.066 199.688 245.407 200.101L250.586 199.869C253.043 197.108 251.639 193.728 251.3 193.015L246.792 193.155C246.644 193.161 246.523 193.055 246.522 192.919C246.52 192.784 246.644 192.67 246.787 192.666L251.468 192.52C251.57 192.516 251.664 192.566 251.711 192.649C251.733 192.692 254.008 196.913 250.915 200.265C250.883 200.299 250.843 200.326 250.796 200.341Z" fill="#3C251D"/>
<path d="M252.07 211.387C252.047 211.394 252.022 211.398 251.998 211.399L246.85 211.63C246.773 211.634 246.7 211.605 246.651 211.552C246.573 211.471 244.767 209.51 245.289 206.689C245.316 206.563 245.449 206.477 245.582 206.493C245.721 206.512 245.812 206.629 245.79 206.756C245.366 209.046 246.643 210.768 246.965 211.16L251.871 210.94C254.198 208.325 252.868 205.123 252.547 204.448L248.277 204.581C248.137 204.586 248.023 204.486 248.022 204.357C248.02 204.229 248.137 204.121 248.272 204.117L252.707 203.979C252.803 203.975 252.892 204.023 252.936 204.101C252.958 204.142 255.113 208.14 252.183 211.315C252.153 211.348 252.114 211.373 252.07 211.387Z" fill="#3C251D"/>
<path d="M210.692 210.153C201.394 210.24 173.363 210.785 173.363 210.785V174.417C173.363 174.417 208.068 174.235 210.737 173.508C213.407 172.78 210.928 186.6 210.928 186.6L208.64 195.51L210.692 210.153Z" fill="#FF946E"/>
<path d="M204.455 207.053C204.477 207.053 204.504 207.053 204.531 207.049C204.71 207.013 204.819 206.868 204.781 206.723C204.754 206.639 202.368 198 204.998 191.961L205.036 191.873L204.998 191.781C204.96 191.701 201.461 183.599 203.433 177.212C203.477 177.067 203.368 176.922 203.189 176.882C203.015 176.843 202.83 176.935 202.781 177.08C200.88 183.255 203.944 190.949 204.33 191.873C201.695 198.052 204.026 206.485 204.129 206.846C204.167 206.969 204.303 207.053 204.455 207.053Z" fill="#3C251D"/>
<path d="M223.336 150.321C223.999 150.321 224.716 150.193 225.406 149.819L225.526 149.757L225.553 149.643L226.759 144.049L226.634 143.952C226.585 143.908 225.347 142.918 224.042 142.918C223.858 142.918 223.711 143.037 223.711 143.186C223.711 143.336 223.858 143.455 224.042 143.455C224.863 143.455 225.727 144.014 226.042 144.238L224.917 149.432C223.14 150.286 221.048 149.238 221.021 149.229C220.864 149.159 220.657 149.19 220.56 149.313C220.462 149.436 220.505 149.603 220.663 149.687C220.734 149.722 221.907 150.321 223.336 150.321Z" fill="#3C251D"/>
<path d="M181.782 211.513H197.048V172.599H181.782V211.513Z" fill="#F7EFEB"/>
<path d="M191.661 170.416H171.109V213.876H191.661V170.416Z" fill="#3F5299"/>
<path d="M24.9234 152.02C24.8885 152.02 24.852 152.013 24.8189 152L22.5804 151.046L20.3419 152C20.2635 152.031 20.1731 152.026 20.1069 151.986C20.0373 151.946 20.0042 151.877 20.0181 151.81L20.4446 149.79L18.6343 148.359C18.5733 148.311 18.5508 148.24 18.5769 148.175C18.6029 148.109 18.6727 148.062 18.7579 148.052L21.261 147.757L22.3803 145.92C22.4569 145.796 22.704 145.796 22.7807 145.92L23.8999 147.757L26.403 148.052C26.4883 148.062 26.5579 148.109 26.5841 148.175C26.6102 148.24 26.5876 148.312 26.5267 148.359L24.7164 149.79L25.1428 151.81C25.1567 151.877 25.1236 151.946 25.054 151.986C25.0157 152.009 24.9704 152.02 24.9234 152.02ZM22.5804 150.662C22.6153 150.662 22.6518 150.669 22.6849 150.682L24.6275 151.51L24.2567 149.757C24.2445 149.699 24.2671 149.639 24.3211 149.598L25.8929 148.357L23.7206 148.101C23.6475 148.092 23.5848 148.055 23.5517 148.002L22.5804 146.407L21.6091 148.002C21.576 148.055 21.5134 148.092 21.4403 148.101L19.268 148.357L20.8398 149.598C20.8937 149.639 20.9164 149.699 20.9043 149.757L20.5335 151.51L22.4761 150.682C22.5091 150.669 22.5455 150.662 22.5804 150.662Z" fill="#E0B894"/>
<path d="M120.074 135.849C120.074 135.849 111.141 109.98 117.394 93.1566C120.89 83.7493 143.833 77.7031 143.833 77.7031C143.833 77.7031 185.454 95.411 184.128 104.041C182.802 112.671 158.591 142.41 158.591 142.41L120.074 135.849Z" fill="#FF946E"/>
<path d="M143.232 124.994C143.206 124.985 143.179 124.973 143.152 124.959C142.869 124.818 142.782 124.514 142.96 124.284C155.62 107.818 138.565 97.0414 137.832 96.5909C137.566 96.4264 137.514 96.1196 137.716 95.9021C137.919 95.6872 138.308 95.6445 138.564 95.8077C138.752 95.924 157.241 107.567 143.987 124.804C143.826 125.012 143.503 125.089 143.232 124.994Z" fill="#382621"/>
<path d="M173.379 144.325L173.534 129.581L116.251 129.187L116.096 143.931L173.379 144.325Z" fill="white"/>
<path d="M112.978 134.36L112.131 217.187L176.106 217.639L176.954 134.812L112.978 134.36Z" fill="#FCC068"/>
<path d="M145.26 94.8109C142.995 95.3931 140.439 95.1943 138.271 94.0872C134.369 92.0945 133.198 87.9137 135.657 84.7511C143.318 74.9054 143.77 69.8773 142.94 68.5949C142.631 68.1195 140.776 67.1797 135.959 67.0172C131.349 66.863 127.765 63.7106 127.957 59.9739C128.146 56.2377 132.035 53.3397 136.652 53.4921C149.641 53.9274 155.286 58.5212 157.736 62.3001C162.367 69.4451 159.771 79.1499 149.797 91.9699C148.702 93.3752 147.073 94.3447 145.26 94.8109Z" fill="#FF946E"/>
<path d="M154.161 106.209C153.353 106.171 152.538 106.021 151.749 105.752C148.051 104.486 146.321 101.031 147.884 98.0336C154.809 84.7645 166.182 61.4746 167.218 55.4627C167.773 52.2396 171.469 49.9952 175.424 50.4438C179.401 50.8934 182.175 53.8694 181.62 57.0905C179.98 66.6036 163.187 98.9624 161.278 102.621C160.047 104.978 157.145 106.349 154.161 106.209Z" fill="#FF946E"/>
<path d="M166.911 106.07C165.876 106.021 164.837 105.792 163.865 105.364C160.337 103.81 159.03 100.235 160.946 97.3769C161.108 97.1388 176.977 73.4298 180.785 63.9301C182.028 60.8352 186.131 59.1534 189.946 60.1465C193.766 61.1514 195.857 64.4736 194.617 67.5667C190.396 78.0955 174.402 101.987 173.725 103C172.335 105.07 169.635 106.197 166.911 106.07Z" fill="#FF946E"/>
<path d="M174.421 111.336C173.032 111.271 171.649 110.883 170.457 110.15C167.257 108.185 166.63 104.49 169.055 101.9C169.227 101.716 186.307 83.452 191.749 76.1987C193.835 73.4237 198.31 72.5352 201.738 74.2245C205.171 75.914 206.261 79.5369 204.175 82.3157C198.348 90.0827 181.363 108.245 180.642 109.014C179.12 110.64 176.76 111.446 174.421 111.336Z" fill="#FF946E"/>
<path d="M180.319 100.823C180.262 100.811 180.207 100.792 180.153 100.767C179.906 100.645 155.433 88.587 146.103 84.9241C145.803 84.8052 145.677 84.5123 145.823 84.2673C145.969 84.0245 146.32 83.9246 146.633 84.0402C156.014 87.7233 180.537 99.8055 180.782 99.9271C181.068 100.069 181.159 100.37 180.986 100.602C180.844 100.79 180.571 100.875 180.319 100.823Z" fill="#382621"/>
<path d="M173.725 97.5589C173.634 97.5561 173.541 97.5317 173.46 97.4862C173.242 97.3567 173.193 97.1127 173.35 96.9366L186.246 82.4854C186.402 82.3062 186.704 82.2696 186.925 82.3962C187.142 82.5257 187.191 82.7696 187.035 82.9458L174.138 97.3969C174.038 97.5073 173.88 97.5638 173.725 97.5589Z" fill="#382621"/>
<path d="M163.009 91.6706C162.929 91.6681 162.854 91.6505 162.78 91.6174C162.55 91.5059 162.475 91.2673 162.609 91.0782L173.278 76.3826C173.412 76.1934 173.707 76.1351 173.944 76.2438C174.174 76.3553 174.249 76.5939 174.115 76.7831L163.446 91.4787C163.353 91.6077 163.183 91.676 163.009 91.6706Z" fill="#382621"/>
<path d="M152.129 86.9249C152.057 86.9227 151.989 86.9082 151.922 86.8786C151.685 86.7791 151.594 86.5431 151.72 86.3506L158.276 76.2672C158.403 76.0747 158.694 76.0041 158.928 76.1034C159.166 76.2029 159.257 76.4389 159.13 76.6314L152.574 86.7148C152.484 86.8532 152.31 86.9306 152.129 86.9249Z" fill="#382621"/>
<path d="M125.439 104.011C123.044 104.012 120.672 103.147 119.087 101.497C110.589 92.6459 111.444 71.2755 118.417 64.0134C121.144 61.1734 126.196 60.6639 129.7 62.8707C133.197 65.0747 133.833 69.1536 131.128 71.9914C128.487 75.1388 127.912 89.4709 131.781 93.5002C134.507 96.3395 133.875 100.431 130.37 102.639C128.902 103.564 127.165 104.011 125.439 104.011Z" fill="#FF946E"/>
<path d="M115.831 218.449H18.905C18.4112 218.449 18.0117 218.126 18.0117 217.726C18.0117 217.326 18.4112 217.002 18.905 217.002H115.831C116.324 217.002 116.724 217.326 116.724 217.726C116.724 218.126 116.324 218.449 115.831 218.449Z" fill="#B0A2FF"/>
<path d="M281.095 218.449H158.263C157.769 218.449 157.37 218.126 157.37 217.726C157.37 217.326 157.769 217.002 158.263 217.002H281.095C281.589 217.002 281.988 217.326 281.988 217.726C281.988 218.126 281.589 218.449 281.095 218.449Z" fill="#B0A2FF"/>
<path d="M146.873 218.449H120.074C119.58 218.449 119.18 218.126 119.18 217.726C119.18 217.326 119.58 217.002 120.074 217.002H146.873C147.367 217.002 147.767 217.326 147.767 217.726C147.767 218.126 147.367 218.449 146.873 218.449Z" fill="#B0A2FF"/>
<path d="M105.706 161.176L99.8995 152.854L54.7866 172.392L60.1466 180.351L105.706 161.176Z" fill="white"/>
</svg>
