<svg width="300" height="255" viewBox="0 0 300 255" fill="none" xmlns="http://www.w3.org/2000/svg">
<path fill-rule="evenodd" clip-rule="evenodd" d="M32.8485 221.5H229.031C243.336 205.841 267.727 202.601 274.15 178.706C281.087 152.897 259.296 130.639 255.962 117.046C252.645 103.547 246.172 72.0672 227.554 56.3316C203.357 35.888 179.742 50.7208 154.221 44.0891C128.699 37.4573 105.911 25.3498 78.6426 41.6254C54.2686 56.1713 57.5854 96.3244 51.3316 108.795C45.0777 121.265 14.1123 131.71 9.45354 153.555C4.37281 177.373 20.9907 187.38 27.3543 202.888C29.9706 209.266 31.3969 215.484 32.8485 221.5Z" fill="black" fill-opacity="0.25"/>
<path d="M237.413 211.201L251.232 162.095C251.232 162.095 265.313 129.278 275.946 110.412C286.579 91.5463 291.403 83.6312 291.552 79.7596C291.701 75.8879 279.922 72.6119 271.111 87.6059C262.3 102.6 256.457 108.511 256.457 108.511C256.457 108.511 215.907 95.8189 209.685 94.3527C203.464 92.8751 196.967 102.485 203.395 110.172C203.395 110.172 196.509 110.71 194.355 115.601C192.201 120.492 195.752 124.994 195.752 124.994C195.752 124.994 189.542 125.2 187.4 131.763C185.257 138.327 190.642 140.641 190.642 140.641C190.642 140.641 186.449 141.5 184.799 146.551C183.149 151.603 184.845 154.948 190.413 158.441C195.982 161.935 197.826 163.103 197.826 163.103L177.5 218.463C177.5 218.463 191.799 222.575 210.43 220.285C229.061 217.994 237.413 211.224 237.413 211.224V211.201Z" fill="#FFCCD3"/>
<path d="M242.18 193.217L236.268 216.424C236.268 216.424 202.57 225.519 184.536 215.726L242.169 193.217H242.18Z" fill="#FFCCD3"/>
<path d="M197.826 163.092C197.826 163.092 208.952 170.079 215.151 168.189C221.349 166.311 216.938 157.605 216.938 157.605C216.938 157.605 225.348 159.232 228.843 155.349C232.349 151.466 226.093 144.959 226.093 144.959C226.093 144.959 234.171 147.594 237.837 143.207C241.504 138.82 238.112 132.13 233.896 129.633C233.896 129.633 242.306 131.26 245.296 127.216C248.298 123.173 246.912 117.136 241.183 114.146C235.454 111.157 214.578 101.546 214.578 101.546" fill="#FFCCD3"/>
<path d="M197.826 163.092C197.826 163.092 208.952 170.079 215.151 168.189C221.349 166.311 216.938 157.605 216.938 157.605C216.938 157.605 225.348 159.232 228.843 155.349C232.349 151.466 226.093 144.959 226.093 144.959C226.093 144.959 234.171 147.594 237.837 143.207C241.504 138.82 238.112 132.13 233.896 129.633C233.896 129.633 242.306 131.26 245.296 127.216C248.298 123.173 246.912 117.136 241.183 114.146C235.454 111.157 214.578 101.546 214.578 101.546" stroke="#24272B" stroke-width="0.5" stroke-linecap="round" stroke-linejoin="round"/>
<path d="M203.395 110.172C203.395 110.172 210.693 123.723 233.907 129.633L203.395 110.172Z" fill="#FFCCD3"/>
<path d="M203.395 110.172C203.395 110.172 210.693 123.723 233.907 129.633" stroke="#24272B" stroke-width="0.5" stroke-linecap="round" stroke-linejoin="round"/>
<path d="M195.752 124.994C195.752 124.994 206.087 139.541 226.104 144.96L195.752 124.994Z" fill="#FFCCD3"/>
<path d="M195.752 124.994C195.752 124.994 206.087 139.541 226.104 144.96" stroke="#24272B" stroke-width="0.5" stroke-linecap="round" stroke-linejoin="round"/>
<path d="M190.642 140.641C190.642 140.641 202.306 152.829 216.938 157.605L190.642 140.641Z" fill="#FFCCD3"/>
<path d="M190.642 140.641C190.642 140.641 202.306 152.829 216.938 157.605" stroke="#24272B" stroke-width="0.5" stroke-linecap="round" stroke-linejoin="round"/>
<path d="M122.556 74.8813C122.565 74.2623 123.004 73.7329 123.606 73.5894L130.516 71.9027L128.676 64.3756L121.766 66.0622C121.165 66.2058 120.536 65.9456 120.24 65.3983C119.424 63.8911 118.409 62.5274 117.243 61.3162C116.812 60.8677 116.749 60.1858 117.072 59.6565L120.77 53.5827L114.147 49.5545L110.449 55.6283C110.126 56.1576 109.489 56.4178 108.897 56.2383C107.29 55.7628 105.612 55.4937 103.889 55.4578C103.27 55.4488 102.741 55.0092 102.597 54.4081L100.91 47.5L93.3805 49.3392L95.0676 56.2473C95.2112 56.8484 94.9509 57.4764 94.4035 57.7725C92.8959 58.5889 91.5318 59.6027 90.3203 60.769C89.8715 61.1996 89.1895 61.2624 88.66 60.9394L82.5845 57.2431L78.5551 63.8642L84.6306 67.5605C85.1601 67.8835 85.4204 68.5204 85.2409 69.1126C84.7652 70.7185 84.496 72.3962 84.4601 74.1187C84.4511 74.7377 84.0114 75.2671 83.4101 75.4106L76.5 77.0973L78.3397 84.6244L85.2498 82.9378C85.8511 82.7942 86.4793 83.0544 86.7754 83.6017C87.5921 85.1089 88.6062 86.4726 89.7728 87.6838C90.2036 88.1323 90.2664 88.8142 89.9433 89.3435L86.246 95.4173L92.8689 99.4455L96.5663 93.3717C96.8894 92.8424 97.5265 92.5822 98.1188 92.7617C99.7252 93.2372 101.403 93.5063 103.126 93.5422C103.746 93.5512 104.275 93.9908 104.419 94.5919L106.106 101.5L113.635 99.6608L111.948 92.7527C111.804 92.1516 112.065 91.5236 112.612 91.2275C114.12 90.4111 115.484 89.3973 116.695 88.231C117.144 87.8004 117.826 87.7376 118.356 88.0606L124.431 91.7569L128.461 85.1358L122.385 81.4395C121.856 81.1165 121.595 80.4796 121.775 79.8874C122.25 78.2815 122.52 76.5949 122.556 74.8813ZM105.307 81.8522C101.242 82.8481 97.1496 80.354 96.1625 76.2988C95.1663 72.2347 97.6612 68.1436 101.717 67.1568C105.783 66.1699 109.875 68.655 110.862 72.7102C111.858 76.7743 109.364 80.8653 105.307 81.8522Z" fill="white"/>
<path d="M103.548 88.5811C111.325 88.5811 117.629 82.2788 117.629 74.5046C117.629 66.7304 111.325 60.4282 103.548 60.4282C95.7718 60.4282 89.4678 66.7304 89.4678 74.5046C89.4678 82.2788 95.7718 88.5811 103.548 88.5811Z" fill="white" stroke="#24272B" stroke-width="0.24" stroke-linecap="round" stroke-linejoin="round"/>
<path d="M168.703 213.29L146.389 107.706H15.5386L39.6003 221.5H118.807H170.442H242.028V213.29H168.703Z" fill="#565F9F"/>
<path d="M163.403 221.5H32.5533L8.5 107.706H139.341L163.403 221.5Z" fill="#C5DCFA"/>
<path d="M81.2977 175.754C85.9149 174.812 88.6381 169.055 87.3802 162.896C86.1223 156.737 81.3596 152.508 76.7424 153.451C72.1253 154.393 69.4021 160.15 70.66 166.309C71.9179 172.468 76.6805 176.697 81.2977 175.754Z" fill="#3B3A42"/>
<path d="M192.5 53.5C196.918 53.5 200.5 49.9183 200.5 45.5C200.5 41.0817 196.918 37.5 192.5 37.5C188.082 37.5 184.5 41.0817 184.5 45.5C184.5 49.9183 188.082 53.5 192.5 53.5Z" fill="white"/>
<g clip-path="url(#clip0_553_3892)">
<path d="M253.163 60.1302C248.628 58.5734 242.773 56.3058 240.742 54.2581C238.712 52.2105 236.427 46.3723 234.87 41.837C234.261 40.0602 231.739 40.0602 231.13 41.837C229.573 46.3723 227.306 52.2274 225.258 54.2581C223.211 56.2888 217.372 58.5734 212.837 60.1302C211.06 60.7394 211.06 63.2609 212.837 63.8701C217.372 65.427 223.227 67.6946 225.258 69.7422C227.289 71.7898 229.573 77.6281 231.13 82.1633C231.739 83.9402 234.261 83.9402 234.87 82.1633C236.427 77.6281 238.695 71.7729 240.742 69.7422C242.79 67.7115 248.628 65.427 253.163 63.8701C254.94 63.2609 254.94 60.7394 253.163 60.1302Z" fill="white"/>
</g>
<defs>
<clipPath id="clip0_553_3892">
<rect width="43" height="43" fill="white" transform="translate(211.5 40.5)"/>
</clipPath>
</defs>
</svg>
