<svg width="300" height="255" viewBox="0 0 300 255" fill="none" xmlns="http://www.w3.org/2000/svg">
<g clip-path="url(#clip0_553_2279)">
<g clip-path="url(#clip1_553_2279)">
<path opacity="0.39" d="M217.215 212.998C273.298 168.221 288.721 94.4998 251.664 48.3373C214.607 2.17486 139.103 1.05186 83.0196 45.829C26.9366 90.6062 11.5131 164.327 48.5701 210.49C85.6271 256.652 161.132 257.775 217.215 212.998Z" fill="black" fill-opacity="0.7"/>
<mask id="mask0_553_2279" style="mask-type:luminance" maskUnits="userSpaceOnUse" x="29" y="15" width="242" height="232">
<path d="M216.328 213.707C271.921 169.321 287.21 96.2432 250.477 50.4838C213.743 4.72442 138.898 3.61123 83.3045 47.9974C27.7113 92.3836 12.4224 165.461 49.1559 211.22C85.8893 256.98 160.735 258.093 216.328 213.707Z" fill="white"/>
</mask>
<g mask="url(#mask0_553_2279)">
<mask id="mask1_553_2279" style="mask-type:luminance" maskUnits="userSpaceOnUse" x="49" y="4" width="270" height="259">
<path d="M223.7 4.02152L49.3154 115.5L144.115 262.991L318.499 151.513L223.7 4.02152Z" fill="white"/>
</mask>
<g mask="url(#mask1_553_2279)">
<path d="M223.42 119.586C224.061 120.582 224.949 122.074 225.977 123.837C230.473 131.597 237.568 144.698 237.568 144.698C236.466 160.967 229.709 171.158 224.674 176.589C221.529 179.983 219.055 181.521 219.055 181.521C219.055 181.521 215.138 178.696 211.796 176.753C208.232 174.687 201.076 172.597 200.291 172.371C200.246 172.359 200.226 172.351 200.226 172.351L202.371 167.464L223.42 119.586Z" fill="#FF946E"/>
<path d="M213.884 101.234C218.134 107.928 222.315 116.253 225.977 123.841C226.396 124.714 226.811 125.579 227.214 126.423C229.652 131.502 228.677 135.921 228.575 141.582C228.46 147.69 226.622 153.757 223.322 158.901C220.576 163.197 216.729 166.858 212.24 169.235C211.188 169.789 210.107 170.277 208.993 170.682C207.916 171.072 206.683 171.609 205.565 171.847C203.81 172.22 202.047 172.388 200.292 172.375C192.638 172.343 185.059 168.957 178.581 164.616C176.041 162.918 173.628 161.049 171.264 159.114C169.908 157.999 168.564 156.864 167.228 155.72C165.358 154.126 163.504 152.515 161.609 150.941C160.705 150.182 159.793 149.44 158.872 148.707C158.268 148.231 156.447 147.288 156.303 146.534C156.171 145.858 157.487 144.206 157.816 143.603C158.461 142.406 159.102 141.217 159.751 140.025C160.993 137.729 162.23 135.438 163.471 133.146C165.95 128.559 168.432 123.972 170.915 119.393C174.491 112.79 178.059 106.186 181.635 99.586C186.641 101.763 191.648 103.931 196.654 106.108C193.74 101.336 191.22 96.3313 189.12 91.1581C187.558 87.3049 185.478 83.2958 185.351 79.0614C185.309 77.8398 185.577 76.5773 186.325 75.6099C187.065 74.6507 187.919 74.2284 188.82 74.167C191.775 73.9661 195.236 77.7087 196.909 79.5451C198.257 81.0331 199.593 82.5621 200.9 84.1116C203.629 87.3376 206.264 90.6785 208.8 93.9947C210.592 96.3354 212.306 98.7457 213.88 101.234H213.884Z" fill="#FF946E"/>
<path opacity="0.19" d="M224.67 176.594C221.525 179.988 219.051 181.525 219.051 181.525C219.051 181.525 215.134 178.701 211.792 176.758C208.228 174.692 201.072 172.601 200.287 172.376C192.634 172.343 185.054 168.957 178.577 164.616C176.036 162.919 173.624 161.05 171.26 159.115C177.578 163.12 184.775 165.731 192.198 166.678C195.569 167.108 198.98 167.202 202.367 167.469C204.685 167.653 206.991 167.92 209.26 168.42C210.267 168.641 211.262 168.912 212.236 169.236C216.852 170.744 221.127 173.282 224.666 176.594H224.67Z" fill="#FF7777"/>
<path d="M186.378 95.7248C186.378 95.7248 186.37 95.9421 186.358 96.3438C186.358 96.393 186.358 96.4381 186.353 96.4873C186.353 96.5938 186.353 96.7127 186.345 96.8398C186.337 97.1636 186.325 97.5489 186.308 97.9958C186.189 101.902 185.938 110.465 185.774 120.619C185.609 130.707 187.488 137.901 190.994 150.633C192.334 155.507 193.921 161.189 195.713 168.162C202.207 193.347 195.972 243.287 191.985 249.17C191.158 250.395 188.935 251.428 185.844 252.248C174.092 255.355 149.821 255.232 142.459 249.789C133.166 242.914 136.298 207.588 139.085 184.185C140.618 171.314 145.053 161.369 149.792 152.347C153.672 144.956 157.754 138.184 160.606 130.929C165.288 119.037 167.129 104.796 167.762 98.1556C167.865 97.1103 167.935 96.2577 167.98 95.6264C167.993 95.483 168.001 95.3477 168.009 95.2288C168.021 95.0689 168.03 94.9337 168.038 94.823C168.038 94.782 168.038 94.7451 168.042 94.7123C168.058 94.5033 168.062 94.3926 168.062 94.3926L186.366 95.7166L186.378 95.7248Z" fill="#35B9AD"/>
<path d="M183.242 187.35C173.361 184.993 162.9 185.034 152.871 187.108C146.939 188.334 142.41 193.097 141.518 199.069C139.339 213.679 139.327 228.612 141.506 243.222C157.795 246.317 174.602 246.509 190.768 242.832C194.048 229.014 194.812 214.761 194.179 200.562C193.9 194.224 189.428 188.826 183.242 187.35Z" fill="#C9F0EC"/>
<path d="M167.766 98.1594C167.129 104.8 165.288 119.041 160.61 130.932C157.754 138.188 153.676 144.96 149.796 152.351C154.124 152.904 158.477 153.224 162.838 153.314C162.439 155.519 162.838 157.876 164.162 159.905C166.916 164.128 172.576 165.325 176.809 162.578C180.27 160.332 181.7 156.151 180.603 152.392C184.089 151.957 187.558 151.371 190.994 150.637C187.488 137.901 185.605 130.711 185.774 120.623C185.938 110.469 186.189 101.91 186.308 97.9995C180.208 99.3522 173.837 99.5162 167.771 98.1594H167.766Z" fill="#35B9AD"/>
<path opacity="0.23" d="M172.51 103.636C173.081 107.108 173.468 110.904 172.682 114.339C167.528 136.926 162.378 159.516 157.495 182.16C155.304 192.326 153.158 202.611 153.417 213.002C153.672 223.394 156.558 234.052 163.368 241.918C168.942 248.342 177.446 252.527 185.84 252.252C174.088 255.359 149.817 255.236 142.455 249.793C133.162 242.918 136.294 207.591 139.081 184.189C140.614 171.318 145.049 161.373 149.788 152.351C153.668 144.96 157.75 138.188 160.602 130.933C165.284 119.041 167.125 104.8 167.758 98.1596C167.861 97.1143 167.931 96.2616 167.976 95.6304C170.492 97.4545 171.988 100.537 172.502 103.636H172.51Z" fill="#6454D9"/>
<path d="M186.855 86.1287C186.9 87.0264 186.53 87.9364 185.881 88.5513C187.685 88.8915 189.033 90.6542 189.099 92.4906C189.153 94.0483 188.207 95.5691 186.83 96.2824C186.674 96.3643 186.522 96.4258 186.358 96.4832C186.259 96.5201 186.16 96.5529 186.057 96.5775C185.597 96.7005 185.12 96.8152 184.644 96.9136C179.978 97.9179 174.614 97.9753 170.327 96.0815C170.319 96.0815 170.315 96.0815 170.311 96.0733C169.518 95.7249 168.765 95.3067 168.058 94.8189C168.046 94.8107 168.026 94.7984 168.013 94.7902C167.906 94.7165 167.799 94.6345 167.713 94.5443C167.713 94.5443 167.701 94.5443 167.705 94.5402C166.735 93.6835 166.254 92.302 166.505 91.0313C166.76 89.8015 167.688 88.748 168.856 88.3012C169.02 88.2356 169.189 88.1865 169.361 88.1496C169.291 88.0594 169.23 87.9651 169.172 87.8667C168.334 86.4894 168.597 84.4111 169.826 83.3535C171.174 82.1852 173.155 82.2385 174.935 82.3615C177.323 82.5173 179.707 82.673 182.099 82.8329C183.349 82.9149 184.676 83.0297 185.667 83.7962C186.378 84.3537 186.826 85.2227 186.867 86.1205L186.855 86.1287Z" fill="#35B9AD"/>
<path d="M179.279 96.639C179.288 96.7333 179.247 96.8194 179.164 96.8727C179.136 96.8932 179.099 96.9096 179.062 96.9096C176.147 97.2457 173.135 96.9547 170.315 96.0897C170.307 96.0897 170.303 96.0897 170.298 96.0815C169.522 95.8438 168.753 95.5609 168.017 95.2371C168.03 95.0772 168.038 94.942 168.046 94.8313C168.034 94.8231 168.013 94.8108 168.001 94.8026C167.894 94.7288 167.787 94.6468 167.701 94.5566C167.816 94.6181 167.935 94.6714 168.05 94.7247C171.453 96.2414 175.305 96.844 179.008 96.4259C179.14 96.4095 179.263 96.5079 179.279 96.6431V96.639Z" fill="#282448"/>
<path d="M186.822 96.2866C186.666 96.3645 186.514 96.426 186.349 96.4875C186.349 96.5941 186.349 96.7129 186.341 96.84C185.774 96.8974 185.206 96.9261 184.635 96.9179C184.191 96.9179 183.751 96.8933 183.312 96.8523C183.18 96.84 183.077 96.7211 183.09 96.5859C183.102 96.4547 183.225 96.3522 183.357 96.3645C184.36 96.4588 185.367 96.4547 186.361 96.344C186.518 96.3317 186.67 96.3112 186.826 96.2907L186.822 96.2866Z" fill="#282448"/>
<path d="M178.141 88.7729C178.145 88.8631 178.1 88.9451 178.03 88.9902C177.993 89.0148 177.952 89.0312 177.907 89.0271C174.865 89.1705 171.823 88.9369 168.843 88.3056C169.008 88.24 169.176 88.1908 169.349 88.1539C169.279 88.0638 169.217 87.9695 169.16 87.8711C172.029 88.4573 174.959 88.6786 177.882 88.5352C178.018 88.527 178.133 88.6335 178.141 88.7688V88.7729Z" fill="#282448"/>
<path d="M184.569 88.9654C184.541 88.9859 184.504 88.9982 184.467 89.0023C183.456 89.1417 182.428 89.1786 181.409 89.1171C181.273 89.1089 181.17 88.99 181.178 88.8548C181.187 88.7195 181.306 88.617 181.442 88.6252C182.428 88.6867 183.423 88.6498 184.401 88.5145C184.537 88.494 184.66 88.5883 184.68 88.7236C184.697 88.822 184.648 88.9121 184.574 88.9654H184.569Z" fill="#282448"/>
<path d="M184.557 84.075C184.557 84.075 184.524 84.0955 184.504 84.0996C180.508 85.5016 176.016 85.2884 172.173 83.5217C172.049 83.4643 171.996 83.3167 172.053 83.1937C172.111 83.0707 172.259 83.0175 172.382 83.0748C176.11 84.7883 180.471 84.9933 184.343 83.6364C184.471 83.5913 184.615 83.6569 184.66 83.7881C184.697 83.8988 184.656 84.0177 184.561 84.075H184.557Z" fill="#282448"/>
<path d="M200.904 84.1077C200.707 84.8824 200.283 85.5875 199.63 86.0425C198.664 86.7189 197.348 86.7476 196.234 86.3622C195.121 85.9728 194.175 85.2268 193.312 84.4233C191.705 82.9271 190.283 81.1891 189.194 79.2829C188.33 77.7703 187.891 75.4871 188.824 74.163C191.779 73.9622 195.24 77.7047 196.913 79.5412C198.265 81.0292 199.597 82.5582 200.904 84.1077Z" fill="#FFDDDD"/>
<path d="M149.254 138.463C148.892 140.312 149.652 142.243 150.865 143.69C152.077 145.137 153.697 146.174 155.316 147.141C156.471 147.83 157.667 148.502 158.987 148.744C160.31 148.986 162.135 148.683 163.068 147.715C163.973 146.772 164.536 145.252 164.227 143.985C163.919 142.718 162.859 140.193 161.769 140.103C158.839 139.861 157.289 136.639 154.593 135.459C152.271 134.442 149.739 135.967 149.249 138.459L149.254 138.463Z" fill="#FF946E"/>
<path d="M151.892 123.944C150.548 125.35 149.471 127.162 149.467 129.215C149.467 131.269 150.466 133.233 151.88 134.725C153.294 136.217 155.098 137.287 156.94 138.201C160.816 140.119 164.745 141.292 169.028 141.915C170.894 142.185 173.484 141.103 174.746 139.705C176.234 138.057 175.769 135.68 174.606 133.819C173.447 131.958 172.177 130.74 170.253 130.228C172.765 130.752 175.021 131.449 177.528 130.904C180.036 130.359 181.733 128.264 181.984 125.719C182.144 124.067 181.257 122.083 180.348 120.689C179.489 119.373 178.285 119.07 176.891 119.25C178.523 119.168 180.208 118.537 181.035 117.016C181.861 115.491 181.663 114.229 180.891 112.675C180.118 111.121 179.321 109.527 178.05 108.342C174.943 105.444 171.199 102.771 167.717 100.332C167.766 99.0084 167.766 97.6024 167.919 96.2209C164.437 96.1963 161.523 98.0779 159.628 100.988C157.729 103.899 157.433 107.781 158.863 110.941C156.364 111.384 154.33 113.085 153.384 115.434C152.439 117.783 152.793 120.607 154.293 122.648C153.578 122.743 152.612 123.28 151.888 123.94L151.892 123.944Z" fill="#FF946E"/>
<path d="M158.087 110.425C161.959 113.265 165.892 116.065 170.446 117.705C172.14 118.316 173.895 118.988 175.675 119.271C178.716 119.754 181.647 118.143 181.528 114.938C181.45 112.843 180.18 110.933 178.905 109.355C178.429 108.76 177.418 107.777 176.92 107.346" stroke="#282448" stroke-width="0.95" stroke-linecap="round" stroke-linejoin="round"/>
<path d="M153.347 121.935C158.818 126.186 165.263 129.186 172.045 130.646C173.414 130.941 174.807 131.17 176.205 131.084C177.602 130.994 179.008 130.564 180.073 129.658C181.618 128.338 182.235 126.124 181.881 124.128C181.528 122.132 180.303 120.357 178.741 119.053" stroke="#282448" stroke-width="0.95" stroke-linecap="round" stroke-linejoin="round"/>
<path d="M151.695 134.97C156.015 138.246 161.42 140.39 166.751 141.41C168.317 141.71 169.941 141.902 171.499 141.566C173.056 141.23 174.557 140.291 175.214 138.844C175.864 137.418 175.609 135.717 174.902 134.319C174.195 132.921 173.085 131.777 171.975 130.67" stroke="#282448" stroke-width="0.95" stroke-linecap="round" stroke-linejoin="round"/>
<path d="M174.368 118.201C173.073 117.787 171.852 116.905 171.375 115.635C170.685 113.798 171.844 111.589 173.648 110.806C175.453 110.023 177.644 110.515 179.189 111.728C180.365 112.65 181.248 114.052 181.207 115.544C181.113 119.127 176.85 118.996 174.368 118.201Z" fill="#FFDDDD"/>
<path d="M173.644 129.871C172.193 129.408 170.829 128.42 170.294 126.998C169.521 124.94 170.82 122.468 172.839 121.591C174.857 120.714 177.454 121.239 179.185 122.599C180.5 123.632 181.815 125.223 181.425 126.94C180.537 130.851 176.427 130.761 173.64 129.871H173.644Z" fill="#FFDDDD"/>
<path d="M168.013 140.603C166.665 140.172 165.403 139.258 164.906 137.938C164.19 136.028 165.395 133.737 167.269 132.921C169.143 132.105 171.552 132.593 173.159 133.855C174.38 134.815 175.601 136.29 175.239 137.885C174.417 141.517 170.598 141.431 168.017 140.603H168.013Z" fill="#FFDDDD"/>
<path d="M158.366 147.735C157.351 147.412 156.397 146.719 156.019 145.723C155.477 144.284 156.389 142.55 157.803 141.935C159.217 141.32 161.034 141.689 162.246 142.64C163.167 143.366 164.088 144.477 163.816 145.682C163.196 148.42 160.314 148.354 158.366 147.731V147.735Z" fill="#FFDDDD"/>
<path d="M157.219 148.166C158.366 148.551 159.69 148.998 160.948 148.801C162.205 148.604 163.447 147.944 164.067 146.833C164.643 145.804 164.614 144.517 164.223 143.402C163.833 142.287 163.122 141.32 162.366 140.414" stroke="#282448" stroke-width="0.97" stroke-linecap="round" stroke-linejoin="round"/>
<path d="M201.434 118.053C199.005 111.003 196.378 105.313 192.761 98.7871C190.887 95.4011 188.922 90.8797 187.533 87.2684C186.144 83.657 184.487 79.6685 185.852 75.7988" stroke="#282448" stroke-width="0.95" stroke-linecap="round" stroke-linejoin="round"/>
<path d="M199.404 113.438C194.101 117.287 191.376 124.05 191.512 130.588C191.648 137.127 194.369 143.415 198.204 148.723" stroke="#282448" stroke-width="0.95" stroke-linecap="round" stroke-linejoin="round"/>
<path d="M212.816 177.647C212.816 177.647 227.555 167.03 235.18 140.053L257.824 148.879L308.463 167.087L241.802 209.698C241.802 209.698 214.189 179.159 212.816 177.647Z" fill="#F7F5FF"/>
<path d="M221.632 190.412C235.48 180.869 246.257 166.973 252.032 151.207" stroke="#282448" stroke-width="0.95" stroke-linecap="round" stroke-linejoin="round"/>
<path d="M244.905 150.215C245.846 151.678 245.419 153.621 243.951 154.556C242.484 155.495 240.536 155.068 239.599 153.605C238.657 152.142 239.085 150.199 240.552 149.264C242.02 148.325 243.968 148.752 244.905 150.215Z" fill="#282448"/>
<path d="M226.047 187.284C232.989 195.638 240.577 203.05 249.003 209.912" stroke="#282448" stroke-width="0.95" stroke-linecap="round" stroke-linejoin="round"/>
<path d="M192.289 58.6231C191.759 60.2997 190.468 60.9104 189.449 61.1236C188.672 61.2876 188.051 61.2179 188.051 61.2179L188.043 61.5212L187.837 68.7235C187.825 69.1498 187.471 69.4859 187.044 69.4777L185.585 69.449L185.194 69.4408L183.271 69.3999L182.88 69.3917L180.903 69.3507H180.517L177.973 69.2892L177.582 69.281L176.645 69.2605L175.379 69.2359L174.988 69.2277H174.664C174.232 69.2154 173.891 68.8629 173.899 68.4324L174.035 62.0705L174.043 61.6811C174.043 61.6811 174.043 61.6811 174.035 61.6811C173.981 61.6811 173.669 61.6975 173.237 61.6565C171.967 61.5376 169.612 60.9432 169.481 58.1968C169.357 55.5897 170.216 51.3224 174.195 48.8014C175.975 47.6742 178.371 46.8912 181.585 46.7682C191.804 46.3624 193.218 55.6717 192.281 58.6272L192.289 58.6231Z" fill="#EA9E4B"/>
<path d="M174.043 61.6813C173.99 61.6813 173.677 61.6976 173.246 61.6567C173.283 61.6321 173.328 61.6239 173.369 61.628C173.595 61.6485 173.821 61.669 174.043 61.6813Z" fill="#282448"/>
<path d="M179.489 61.7879C179.497 61.8617 179.456 61.9314 179.399 61.9724C179.374 61.9887 179.345 61.997 179.312 62.0011C178.893 62.0379 178.47 62.0748 178.051 62.0953C177.919 62.0994 177.792 62.1076 177.66 62.1158C177.578 62.1199 177.5 62.124 177.413 62.124C176.739 62.1486 176.069 62.1527 175.391 62.1322C175.26 62.1322 175.128 62.1322 175.001 62.1199C174.68 62.1117 174.364 62.0953 174.043 62.0666L174.051 61.6772C175.136 61.7551 176.23 61.7756 177.323 61.7346C177.977 61.7141 178.626 61.6731 179.275 61.6075C179.386 61.5993 179.477 61.6772 179.489 61.7838V61.7879Z" fill="#282448"/>
<path d="M189.449 61.1196C188.672 61.2836 188.051 61.2139 188.051 61.2139L188.043 61.5173L185.552 61.5377C185.445 61.5377 185.355 61.4517 185.355 61.3451C185.355 61.2344 185.441 61.1483 185.548 61.1483L189.449 61.1196Z" fill="#282448"/>
<path d="M175.395 62.0293V62.1277C175.284 64.4806 175.28 66.8664 175.379 69.2316L174.988 69.2234C174.886 66.8541 174.89 64.4725 174.997 62.1154C175.001 62.0785 175.001 62.0416 175.005 62.0088C175.009 61.8982 175.099 61.8203 175.21 61.8244C175.317 61.8326 175.399 61.9187 175.395 62.0293Z" fill="#282448"/>
<path d="M177.931 67.3215C177.899 67.342 177.862 67.3543 177.825 67.3502C177.718 67.3502 177.631 67.26 177.631 67.1534C177.644 66.2475 177.644 65.4276 177.644 64.6037C177.644 63.788 177.644 62.9681 177.656 62.0745C177.656 61.9679 177.746 61.8818 177.853 61.8818C177.96 61.8818 178.046 61.972 178.046 62.0786C178.034 62.9763 178.034 63.7921 178.034 64.6037C178.034 65.4276 178.034 66.2516 178.022 67.1575C178.022 67.2272 177.985 67.2846 177.931 67.3215Z" fill="#282448"/>
<path d="M177.964 68.4368L177.977 69.2935L177.586 69.2853L177.574 68.445C177.574 68.3425 177.656 68.2482 177.763 68.2482C177.87 68.2441 177.96 68.3302 177.964 68.4368Z" fill="#282448"/>
<path d="M181.088 62.0869L180.907 69.3507H180.521L180.702 62.0787C180.71 61.9721 180.796 61.8901 180.903 61.8901C181.014 61.8901 181.096 61.9844 181.092 62.0869H181.088Z" fill="#282448"/>
<path d="M183.217 66.428C183.184 66.4485 183.147 66.4608 183.106 66.4567C182.999 66.4567 182.913 66.3624 182.917 66.2558L183.073 62.2263C183.077 62.1197 183.168 62.0336 183.275 62.0377C183.382 62.0377 183.468 62.132 183.464 62.2386L183.308 66.2681C183.308 66.3337 183.271 66.3911 183.217 66.4239V66.428Z" fill="#282448"/>
<path d="M183.382 67.6946L183.275 69.3998L182.884 69.3916L182.995 67.67C183.003 67.5634 183.094 67.4814 183.201 67.4855C183.308 67.4937 183.39 67.5839 183.382 67.6946Z" fill="#282448"/>
<path d="M185.93 62.0252L185.589 69.4489L185.198 69.4407L185.54 62.0088C185.548 61.9023 185.638 61.8203 185.745 61.8244C185.852 61.8285 185.934 61.9227 185.93 62.0293V62.0252Z" fill="#282448"/>
<path d="M187.669 51.728C187.882 51.8674 188.113 51.9904 188.367 52.0273C188.622 52.0641 188.898 51.9986 189.07 51.81C189.35 51.5026 189.255 51.0107 189.05 50.6458C188.713 50.0514 187.751 49.1455 186.999 49.6087C186.074 50.1744 187.101 51.3591 187.673 51.728H187.669Z" fill="#FFDDDD"/>
<path d="M188.635 53.5439C188.635 53.8514 188.733 54.1506 188.828 54.4416C189.054 55.118 189.28 55.7944 189.506 56.4666C189.621 56.8069 189.781 57.1963 190.131 57.2906C190.381 57.3603 190.661 57.2373 190.834 57.0446C191.006 56.8479 191.092 56.5937 191.15 56.3355C191.376 55.3066 191.15 54.1875 190.542 53.3226C190.377 53.0889 190.18 52.8676 189.925 52.7364C189.268 52.4002 188.639 52.8307 188.639 53.5439H188.635Z" fill="#FFDDDD"/>
<path opacity="0.23" d="M174.203 48.7974C173.612 49.5229 173.098 50.31 172.732 51.179C171.799 53.3844 171.963 56.1923 173.673 57.873C174.586 58.7707 175.848 59.2913 176.633 60.2997C176.966 60.7342 177.192 61.2179 177.327 61.7344C177.368 61.8615 177.397 61.9926 177.418 62.1197C177.627 63.1814 177.545 64.3456 177.442 65.4401C177.319 66.7108 177.138 68.0881 176.653 69.2564L175.387 69.2318L174.997 69.2236H174.672C174.24 69.2113 173.899 68.8588 173.907 68.4284L174.043 62.0664L174.051 61.677C174.051 61.677 174.051 61.677 174.043 61.677C173.99 61.677 173.677 61.6934 173.246 61.6524C171.976 61.5335 169.62 60.9392 169.489 58.1927C169.366 55.5856 170.229 51.3184 174.203 48.7974Z" fill="#6454D9"/>
</g>
<path d="M101.381 89.9365C103.489 82.8736 105.421 75.7328 107.809 68.7519C107.891 68.5141 108.639 66.0054 109.215 64.4354C109.256 64.3166 109.318 64.1977 109.383 64.0952L143.162 75.7779C143.154 75.8148 143.146 75.8517 143.133 75.8845C141.193 82.107 139.085 88.2886 136.877 94.421C134.103 102.123 131.546 109.969 127.613 117.184C124.851 122.259 121.373 127.448 116.531 130.764C113.654 132.736 110.144 133.515 106.856 132.933C105.754 132.74 104.677 132.388 103.658 131.871C102.741 131.412 101.878 130.83 101.081 130.109C96.1029 125.612 96.0536 117.684 96.8263 111.543C97.7553 104.23 99.2761 96.9953 101.381 89.9324V89.9365Z" fill="#E0F1FF"/>
<path d="M103.522 130.26C103.522 130.26 91.0636 170.092 88.507 172.207C86.2545 174.068 71.2971 170.416 70.6805 172.773C70.1667 174.736 74.125 177.655 86.5628 182.357C99.3788 187.198 108.212 188.727 108.779 187.534C109.827 185.316 95.326 176.667 94.4752 174.261C93.6202 171.855 106.761 131.211 106.761 131.211L103.522 130.26Z" fill="#FFDDDD"/>
<path d="M101.45 96.0195C101.463 95.9498 101.483 95.8842 101.5 95.8145C102.05 93.5927 102.626 91.371 103.189 89.2845C103.205 89.2066 103.23 89.1328 103.251 89.0549C104.303 85.1525 105.281 81.7256 105.894 79.6145C105.947 79.43 106.029 79.2579 106.14 79.1062C106.629 78.393 107.599 78.1142 108.409 78.5528C112.371 80.6557 117.176 81.2706 121.665 81.3526C124.587 81.4018 127.53 80.9672 130.403 81.4796C133.256 81.9838 136.7 84.2958 137.432 87.0914C137.44 87.116 137.448 87.1365 137.453 87.1611C137.453 87.1611 137.148 88.1367 136.598 89.7723C136.573 89.8379 136.552 89.9117 136.524 89.9814C136.203 90.9365 135.808 92.1006 135.344 93.4124C135.323 93.478 135.299 93.5518 135.27 93.6214C133.096 99.7866 129.548 109.133 125.808 116.048C125.759 116.13 125.714 116.22 125.668 116.302C124.719 118.032 123.761 119.61 122.812 120.926C122.331 121.594 121.85 122.23 121.369 122.828C120.189 124.292 119.005 125.554 117.822 126.612C117.768 126.665 117.711 126.714 117.649 126.763C113.115 130.752 108.561 131.801 104.237 129.92C101.257 128.616 99.5678 126.112 98.7786 122.685C98.3264 120.738 98.1579 118.495 98.2031 116.003C98.2031 115.925 98.2031 115.843 98.2031 115.765C98.2442 113.912 98.4004 111.928 98.6512 109.83C98.7539 108.965 98.8937 108.014 99.0663 106.985C99.091 106.85 99.1156 106.714 99.1403 106.575C99.6911 103.455 100.534 99.7374 101.454 96.0154L101.45 96.0195Z" fill="#EA9E4B"/>
<path d="M110.39 65.7388C127.23 78.7209 141.345 76.4622 141.345 76.4622" stroke="#FFF5EC" stroke-width="1.07" stroke-linecap="round" stroke-linejoin="round"/>
<path opacity="0.59" d="M112.766 126.083C115.298 125.759 117.756 124.923 119.98 123.677C120.452 123.41 120.917 123.127 121.369 122.824C115.631 129.953 109.745 132.314 104.237 129.916C101.257 128.612 99.5677 126.108 98.7786 122.681C102.823 125.444 107.903 126.71 112.77 126.079L112.766 126.083Z" fill="#EA9E4B"/>
<path opacity="0.34" d="M108.409 78.5489C112.371 80.6518 117.176 81.2667 121.665 81.3487C124.587 81.3979 127.53 80.9633 130.403 81.4757C133.256 81.9799 136.7 84.2919 137.432 87.0875C136.043 88.4526 134.045 89.3134 132.039 89.4978C128.907 89.7848 125.783 88.7231 122.939 87.3663C120.095 86.0053 117.402 84.337 114.435 83.2548C112.347 82.4964 110.123 82.0291 108.22 80.9019C107.439 80.4345 106.707 79.8197 106.14 79.1023C106.629 78.3891 107.599 78.1103 108.409 78.5489Z" fill="#EA9E4B"/>
<path d="M106.457 98.8891L106.543 98.9506C109.194 100.902 112.055 102.636 115.043 102.144C117.39 101.75 119.244 100.053 120.596 98.6185C120.946 98.2455 121.291 97.8643 121.636 97.4789C122.796 96.1959 123.992 94.8637 125.467 93.9086C127.806 92.4041 130.802 91.9532 133.486 92.6829C134.128 92.8592 134.752 93.101 135.34 93.4085C135.32 93.474 135.295 93.5478 135.266 93.6175C134.683 93.3142 134.066 93.0682 133.429 92.8961C130.815 92.1828 127.872 92.6255 125.582 94.0971C124.131 95.0317 122.943 96.3517 121.797 97.6265C121.447 98.0077 121.106 98.3931 120.757 98.7661C119.483 100.115 117.514 101.955 115.076 102.357C112.006 102.861 109.096 101.103 106.408 99.1227L106.317 99.0612C104.751 97.9135 103.152 96.7329 101.442 96.0155C101.455 95.9458 101.475 95.8803 101.492 95.8106C103.271 96.5484 104.924 97.7659 106.453 98.8891H106.457Z" fill="#FFDDDD"/>
<path d="M104.065 103.234C106.362 102.919 108.874 104.337 110.789 107.034C111.336 107.805 111.829 108.637 112.306 109.436C113.177 110.892 114.073 112.4 115.306 113.581C117.896 116.061 121.949 116.999 125.808 116.044C125.759 116.126 125.714 116.216 125.669 116.298C121.805 117.196 117.756 116.233 115.154 113.741C113.897 112.54 112.992 111.019 112.121 109.551C111.644 108.756 111.151 107.928 110.608 107.165C108.742 104.534 106.309 103.148 104.098 103.46C102.01 103.751 100.575 105.321 99.0625 106.993C99.0872 106.858 99.1118 106.723 99.1365 106.583C100.538 105.038 102.018 103.525 104.065 103.238V103.234Z" fill="#FFDDDD"/>
<path d="M106.346 114.474C109.026 115.282 110.855 117.725 111.998 119.496C112.298 119.959 112.589 120.438 112.877 120.906C113.913 122.582 114.978 124.316 116.465 125.62C116.889 125.989 117.341 126.321 117.818 126.608C117.764 126.661 117.707 126.71 117.645 126.759C117.177 126.472 116.737 126.149 116.322 125.788C114.809 124.456 113.732 122.709 112.692 121.016C112.404 120.553 112.113 120.074 111.813 119.61C110.686 117.876 108.894 115.47 106.28 114.683C103.596 113.872 100.768 114.896 98.1992 115.999C98.1992 115.921 98.1992 115.839 98.1992 115.761C100.785 114.663 103.613 113.654 106.342 114.474H106.346Z" fill="#FFDDDD"/>
<path d="M102.795 90.4488C105.865 92.9616 109.971 94.1791 113.913 93.7241C116.227 93.4576 118.459 92.6419 120.621 91.8507C122.471 91.1703 124.39 90.4775 126.359 90.1168C129.614 89.5224 133.051 89.9282 136.142 91.1621C136.117 91.2277 136.096 91.3014 136.068 91.3711C133.014 90.1455 129.619 89.7479 126.4 90.334C124.448 90.6866 122.541 91.3834 120.695 92.0557C118.521 92.8509 116.276 93.6708 113.942 93.9413C112.191 94.1422 110.407 94.0233 108.697 93.6093C106.523 93.0846 104.472 92.0844 102.733 90.6784C102.749 90.6005 102.774 90.5267 102.795 90.4488Z" fill="#FFDDDD"/>
<path d="M113.958 85.858C115.569 86.2474 116.568 87.8379 116.186 89.4038C115.804 90.9696 114.188 91.9248 112.577 91.5353C110.966 91.1459 109.967 89.5554 110.349 87.9895C110.732 86.4236 112.347 85.4685 113.958 85.858Z" stroke="#FFDDDD" stroke-width="0.27" stroke-miterlimit="10"/>
<path d="M123.671 103.534C124.501 103.734 125.011 104.571 124.81 105.399C124.608 106.227 123.77 106.739 122.939 106.534C122.109 106.329 121.599 105.497 121.801 104.669C122.002 103.841 122.841 103.333 123.671 103.534Z" stroke="#FFDDDD" stroke-width="0.27" stroke-miterlimit="10"/>
<path d="M118.726 107.022C119.244 107.149 119.565 107.67 119.437 108.186C119.31 108.703 118.788 109.022 118.27 108.895C117.752 108.768 117.432 108.248 117.559 107.731C117.686 107.215 118.208 106.895 118.726 107.022Z" stroke="#FFDDDD" stroke-width="0.27" stroke-miterlimit="10"/>
<path d="M106.74 109.264C106.847 110.056 106.288 110.785 105.491 110.892C104.693 110.998 103.966 110.437 103.859 109.646C103.752 108.85 104.311 108.125 105.109 108.018C105.906 107.912 106.634 108.473 106.74 109.264Z" stroke="#FFDDDD" stroke-width="0.27" stroke-miterlimit="10"/>
<path d="M107.25 78.0325C106.699 77.8481 106.399 77.2537 106.584 76.7044L109.354 68.4035C109.539 67.8542 110.135 67.5591 110.686 67.7395C111.237 67.9239 111.537 68.5183 111.352 69.0676L108.582 77.3725C108.409 77.8931 107.87 78.1842 107.344 78.0653C107.311 78.0571 107.283 78.0489 107.25 78.0366V78.0325Z" fill="#FFF5EC"/>
<path d="M106.74 79.4592C107.353 79.6026 107.735 80.2134 107.595 80.8283C107.455 81.4432 106.839 81.8203 106.222 81.6768C105.606 81.5333 105.228 80.9226 105.367 80.3077C105.511 79.6928 106.128 79.3157 106.74 79.4592Z" fill="#FFF5EC"/>
<path d="M118.693 126.157C118.459 125.915 118.467 125.53 118.71 125.296C120.584 123.501 122.22 121.471 123.576 119.266C123.753 118.979 124.131 118.889 124.415 119.065C124.702 119.242 124.793 119.615 124.616 119.901C123.206 122.197 121.501 124.308 119.552 126.177C119.396 126.329 119.182 126.378 118.985 126.329C118.874 126.304 118.771 126.247 118.689 126.157H118.693Z" fill="#FFF5EC"/>
<path d="M115.113 128.899C114.953 128.604 115.064 128.235 115.36 128.075C115.972 127.743 116.264 127.497 116.794 127.042L117.074 126.805C117.333 126.587 117.715 126.616 117.933 126.874C118.151 127.128 118.118 127.514 117.863 127.731L117.587 127.965C117.033 128.44 116.667 128.752 115.939 129.145C115.799 129.219 115.647 129.235 115.508 129.203C115.343 129.162 115.199 129.059 115.113 128.899Z" fill="#FFF5EC"/>
<path d="M28.8909 124.091C30.0705 122.902 36.495 122.14 42.5577 122.804C42.5618 122.804 42.57 122.804 42.5741 122.804C43.536 122.911 44.4608 123.042 45.3856 123.226H45.3897C45.3897 123.226 45.3979 123.226 45.402 123.234C45.4062 123.234 45.4103 123.234 45.4144 123.238C49.6398 124.075 53.1952 125.751 53.894 128.662C53.9967 129.084 54.0543 129.662 54.0748 130.379C54.0872 130.683 54.0913 131.011 54.0872 131.359C53.9967 141.197 49.015 168.465 49.015 168.465C49.015 168.465 48.6492 170.039 47.9915 171.966C47.7942 172.556 47.5641 173.179 47.3175 173.802C46.4132 176.036 45.2047 178.245 43.7744 178.84C43.0139 179.155 41.2095 179.43 38.9036 179.639C38.3076 179.692 37.6746 179.738 37.017 179.783C29.8157 180.258 19.6303 180.09 18.6439 178.553C18.3232 178.045 18.5575 175.064 19.1494 170.732C19.17 170.592 19.1864 170.449 19.207 170.305C19.6098 167.403 20.1606 163.935 20.7977 160.221C20.8182 160.082 20.8429 159.947 20.8634 159.803C21.4348 156.512 22.0677 153.027 22.7295 149.588C22.7583 149.445 22.7829 149.301 22.8117 149.162C23.4529 145.825 24.1188 142.533 24.7641 139.479C24.797 139.336 24.8258 139.197 24.8545 139.057C25.5574 135.766 26.2356 132.769 26.8481 130.338C26.885 130.195 26.922 130.051 26.9549 129.916C27.777 126.682 28.4593 124.517 28.8868 124.087L28.8909 124.091Z" fill="#E9623D"/>
<path d="M49.4344 135.064C52.439 133.822 72.8879 121.935 81.277 121.336C89.6744 120.734 130.868 119.041 131.953 125.362C133.088 131.978 115.853 131.998 115.853 131.998C118.993 139.537 110.863 142.902 110.863 142.902C114.25 149.457 105.401 152.675 105.401 152.675C109.174 159.873 98.3595 165.05 81.7826 168.329C79.5384 168.772 77.1873 169.182 74.754 169.555C57.6961 172.183 45.3076 167.784 41.6946 166.272C41.0082 165.985 40.515 165.366 40.4122 164.628C40.33 164.058 40.2766 163.472 40.2396 162.869C39.6025 151.982 46.1543 136.425 49.4344 135.064Z" fill="#FFCCD3"/>
<path d="M87.8618 132.088C95.3426 132.363 116.651 132.314 116.651 132.314" stroke="#282448" stroke-width="1.03" stroke-linecap="round" stroke-linejoin="round"/>
<path d="M90.6321 144.152C97.6361 144.841 104.747 144.435 111.623 142.943" stroke="#282448" stroke-width="1.03" stroke-linecap="round" stroke-linejoin="round"/>
<path d="M88.7988 155.474C94.6807 155.696 100.608 154.737 106.116 152.667" stroke="#282448" stroke-width="1.03" stroke-linecap="round" stroke-linejoin="round"/>
<path d="M131.892 126.714C133.166 123.058 125.027 121.775 122.845 122.816C121.686 123.369 121.505 125.362 121.723 126.616C121.94 127.87 122.491 129.485 123.733 129.932C125.327 130.51 127.822 129.85 129.454 129.1C130.49 128.625 131.509 127.821 131.896 126.714H131.892Z" fill="#FFDDDD"/>
<path opacity="0.27" d="M43.4414 163.156C50.8112 164.984 58.1482 167.05 65.6701 168.104C68.8597 168.547 72.0822 168.805 75.3005 168.78C77.4667 168.764 79.6328 168.624 81.7825 168.329C79.5383 168.772 77.1872 169.182 74.7539 169.555C57.696 172.183 45.3075 167.784 41.6946 166.272C41.0081 165.985 40.5149 165.366 40.4121 164.628C40.3299 164.058 40.2765 163.472 40.2395 162.869C41.2506 162.705 42.4262 162.902 43.4414 163.156Z" fill="#FF8585"/>
<path d="M107.805 122.865C107.998 124.857 108.191 126.85 108.384 128.842" stroke="#282448" stroke-width="1.03" stroke-linecap="round" stroke-linejoin="round"/>
<path d="M24.2503 171.842C23.3337 157.2 25.6273 142.791 30.7652 129.043C37.9665 127.932 45.287 128.211 52.5006 129.264C44.5101 142.632 41.674 158.983 44.7033 174.249C37.835 174.433 30.6172 174.429 24.2545 171.842H24.2503Z" fill="#E9623D"/>
<path d="M44.391 170.682C42.6606 164.353 42.6688 157.831 44.4239 149.543C45.9776 142.201 47.5971 137.926 50.6469 131.125C50.6921 131.019 50.8155 130.974 50.9223 131.015C50.9223 131.015 50.9223 131.015 50.9264 131.015C51.0333 131.064 51.0826 131.187 51.0333 131.293C47.9382 138.2 46.3928 142.275 44.8391 149.629C43.1004 157.852 43.0881 164.308 44.8021 170.572C44.8349 170.686 44.7651 170.801 44.6541 170.834C44.6089 170.846 44.5596 170.842 44.5184 170.826C44.4609 170.801 44.4116 170.752 44.3951 170.686L44.391 170.682Z" fill="#FFDDDD"/>
</g>
<path d="M62.3379 110.936C67.8802 110.936 72.3732 106.445 72.3732 100.904C72.3732 95.3635 67.8802 90.8721 62.3379 90.8721C56.7957 90.8721 52.3027 95.3635 52.3027 100.904C52.3027 106.445 56.7957 110.936 62.3379 110.936Z" fill="white"/>
</g>
<g clip-path="url(#clip2_553_2279)" filter="url(#filter0_d_553_2279)">
<path d="M161.648 35.9082L127.312 58.7541" stroke="white" stroke-linecap="round" stroke-linejoin="round"/>
<path d="M167.86 52.3587L119.14 42.8623" stroke="white" stroke-linecap="round" stroke-linejoin="round"/>
<path d="M155.155 64.8646L132.191 28.5654" stroke="white" stroke-linecap="round" stroke-linejoin="round"/>
<path d="M138.21 71.3511L150.211 23.6484" stroke="white" stroke-linecap="round" stroke-linejoin="round"/>
</g>
<g clip-path="url(#clip3_553_2279)">
<path d="M259.567 50.6954C256.403 49.6092 252.318 48.0271 250.901 46.5986C249.485 45.17 247.891 41.0968 246.805 37.9327C246.38 36.693 244.62 36.693 244.195 37.9327C243.109 41.0968 241.527 45.1818 240.099 46.5986C238.67 48.0153 234.597 49.6092 231.433 50.6954C230.193 51.1204 230.193 52.8796 231.433 53.3046C234.597 54.3908 238.682 55.9728 240.099 57.4014C241.515 58.83 243.109 62.9032 244.195 66.0673C244.62 67.3069 246.38 67.3069 246.805 66.0673C247.891 62.9032 249.473 58.8182 250.901 57.4014C252.33 55.9846 256.403 54.3908 259.567 53.3046C260.807 52.8796 260.807 51.1204 259.567 50.6954Z" fill="white"/>
</g>
</g>
<defs>
<filter id="filter0_d_553_2279" x="114.5" y="23" width="58" height="57" filterUnits="userSpaceOnUse" color-interpolation-filters="sRGB">
<feFlood flood-opacity="0" result="BackgroundImageFix"/>
<feColorMatrix in="SourceAlpha" type="matrix" values="0 0 0 0 0 0 0 0 0 0 0 0 0 0 0 0 0 0 127 0" result="hardAlpha"/>
<feOffset dy="4"/>
<feGaussianBlur stdDeviation="2"/>
<feComposite in2="hardAlpha" operator="out"/>
<feColorMatrix type="matrix" values="0 0 0 0 0 0 0 0 0 0 0 0 0 0 0 0 0 0 0.25 0"/>
<feBlend mode="normal" in2="BackgroundImageFix" result="effect1_dropShadow_553_2279"/>
<feBlend mode="normal" in="SourceGraphic" in2="effect1_dropShadow_553_2279" result="shape"/>
</filter>
<clipPath id="clip0_553_2279">
<rect width="300" height="255" fill="white"/>
</clipPath>
<clipPath id="clip1_553_2279">
<rect width="300" height="264" fill="white" transform="translate(18.5 -1)"/>
</clipPath>
<clipPath id="clip2_553_2279">
<rect width="50" height="49" fill="white" transform="translate(118.5 23)"/>
</clipPath>
<clipPath id="clip3_553_2279">
<rect width="30" height="30" fill="white" transform="translate(230.5 37)"/>
</clipPath>
</defs>
</svg>
