<svg width="300" height="255" viewBox="0 0 300 255" fill="none" xmlns="http://www.w3.org/2000/svg">
<g clip-path="url(#clip0_553_1930)">
<path opacity="0.34" d="M262.127 90.4565C261.892 100.245 260.486 109.75 258.035 118.822C244.271 169.904 197.601 207.5 142.145 207.5C109.14 207.5 79.2376 194.179 57.541 172.616C57.5355 172.616 57.5301 172.605 57.5301 172.605C54.1765 169.275 51.0145 165.742 48.0713 162.029C45.5548 157.485 44.127 152.262 44.127 146.701C44.127 133.997 51.5889 123.038 62.3716 117.963C64.1386 117.427 65.8673 116.793 67.5468 116.066C82.5802 109.564 93.7239 95.7665 96.4975 79.1366C103.046 39.6263 137.385 9.5 178.765 9.5C224.018 9.5 260.852 45.5268 262.127 90.4565Z" fill="black" fill-opacity="0.25"/>
</g>
<path d="M139.916 83.8067C135.308 80.7901 130.151 80.1193 124.963 79.6339C119.279 79.0992 113.06 80.5559 107.835 77.049C106.677 76.2713 105.587 75.2713 104.386 74.632C102.827 73.8014 101.403 74.0666 99.7529 74.6183C96.9913 75.5433 94.4833 75.2947 91.9917 73.6772C86.5447 70.1443 80.2508 71.6829 74.516 74.9141C71.6624 76.5221 68.96 78.5663 65.9672 79.2815C63.0843 79.9714 60.4233 78.666 57.7805 77.4436C49.4063 73.5641 28.7799 67.3459 28.78 91.1181C36.421 123.805 64.7234 131.935 94.7442 134.759C129.812 138.058 150.477 125.26 152.172 107.238C152.973 98.7215 148.267 90.458 139.916 83.8093L139.916 83.8067Z" fill="#76B9F4"/>
<path d="M111.627 81.5C104.732 98.1044 113.113 117.182 127.58 123.191C136.811 127.023 147.2 124.913 155.305 118.573C156.01 118.983 156.794 119.248 157.509 119.667C166.136 124.717 170.721 123.015 177.734 117.521C179.177 120.766 181.495 123.273 184.578 124.555C191.064 127.246 198.997 123.713 204.437 116.435C217.266 120.124 231.044 113.794 236.223 101.317C236.328 101.062 236.428 100.806 236.525 100.548C249.845 105.415 264.703 99.0902 270.127 86.0206C275.702 72.5924 269.204 57.1298 255.614 51.4858C242.021 45.8416 228.683 45.8445 223.105 59.2725C223.105 59.2725 222.017 59.4847 222.017 59.4875C221.838 59.9181 220.357 61.6773 219.974 61.4917C214.972 59.0698 210.863 55.7983 205.964 57.103C205.318 45.3281 198.892 44.2957 190.285 40.7221C177.53 35.4249 152.479 34.0674 142.643 51.6099C128.445 46.601 111.627 64.5 113.866 76.5L111.627 81.5Z" fill="#C5DCFA"/>
<g clip-path="url(#clip1_553_1930)">
<path fill-rule="evenodd" clip-rule="evenodd" d="M116.439 176.199C112.624 183.329 103.312 184.314 93.8815 188.709C85.0361 192.826 84.7983 200.269 84.7983 200.269C84.7983 200.269 96.9824 193.536 95.5097 194.365C89.5274 197.736 83.9933 202.959 81.9626 209.712C80.9473 213.083 80.9381 216.667 81.9535 220.038C82.2005 220.867 82.5389 221.669 82.8956 222.452C83.0786 222.848 83.1518 223.916 83.4902 223.631C84.0299 223.17 84.3226 221.199 84.5604 220.471C85.5758 217.385 86.7832 214.327 89.2621 212.134C89.7286 211.72 90.808 210.513 91.5032 210.513C92.0154 210.513 91.1282 211.471 90.9361 211.95C90.5244 212.973 90.1037 213.986 89.7103 215.018C88.5761 218.002 87.7071 221.19 87.6431 224.395C87.4693 233.073 93.0857 241.373 100.449 245.5C100.467 245.509 101.126 243.814 101.181 243.658C101.876 241.576 102.324 239.429 102.791 237.283C103.953 231.876 105.361 226.616 108.791 222.175C110.813 219.55 113.329 217.422 116.073 215.598C116.969 214.999 117.902 214.456 118.853 213.94C119.155 213.774 119.457 213.618 119.768 213.47C119.896 213.406 120.189 213.139 120.162 213.286C120.052 214.014 119.091 214.787 118.643 215.442C117.417 217.192 116.246 219.007 115.204 220.877C112.807 225.169 111.344 230.245 110.84 235.173C110.758 236.021 111.673 233.69 112.094 232.953C112.752 231.802 113.484 230.678 114.307 229.646C116.969 226.312 120.518 223.806 123.665 220.969C126.885 218.067 130.251 214.944 131.577 210.67C132.94 206.285 131.55 201.642 130.379 197.377C129.3 193.462 128.394 189.492 126.894 185.705L116.429 176.199H116.439Z" fill="#FFBC00"/>
<path fill-rule="evenodd" clip-rule="evenodd" d="M113.932 182.159C110.191 185.65 105.178 187.234 101.016 190.118C99.6076 191.094 98.455 192.264 97.522 193.71C97.1836 194.236 96.8725 194.77 96.5707 195.313C96.4335 195.562 95.9304 196.198 96.1865 196.078C97.8879 195.258 99.1868 193.701 101.016 192.937C101.638 192.679 102.269 192.476 102.919 192.292C103.157 192.227 103.395 192.172 103.632 192.117C103.742 192.089 104.026 191.951 103.971 192.052C102.919 193.839 100.769 195.221 99.4978 196.916C96.0127 201.541 93.6802 206.966 93.543 212.844C93.4698 215.948 93.982 218.942 95.2535 221.788C95.6468 222.663 96.0584 223.529 96.5067 224.377C96.6256 224.607 96.7536 224.838 96.8817 225.059C96.9732 225.215 97.0829 225.676 97.1561 225.519C98.6928 222.138 98.9032 218.675 101.199 215.561C104.803 210.651 111.023 209.177 115.954 206.018C117.5 205.023 119.091 203.936 120.418 202.646C120.857 202.222 121.277 201.762 121.643 201.273C121.799 201.071 121.909 200.472 122.082 200.656C122.201 200.785 121.863 201.992 121.835 202.121C121.579 203.484 121.232 204.931 120.665 206.202C120.482 206.626 120.262 207.04 120.024 207.436C119.878 207.676 119.311 208.201 119.576 208.136C122.146 207.51 124.525 204.479 125.586 202.204C128.202 196.585 128.165 190.136 124.525 185.033L113.95 182.168L113.932 182.159Z" fill="#CE4141"/>
<path d="M142.645 183.025L112.021 165.614L109.24 168.424L141.612 186.82L142.655 183.016L142.645 183.025Z" fill="#760001"/>
<path d="M109.24 168.424L101.895 175.839L138.868 196.852L141.612 186.82L109.24 168.424Z" fill="#A3462F"/>
<path d="M139.554 200.896L98.0985 177.332C97.3392 176.899 97.074 175.931 97.5039 175.167C97.9338 174.402 98.8943 174.135 99.6535 174.568L141.109 198.132C141.868 198.565 142.133 199.532 141.703 200.297C141.273 201.062 140.313 201.329 139.554 200.896Z" fill="#760001"/>
<path d="M127.132 174.301L104.785 161.598C101.236 159.58 99.9919 155.057 101.995 151.492L127.168 105.387C133.901 93.3742 153.778 67.5071 166.035 61.3628L184.54 71.8828L203.045 82.4028C204.152 96.147 193.65 124.151 186.918 136.164L159.513 184.195C157.51 187.769 153.018 189.022 149.478 187.013L127.132 174.31V174.301Z" fill="#FCFBFF"/>
<mask id="mask0_553_1930" style="mask-type:luminance" maskUnits="userSpaceOnUse" x="101" y="61" width="103" height="127">
<path d="M127.132 174.301L104.785 161.598C101.236 159.58 99.9919 155.057 101.995 151.492L127.168 105.387C133.901 93.3742 153.778 67.5071 166.035 61.3628L184.54 71.8828L203.045 82.4028C204.152 96.147 193.65 124.151 186.918 136.164L159.513 184.195C157.51 187.769 153.018 189.022 149.478 187.013L127.132 174.31V174.301Z" fill="white"/>
</mask>
<g mask="url(#mask0_553_1930)">
<path fill-rule="evenodd" clip-rule="evenodd" d="M197.291 75.7243C197.785 76.0467 197.565 77.1521 197.565 78.0733C197.52 86.7233 196.76 95.4654 194.172 103.756C189.196 119.693 180.021 134.073 171.77 148.379C164.242 161.395 157.18 174.513 148.701 187.585C148.701 187.585 148.527 188.027 148.189 188.073C147.85 188.119 147.503 187.861 147.74 187.354C158.964 170.137 168.532 152.192 179.207 133.492C186.927 119.923 194.382 105.681 196.047 90.012C196.541 85.406 196.651 80.7816 196.632 76.1388C196.632 76.1388 196.733 75.5585 197.282 75.7151L197.291 75.7243ZM153.759 181.348C154.153 181.348 154.454 181.79 154.244 182.122C153.878 182.675 152.534 181.339 153.759 181.348ZM157.848 174.854C158.342 174.854 158.415 175.913 157.711 175.904C157.171 175.904 157.199 174.854 157.848 174.854ZM162.678 166.121C163.272 166.121 163.309 167.107 162.696 167.143C162.175 167.18 162.074 166.121 162.678 166.121ZM174.505 61.105C175.63 61.6393 173.902 62.3946 172.731 63.1408C166.666 67.0282 160.958 71.4868 156.183 76.8481C147.338 86.7694 140.917 98.5422 134.413 110.048C124.058 128.37 114.435 147.08 104.986 165.826C104.986 165.826 104.94 166.093 104.556 166.084C104.264 166.075 104.007 165.881 104.163 165.412C115.551 142.796 127.232 120.163 140.029 98.3488C147.246 86.0416 155.598 73.9464 167.142 65.7662C169.419 64.1541 171.77 62.6434 174.139 61.1603C174.139 61.1603 174.341 61.0866 174.524 61.1142L174.505 61.105ZM105.142 157.572C105.645 157.572 105.572 159.111 104.822 158.438C104.483 158.143 105.096 157.572 105.142 157.572ZM167.864 157.425C168.349 157.425 168.569 158.447 167.91 158.466C167.416 158.475 167.178 157.425 167.864 157.425ZM108.727 150.562C109.349 150.571 109.057 152.294 108.38 151.391C108.169 151.105 108.27 150.562 108.727 150.562ZM172.447 149.972C172.923 149.972 173.142 150.93 172.475 150.93C171.999 150.93 171.789 149.972 172.447 149.972ZM176.234 143.312C176.774 143.312 176.682 144.777 175.859 144.187C175.521 143.939 175.694 143.312 176.234 143.312ZM114.472 141.12C114.536 141.12 114.6 141.129 114.655 141.157C114.71 141.184 114.755 141.212 114.801 141.258C115.158 141.617 114.463 142.501 114.069 141.847C113.896 141.553 114.124 141.12 114.472 141.12ZM180.341 134.524C180.799 134.524 181.055 135.445 180.396 135.482C179.92 135.51 179.628 134.524 180.341 134.524ZM120.161 130.406C120.674 130.406 120.729 131.613 120.033 131.41C119.603 131.281 119.585 130.406 120.161 130.406ZM184.988 127.514C185.336 127.514 185.601 127.928 185.491 128.278C185.336 128.748 184.348 128.555 184.531 127.864C184.586 127.661 184.768 127.532 184.97 127.523H184.988V127.514ZM188.473 121.222C189.004 121.222 188.967 122.687 188.19 122.069C187.888 121.83 188.016 121.222 188.473 121.222ZM125.961 119.564C126.473 119.564 126.455 121.093 125.668 120.439C125.375 120.199 125.503 119.555 125.961 119.564ZM191.83 113.456C191.885 113.456 191.931 113.466 191.976 113.484C192.553 113.687 192.434 115.041 191.693 114.378C191.483 114.184 191.117 113.456 191.83 113.456ZM131.211 110.085C131.568 110.085 131.669 110.73 131.669 110.73C131.65 111.034 131.413 111.319 131.111 111.264C130.864 111.218 130.699 110.978 130.736 110.73C130.754 110.628 130.608 110.822 130.772 110.389C130.836 110.214 131.001 110.094 131.184 110.085H131.202H131.211ZM195.334 105.801C195.827 105.801 196.056 106.722 195.471 106.787C194.94 106.842 194.684 105.801 195.334 105.801ZM136.325 101.26C136.828 101.26 136.965 102.411 136.187 102.181C135.785 102.052 135.748 101.26 136.325 101.26ZM197.501 99.62C198.041 99.62 198.087 101.048 197.236 100.514C196.889 100.292 197.026 99.62 197.501 99.62ZM141.795 91.6333C142.325 91.6333 142.353 92.8677 141.63 92.6005C141.218 92.4439 141.292 91.6333 141.795 91.6333ZM199.175 91.4306C199.66 91.4306 199.788 92.3242 199.084 92.3979C198.572 92.4531 198.361 91.4214 199.175 91.4306ZM146.396 84.9454C146.954 84.9454 146.634 86.8062 145.993 85.664C145.838 85.3784 146.03 84.9454 146.396 84.9454ZM199.459 83.103C200.163 83.1215 200.017 84.2822 199.441 84.3282C198.828 84.3743 198.755 83.103 199.459 83.103ZM151.436 77.9628C151.921 77.9628 152.204 78.9208 151.555 78.9945C151.427 79.0037 151.308 78.9669 151.207 78.884C150.878 78.6076 150.924 77.9536 151.436 77.9628ZM156.75 72.5185C157.272 72.5185 157.391 73.4397 156.714 73.449C156.211 73.449 156.046 72.5185 156.75 72.5185ZM161.946 67.2217C162.486 67.2217 162.413 68.7048 161.663 68.1152C161.342 67.8665 161.48 67.2217 161.946 67.2217ZM167.343 63.7672C167.828 63.7672 167.928 64.9463 167.224 64.7529C166.794 64.6424 166.767 63.7672 167.343 63.7672Z" fill="#BBC9FF"/>
</g>
<path d="M184.54 71.8737L166.035 61.3537C166.035 61.3537 198.059 44.5696 200.785 45.5368C203.347 46.4488 203.045 82.3937 203.045 82.3937L184.54 71.8737Z" fill="#EB6923"/>
<path d="M177.661 125.736C172.127 135.602 159.705 139.084 149.908 133.52C140.112 127.956 136.654 115.437 142.179 105.571C147.713 95.7047 160.135 92.2226 169.932 97.7866C179.728 103.36 183.186 115.87 177.661 125.736Z" fill="#264AC9"/>
<path d="M174.825 124.124C170.179 132.415 159.742 135.335 151.518 130.655C143.286 125.975 140.386 115.465 145.024 107.183C149.671 98.8924 160.108 95.9722 168.34 100.643C176.573 105.322 179.472 115.833 174.825 124.124Z" fill="#7FDDE9"/>
<path d="M174.176 123.755C176.289 119.978 176.755 115.732 175.832 111.826C175.676 112.111 175.539 112.406 175.374 112.692C170.252 121.839 161.827 127.928 152.451 130.323C160.226 134.34 169.84 131.493 174.176 123.755Z" fill="#25C5D9"/>
<path d="M175.383 112.692C175.539 112.406 175.685 112.12 175.841 111.826C175.063 108.555 173.307 105.525 170.691 103.231C170.499 103.636 170.298 104.042 170.078 104.447C165.175 113.189 154.162 116.275 145.481 111.347C145.088 111.126 144.704 110.877 144.329 110.628C141.996 117.924 144.987 126.104 151.875 130.019C152.067 130.13 152.259 130.231 152.46 130.332C161.836 127.937 170.252 121.848 175.383 112.701" fill="#9FD9FE"/>
<path d="M170.078 104.438C170.298 104.041 170.499 103.636 170.691 103.222C169.868 102.503 168.962 101.849 167.974 101.287C160.098 96.8101 150.11 99.6105 145.664 107.542C145.106 108.537 144.658 109.569 144.329 110.61C144.704 110.858 145.079 111.098 145.481 111.328C154.162 116.266 165.175 113.18 170.078 104.428" fill="white"/>
<path d="M177.551 152.008L161.599 180.464L167.361 183.734L181.604 158.318L177.551 151.999V152.008Z" fill="#760001"/>
<path d="M193.577 186.737C195.37 183.541 195.251 179.607 193.275 176.521L181.604 158.328L167.361 183.743L183.771 193.075C186.388 194.567 189.708 193.637 191.19 190.993L193.577 186.737Z" fill="#EB6923"/>
<path d="M120.024 119.306L104.072 147.762L98.3088 144.491L112.551 119.076L120.015 119.306H120.024Z" fill="#760001"/>
<path d="M82.2187 123.433C84.0116 120.236 87.4144 118.302 91.055 118.412L112.551 119.075L98.3087 144.491L81.8986 135.159C79.2825 133.667 78.3586 130.323 79.8313 127.689L82.2187 123.433Z" fill="#EB6923"/>
<path d="M123.656 180.51C121.927 179.524 121.314 177.295 122.284 175.554L135.684 151.64C136.663 149.899 138.877 149.272 140.606 150.258C142.334 151.244 142.947 153.473 141.978 155.214L128.577 179.128C127.598 180.869 125.385 181.495 123.656 180.51Z" fill="#EB6923"/>
<path d="M124.625 178.575C123.802 178.105 123.51 177.046 123.976 176.217L130.8 164.039C131.266 163.21 132.318 162.915 133.142 163.385C133.965 163.855 134.258 164.914 133.791 165.743L126.967 177.921C126.501 178.75 125.449 179.045 124.625 178.575Z" fill="#FF816D"/>
</g>
<defs>
<clipPath id="clip0_553_1930">
<rect width="218" height="198" fill="white" transform="translate(44.127 9.5)"/>
</clipPath>
<clipPath id="clip1_553_1930">
<rect width="124" height="200" fill="white" transform="translate(79.127 45.5)"/>
</clipPath>
</defs>
</svg>
