<svg width="300" height="255" viewBox="0 0 300 255" fill="none" xmlns="http://www.w3.org/2000/svg">
<path d="M76.1853 203.853C76.1853 203.853 49.2193 137.84 58.8536 128.982C68.4879 120.124 74.5635 140.057 74.5635 140.057C74.5635 140.057 62.3675 107.121 76.186 103.037C90.0038 98.9524 92.0253 129.368 92.0253 129.368C92.0253 129.368 87.6767 83.1495 104.463 84.8665C127.393 87.2122 102.13 203.853 102.13 203.853H76.1853Z" fill="black" fill-opacity="0.25"/>
<path d="M127.028 203.853C127.028 203.853 108.094 115.087 116.324 110.713C124.554 106.339 131.5 125.727 131.5 125.727C131.5 125.727 116.71 91.6844 130.882 89.0344C145.054 86.3844 143.273 116.298 143.273 116.298C143.273 116.298 142.315 70.7779 159.102 75.3586C175.888 79.9399 157.093 203.853 157.093 203.853H127.028Z" fill="black" fill-opacity="0.25"/>
<path d="M194.423 203.799C194.423 203.799 163.857 102.976 176.445 99.7042C189.033 96.4327 189.033 111.138 189.033 111.138C189.033 111.138 173.876 65.2161 185.328 60.7527C196.78 56.2892 200.75 78.8257 200.75 78.8257C200.75 78.8257 198.859 51.9877 212.751 50.9562C219.662 50.4433 224.314 71.0405 224.314 90.6996C224.314 110.359 218.001 204.053 218.001 204.053L194.423 203.799Z" fill="black" fill-opacity="0.25"/>
<path d="M31.0567 203.853C31.0567 203.853 -4.98492 182.448 3.09918 168.697C11.1833 154.946 24.9935 171.849 24.9935 171.849C24.9935 171.849 3.50446 143.597 19.3018 136.067C35.0991 128.536 41.7108 161.285 41.7108 161.285V203.853H31.0567Z" fill="black" fill-opacity="0.25"/>
<path d="M268.943 204.053C268.943 204.053 304.985 182.648 296.901 168.897C288.817 155.146 275.006 172.049 275.006 172.049C275.006 172.049 296.495 143.797 280.698 136.267C264.901 128.735 258.289 161.485 258.289 161.485V204.053H268.943Z" fill="black" fill-opacity="0.25"/>
<path d="M74.1701 143.947H30.0664V203.623H74.1701V143.947Z" fill="#ACCAEF"/>
<path d="M133.021 108.568H88.9175V203.853H133.021V108.568Z" fill="#ACCAEF"/>
<path d="M191.871 86.9575H147.768V203.853H191.871V86.9575Z" fill="#ACCAEF"/>
<path d="M250.721 65.5469H206.618V204.053H250.721V65.5469Z" fill="#ACCAEF"/>
<path d="M83.05 144.177H38.9463V203.853H83.05V144.177Z" fill="#E0F1FF"/>
<path d="M141.901 108.568H97.7969V203.853H141.901V108.568Z" fill="#E0F1FF"/>
<path d="M200.751 86.9575H156.647V203.853H200.751V86.9575Z" fill="#E0F1FF"/>
<path d="M259.601 65.5469H215.498V204.053H259.601V65.5469Z" fill="#E0F1FF"/>
<path d="M23.6732 203.853H14.9375C15.1515 203.298 21.0207 188.547 35.2795 174.487C48.3156 161.633 71.7939 145.553 109.611 141.945C118.141 141.131 126.689 140.662 134.955 140.207C183.76 137.527 229.857 134.994 272 62.5195L278.783 66.8297C258.626 101.494 236.514 123.218 209.197 135.197C185.106 145.761 159.822 147.15 135.371 148.494C127.18 148.944 118.709 149.408 110.333 150.209C74.9893 153.58 53.139 168.391 41.0318 180.222C27.8959 193.059 23.7214 203.731 23.6732 203.853Z" fill="#F48067"/>
<path d="M280.981 70.9202L281.11 54.3735L267.337 62.5285L280.981 70.9202Z" fill="#F48067"/>
<path d="M9.15381 203.853H290.847" stroke="#5270B8" stroke-width="0.6006" stroke-miterlimit="10"/>
<path d="M55.3271 106.161C55.3271 106.161 56.1586 106.71 57.1979 106.161" stroke="#3B4F8C" stroke-width="0.3003" stroke-miterlimit="10"/>
<path d="M56.3721 103.589C56.3721 103.589 57.591 105.803 56.3721 105.803" stroke="#3B4F8C" stroke-width="0.3003" stroke-miterlimit="10"/>
<path d="M54.8612 103.851C54.9992 103.851 55.111 103.734 55.111 103.59C55.111 103.446 54.9992 103.329 54.8612 103.329C54.7232 103.329 54.6113 103.446 54.6113 103.59C54.6113 103.734 54.7232 103.851 54.8612 103.851Z" fill="#3B4F8C"/>
<path d="M57.3821 103.59C57.3821 103.734 57.4943 103.851 57.6319 103.851C57.7702 103.851 57.8818 103.734 57.8818 103.59C57.8818 103.445 57.7696 103.329 57.6319 103.329C57.4943 103.329 57.3821 103.445 57.3821 103.59Z" fill="#3B4F8C"/>
<path d="M137.485 148.705L138.445 146.659" stroke="#3B4F8C" stroke-width="0.3003" stroke-miterlimit="10"/>
<path d="M55.7535 110.873L55.6641 114.958" stroke="#3B4F8C" stroke-width="0.3003" stroke-miterlimit="10"/>
<path d="M56.1211 111.421C56.1211 111.52 56.1982 111.6 56.2932 111.6C56.3881 111.6 56.4652 111.52 56.4652 111.421C56.4652 111.321 56.3881 111.241 56.2932 111.241C56.1982 111.241 56.1211 111.321 56.1211 111.421Z" fill="#3B4F8C"/>
<path d="M56.1211 113.098C56.1211 113.198 56.1982 113.278 56.2932 113.278C56.3881 113.278 56.4652 113.198 56.4652 113.098C56.4652 112.999 56.3881 112.918 56.2932 112.918C56.1982 112.918 56.1211 112.999 56.1211 113.098Z" fill="#3B4F8C"/>
<path d="M56.1211 114.777C56.1211 114.876 56.1982 114.956 56.2932 114.956C56.3881 114.956 56.4652 114.876 56.4652 114.777C56.4652 114.677 56.3881 114.597 56.2932 114.597C56.1982 114.597 56.1211 114.677 56.1211 114.777Z" fill="#3B4F8C"/>
<path d="M54.0908 107.227C54.0908 107.227 55.5963 108.664 57.3819 107.556" stroke="#F59E5B" stroke-width="0.3003" stroke-miterlimit="10"/>
<path d="M56.2314 138.135L65.0126 144.336" stroke="#5270B8" stroke-width="0.3003" stroke-miterlimit="10"/>
<path d="M72.4795 150.606C72.4795 150.606 73.5742 152.457 73.0265 154.543" stroke="#5270B8" stroke-width="0.3003" stroke-miterlimit="10"/>
</svg>
