<svg width="300" height="255" viewBox="0 0 300 255" fill="none" xmlns="http://www.w3.org/2000/svg">
<g clip-path="url(#clip0_558_965)">
<path d="M42.77 123.29C42.77 63.4877 91.3993 15 151.377 15C211.354 15 259.983 63.4877 259.983 123.29C259.983 183.093 211.354 231.58 151.377 231.58C91.3826 231.58 42.77 183.093 42.77 123.29Z" fill="black" fill-opacity="0.25"/>
<path d="M239.473 240H215.509L212.489 168.367V168.317L212.455 167.751L212.405 166.47H235.518L239.473 240Z" fill="#004599"/>
<path d="M215.509 240H160.071L164.026 166.47H212.405L212.455 167.734L212.472 168.317V168.367L215.509 240Z" fill="#00142C"/>
<path d="M184.036 240L187.056 168.35V167.801L187.106 167.501L187.14 166.47L187.323 162.426H212.255L212.422 166.47L212.472 167.734L212.489 168.317V168.367L215.526 240H184.036Z" fill="#002654"/>
<path d="M207.332 119.363H191.929L199.622 98.4805L207.332 119.363Z" fill="#FAFAFA"/>
<path d="M197.686 117.166C194.048 121.576 194.349 115.037 193.03 115.752C191.579 116.534 164.026 166.37 164.026 166.37C164.026 166.37 164.744 172.243 174.123 172.243C183.501 172.243 186.906 168.25 186.906 168.25C186.906 168.25 200.407 113.855 197.686 117.15V117.166Z" fill="#0081B8"/>
<path d="M201.642 117.166C205.28 121.576 204.979 115.037 206.298 115.752C207.75 116.534 235.302 166.37 235.302 166.37C235.302 166.37 234.584 172.243 225.205 172.243C215.827 172.243 212.422 168.25 212.422 168.25C212.422 168.25 198.921 113.855 201.625 117.15L201.642 117.166Z" fill="#4BC6FA"/>
<path d="M202.843 119.047C202.609 118.099 201.425 115.736 199.756 115.736C198.087 115.736 196.902 118.099 196.685 119.047C195.951 122.059 186.973 168.25 186.973 168.25C186.973 168.25 190.377 174.124 199.756 174.124C209.135 174.124 212.539 168.25 212.539 168.25C212.539 168.25 203.561 122.076 202.843 119.047Z" fill="#0094D4"/>
<path d="M115.464 240L114.012 205.806V205.756L113.979 205.19L113.929 203.909H137.042L138.994 240H115.464Z" fill="#004599"/>
<path d="M115.464 240H63.6138L65.5496 203.909H113.929L113.979 205.173L113.995 205.756V205.806L115.447 240H115.464Z" fill="#00142C"/>
<path d="M87.144 240L88.5959 205.789V205.24L88.6293 204.94L88.6794 203.909L88.8462 199.849H113.778L113.945 203.909L113.995 205.173L114.012 205.756V205.806L115.464 240H87.144Z" fill="#002654"/>
<path d="M108.872 156.802H93.4688L101.162 135.919L108.872 156.802Z" fill="#FAFAFA"/>
<path d="M99.2264 154.605C95.5884 159.015 95.8888 152.476 94.5704 153.191C93.1186 153.973 65.5664 203.809 65.5664 203.809C65.5664 203.809 66.284 209.682 75.6627 209.682C85.0415 209.682 88.4459 205.689 88.4459 205.689C88.4459 205.689 101.947 151.294 99.2264 154.589V154.605Z" fill="#0081B8"/>
<path d="M103.181 154.605C106.819 159.015 106.519 152.476 107.837 153.191C109.306 153.973 136.841 203.809 136.841 203.809C136.841 203.809 136.124 209.682 126.745 209.682C117.366 209.682 113.962 205.689 113.962 205.689C113.962 205.689 100.461 151.294 103.181 154.589V154.605Z" fill="#4BC6FA"/>
<path d="M104.383 156.486C104.149 155.538 102.964 153.175 101.312 153.175C99.6602 153.175 98.4587 155.538 98.2417 156.486C97.5074 159.498 88.5459 205.689 88.5459 205.689C88.5459 205.689 91.9503 211.563 101.329 211.563C110.708 211.563 114.112 205.689 114.112 205.689C114.112 205.689 105.134 159.498 104.4 156.486H104.383Z" fill="#0094D4"/>
<path d="M151.693 35.1338H150.742V62.0067H151.693V35.1338Z" fill="#EBC823"/>
<path d="M129.148 46.1325H142.048V39.1938H129.148L132.202 42.5883L129.148 46.1325Z" fill="#EF6D03"/>
<path d="M152.044 35.1337C152.044 34.6845 151.677 34.3018 151.21 34.3018C150.743 34.3018 150.375 34.6678 150.375 35.1337C150.375 35.5996 150.743 35.9657 151.21 35.9657C151.677 35.9657 152.044 35.5996 152.044 35.1337Z" fill="#EBC823"/>
<path d="M139.044 43.7697L142.048 46.1326V39.1939L139.044 36.8311V43.7697Z" fill="#DC3B01"/>
<path d="M151.927 36.8311H139.044V43.7697H151.927V36.8311Z" fill="#FF7903"/>
<path d="M193.097 240H168.699L165.712 169.448L165.595 166.47L165.478 163.741L164.093 130.911V130.861L164.06 130.295L164.01 129.014H187.123L188.742 159.215L188.808 160.463L188.925 162.41L189.142 166.453L189.376 170.796L193.097 239.983V240Z" fill="#FF735C"/>
<path d="M168.699 240H109.656L111.342 208.535L111.592 203.909L111.809 199.849L111.943 197.469L112.076 195.256L113.812 162.842L115.631 129.031H164.01L164.06 130.295L164.093 130.878V130.911C164.093 130.911 164.093 130.911 164.093 130.928L165.478 163.758L165.595 166.486L165.712 169.465L168.699 240Z" fill="#C92E14"/>
<path d="M134.038 240L135.456 206.554L135.556 203.892L135.656 201.679L138.644 130.894V130.345L138.677 130.046L138.727 129.014L138.894 124.954H163.826L163.993 129.014L164.043 130.279L164.076 130.861V130.894C164.076 130.894 164.076 130.894 164.076 130.911L165.461 163.741L165.578 166.47L165.695 169.448L168.682 240H134.038Z" fill="#F0482B"/>
<path d="M169.45 240H168.415L165.228 168.916L165.127 166.47L165.027 164.556L163.559 131.643L163.525 130.944L164.093 130.911H164.109L164.543 130.895L164.56 131.327L165.979 162.826L166.145 166.47L166.312 169.997L169.45 240Z" fill="#FF9C78"/>
<path d="M139.244 130.944L139.211 131.66L136.04 202.361L135.957 203.909L135.873 206.039L134.338 240H133.303L134.772 207.253L134.922 203.909L135.072 200.631L138.193 131.127L138.21 130.895L138.426 130.911H138.643L139.244 130.944Z" fill="#FF5236"/>
<path d="M158.936 81.9241H143.533L151.226 61.0415L158.936 81.9241Z" fill="#F04F33"/>
<path d="M149.29 79.7275C145.652 84.137 145.953 77.5977 144.634 78.3132C143.183 79.0952 115.63 128.931 115.63 128.931C115.63 128.931 116.348 134.804 125.727 134.804C135.105 134.804 138.51 130.811 138.51 130.811C138.51 130.811 152.011 76.4162 149.29 79.7109V79.7275Z" fill="#E3B210"/>
<path d="M153.246 79.7275C156.884 84.137 156.583 77.5977 157.902 78.3132C159.37 79.0952 186.906 128.931 186.906 128.931C186.906 128.931 186.188 134.804 176.81 134.804C167.431 134.804 164.026 130.811 164.026 130.811C164.026 130.811 150.526 76.4162 153.246 79.7109V79.7275Z" fill="#FFE670"/>
<path d="M154.447 81.6081C154.214 80.6597 153.029 78.2969 151.377 78.2969C149.725 78.2969 148.523 80.6597 148.306 81.6081C147.572 84.6199 138.61 130.811 138.61 130.811C138.61 130.811 142.015 136.685 151.393 136.685C160.772 136.685 164.177 130.811 164.177 130.811C164.177 130.811 155.198 84.6199 154.464 81.6081H154.447Z" fill="#FFDB33"/>
<path d="M233.549 129.43H231.647C230.963 129.43 230.412 129.713 230.128 130.179L228.743 132.425C229.027 131.96 229.578 131.677 230.262 131.677H232.164C232.848 131.677 233.399 131.394 233.683 130.945L235.068 128.698C234.784 129.164 234.25 129.447 233.549 129.447V129.43Z" fill="#8DB5C7"/>
<path d="M228.459 134.023L209.335 133.923C208.133 133.923 206.932 133.024 206.665 131.926L206.448 131.044C206.331 130.578 206.398 130.162 206.615 129.83L205.23 132.076C205.029 132.409 204.946 132.841 205.063 133.307L205.28 134.189C205.547 135.271 206.765 136.169 207.95 136.186L227.074 136.286C227.759 136.286 228.309 135.986 228.593 135.537L229.978 133.291C229.694 133.74 229.144 134.039 228.459 134.039V134.023Z" fill="#8DB5C7"/>
<path d="M214.041 129.381C214.158 129.846 214.091 130.262 213.874 130.612L215.259 128.365C215.46 128.033 215.543 127.6 215.426 127.134L215.259 126.485C215.142 126.019 215.209 125.587 215.426 125.254L214.041 127.5C213.841 127.833 213.757 128.266 213.874 128.732L214.041 129.381Z" fill="#8DB5C7"/>
<path d="M232.348 124.588C233.549 124.588 234.751 125.487 235.018 126.585L235.235 127.467C235.502 128.565 234.751 129.447 233.566 129.447H231.664C230.462 129.447 229.711 130.329 229.995 131.41L230.162 132.059C230.429 133.141 229.678 134.039 228.493 134.039L209.368 133.94C208.167 133.94 206.965 133.041 206.698 131.943L206.481 131.061C206.214 129.979 206.965 129.081 208.167 129.081L213.791 129.114C214.975 129.114 215.743 128.232 215.459 127.134L215.292 126.485C215.009 125.387 215.776 124.505 216.961 124.505L232.348 124.571V124.588Z" fill="#DBF4FF"/>
<path d="M97.1234 209.316L57.3388 209.133C56.1373 209.133 54.9357 208.235 54.6687 207.137L54.385 205.988C54.118 204.89 52.8998 204.008 51.7149 203.992L44.4889 203.958C43.2874 203.958 42.0858 203.06 41.8188 201.962L41.4684 200.531C41.3516 200.065 41.4183 199.649 41.6353 199.299C41.4016 199.682 41.168 200.048 40.9344 200.431C40.7341 200.764 40.5172 201.096 40.3002 201.446C40.2835 201.479 40.2501 201.529 40.2335 201.562C40.0332 201.895 39.9498 202.328 40.0666 202.794L40.417 204.225C40.684 205.306 41.8856 206.205 43.0871 206.221L50.3131 206.255C51.5147 206.255 52.7162 207.153 52.9832 208.251L53.2669 209.4C53.5339 210.498 54.7355 211.38 55.937 211.396L95.7216 211.579C96.4225 211.579 96.9565 211.296 97.2402 210.831L98.6253 208.584C98.3416 209.033 97.7909 209.333 97.1067 209.333L97.1234 209.316Z" fill="#8DB5C7"/>
<path d="M66.4841 198.667C67.6856 198.667 68.8872 199.566 69.1542 200.664L69.4379 201.829C69.7049 202.91 70.9231 203.809 72.108 203.825L95.7718 203.942C96.9733 203.942 98.1749 204.84 98.4419 205.939L98.7923 207.37C99.0594 208.468 98.3084 209.35 97.1068 209.35L57.3223 209.167C56.1207 209.167 54.9192 208.268 54.6522 207.17L54.3685 206.022C54.1015 204.924 52.8832 204.042 51.6984 204.025L44.4724 203.992C43.2708 203.992 42.0693 203.093 41.8023 201.995L41.4518 200.564C41.1848 199.483 41.9358 198.584 43.1373 198.584L66.5008 198.7L66.4841 198.667Z" fill="#DBF4FF"/>
<path d="M131.335 112.841L116.332 112.774C115.648 112.774 115.097 113.057 114.813 113.523L113.428 115.769C113.712 115.303 114.263 115.02 114.947 115.02L129.95 115.087C130.634 115.087 131.184 114.787 131.468 114.338L132.853 112.092C132.57 112.558 132.019 112.841 131.335 112.841Z" fill="#8DB5C7"/>
<path d="M113.278 117.932L70.0055 117.732C68.804 117.732 67.6024 116.834 67.3354 115.736L66.9683 114.255C66.8515 113.789 66.9182 113.373 67.1352 113.023L65.7501 115.27C65.5498 115.603 65.4664 116.035 65.5832 116.501L65.9503 117.982C66.2173 119.064 67.4189 119.962 68.6204 119.979L111.893 120.178C112.577 120.178 113.128 119.879 113.411 119.43L114.797 117.183C114.513 117.649 113.979 117.932 113.278 117.932Z" fill="#8DB5C7"/>
<path d="M80.3854 107.699C80.6524 108.78 81.8539 109.679 83.0555 109.696H84.4406C85.6421 109.696 86.8437 110.594 87.1107 111.692L87.3443 112.624C87.4612 113.09 87.3944 113.506 87.1775 113.855L88.5626 111.609C88.7628 111.276 88.8463 110.844 88.7295 110.378L88.4958 109.446C88.2288 108.348 87.0273 107.466 85.8257 107.449H84.4406C83.2391 107.449 82.0375 106.534 81.7705 105.452L81.4034 103.972C81.2865 103.506 81.3533 103.09 81.5702 102.74L80.1851 104.987C79.9849 105.319 79.9014 105.752 80.0182 106.218L80.4021 107.699H80.3854Z" fill="#8DB5C7"/>
<path d="M99.7605 102.075C100.962 102.075 102.164 102.973 102.431 104.072L102.731 105.27C102.998 106.368 104.2 107.25 105.401 107.266L129.949 107.383C131.151 107.383 132.352 108.281 132.619 109.38L132.987 110.861C133.254 111.942 132.503 112.841 131.301 112.841L116.298 112.774C115.097 112.774 114.346 113.656 114.613 114.754L114.913 115.969C115.18 117.05 114.429 117.949 113.228 117.949L69.9554 117.749C68.7539 117.749 67.5523 116.851 67.2853 115.753L66.9182 114.272C66.6512 113.19 67.4021 112.292 68.587 112.292L87.0274 112.375C88.229 112.375 88.9799 111.493 88.7129 110.395L88.4793 109.463C88.2123 108.365 87.0107 107.483 85.8092 107.466H84.4241C83.2225 107.466 82.021 106.551 81.754 105.469L81.3868 103.988C81.1031 102.89 81.8708 102.008 83.0556 102.008L99.7271 102.091L99.7605 102.075Z" fill="#DBF4FF"/>
<path d="M243.813 188.583L229.761 188.517C229.077 188.517 228.526 188.8 228.243 189.265L226.857 191.512C227.141 191.063 227.675 190.763 228.376 190.763L242.427 190.83C243.112 190.83 243.662 190.547 243.946 190.081C244.413 189.332 244.881 188.583 245.331 187.834C245.048 188.284 244.513 188.583 243.813 188.583Z" fill="#8DB5C7"/>
<path d="M226.624 193.342L186.239 193.159C185.054 193.159 183.835 192.261 183.568 191.163L183.285 190.031C183.168 189.565 183.235 189.149 183.452 188.8L182.066 191.046C181.866 191.379 181.783 191.812 181.9 192.277L182.183 193.409C182.45 194.491 183.669 195.389 184.853 195.406L225.239 195.589C225.923 195.589 226.474 195.289 226.757 194.84L228.142 192.594C227.859 193.06 227.325 193.342 226.624 193.342Z" fill="#8DB5C7"/>
<path d="M195.867 183.808C196.134 184.889 197.336 185.788 198.537 185.805L207.232 185.855C208.434 185.855 209.635 186.753 209.902 187.851L210.052 188.467C210.169 188.933 210.102 189.349 209.885 189.698L211.271 187.452C211.471 187.119 211.554 186.687 211.437 186.221L211.287 185.605C211.02 184.523 209.819 183.625 208.617 183.608L199.923 183.558C198.721 183.558 197.519 182.66 197.252 181.562L196.969 180.43C196.852 179.964 196.919 179.548 197.136 179.199L195.751 181.445C195.55 181.778 195.467 182.21 195.584 182.676L195.867 183.808Z" fill="#8DB5C7"/>
<path d="M228.81 178.583C230.012 178.583 231.213 179.482 231.48 180.58L231.697 181.445C231.981 182.544 233.166 183.425 234.367 183.442L242.544 183.475C243.746 183.475 244.947 184.374 245.214 185.472L245.498 186.604C245.782 187.702 245.014 188.584 243.829 188.584L229.778 188.517C228.576 188.517 227.825 189.399 228.109 190.497L228.326 191.379C228.593 192.461 227.842 193.359 226.657 193.359L186.272 193.176C185.087 193.176 183.869 192.278 183.602 191.179L183.318 190.048C183.051 188.966 183.802 188.068 184.987 188.084L209.786 188.201C210.987 188.201 211.738 187.319 211.454 186.221L211.304 185.605C211.037 184.524 209.836 183.625 208.634 183.608L199.939 183.559C198.738 183.559 197.536 182.66 197.269 181.562L196.986 180.43C196.719 179.349 197.47 178.45 198.655 178.45L228.81 178.6V178.583Z" fill="#DBF4FF"/>
</g>
<defs>
<clipPath id="clip0_558_965">
<rect width="220" height="225" fill="white" transform="translate(40 15)"/>
</clipPath>
</defs>
</svg>
