<svg width="300" height="255" viewBox="0 0 300 255" fill="none" xmlns="http://www.w3.org/2000/svg">
<g clip-path="url(#clip0_553_1931)">
<path d="M259.283 67.023C262.873 58.5458 248.509 44.386 227.199 35.3962C205.889 26.4063 185.704 25.9908 182.114 34.468C178.524 42.9452 192.888 57.1051 214.198 66.0949C235.508 75.0847 255.693 75.5002 259.283 67.023Z" fill="black" fill-opacity="0.25"/>
<path d="M95.8466 113.919C120.105 106.653 107.967 93.3416 108.488 78.3923C109.009 63.443 116.914 31.8591 143.366 33.7529C169.812 35.6454 199.254 75.5646 223.302 77.7392C247.344 79.9123 271.887 75.663 276.604 95.2237C283.233 122.747 218.147 122.401 234.88 155.724C255.233 196.264 230.819 228.442 190.533 230.401C150.247 232.359 134.947 232.566 120.009 201.547C108.14 176.907 86.1226 194.29 67.2426 175.971C41.0572 150.565 68.3344 122.16 95.8597 113.921L95.8466 113.919Z" fill="black" fill-opacity="0.25"/>
<path d="M86.899 106.542C94.223 108.074 101.126 104.698 102.318 99.0011C103.509 93.3046 98.5374 87.4449 91.2133 85.9132C83.8892 84.3814 76.9861 87.7576 75.7947 93.4541C74.6033 99.1506 79.5749 105.01 86.899 106.542Z" fill="black" fill-opacity="0.25"/>
<path d="M252.293 156.729C259.103 158.154 265.597 154.658 266.796 148.922C267.996 143.186 263.448 137.381 256.638 135.957C249.827 134.533 243.334 138.028 242.134 143.764C240.935 149.5 245.483 155.305 252.293 156.729Z" fill="black" fill-opacity="0.25"/>
<path d="M91.9756 219.832C99.0608 221.314 106.001 216.792 107.478 209.733C108.954 202.673 104.407 195.749 97.3221 194.268C90.2369 192.786 83.2963 197.307 81.8199 204.367C80.3435 211.426 84.8904 218.35 91.9756 219.832Z" fill="black" fill-opacity="0.25"/>
<path d="M179.54 121.006C199.295 119.783 214.29 102.829 213.034 83.1388C211.777 63.4488 194.745 48.4786 174.99 49.7019C155.236 50.9253 140.24 67.8789 141.497 87.569C142.753 107.259 159.786 122.229 179.54 121.006Z" fill="#C9BFFF"/>
<path d="M150.374 108.924C158.795 118.447 172.048 123.199 185.328 120.169C204.618 115.767 216.647 96.6049 212.192 77.38C209.365 65.1572 200.559 55.857 189.564 51.8241C186.35 55.563 185.125 60.2355 189.547 65.6207C201.191 79.8023 157.537 82.9119 171.77 92.6736C179.334 97.8615 163.421 103.224 150.374 108.924Z" fill="#C9BFFF"/>
<path d="M140.578 85.5913C129.868 90.1691 123.496 94.7755 124.267 98.1074C125.678 104.21 150.466 103.751 179.634 97.0944C208.801 90.4378 231.305 80.0874 229.894 73.9847C229.14 70.7302 221.747 69.3401 210.586 69.7658" stroke="white" stroke-linecap="round" stroke-linejoin="round"/>
<path d="M111.909 151.891L112.416 163.819L124.281 165.49L113.052 169.641L115.14 181.402L107.695 172.037L97.1216 177.634L103.748 167.696L95.124 159.392L106.664 162.616L111.909 151.891Z" fill="white"/>
<path d="M217.358 114.289L217.701 122.36L225.732 123.494L218.135 126.3L219.548 134.261L214.506 127.926L207.348 131.71L211.839 124.983L205.997 119.367L213.809 121.546L217.358 114.289Z" stroke="white" stroke-linecap="round" stroke-linejoin="round"/>
<path d="M150.489 22.6511L150.863 31.3896L159.552 32.614L151.325 35.6561L152.854 44.2682L147.402 37.4112L139.659 41.5084L144.511 34.231L138.193 28.1468L146.65 30.5085L150.489 22.6511Z" fill="white"/>
<path d="M177.202 238.833C189.144 241.33 200.841 233.71 203.33 221.812C205.818 209.914 198.155 198.245 186.213 195.747C174.272 193.25 162.574 200.87 160.086 212.768C157.598 224.666 165.261 236.335 177.202 238.833Z" fill="#58ACF5"/>
<path d="M203.336 221.813C200.847 233.714 189.147 241.331 177.202 238.833C170.847 237.504 165.704 233.58 162.663 228.406C186.94 229.777 196.031 214.76 199.424 204.159C203.067 209.043 204.678 215.396 203.335 221.82L203.336 221.813Z" fill="#3799E2"/>
</g>
<path d="M98.0959 94.2958L81.6555 126.997L230.731 202.283L247.171 169.582L98.0959 94.2958Z" fill="#FFBC00"/>
<path d="M98.0935 94.2972L81.6514 127.002L29.4123 80.7348C28.8105 80.2038 29.3096 79.2134 30.0978 79.3869L98.0935 94.2972Z" fill="#2B2B2B"/>
<path d="M70.4115 88.0596L60.1779 108.409L81.6533 126.994L98.0937 94.2973L70.4115 88.0596Z" fill="#FCA15A"/>
<path d="M233.712 196.327L84.6379 121.058" stroke="#3A3532" stroke-linecap="round" stroke-linejoin="round"/>
<path d="M94.5205 101.403L243.593 176.68" stroke="#3A3532" stroke-linecap="round" stroke-linejoin="round"/>
<path d="M252.139 213.069L230.747 202.265L247.188 169.564L268.579 180.367C271.019 181.599 272 184.59 270.769 187.039L258.796 210.855C257.564 213.304 254.582 214.293 252.143 213.061L252.139 213.069Z" fill="#E54545"/>
<path d="M247.168 169.566L230.734 202.273" stroke="#3A3532" stroke-linecap="round" stroke-linejoin="round"/>
<defs>
<clipPath id="clip0_553_1931">
<rect width="225" height="213" fill="white" transform="translate(68.1843 0.225098) rotate(11.8127)"/>
</clipPath>
</defs>
</svg>
