<svg width="300" height="255" viewBox="0 0 300 255" fill="none" xmlns="http://www.w3.org/2000/svg">
<path d="M50.0794 53.1022C59.3343 40.4268 79.047 38.299 104.298 54.1053C129.549 69.9115 146.712 47.7524 168.204 61.2667C189.696 74.7811 209.675 65.4736 232.456 55.9899C255.237 46.5061 273.602 53.1995 280.084 64.8961C286.566 76.5927 273.854 92.1497 257.397 108.515C240.94 124.881 236.511 150.317 263.159 157.229C289.807 164.141 296.65 185.419 264.599 187.851C232.549 190.282 201.781 165.661 199.88 199.401C197.978 233.142 139.733 197.869 120.107 195.134C100.481 192.398 42.128 210.861 19.0447 191.906C-4.04582 172.956 58.1891 161.089 83.4476 157.223C108.706 153.356 85.3058 131.86 57.5337 123.209C29.7617 114.558 13.5998 101.299 49.6112 87.8821C85.6227 74.465 37.9435 69.7231 50.0794 53.0961V53.1022Z" fill="black" fill-opacity="0.25"/>
<path d="M226.203 64.4912H74.107C69.0773 64.4912 65 68.5555 65 73.5691V166.597C65 171.611 69.0773 175.675 74.107 175.675H226.203C231.232 175.675 235.31 171.611 235.31 166.597V73.5691C235.31 68.5555 231.232 64.4912 226.203 64.4912Z" fill="#0D4653"/>
<path d="M226.113 161.251V78.9064C226.113 75.9 223.668 73.4629 220.652 73.4629L79.6738 73.4629C76.6578 73.4629 74.2128 75.9 74.2128 78.9064V161.251C74.2128 164.258 76.6578 166.695 79.6738 166.695H220.652C223.668 166.695 226.113 164.258 226.113 161.251Z" fill="#C9F0EC"/>
<path d="M216.572 79.2646H83.7366C81.8177 79.2646 80.2622 80.8152 80.2622 82.7279C80.2622 84.6407 81.8177 86.1912 83.7366 86.1912H216.572C218.491 86.1912 220.047 84.6407 220.047 82.7279C220.047 80.8152 218.491 79.2646 216.572 79.2646Z" fill="white"/>
<path d="M123.987 93.9458H84.2454C81.9006 93.9458 79.9998 95.8595 79.9998 98.2203V119.933C79.9998 122.294 81.9006 124.208 84.2454 124.208H123.987C126.332 124.208 128.233 122.294 128.233 119.933V98.2203C128.233 95.8595 126.332 93.9458 123.987 93.9458Z" fill="#8EDABC"/>
<path d="M85.6355 98.9771H122.597" stroke="white" stroke-width="2" stroke-miterlimit="10" stroke-linecap="round"/>
<path d="M104.76 105.711H122.597" stroke="white" stroke-width="2" stroke-miterlimit="10" stroke-linecap="round"/>
<path d="M85.6355 105.711H100.335" stroke="white" stroke-width="2" stroke-miterlimit="10" stroke-linecap="round"/>
<path d="M112.658 112.453H122.596" stroke="white" stroke-width="2" stroke-miterlimit="10" stroke-linecap="round"/>
<path d="M85.6355 112.453H107.512" stroke="white" stroke-width="2" stroke-miterlimit="10" stroke-linecap="round"/>
<path d="M85.6355 119.186H104.074" stroke="white" stroke-width="2" stroke-miterlimit="10" stroke-linecap="round"/>
<path d="M123.987 128.761H84.2454C81.9006 128.761 79.9998 130.674 79.9998 133.035V154.748C79.9998 157.109 81.9006 159.022 84.2454 159.022H123.987C126.332 159.022 128.233 157.109 128.233 154.748V133.035C128.233 130.674 126.332 128.761 123.987 128.761Z" fill="#8EDABC"/>
<path d="M216.196 97.5264H214.291V99.4251H216.196V97.5264Z" fill="#C9F0EC"/>
<path d="M216.196 102.954H214.292V104.852H216.196V102.954Z" fill="#C9F0EC"/>
<path d="M183.831 108.047H181.926V109.946H183.831V108.047Z" fill="#C9F0EC"/>
<path d="M183.831 113.482H181.926V115.381H183.831V113.482Z" fill="#C9F0EC"/>
<path d="M176.122 175.618H124.195V205.1H176.122V175.618Z" fill="#003644"/>
<path d="M187.764 210.593H112.546C109.701 210.593 107.404 208.295 107.404 205.459C107.404 202.623 109.709 200.325 112.546 200.325H187.764C190.609 200.325 192.914 202.623 192.914 205.459C192.914 208.295 190.609 210.593 187.764 210.593Z" fill="#0D4653"/>
<path d="M231.311 103.004L149.476 93.7097C145.761 93.2878 142.406 95.9475 141.983 99.6504L135.952 152.419C135.528 156.122 138.197 159.466 141.911 159.888L223.747 169.182C227.462 169.604 230.816 166.944 231.24 163.241L237.271 110.472C237.694 106.77 235.026 103.426 231.311 103.004Z" fill="#8DE1BF"/>
<path opacity="0.26" d="M203.525 140.437C208.498 131.126 204.957 119.558 195.616 114.601C186.274 109.644 174.67 113.173 169.697 122.485C164.723 131.797 168.265 143.364 177.606 148.321C186.947 153.279 198.552 149.749 203.525 140.437Z" fill="white"/>
<path d="M196.753 130.984L183.357 121.108C182.194 120.251 180.554 120.965 180.379 122.394L178.499 138.891C178.34 140.32 179.789 141.384 181.111 140.812L196.387 134.191C197.709 133.62 197.916 131.841 196.753 130.984Z" fill="white"/>
<path d="M249.59 78.5364C239.142 57.8503 213.903 49.5506 193.217 59.9984C172.531 70.4462 164.229 95.6857 174.677 116.372C181.642 130.161 195.177 138.442 209.555 139.34L218.018 156.096L255.11 137.363L246.857 121.022C255.122 108.821 256.704 92.6229 249.59 78.5364Z" fill="#FFDC8A"/>
<path d="M247.082 113.258C231.933 123.65 210.514 122.678 195.344 112.631C184.026 105.136 175.808 91.7711 174.93 78.0564C168.905 89.6326 168.349 103.842 174.681 116.379C181.645 130.168 195.181 138.449 209.559 139.348L218.022 156.103L255.113 137.37L246.86 121.029C249.447 117.21 251.379 113.001 252.595 108.586C250.919 110.308 249.086 111.88 247.083 113.255L247.082 113.258Z" fill="#FEC463"/>
<path d="M219.465 153.987L253.283 136.907C255.691 135.69 258.634 136.658 259.85 139.067L267.013 153.248C268.229 155.657 267.262 158.599 264.853 159.816L231.035 176.896C228.627 178.112 225.684 177.145 224.468 174.736L217.305 160.555C216.089 158.146 217.056 155.203 219.465 153.987Z" fill="#5470B4"/>
<path d="M231.034 176.896L238.009 173.374C241.572 168.543 245.335 163.867 249.397 159.443L223.381 172.583L224.468 174.736C225.685 177.146 228.625 178.113 231.036 176.896L231.034 176.896Z" fill="#4E6AA9"/>
<path d="M231.506 157.048C236.031 153.603 240.672 150.288 244.921 146.499C247.437 144.256 249.846 141.91 252.172 139.48L216.896 157.296C216.661 158.359 216.776 159.507 217.305 160.555L219.523 164.945L224.476 162.443C226.813 160.634 229.155 158.836 231.507 157.045L231.506 157.048Z" fill="#4E6AA9"/>
<path d="M220.095 164.962C220.196 165.683 220.414 166.412 220.77 167.117L223.439 172.401L228.392 169.899C230.677 167.988 232.968 166.089 235.27 164.203C239.701 160.57 244.262 157.097 248.377 153.042C249.87 151.571 251.316 150.044 252.726 148.481L220.095 164.962Z" fill="#4E6AA9"/>
<path d="M230.284 149.656L202.548 116.43" stroke="#4E5071" stroke-width="0.889688" stroke-linecap="round" stroke-linejoin="round"/>
<path d="M243.375 143.044L233.095 101.002" stroke="#4E5071" stroke-width="0.889688" stroke-linecap="round" stroke-linejoin="round"/>
<path d="M203.489 117.261C206.615 116.35 207.892 118.601 210.072 120.306C211.938 121.766 215.098 121.748 216.257 119.325C217.098 117.573 216.004 115.513 215.887 113.717C215.723 111.222 216.917 109.677 219.417 109.767C223 109.897 223.09 117.04 228.849 113.981C231.39 112.631 230.666 109.609 229.898 107.518C228.986 105.041 231.017 103.604 233.13 102.842" stroke="#4E5071" stroke-width="0.889688" stroke-linecap="round" stroke-linejoin="round"/>
<path d="M263.176 133.751C263.62 134.63 263.492 135.589 262.889 135.894L212.947 161.117C212.344 161.422 211.495 160.956 211.052 160.077C210.608 159.198 210.736 158.239 211.339 157.935L261.281 132.711C261.884 132.406 262.733 132.872 263.176 133.751Z" fill="#5470B4"/>
<path d="M263.176 133.751C263.62 134.63 263.492 135.589 262.889 135.894L212.947 161.117C212.344 161.422 211.495 160.956 211.052 160.077C210.608 159.198 210.736 158.239 211.339 157.935L261.281 132.711C261.884 132.406 262.733 132.872 263.176 133.751Z" fill="#5470B4"/>
<path d="M266.941 141.206C267.385 142.085 267.257 143.044 266.654 143.349L216.712 168.572C216.109 168.877 215.26 168.411 214.816 167.532C214.373 166.654 214.501 165.694 215.104 165.39L265.046 140.166C265.649 139.861 266.497 140.327 266.941 141.206Z" fill="#5470B4"/>
<path d="M270.707 148.662C271.151 149.54 271.022 150.5 270.419 150.804L220.477 176.028C219.874 176.333 219.026 175.867 218.582 174.988C218.138 174.109 218.267 173.15 218.87 172.845L268.812 147.621C269.415 147.317 270.263 147.783 270.707 148.662Z" fill="#5470B4"/>
<path d="M263.045 133.532C262.579 132.8 261.83 132.434 261.281 132.711L240.554 143.18L263.045 133.532Z" fill="#5E84C3"/>
<path d="M266.776 140.929C266.309 140.235 265.581 139.896 265.046 140.166L244.319 150.635L266.776 140.929Z" fill="#5E84C3"/>
<path d="M270.576 148.442C270.11 147.71 269.36 147.344 268.812 147.621L248.084 158.09L270.576 148.442Z" fill="#5E84C3"/>
<path d="M228.638 67.3224C228.454 71.8182 221.107 75.1687 212.226 74.8067C203.347 74.444 196.295 70.5042 196.48 66.0076C196.663 61.5118 204.011 58.1614 212.891 58.5233C221.772 58.8852 228.823 62.8258 228.638 67.3224Z" fill="white"/>
</svg>
