<svg width="340" height="288" viewBox="0 0 340 288" fill="none" xmlns="http://www.w3.org/2000/svg">
<path d="M227.061 45.6806C227.061 45.6806 214.037 2.3714 179.759 9.92883C145.48 17.4957 140.002 44.9927 142.736 58.0532C142.736 58.0532 91.3469 52.748 70.0732 104.802C62.7251 122.781 47.9914 122.009 38.2942 119.097C33.9061 117.778 29.8656 121.952 31.3878 126.277C34.6014 135.399 41.9119 146.603 58.4121 145.359C85.8311 143.296 92.0046 142.608 106.4 153.605C120.795 164.602 155.76 179.038 186.609 153.605C186.609 153.605 212.909 176.673 241.447 167.768C266.911 159.824 268.866 139.168 268.866 139.168C268.866 139.168 312.587 166.458 333.993 126.796C349.901 97.3104 333.307 68.3623 294.922 67.6744C294.922 67.6744 305.502 34.6271 271.844 23.9789C237.904 13.2364 227.051 45.6806 227.051 45.6806H227.061Z" fill="#FFE8BD"/>
<path d="M142.746 58.0535C144.128 65.9785 147.313 73.404 152.895 78.5208C157.424 82.6199 163.221 85.3809 169.62 86.5022C172.778 87.1713 176.095 87.3409 179.402 87.454C182.4 87.4634 185.341 86.9263 188.066 85.7013C190.791 84.5234 193.347 82.7989 195.48 80.6221C197.622 78.4454 199.285 75.9765 200.695 72.9234C203.532 67.0715 205.139 60.3622 203.138 54.4633C201.747 51.4478 199.962 48.6397 197.641 46.5195C195.32 44.4087 192.463 43.0612 189.419 42.7785C183.414 42.1377 176.63 45.7468 174.009 50.8919L173.962 50.9767C173.962 50.9767 173.952 50.9955 173.943 51.0049C173.332 52.1546 171.894 52.588 170.748 51.9755C169.602 51.363 169.169 49.9213 169.78 48.7716C171.791 45.0118 174.939 42.4392 178.415 40.6677C181.883 38.8961 185.876 38.0103 189.86 38.4438C193.845 38.849 197.641 40.7336 200.478 43.4004C203.335 46.086 205.346 49.3936 206.859 52.7859C208.832 56.3008 209.274 60.4282 209.086 64.2634C208.851 68.1364 207.977 71.8774 206.68 75.4299C205.421 78.8977 203.56 82.667 200.836 85.6259C198.158 88.5942 194.925 91.1385 191.204 92.7875C187.521 94.5026 183.405 95.3318 179.374 95.3601C175.653 95.3035 171.904 95.1716 168.154 94.4554C160.703 93.2587 153.073 90.0925 147.228 84.627C141.337 79.1898 137.616 71.868 135.746 64.4896C135.21 62.3411 134.806 60.1832 134.524 58.0158C134.524 58.0158 138.96 57.686 142.728 58.0441L142.746 58.0535Z" fill="#F2A638"/>
<path d="M266.009 148.111C265.145 147.235 264.308 146.34 263.519 145.416C260.973 142.608 258.868 139.498 256.838 136.379C254.705 132.978 253.173 129.02 252.638 124.987C252.027 120.944 252.431 116.836 253.493 112.972C254.517 109.08 256.697 105.462 258.943 102.541C261.245 99.5346 263.942 96.7924 267.08 94.512C270.219 92.2976 273.93 90.4506 277.952 90.2339C281.626 89.7062 285.488 89.6308 289.284 90.6202C293.062 91.6002 296.679 93.8053 299.16 96.9715C301.659 100.119 303.05 103.982 303.417 107.874C303.774 111.766 303.285 115.818 301.18 119.531C301.18 119.54 301.161 119.559 301.161 119.568C300.494 120.69 299.047 121.067 297.929 120.398C296.811 119.729 296.435 118.277 297.102 117.156L297.149 117.081C300.1 112.096 299.517 104.406 295.758 99.6571C293.898 97.2259 291.22 95.5297 288.194 94.691C285.159 93.8524 281.833 93.843 278.544 94.2764C272.502 95.7747 267.7 100.722 264.28 106.263C262.457 109.099 261.283 111.822 260.597 114.81C259.901 117.778 259.826 120.878 260.296 123.818C260.738 126.787 261.856 129.557 263.5 132.111C265.163 134.57 266.874 137.02 268.819 139.206C268.819 139.206 268.649 142.9 266.009 148.092V148.111Z" fill="#F2A638"/>
<path d="M57.411 207.527C57.411 207.527 64.0314 185.512 81.4563 189.353C98.8813 193.2 101.666 207.178 100.276 213.817C100.276 213.817 126.399 211.12 137.213 237.581C140.949 246.72 148.438 246.328 153.368 244.847C155.598 244.177 157.652 246.299 156.879 248.498C155.245 253.134 151.529 258.83 143.141 258.198C129.203 257.149 126.065 256.799 118.747 262.389C111.429 267.979 93.6557 275.318 77.9742 262.389C77.9742 262.389 64.6045 274.115 50.0981 269.589C37.1535 265.551 36.16 255.051 36.16 255.051C36.16 255.051 13.9346 268.923 3.05351 248.761C-5.03325 233.773 3.4022 219.057 22.9145 218.708C22.9145 218.708 17.5361 201.908 34.6458 196.496C51.8988 191.035 57.4158 207.527 57.4158 207.527H57.411Z" fill="#FFE8BD"/>
<path d="M100.271 213.817C99.5685 217.846 97.9493 221.62 95.112 224.221C92.8097 226.305 89.8625 227.709 86.6097 228.279C85.0047 228.619 83.3186 228.705 81.6372 228.762C80.1135 228.767 78.6184 228.494 77.2332 227.871C75.848 227.273 74.5488 226.396 73.4645 225.29C72.3754 224.183 71.53 222.928 70.8135 221.376C69.371 218.401 68.5542 214.991 69.5716 211.992C70.2785 210.459 71.1861 209.032 72.3659 207.954C73.5457 206.881 74.9978 206.196 76.5454 206.052C79.5976 205.727 83.0463 207.561 84.379 210.177L84.4029 210.22C84.4029 210.22 84.4077 210.229 84.4124 210.234C84.7229 210.818 85.4537 211.039 86.0365 210.727C86.6192 210.416 86.8389 209.683 86.5285 209.099C85.5063 207.188 83.9061 205.88 82.1388 204.979C80.3762 204.079 78.3462 203.628 76.3209 203.849C74.2956 204.055 72.3659 205.013 70.9234 206.368C69.4713 207.734 68.4491 209.415 67.6801 211.139C66.677 212.926 66.4525 215.024 66.548 216.974C66.6674 218.943 67.1117 220.844 67.7708 222.65C68.4109 224.413 69.3566 226.329 70.7419 227.833C72.1032 229.342 73.7463 230.635 75.6379 231.474C77.5103 232.345 79.6024 232.767 81.6516 232.781C83.5431 232.753 85.449 232.686 87.3548 232.322C91.1426 231.713 95.0212 230.104 97.9923 227.325C100.987 224.561 102.879 220.84 103.829 217.089C104.102 215.997 104.307 214.9 104.45 213.798C104.45 213.798 102.196 213.63 100.28 213.812L100.271 213.817Z" fill="#F2A638"/>
<path d="M37.6121 259.597C38.0515 259.152 38.4766 258.697 38.8779 258.227C40.1723 256.8 41.2423 255.219 42.274 253.633C43.3583 251.904 44.1369 249.892 44.4092 247.842C44.7196 245.787 44.5142 243.699 43.9745 241.735C43.4538 239.756 42.3457 237.917 41.2041 236.432C40.0338 234.904 38.6629 233.51 37.0675 232.351C35.4722 231.225 33.5854 230.286 31.541 230.176C29.6734 229.908 27.7102 229.869 25.7805 230.372C23.8603 230.871 22.0213 231.991 20.7603 233.601C19.4897 235.201 18.7828 237.165 18.5965 239.143C18.415 241.122 18.6634 243.181 19.7333 245.069C19.7333 245.073 19.7429 245.083 19.7429 245.088C20.082 245.658 20.8176 245.849 21.386 245.509C21.9544 245.169 22.1455 244.432 21.8064 243.862L21.7825 243.823C20.2826 241.289 20.5788 237.38 22.4894 234.966C23.4352 233.73 24.7965 232.868 26.3346 232.442C27.8774 232.015 29.5683 232.011 31.2401 232.231C34.3115 232.993 36.7523 235.507 38.491 238.324C39.4176 239.766 40.0147 241.15 40.3634 242.669C40.7169 244.178 40.7551 245.754 40.5162 247.248C40.2917 248.757 39.7233 250.165 38.8874 251.464C38.042 252.714 37.1726 253.959 36.1839 255.071C36.1839 255.071 36.2699 256.948 37.6121 259.588V259.597Z" fill="#F2A638"/>
<path d="M235.35 118.295L184.681 161.19C181.261 164.102 176.268 163.652 173.487 160.247L132.623 109.691C129.842 106.285 130.403 101.159 133.803 98.2814L184.473 55.387C187.892 52.4748 192.886 52.9245 195.666 56.3299L236.531 106.886C239.312 110.291 238.751 115.418 235.35 118.295Z" fill="#A82D2D"/>
<path d="M162.241 82.1361L186.311 83.7863L186.013 87.2316L186.007 86.9994L185.918 86.9949L185.814 86.9361L185.529 86.9573L185.016 86.8956C184.681 86.8429 184.326 86.8248 183.991 86.7721C183.32 86.6668 182.615 86.5418 181.964 86.4017C180.627 86.1019 179.241 85.7283 177.952 85.1813C176.61 84.6494 175.33 83.9244 174.192 82.8678C173.613 82.3568 173.112 81.707 172.704 80.9729C172.297 80.2387 172.037 79.4049 171.973 78.5455L174.657 78.2359C174.731 79.2385 175.238 80.1204 176.035 80.8922C176.851 81.6293 177.889 82.2171 179.024 82.6315C180.14 83.0805 181.387 83.3758 182.62 83.6168C183.237 83.7372 183.873 83.823 184.474 83.8892C184.775 83.9223 185.11 83.975 185.43 83.9735L185.909 84.0156L186.14 84.0095L186.244 84.0683L186.317 84.0185C186.317 84.0185 186.337 83.9838 186.366 83.7712L186.067 87.2165L162.032 84.8546L162.329 82.1406L162.241 82.1361Z" fill="#F2A638"/>
<path d="M185.856 88.2406L161.821 85.8788C161.254 85.8322 160.887 85.3498 160.933 84.7814L161.23 82.0673C161.277 81.4989 161.777 81.0962 162.31 81.1233L171.846 81.768C171.846 81.768 171.767 81.5856 171.682 81.4921C171.245 80.6494 170.92 79.6875 170.826 78.7195C170.805 78.4331 170.873 78.1511 171.025 77.9626C171.196 77.7394 171.452 77.6097 171.703 77.5689L174.386 77.2593C174.637 77.2185 174.918 77.2863 175.141 77.4581C175.364 77.63 175.458 77.8666 175.479 78.1531C175.532 78.8693 175.871 79.5643 176.534 80.1687C177.197 80.7732 178.096 81.2826 179.231 81.697C180.155 82.0828 181.121 82.3102 181.984 82.4789L186.381 82.7734C186.928 82.8547 187.314 83.3025 187.287 83.8362L186.989 87.2815C186.927 87.7956 186.55 88.2224 186.033 88.2497C185.998 88.2301 185.89 88.2602 185.856 88.2406C185.856 88.2406 185.856 88.2406 185.821 88.221L185.856 88.2406ZM163.058 83.926L175.464 85.1445C174.842 84.7918 174.258 84.3698 173.729 83.9327L163.148 83.1992L163.058 83.926ZM178.283 84.2709C179.468 84.7592 180.731 85.1087 182.137 85.4476C182.788 85.5877 183.458 85.6931 184.129 85.7985C184.43 85.8316 184.765 85.8843 185.066 85.9174L185.13 84.9931C184.829 84.96 184.529 84.9269 184.228 84.8938C183.573 84.8427 182.902 84.7373 182.286 84.6168C182.074 84.5882 181.916 84.5445 181.704 84.5159L178.283 84.2709ZM173.067 79.4398C173.172 79.8197 173.316 80.1302 173.495 80.4604C173.789 80.9926 174.156 81.475 174.577 81.9423L175.676 82.0159C175.676 82.0159 175.369 81.7506 175.25 81.6376C174.537 80.9592 174.026 80.1663 173.766 79.3326L173.086 79.4051L173.067 79.4398Z" fill="#F2A638"/>
<path d="M168.45 89.4978C168.45 89.4978 168.412 89.8883 168.403 90.0663C168.409 90.2984 168.381 90.511 168.406 90.7085C168.438 91.1382 168.47 91.5679 168.536 92.0172C168.708 92.8465 168.987 93.6455 169.419 94.256C169.518 94.4038 169.598 94.5862 169.751 94.7188C169.87 94.8319 170.004 94.9992 170.123 95.1123C170.434 95.2886 170.687 95.569 171.052 95.7303C171.709 96.1025 172.538 96.2516 173.366 96.4007C173.775 96.4036 174.219 96.4261 174.628 96.429C175.021 96.3777 175.45 96.3459 175.794 96.2207C175.976 96.1408 176.154 96.1498 176.355 96.0352C176.537 95.9552 176.684 95.8557 176.866 95.7757C177.18 95.5419 177.51 95.3624 177.755 95.0895C178.299 94.5285 178.744 93.8198 179.104 93.0176C179.284 92.6165 179.396 92.1762 179.507 91.7359C179.589 91.5082 179.618 91.2956 179.646 91.083C179.675 90.8704 179.723 90.6231 179.713 90.4799L183.068 90.5968C183.031 90.9873 183.017 91.2541 182.965 91.5904C182.932 91.8919 182.845 92.2086 182.777 92.4905C182.657 93.1087 182.468 93.6878 182.224 94.2819C181.791 95.455 181.093 96.6146 180.171 97.6024C179.701 98.1136 179.146 98.5314 178.576 98.8949C178.267 99.0397 177.991 99.2041 177.662 99.3836C177.387 99.548 177.028 99.6189 176.738 99.729C176.103 99.9644 175.478 100.022 174.833 100.114C174.207 100.171 173.587 100.14 172.966 100.108L172.048 99.9547C171.748 99.9216 171.447 99.8885 171.151 99.7665L170.223 99.4696C169.907 99.3823 169.631 99.2255 169.354 99.0688C168.762 98.8247 168.232 98.3875 167.683 97.9851L166.99 97.2721C166.753 97.0459 166.608 96.7354 166.39 96.4746C165.646 95.3666 165.191 94.1484 164.934 92.9046C164.823 92.2925 164.711 91.6803 164.689 91.0727C164.667 90.7863 164.666 90.4651 164.664 90.144C164.663 89.8228 164.676 89.5559 164.733 89.1307L168.484 89.5174L168.45 89.4978Z" fill="#F2A638"/>
<path d="M172.862 101.102C172.862 101.102 172.862 101.102 172.827 101.082L171.678 100.935C171.432 100.887 171.131 100.854 170.781 100.747L169.922 100.489C169.641 100.421 169.399 100.284 169.157 100.147C169.088 100.108 168.984 100.049 168.915 100.01C168.288 99.746 167.739 99.3436 167.244 98.926L167.037 98.8085C167.037 98.8085 166.987 98.7346 166.972 98.6803L166.279 97.9673C166.041 97.7412 165.892 97.5196 165.743 97.298L165.595 97.0764C164.8 95.8945 164.262 94.5829 163.944 93.122C163.818 92.4556 163.711 91.7545 163.708 91.1122C163.667 90.8604 163.7 90.5589 163.679 90.2724L163.669 90.1291C163.671 89.719 163.704 89.4175 163.707 89.0074C163.721 88.7405 163.877 88.463 164.098 88.3137C164.319 88.1644 164.575 88.0347 164.856 88.1025L168.607 88.4891C169.174 88.5358 169.541 89.0182 169.475 89.6213C169.436 89.6906 169.442 89.9228 169.433 90.1007L169.443 90.244C169.443 90.244 169.43 90.5108 169.44 90.6541C169.438 91.0642 169.489 91.4592 169.594 91.8391C169.736 92.5598 169.97 93.196 170.318 93.7131C170.318 93.7131 170.402 93.8066 170.452 93.8804C170.452 93.8804 170.501 93.9543 170.536 93.9739C170.655 94.0869 170.773 94.2 170.873 94.3477C170.942 94.3869 171.011 94.4261 171.115 94.4849C171.288 94.5829 171.406 94.6959 171.564 94.7396C171.599 94.7592 171.633 94.7788 171.703 94.818C172.187 95.0923 172.892 95.2172 173.632 95.3618L173.986 95.3798C174.253 95.3934 174.484 95.3873 174.716 95.3812C174.858 95.3706 174.967 95.3404 175.11 95.3298C175.307 95.3042 175.503 95.2785 175.612 95.2483C175.739 95.1834 175.848 95.1533 175.991 95.1427C175.991 95.1427 176.045 95.1276 176.099 95.1125C176.246 95.013 176.408 94.9677 176.556 94.8682L176.614 94.7641C176.87 94.6344 177.071 94.5198 177.204 94.3659C177.689 93.909 178.075 93.3043 178.343 92.5865C178.504 92.2201 178.63 91.8341 178.702 91.4632C178.746 91.3049 178.789 91.1465 178.813 91.0229L178.891 90.8842C178.891 90.8842 178.894 90.4741 178.918 90.3504C178.965 89.782 179.465 89.3793 179.963 89.3868L183.319 89.5036C183.585 89.5171 183.846 89.6196 184.015 89.8065C184.183 89.9934 184.293 90.2844 184.28 90.5513C184.277 90.9614 184.209 91.2434 184.157 91.5796L184.128 91.7922C184.06 92.0742 184.027 92.3757 183.979 92.623C183.859 93.2412 183.631 93.8896 183.403 94.538C182.833 95.9539 182.095 97.1828 181.12 98.1857C180.61 98.7663 179.947 99.2142 179.358 99.6124C179.358 99.6124 179.319 99.6818 179.284 99.6622C178.974 99.807 178.645 99.9865 178.336 100.131C178.08 100.261 177.79 100.371 177.519 100.447C177.411 100.477 177.357 100.492 177.249 100.522C176.668 100.742 176.078 100.819 175.575 100.901L175.162 100.987C174.482 101.059 173.861 101.028 173.329 101.001L173.152 100.992C173.152 100.992 173.152 100.992 173.117 100.972L172.862 101.102ZM168.344 97.216L168.483 97.2944C168.908 97.6727 169.338 97.9621 169.738 98.143C169.842 98.2017 169.98 98.2801 170.084 98.3389C170.222 98.4173 170.361 98.4956 170.484 98.5197L171.446 98.8362C171.446 98.8362 171.797 98.9431 171.974 98.9521L173.069 99.1147L173.212 99.1041C173.744 99.1312 174.241 99.1386 174.778 99.0767L175.172 99.0253C175.62 98.9589 176.049 98.9271 176.412 98.7672C176.54 98.7023 176.683 98.6918 176.791 98.6616C176.954 98.6163 177.116 98.571 177.209 98.4866C177.538 98.3071 177.794 98.1774 178.104 98.0326C178.565 97.6993 179.081 97.3509 179.458 96.9241C180.247 96.0901 180.848 95.1039 181.316 93.9504C181.539 93.391 181.709 92.8466 181.825 92.3174C181.873 92.0701 181.921 91.8228 181.95 91.6102L180.565 91.5578C180.565 91.5578 180.478 91.8744 180.434 92.0327C180.323 92.473 180.192 92.948 179.973 93.4185C179.569 94.379 179.046 95.2264 178.428 95.8372C178.183 96.1102 177.869 96.3439 177.574 96.543L177.407 96.6772C177.407 96.6772 177.279 96.7421 177.225 96.7572C177.097 96.8221 176.935 96.8673 176.788 96.9669C176.567 97.1162 176.35 97.1766 176.208 97.1871C175.79 97.3621 175.415 97.3788 175.11 97.4347C175.002 97.4648 174.879 97.4407 174.77 97.4709C174.77 97.4709 174.682 97.4664 174.662 97.5011C174.342 97.5027 174.022 97.5042 173.701 97.5058L173.346 97.4878C173.346 97.4878 173.277 97.4486 173.223 97.4637C172.306 97.3101 171.389 97.1565 170.593 96.7059C170.282 96.5296 169.971 96.3532 169.748 96.1814C169.679 96.1422 169.575 96.0834 169.506 96.0442C169.437 96.0051 169.368 95.9659 169.318 95.892C169.2 95.7789 169.1 95.6312 168.981 95.5182C168.828 95.3855 168.748 95.2031 168.63 95.09C168.63 95.09 168.58 95.0162 168.545 94.9966C167.999 94.184 167.67 93.3111 167.488 92.3387C167.407 91.8351 167.36 91.3511 167.313 90.8671C167.283 90.7586 167.307 90.635 167.297 90.4917L165.527 90.3127C165.533 90.5449 165.539 90.7771 165.545 91.0093C165.587 91.5822 165.63 92.1551 165.76 92.7326C166.003 93.9221 166.427 95.0317 167.057 95.9377C167.126 95.9769 167.156 96.0855 167.241 96.1789C167.34 96.3267 167.439 96.4744 167.558 96.5875L168.217 97.2809L168.344 97.216Z" fill="#F2A638"/>
<path d="M159.879 96.1276C162.105 96.0622 164.327 96.0859 166.545 96.1985C168.763 96.3111 170.961 96.4583 173.139 96.6403L176.432 96.9502C177.546 97.0781 178.626 97.1864 179.72 97.349C181.929 97.6395 184.098 97.9994 186.244 98.4829L186.05 100.203C183.839 100.323 181.617 100.299 179.379 100.221C178.261 100.182 177.162 100.109 176.078 100.089L172.781 99.8684C170.602 99.6865 168.389 99.4849 166.18 99.1944C164.006 98.9235 161.817 98.5983 159.652 98.1495L159.864 96.0733L159.879 96.1276Z" fill="#F2A638"/>
<path d="M172.392 100.883C170.391 100.71 168.212 100.528 166.058 100.222C163.406 99.9092 161.359 99.5734 159.441 99.1728C158.948 99.0764 158.615 98.6136 158.677 98.0995L158.888 96.0232C158.95 95.5091 159.396 95.1215 159.879 95.0747C161.84 94.9958 163.919 95.03 166.6 95.1305C168.925 95.2129 171.158 95.3797 173.248 95.5572L176.575 95.8866C176.999 95.9438 177.389 95.9815 177.778 96.0191C178.503 96.1094 179.193 96.1801 179.918 96.2704C182.496 96.6332 184.612 97.0081 186.53 97.4088C187.023 97.5052 187.356 97.968 187.294 98.4821L187.1 100.203C187.039 100.717 186.592 101.104 186.11 101.151C184.13 101.265 182.031 101.265 179.385 101.184C178.656 101.183 177.946 101.147 177.202 101.091C176.812 101.054 176.438 101.07 176.049 101.033L172.717 100.792C172.717 100.792 172.505 100.764 172.416 100.759L172.392 100.883ZM160.743 97.3481C162.345 97.6614 164.11 97.9294 166.339 98.1852C168.601 98.4606 170.815 98.6622 172.904 98.8396L176.202 99.0605C176.556 99.0786 176.965 99.0815 177.355 99.1191C178.064 99.1551 178.774 99.1911 179.484 99.2272C181.578 99.3157 183.268 99.3123 184.854 99.2501C183.305 98.9218 181.629 98.6583 179.598 98.3768C178.893 98.2518 178.202 98.1811 177.512 98.1104C177.123 98.0728 176.734 98.0352 176.31 97.978L173.036 97.6334C170.981 97.4755 168.768 97.274 166.477 97.2112C164.24 97.1333 162.446 97.0779 160.791 97.1009L160.777 97.3677L160.743 97.3481Z" fill="#F2A638"/>
<path d="M184.927 111.187C182.696 111.342 180.474 111.318 178.256 111.205C176.038 111.093 173.84 110.946 171.647 110.709C169.453 110.473 167.264 110.148 165.094 109.788C162.925 109.428 160.725 108.96 158.588 108.298L158.674 107.661C160.929 107.383 163.156 107.317 165.363 107.287C167.57 107.256 169.807 107.334 172.025 107.446C174.223 107.594 176.421 107.741 178.63 108.032C180.804 108.302 182.993 108.628 185.173 109.131L184.961 111.207L184.927 111.187Z" fill="#F2A638"/>
<path d="M174.447 111.975C173.525 111.91 172.534 111.806 171.509 111.683C169.103 111.418 166.949 111.112 164.887 110.722C162.279 110.251 160.168 109.787 158.258 109.209C157.785 109.077 157.541 108.619 157.583 108.14L157.669 107.502C157.711 107.022 158.103 106.65 158.57 106.549C160.575 106.312 162.717 106.153 165.402 106.164C167.466 106.144 169.669 106.203 172.099 106.344C174.582 106.47 176.741 106.687 178.758 106.914C181.444 107.246 183.491 107.582 185.424 108.037C185.898 108.168 186.23 108.631 186.188 109.11L185.977 111.187C185.915 111.701 185.523 112.073 185.04 112.12C183.06 112.234 180.996 112.254 178.281 112.134C177.073 112.09 175.851 111.992 174.54 111.89L174.447 111.975ZM163.018 108.291C163.723 108.416 164.498 108.58 165.291 108.709C167.318 109.08 169.438 109.366 171.79 109.646C174.195 109.911 176.339 110.073 178.345 110.157C180.562 110.27 182.376 110.29 184.035 110.178L184.068 109.877C182.451 109.509 180.686 109.241 178.457 108.985C176.495 108.743 174.371 108.546 171.941 108.405C169.566 108.249 167.398 108.21 165.368 108.25C164.55 108.244 163.767 108.257 163.053 108.31L163.018 108.291Z" fill="#F2A638"/>
<path d="M168.235 132.153C168.359 129.341 168.537 126.514 168.735 123.653C168.914 120.826 169.181 118.003 169.359 115.176C169.626 112.353 169.839 109.546 170.106 106.723L170.533 102.482C170.694 101.063 170.835 99.6791 171.03 98.2799L174.786 98.5776C174.679 99.9813 174.519 101.4 174.378 102.784L173.916 107.006C173.614 109.809 173.258 112.627 172.903 115.445C172.512 118.244 172.157 121.062 171.766 123.86C171.376 126.659 170.966 129.492 170.487 132.286L168.22 132.099L168.235 132.153Z" fill="#F2A638"/>
<path d="M170.433 133.353L168.166 133.167C167.634 133.14 167.267 132.658 167.294 132.124C167.394 129.435 167.563 126.786 167.794 123.623C167.903 121.809 168.067 119.98 168.211 118.186C168.28 117.173 168.383 116.179 168.452 115.166L168.662 112.769C168.854 110.727 169.027 108.72 169.219 106.679L169.646 102.437L169.826 100.984C169.945 100.044 170.044 99.1398 170.162 98.2005C170.244 97.6516 170.71 97.2294 171.276 97.276L175.032 97.5737C175.564 97.6007 175.966 98.1027 175.919 98.6711C175.855 99.5954 175.756 100.5 175.637 101.439L175.492 102.913L175.03 107.134C174.803 109.156 174.557 111.213 174.311 113.269L174.032 115.628C173.874 116.636 173.771 117.63 173.632 118.604C173.38 120.428 173.128 122.253 172.876 124.077C172.49 126.787 172.061 129.655 171.597 132.503C171.516 133.052 171.035 133.42 170.502 133.393L170.433 133.353ZM169.314 131.21L169.704 131.247C170.115 128.735 170.492 126.204 170.845 123.796C171.097 121.971 171.329 120.182 171.582 118.357C171.72 117.383 171.843 116.355 171.981 115.381L172.241 113.057C172.467 111.035 172.748 108.998 172.974 106.976L173.437 102.755L173.582 101.282C173.629 100.713 173.695 100.11 173.741 99.5416L171.952 99.3972C171.886 100 171.805 100.549 171.739 101.152L171.559 102.606L171.151 106.812C170.959 108.854 170.786 110.861 170.594 112.902L170.384 115.3C170.315 116.313 170.212 117.307 170.143 118.32C169.999 120.114 169.835 121.943 169.726 123.757C169.533 126.53 169.377 128.912 169.295 131.244L169.314 131.21Z" fill="#F2A638"/>
<path d="M165.136 114.981C165.137 116.354 164.843 117.606 164.549 118.857C164.22 120.089 163.733 121.277 163.211 122.446C162.655 123.595 162.03 124.705 161.336 125.775C160.607 126.827 159.774 127.819 158.807 128.644L156.83 127.295C157.228 126.102 157.745 125.022 158.262 123.943C158.779 122.863 159.331 121.803 159.917 120.763C160.503 119.722 161.089 118.682 161.675 117.641C162.261 116.601 162.901 115.545 163.591 114.563L165.19 114.966L165.136 114.981Z" fill="#F2A638"/>
<path d="M158.649 129.652C158.649 129.652 158.314 129.6 158.195 129.486L156.218 128.137C155.857 127.887 155.702 127.433 155.867 126.978C156.285 125.751 156.806 124.582 157.323 123.502C157.797 122.581 158.353 121.432 159.017 120.253C159.603 119.212 160.189 118.172 160.775 117.131L161.01 116.715C161.537 115.779 162.134 114.882 162.731 113.984C162.946 113.603 163.398 113.447 163.837 113.559L165.435 113.961C165.874 114.073 166.192 114.481 166.169 114.926C166.162 116.477 165.824 117.887 165.534 119.05C165.186 120.316 164.714 121.559 164.134 122.831C163.461 124.189 162.816 125.333 162.126 126.315C161.265 127.52 160.378 128.527 159.446 129.372C159.24 129.575 158.969 129.651 158.703 129.637L158.649 129.652ZM158.025 126.874L158.712 127.354C159.33 126.744 159.917 126.024 160.509 125.216C161.141 124.338 161.727 123.298 162.307 122.025C162.843 120.911 163.276 119.738 163.601 118.595C163.823 117.714 164.065 116.799 164.134 115.786L163.995 115.707C163.551 116.416 163.125 117.09 162.734 117.784L162.52 118.165C161.953 119.171 161.367 120.212 160.781 121.252C160.136 122.397 159.599 123.511 159.146 124.398C158.765 125.234 158.351 126.052 158.059 126.893L158.025 126.874Z" fill="#F2A638"/>
<path d="M179.605 114.805C179.934 115.678 180.16 116.492 180.366 117.34C180.572 118.189 180.759 119.073 180.857 119.952C180.989 120.85 181.087 121.729 181.131 122.623C181.175 123.518 181.056 124.457 180.76 125.387L179.864 125.52C179.353 124.727 179.019 123.943 178.739 123.144C178.459 122.345 178.234 121.531 177.954 120.732C177.674 119.933 177.448 119.119 177.203 118.339C176.958 117.56 176.698 116.726 176.506 115.932L179.585 114.839L179.605 114.805Z" fill="#F2A638"/>
<path d="M179.78 126.479C179.479 126.446 179.203 126.289 179.054 126.068C178.443 125.127 178.079 124.234 177.814 123.49C177.644 122.982 177.49 122.528 177.354 122.039L177.049 121.043C176.769 120.244 176.543 119.43 176.263 118.631C175.958 117.634 175.747 116.874 175.552 116.169C175.436 115.645 175.694 115.106 176.235 114.955L179.314 113.862C179.821 113.692 180.379 113.916 180.583 114.444C180.898 115.263 181.158 116.097 181.409 117.108C181.616 117.957 181.783 118.875 181.95 119.793C182.127 120.855 182.191 121.714 182.254 122.574C182.28 123.823 182.142 124.797 181.792 125.743C181.665 126.129 181.332 126.397 180.938 126.449L180.042 126.582C180.042 126.582 179.899 126.592 179.81 126.588L179.78 126.479ZM177.756 116.548C177.876 116.982 178.012 117.471 178.182 117.979C178.427 118.758 178.687 119.592 178.932 120.371L179.238 121.368C179.393 121.822 179.528 122.31 179.683 122.764C179.793 123.055 179.952 123.42 180.112 123.785C180.164 123.448 180.148 123.073 180.151 122.663C180.098 121.947 180.015 121.122 179.887 120.135C179.735 119.271 179.583 118.407 179.392 117.612C179.241 117.069 179.125 116.546 178.971 116.092L177.756 116.548Z" fill="#F2A638"/>
<path d="M179.526 132.924C179.721 132.577 180.045 132.165 180.26 131.784C180.494 131.368 180.728 130.952 180.963 130.535C181.432 129.703 181.866 128.851 182.285 127.945C183.085 126.202 183.835 124.385 184.427 122.524C185.019 120.663 185.522 118.798 185.902 116.909C186.109 115.974 186.247 115 186.366 114.061C186.469 113.067 186.603 112.182 186.672 111.169L188.929 87.2387L189.13 85.0193L191.709 85.3821C191.709 85.3821 191.916 85.4997 192.094 85.5087C192.232 85.587 192.409 85.5961 192.567 85.6397C192.883 85.7271 193.218 85.7798 193.554 85.8325C194.205 85.9726 194.929 86.0629 195.639 86.0989C197.039 86.2057 198.497 86.2084 199.925 86.1025C201.354 85.9966 202.841 85.7867 204.278 85.503C204.996 85.3611 205.7 85.1649 206.438 84.9883C207.142 84.7922 207.865 84.5613 208.568 84.3652L209.298 86.4713C208.57 86.7911 207.862 87.0762 207.1 87.3765C206.358 87.642 205.595 87.9422 204.872 88.173C203.372 88.6498 201.822 89.0527 200.242 89.3471C198.662 89.6415 197.052 89.8272 195.431 89.8698C194.593 89.8987 193.776 89.8928 192.943 89.8327C192.534 89.8298 192.11 89.7726 191.686 89.7154C191.474 89.6868 191.262 89.6582 191.05 89.6296C190.803 89.5814 190.645 89.5377 190.31 89.485L193.089 87.6283L190.319 111.497C190.216 112.49 190.039 113.534 189.916 114.562C189.738 115.605 189.546 116.594 189.334 117.618C188.876 119.646 188.295 121.65 187.644 123.615C186.94 125.595 186.131 127.516 185.219 129.378C184.78 130.319 184.272 131.221 183.745 132.157C183.491 132.608 183.237 133.059 182.929 133.525C182.655 134.01 182.351 134.387 182.024 134.888L179.472 132.939L179.526 132.924Z" fill="#F2A638"/>
<path d="M181.974 135.866C181.974 135.866 181.604 135.794 181.486 135.681L178.934 133.732C178.523 133.408 178.412 132.796 178.72 132.33C178.896 132.017 179.219 131.606 179.434 131.224C179.668 130.808 179.903 130.392 180.118 130.01C180.489 129.351 180.997 128.45 181.401 127.489C182.196 125.835 182.892 124.033 183.518 122.192C184.134 120.208 184.633 118.431 184.969 116.7C185.177 115.766 185.295 114.826 185.448 113.906C185.481 113.605 185.534 113.269 185.552 112.913C185.618 112.31 185.684 111.707 185.769 111.069L188.228 84.9195C188.241 84.6526 188.398 84.3752 188.638 84.1912C188.879 84.0072 189.149 83.9317 189.396 83.9799L191.974 84.3427C191.974 84.3427 192.221 84.3909 192.325 84.4497C192.325 84.4497 192.394 84.4889 192.483 84.4934C192.586 84.5521 192.675 84.5566 192.764 84.5611L192.937 84.6591C193.272 84.7118 193.553 84.7796 193.854 84.8127C194.436 84.9136 195.037 84.9798 195.851 85.0746C197.107 85.1919 198.477 85.1901 199.994 85.0888C201.368 84.998 202.766 84.7836 204.204 84.4998C204.671 84.3987 205.104 84.278 205.552 84.2116C205.823 84.1361 206.074 84.0953 206.345 84.0199C206.777 83.8992 207.21 83.7785 207.663 83.6231L208.44 83.3771C208.927 83.2413 209.466 83.5005 209.636 84.0086L210.365 86.1148C210.535 86.6228 210.292 87.2169 209.766 87.4221L209.058 87.7072C208.566 87.932 208.04 88.1372 207.568 88.3272C207.278 88.4374 207.042 88.5324 206.771 88.6079C206.264 88.7783 205.738 88.9835 205.251 89.1193C203.697 89.6112 202.093 90.0292 200.512 90.3235C198.735 90.6436 197.125 90.8294 195.539 90.8915C194.899 90.8947 194.347 90.9024 193.849 90.8949L191.472 111.555C191.421 112.212 191.297 112.919 191.207 113.646L191.049 114.655C190.872 115.698 190.675 116.776 190.463 117.8C190.029 119.704 189.482 121.728 188.715 123.901C187.971 125.95 187.158 127.96 186.231 129.768C185.816 130.585 185.342 131.506 184.737 132.582C184.463 133.067 184.209 133.518 183.901 133.984C183.628 134.469 183.305 134.881 182.923 135.397C182.786 135.64 182.53 135.769 182.279 135.81C182.191 135.806 182.137 135.821 182.048 135.816L181.974 135.866ZM180.909 132.655L181.903 133.401C181.903 133.401 182.079 133.089 182.157 132.95C182.411 132.499 182.7 132.068 182.954 131.617C183.559 130.542 184.009 129.744 184.389 128.907C185.262 127.114 186.051 125.228 186.755 123.248C187.484 121.145 188.026 119.21 188.421 117.375C188.633 116.351 188.845 115.328 188.983 114.353L189.121 113.379C189.226 112.707 189.297 112.015 189.382 111.377L191.74 90.7522C191.74 90.7522 191.617 90.7281 191.562 90.7432L191.35 90.7146C191.35 90.7146 191.015 90.6619 190.857 90.6182C190.576 90.5504 190.399 90.5414 190.048 90.4344C189.91 90.356 189.772 90.2777 189.668 90.2189L187.682 111.237C187.631 111.895 187.545 112.532 187.479 113.136C187.427 113.472 187.374 113.808 187.356 114.164C187.199 115.173 187.061 116.147 186.834 117.116C186.458 118.916 185.99 120.801 185.335 122.855C184.704 124.785 183.969 126.656 183.135 128.38C182.676 129.355 182.183 130.311 181.793 131.005C181.539 131.456 181.304 131.872 181.07 132.288C180.992 132.427 180.933 132.531 180.855 132.67L180.909 132.655ZM190.102 86.2097L189.872 88.6417L192.652 86.7851C192.652 86.7851 192.671 86.7504 192.691 86.7157C192.621 86.6765 192.533 86.672 192.409 86.6479L192.306 86.5892L192.167 86.5108C192.167 86.5108 191.901 86.4973 191.798 86.4385C191.694 86.3797 191.57 86.3556 191.482 86.3511L190.086 86.1554L190.102 86.2097ZM194.012 86.9612C194.161 87.1828 194.256 87.4195 194.223 87.7211L194.091 88.9273C194.534 88.9498 194.997 88.9376 195.549 88.93C196.993 88.8784 198.549 88.7077 200.183 88.3982C201.674 88.0994 203.17 87.7115 204.67 87.2348C205.157 87.099 205.63 86.9089 206.102 86.7188C206.372 86.6434 206.628 86.5136 206.898 86.4382C207.297 86.2979 207.715 86.1229 208.133 85.9479L208.023 85.6569C207.59 85.7776 207.191 85.918 206.758 86.0387C206.453 86.0945 206.217 86.1896 205.966 86.2303C205.479 86.3661 205.011 86.4672 204.509 86.5488C203.018 86.8476 201.531 87.0575 200.049 87.1785C198.423 87.31 196.965 87.3073 195.619 87.1855C195.018 87.1193 194.505 87.0576 194.027 87.0155L194.012 86.9612Z" fill="#F2A638"/>
<path d="M209.523 105.264L189.347 103.99L189.69 100.708L209.807 102.817L209.523 105.264Z" fill="#F2A638"/>
<path d="M189.277 105.004C189.011 104.99 188.769 104.853 188.62 104.632C188.452 104.445 188.376 104.173 188.409 103.872L188.753 100.589C188.766 100.322 188.923 100.045 189.144 99.8956C189.33 99.7267 189.601 99.6512 189.901 99.6843L209.984 101.774C210.531 101.855 210.917 102.303 210.871 102.872L210.622 105.338C210.575 105.907 210.075 106.309 209.543 106.282L189.366 105.008L189.277 105.004ZM190.612 101.825L190.479 103.031L208.636 104.167L208.693 103.742L190.592 101.86L190.612 101.825Z" fill="#F2A638"/>
<path d="M197.509 137.119L200.428 103.269L203.651 103.54L199.476 137.272L197.509 137.119Z" fill="#F2A638"/>
<path d="M199.353 138.301L197.352 138.128C196.82 138.101 196.418 137.599 196.465 137.03L199.383 103.181C199.397 102.914 199.533 102.671 199.774 102.487C199.98 102.283 200.25 102.208 200.516 102.222L203.74 102.492C204.006 102.506 204.248 102.643 204.397 102.865C204.546 103.086 204.621 103.357 204.608 103.624L200.467 137.376C200.386 137.925 199.92 138.347 199.353 138.301ZM198.589 136.175L202.503 104.445L201.335 104.332L198.554 136.155L198.589 136.175Z" fill="#F2A638"/>
<path d="M85.8809 145.831L56.7471 188.421C52.5214 194.598 54.0894 203.041 60.2494 207.279L102.719 236.496C108.879 240.734 117.298 239.161 121.524 232.983L150.658 190.393C154.883 184.216 153.315 175.773 147.155 171.535L104.686 142.318C98.526 138.08 90.1066 139.653 85.8809 145.831Z" fill="#A82D2D"/>
<path d="M86.7044 167.657C86.7251 168.672 86.6631 169.583 86.5805 170.536C86.4773 171.468 86.3327 172.4 86.1469 173.331C85.7752 175.175 85.2176 176.997 84.5362 178.757C83.8753 180.538 82.9461 182.216 81.8929 183.831L81.0669 185.011C80.7778 185.384 80.4474 185.757 80.1377 186.109L79.6627 186.647C79.4975 186.813 79.3117 186.979 79.1465 187.144C78.7954 187.476 78.4237 187.786 78.0726 188.097L76.3174 186.482C77.2053 184.991 78.0933 183.562 78.8367 182.008C79.0432 181.636 79.1878 181.242 79.3736 180.849C79.5595 180.455 79.7453 180.083 79.8899 179.689L80.3855 178.509C80.53 178.115 80.6746 177.701 80.8398 177.308C81.4386 175.713 81.9549 174.056 82.4505 172.4C82.6776 171.571 82.9254 170.743 83.1319 169.894C83.3591 169.065 83.5656 168.196 83.7721 167.409L86.7251 167.657H86.7044Z" fill="#F2A638"/>
<path d="M78.1762 189.008C77.9078 189.049 77.598 188.987 77.3915 188.78L75.6363 187.165C75.3059 186.875 75.2439 186.378 75.4711 186.005L75.8015 185.467C76.5862 184.162 77.3296 182.94 77.9491 181.615C78.073 181.366 78.1762 181.139 78.2795 180.931C78.3414 180.787 78.424 180.621 78.486 180.476L78.5892 180.227C78.7132 179.958 78.8577 179.668 78.961 179.378L79.6011 177.825C79.7044 177.535 79.8076 177.266 79.9315 176.976C80.4478 175.568 80.964 174.035 81.5216 172.172L81.7074 171.488C81.8726 170.888 82.0378 170.308 82.203 169.707C82.3476 169.21 82.4508 168.713 82.5747 168.237C82.6573 167.885 82.7399 167.533 82.8432 167.201C82.9671 166.767 83.3594 166.477 83.8137 166.518L86.7667 166.767C87.2417 166.808 87.6134 167.201 87.6134 167.657C87.634 168.589 87.6134 169.521 87.4688 170.639C87.3656 171.654 87.2004 172.627 87.0145 173.518C86.6635 175.319 86.1059 177.204 85.3625 179.109C84.7224 180.807 83.8344 182.505 82.6367 184.348L81.79 185.55C81.5629 185.839 81.3357 186.109 81.1292 186.357L80.3239 187.268C80.1174 187.475 79.9315 187.662 79.7457 187.828C79.374 188.159 79.0229 188.49 78.6306 188.801C78.5066 188.904 78.3414 188.987 78.1969 189.008H78.1762ZM77.4535 186.316L78.0523 186.854C78.1969 186.73 78.3414 186.585 78.486 186.461C78.6512 186.316 78.8164 186.15 78.961 186.005L79.725 185.135C79.9315 184.908 80.1174 184.68 80.3032 184.431L81.1086 183.292C82.2237 181.594 83.0497 180 83.6485 178.426C84.3507 176.603 84.8876 174.843 85.218 173.145C85.4038 172.275 85.5277 171.385 85.631 170.432C85.7136 169.728 85.7549 169.107 85.7549 168.527L84.4126 168.423C84.4126 168.423 84.3713 168.589 84.3507 168.672C84.2268 169.169 84.1028 169.666 83.9583 170.163C83.8137 170.763 83.6279 171.364 83.4627 171.985L83.2768 172.669C82.6986 174.595 82.1824 176.189 81.6455 177.639C81.5216 177.929 81.4183 178.198 81.3357 178.467L81.1912 178.84L80.6749 180.041C80.5717 180.352 80.4065 180.662 80.2619 180.973L80.138 181.221C80.0554 181.366 79.9935 181.511 79.9315 181.656C79.8076 181.926 79.7044 182.174 79.5598 182.423C78.9197 183.727 78.1969 184.97 77.4122 186.274L77.4535 186.316Z" fill="#F2A638"/>
<path d="M119.806 170.951C116.874 171.883 113.88 172.545 110.865 173.105C107.85 173.664 104.835 174.161 101.82 174.616L97.2771 175.3L92.734 175.942L88.191 176.604C86.6835 176.832 85.1554 177.019 83.6686 177.308L83.1523 174.368C84.6598 174.119 86.1466 173.767 87.6541 173.477L92.1558 172.545L96.6369 171.593L101.139 170.682C104.133 170.081 107.148 169.522 110.163 169.004C113.178 168.507 116.213 168.093 119.29 167.969L119.806 170.909V170.951Z" fill="#F2A638"/>
<path d="M109.068 174.388C106.714 174.802 104.339 175.196 101.964 175.548L88.3354 177.556C87.8398 177.639 87.3441 177.701 86.8279 177.784C85.8367 177.929 84.8248 178.074 83.8336 178.26C83.6065 178.323 83.338 178.26 83.1315 178.115C82.925 177.971 82.7805 177.763 82.7392 177.515L82.2229 174.574C82.1816 174.326 82.2229 174.077 82.3881 173.87C82.5327 173.663 82.7185 173.539 82.987 173.497C83.9782 173.332 84.99 173.125 85.9606 172.918C86.4562 172.814 86.9518 172.71 87.4474 172.607L100.911 169.811C103.947 169.19 106.982 168.631 109.956 168.134C112.661 167.699 115.862 167.223 119.207 167.078C119.662 167.078 120.075 167.388 120.157 167.844L120.674 170.785C120.756 171.24 120.488 171.696 120.054 171.82C116.874 172.835 113.694 173.497 111.009 174.015C110.348 174.139 109.688 174.264 109.027 174.367L109.068 174.388ZM84.4325 176.272C85.1552 176.148 85.878 176.045 86.5801 175.941C87.0757 175.879 87.5713 175.796 88.0669 175.713L101.696 173.705C104.732 173.249 107.747 172.731 110.72 172.193C113.136 171.737 115.945 171.157 118.774 170.308L118.547 168.983C115.594 169.149 112.765 169.563 110.328 169.977C107.375 170.474 104.36 171.033 101.345 171.654L87.8811 174.45C87.3854 174.554 86.8898 174.657 86.3942 174.761C85.6921 174.906 84.99 175.051 84.2673 175.196L84.4531 176.293L84.4325 176.272Z" fill="#F2A638"/>
<path d="M106.404 214.666C105.744 211.312 105.124 207.936 104.505 204.581L102.687 194.475L100.973 184.349L100.106 179.296C99.8171 177.618 99.6106 175.899 99.6932 174.16L102.625 173.642C103.307 175.257 103.679 176.935 103.988 178.612L104.897 183.665L106.735 193.771L108.49 203.898C109.048 207.273 109.626 210.649 110.142 214.024L106.425 214.687L106.404 214.666Z" fill="#F2A638"/>
<path d="M110.287 214.915L106.57 215.578C106.074 215.661 105.599 215.329 105.496 214.853C104.918 211.913 104.381 208.972 103.823 206.01L103.596 204.747L101.779 194.641L99.1979 179.462C98.9294 177.805 98.6816 176.003 98.7642 174.119C98.7642 173.684 99.0946 173.332 99.5283 173.249L102.461 172.731C102.894 172.648 103.307 172.897 103.472 173.29C104.195 175.03 104.588 176.811 104.877 178.447L107.623 193.606L109.564 204.83C110.06 207.833 110.576 210.856 111.03 213.859C111.113 214.356 110.783 214.832 110.287 214.915ZM107.128 213.59L109.069 213.238C108.635 210.525 108.181 207.833 107.747 205.12L107.561 204.022L105.806 193.916L103.059 178.778C102.812 177.453 102.523 176.065 102.027 174.678L100.602 174.926C100.602 176.376 100.809 177.805 101.036 179.13L103.617 194.31L105.661 205.658C106.157 208.309 106.632 210.939 107.148 213.59H107.128Z" fill="#F2A638"/>
<path d="M120.076 183.769C117.391 184.473 114.686 185.074 111.981 185.654C109.276 186.233 106.55 186.751 103.824 187.269C101.098 187.787 98.3931 188.304 95.6673 188.781C92.9414 189.278 90.2156 189.733 87.4898 190.168L89.2038 187.704L91.4959 204.437L88.5636 204.954L85.0118 188.449L84.5781 186.399L86.7464 185.985C89.4722 185.446 92.1774 184.949 94.9032 184.494C97.629 183.997 100.355 183.562 103.101 183.127C105.827 182.671 108.574 182.237 111.299 181.843C114.046 181.47 116.792 181.098 119.56 180.849L120.076 183.79V183.769Z" fill="#F2A638"/>
<path d="M91.6399 205.347L88.7076 205.865C88.212 205.948 87.7577 205.637 87.6338 205.14L83.6483 186.585C83.5864 186.336 83.6483 186.088 83.7722 185.881C83.9168 185.674 84.1233 185.529 84.3711 185.487L86.5394 185.073C89.2652 184.535 92.0117 184.038 94.7168 183.561C97.5665 183.044 100.437 182.588 102.915 182.195L103.121 182.153C105.744 181.718 108.449 181.283 111.134 180.911C113.591 180.579 116.482 180.186 119.435 179.917C119.91 179.875 120.344 180.206 120.426 180.683L120.943 183.623C121.025 184.1 120.736 184.555 120.261 184.68C117.391 185.425 114.541 186.067 112.125 186.585C109.461 187.165 106.735 187.682 104.113 188.179H103.947C100.912 188.801 98.3513 189.277 95.77 189.733C94.0354 190.043 92.2595 190.354 90.4835 190.644L92.3627 204.332C92.4247 204.829 92.0943 205.285 91.5986 205.368L91.6399 205.347ZM89.2858 203.897L90.4629 203.69L88.7076 190.934C88.3359 190.996 87.9849 191.058 87.6338 191.099C87.2621 191.162 86.9111 190.996 86.7046 190.664C86.4981 190.354 86.5187 189.94 86.7252 189.65L88.4392 187.185C88.6663 186.875 89.038 186.73 89.4097 186.813C89.7814 186.895 90.0499 187.206 90.1118 187.579L90.277 188.78C92.0323 188.49 93.7669 188.179 95.5015 187.869C98.0828 187.413 100.623 186.937 103.658 186.357H103.824C106.446 185.839 109.151 185.322 111.795 184.742C113.942 184.286 116.461 183.727 119.022 183.064L118.795 181.822C116.172 182.091 113.612 182.422 111.423 182.733C108.759 183.106 106.054 183.541 103.452 183.976L103.245 184.017C100.767 184.41 97.8969 184.887 95.0679 185.384C92.3627 185.839 89.6162 186.357 86.9111 186.875L85.672 187.123L89.2652 203.877L89.2858 203.897Z" fill="#F2A638"/>
<path d="M79.1867 204.022C81.1071 203.608 83.0482 203.256 84.9894 202.883L90.7921 201.806C94.6743 201.123 98.5565 200.46 102.439 199.797C106.321 199.197 110.224 198.534 114.106 197.954L119.95 197.084C121.912 196.815 123.853 196.546 125.815 196.297L126.145 198.182C124.225 198.637 122.304 199.031 120.363 199.445L114.581 200.646C110.719 201.454 106.858 202.158 102.976 202.924C99.0934 203.649 95.2319 204.353 91.3496 205.037L85.5263 206.031C83.5852 206.341 81.644 206.652 79.6823 206.942L79.166 204.001L79.1867 204.022Z" fill="#F2A638"/>
<path d="M92.1136 205.845C91.9071 205.886 91.7212 205.907 91.5147 205.948L83.6883 207.253C82.408 207.46 81.107 207.667 79.8267 207.853C79.3311 207.915 78.8768 207.584 78.7942 207.087L78.2779 204.146C78.1953 203.649 78.5051 203.173 79.0007 203.07C80.281 202.8 81.5613 202.552 82.8416 202.303L84.8034 201.91L90.6267 200.833C94.5296 200.15 98.3912 199.487 102.294 198.824C103.678 198.617 105.061 198.389 106.445 198.162C108.964 197.768 111.463 197.354 114.003 196.981L121.829 195.842C123.13 195.656 124.431 195.49 125.732 195.324C126.228 195.262 126.661 195.594 126.765 196.091L127.095 197.975C127.178 198.451 126.868 198.928 126.393 199.031C125.113 199.321 123.853 199.611 122.573 199.88L120.611 200.315L114.808 201.516C112.309 202.034 109.811 202.51 107.312 202.987C105.949 203.256 104.566 203.525 103.203 203.794C99.527 204.478 95.8512 205.161 92.1549 205.803L92.1136 205.845ZM80.4462 205.907C81.4374 205.762 82.408 205.596 83.3992 205.451L85.4023 205.14L91.205 204.146C95.0665 203.463 98.9488 202.759 102.81 202.034C104.173 201.765 105.557 201.496 106.92 201.226C109.418 200.75 111.896 200.274 114.395 199.756L122.139 198.141C123.13 197.934 124.101 197.727 125.092 197.499V197.354C124.059 197.478 123.068 197.623 122.056 197.768L120.095 198.037L114.251 198.886C111.731 199.259 109.233 199.653 106.734 200.067C105.35 200.295 103.967 200.502 102.583 200.729C98.7216 201.371 94.8394 202.034 90.9572 202.717L83.1927 204.167C82.2221 204.353 81.2309 204.54 80.2604 204.747L80.4669 205.907H80.4462Z" fill="#F2A638"/>
<path d="M218.722 258.818L171.805 285.905C167.13 288.613 161.67 286.835 159.63 281.929L139.195 232.863C137.157 227.974 139.305 221.807 143.981 219.1L190.898 192.012C195.573 189.305 201.033 191.083 203.073 195.988L223.507 245.055C225.546 249.944 223.397 256.11 218.722 258.818Z" fill="#A82D2D"/>
<path d="M179.458 211.402C178.041 215.208 176.505 218.972 174.918 222.708C173.33 226.443 171.657 230.136 170.018 233.858L167.559 239.418L165.05 244.964C163.394 248.672 161.686 252.35 159.962 256.029L158.012 255.181C159.498 251.404 161.017 247.64 162.57 243.89L164.892 238.259L167.247 232.641C168.835 228.905 170.372 225.157 171.994 221.435C173.615 217.714 175.289 214.022 177.099 210.385L179.459 211.418L179.458 211.402Z" fill="#F2A638"/>
<path d="M159.593 256.853L157.644 256.005C157.251 255.835 157.081 255.334 157.261 254.872C158.97 250.547 160.419 246.955 161.818 243.565L164.139 237.933L166.494 232.315C167.027 231.048 167.562 229.797 168.095 228.529C169.118 226.08 170.185 223.562 171.256 221.092C173.131 216.788 174.752 213.266 176.39 209.991C176.606 209.56 177.071 209.359 177.464 209.528L179.824 210.561C180.217 210.731 180.386 211.216 180.222 211.676C178.959 215.105 177.511 218.714 175.668 223.016C174.612 225.467 173.526 227.954 172.45 230.357C171.884 231.628 171.318 232.898 170.769 234.166L168.293 239.727L165.784 245.274C164.281 248.605 162.661 252.127 160.679 256.34C160.465 256.787 159.985 257.006 159.592 256.837L159.593 256.853ZM159.08 254.652L159.61 254.878C161.42 251.026 162.926 247.745 164.313 244.638L166.823 239.091L169.282 233.532C169.848 232.262 170.414 230.992 170.962 229.707C172.023 227.321 173.126 224.833 174.166 222.399C175.854 218.457 177.206 215.104 178.39 211.946L177.416 211.522C175.924 214.554 174.418 217.835 172.712 221.762C171.64 224.215 170.589 226.732 169.565 229.165C169.032 230.432 168.498 231.684 167.965 232.951L165.608 238.553L163.302 244.167C161.986 247.334 160.633 250.671 159.078 254.619L159.08 254.652Z" fill="#F2A638"/>
<path d="M179.187 221.192C179.206 223.197 179.19 225.189 179.127 227.201C179.064 229.212 178.951 231.228 178.696 233.337L175.121 232.86C175.611 231.032 175.978 229.096 176.311 227.147C176.644 225.198 176.943 223.235 177.176 221.277L179.171 221.193L179.187 221.192Z" fill="#F2A638"/>
<path d="M174.753 233.7C174.616 233.644 174.492 233.537 174.415 233.394C174.301 233.187 174.265 232.941 174.329 232.687C174.843 230.724 175.233 228.655 175.509 227.058C175.828 225.143 176.127 223.18 176.378 221.237C176.441 220.768 176.81 220.392 177.239 220.376L179.234 220.292C179.661 220.26 180.004 220.632 180.006 221.097C180.027 223.135 180.01 225.11 179.948 227.139C179.877 229.051 179.786 231.132 179.507 233.359C179.476 233.61 179.346 233.852 179.158 233.999C178.972 234.162 178.729 234.23 178.513 234.213L174.937 233.736C174.937 233.736 174.803 233.713 174.751 233.684L174.753 233.7ZM177.884 222.135C177.649 223.845 177.398 225.556 177.109 227.22C176.866 228.598 176.55 230.33 176.135 232.07L177.989 232.312C178.169 230.524 178.256 228.825 178.301 227.229C178.353 225.5 178.375 223.824 178.361 222.1L177.884 222.135Z" fill="#F2A638"/>
<path d="M170.874 219.098C170.281 220.237 169.701 221.309 169.087 222.384C168.473 223.458 167.842 224.518 167.193 225.562C165.894 227.65 164.495 229.713 162.937 231.638L161.203 230.143C162.497 228.221 163.665 226.159 164.731 224.055C165.263 223.003 165.778 221.936 166.276 220.854C166.774 219.788 167.253 218.674 167.687 217.629L170.841 219.1L170.874 219.098Z" fill="#F2A638"/>
<path d="M162.587 232.494C162.587 232.494 162.466 232.42 162.413 232.375L160.679 230.88C160.361 230.605 160.303 230.062 160.587 229.659C161.732 227.947 162.875 226.004 164.056 223.675C164.589 222.623 165.104 221.556 165.587 220.508C166.127 219.323 166.609 218.258 166.985 217.318C167.084 217.095 167.251 216.9 167.458 216.801C167.666 216.702 167.896 216.685 168.102 216.786L171.256 218.256C171.461 218.341 171.608 218.529 171.658 218.757C171.725 218.984 171.694 219.235 171.579 219.46C171.045 220.495 170.493 221.515 169.778 222.78C169.164 223.855 168.519 224.948 167.87 225.992C166.35 228.429 164.977 230.407 163.539 232.174C163.282 232.492 162.892 232.587 162.585 232.461L162.587 232.494ZM162.327 229.926L162.893 230.414C164.085 228.881 165.262 227.167 166.546 225.113C167.18 224.087 167.812 223.028 168.41 221.971C168.906 221.087 169.328 220.326 169.719 219.583L168.074 218.828C167.766 219.564 167.397 220.372 167.013 221.213C166.515 222.279 165.986 223.381 165.438 224.45C164.371 226.538 163.349 228.34 162.311 229.927L162.327 229.926Z" fill="#F2A638"/>
<path d="M183.201 222.017L201.759 229.493L203.278 230.109L202.512 231.808L195.898 246.322L193.538 245.289L199.571 230.521L200.307 232.837L182.188 224.383L183.201 222.017Z" fill="#F2A638"/>
<path d="M195.532 247.162L193.172 246.129C192.779 245.96 192.608 245.442 192.789 244.997L197.817 232.692L181.806 225.224C181.411 225.038 181.258 224.535 181.454 224.072L182.468 221.724C182.665 221.261 183.144 221.026 183.553 221.194L203.629 229.269C203.832 229.337 203.995 229.523 204.062 229.751C204.129 229.978 204.114 230.228 204.015 230.451L196.636 246.665C196.422 247.112 195.943 247.347 195.549 247.161L195.532 247.162ZM194.624 244.759L195.547 245.154L200.897 233.406C200.897 233.406 200.867 233.441 200.851 233.459C200.59 233.727 200.235 233.837 199.94 233.66L199.288 233.345L194.622 244.743L194.624 244.759ZM200.13 229.814C200.22 229.907 200.294 230.018 200.339 230.164L201.092 232.479C201.136 232.625 201.147 232.773 201.124 232.908L202.159 230.624L200.13 229.814ZM183.276 223.885L198.516 230.998L198.822 230.228C198.961 229.886 199.274 229.647 199.604 229.638C199.621 229.637 199.637 229.636 199.654 229.635L183.586 223.166L183.276 223.885Z" fill="#F2A638"/>
<path d="M175.54 236.245L199.48 247.313L198.467 249.678L174.032 239.726L175.54 236.245Z" fill="#F2A638"/>
<path d="M173.682 240.564C173.494 240.479 173.349 240.308 173.267 240.098C173.2 239.871 173.214 239.621 173.297 239.399L174.804 235.919C174.903 235.695 175.072 235.517 175.279 235.418C175.487 235.32 175.735 235.318 175.907 235.404L199.847 246.472C200.241 246.658 200.395 247.161 200.198 247.623L199.185 249.989C198.989 250.451 198.51 250.686 198.1 250.518L173.667 240.582L173.682 240.564ZM175.91 237.428L175.15 239.193L198.083 248.529L198.393 247.809L175.909 237.411L175.91 237.428Z" fill="#F2A638"/>
<path d="M196.831 218.95C195.61 223.156 193.943 227.163 192.192 231.143C191.299 233.117 190.406 235.092 189.479 237.053C188.467 239.219 187.237 241.103 185.936 242.943C183.3 246.591 180.225 249.908 176.679 252.448C173.135 255.02 169.169 256.828 165.118 257.731L164.855 254.897C168.555 254.171 172.166 252.489 175.361 250.109C178.537 247.697 181.366 244.63 183.584 241.146C184.147 240.274 184.642 239.374 185.119 238.459C185.35 238.011 185.579 237.546 185.792 237.082C185.891 236.859 186.006 236.618 186.088 236.396L186.366 235.695C187.156 233.662 187.964 231.66 188.806 229.656C190.488 225.648 192.257 221.683 194.487 217.916L196.848 218.949L196.831 218.95Z" fill="#F2A638"/>
<path d="M164.735 258.572C164.735 258.572 164.632 258.513 164.58 258.484C164.404 258.348 164.306 258.14 164.272 257.91L164.009 255.077C163.992 254.846 164.055 254.592 164.189 254.4C164.324 254.207 164.528 254.059 164.757 254.025C168.26 253.33 171.779 251.738 174.911 249.396C178.009 247.056 180.776 244.044 182.888 240.684C183.376 239.917 183.874 239.067 184.379 238.084C184.61 237.635 184.826 237.204 185.024 236.758C185.124 236.551 185.223 236.328 185.307 236.123L185.569 235.439C186.275 233.612 187.085 231.626 188.024 229.383C189.933 224.86 191.636 221.116 193.763 217.522C193.999 217.14 194.432 216.958 194.807 217.112L197.168 218.145C197.527 218.3 197.709 218.751 197.593 219.174C196.308 223.634 194.493 227.867 192.897 231.487C191.906 233.702 191.01 235.643 190.169 237.432C189.057 239.804 187.705 241.83 186.539 243.477C183.618 247.512 180.441 250.787 177.051 253.215C173.445 255.842 169.335 257.711 165.17 258.639C165.007 258.667 164.858 258.662 164.72 258.59L164.735 258.572ZM165.72 255.612L165.799 256.667C169.468 255.744 173.061 254.047 176.245 251.734C179.461 249.418 182.501 246.303 185.287 242.444C186.408 240.867 187.704 238.961 188.726 236.728C189.584 234.938 190.464 233.014 191.44 230.817C192.908 227.472 194.567 223.582 195.8 219.525L194.722 219.059C192.837 222.352 191.247 225.839 189.492 229.986C188.568 232.211 187.774 234.179 187.068 236.007L186.79 236.708C186.693 236.964 186.579 237.205 186.465 237.445C186.253 237.926 186.007 238.392 185.762 238.875C185.213 239.928 184.702 240.829 184.183 241.631C181.937 245.184 179.018 248.373 175.732 250.86C172.616 253.185 169.167 254.821 165.705 255.629L165.72 255.612Z" fill="#F2A638"/>
<path d="M187.186 248.786C187.73 250.304 188.241 251.825 188.738 253.363C189.218 254.903 189.698 256.442 190.131 258.019C190.564 259.595 190.964 261.174 191.317 262.789C191.67 264.405 191.977 266.057 192.172 267.767L188.865 268.447C188.632 265.347 188.063 262.188 187.366 259.089C187.018 257.54 186.637 255.993 186.239 254.447C185.843 252.918 185.412 251.374 184.951 249.866L187.184 248.769L187.186 248.786Z" fill="#F2A638"/>
<path d="M188.483 269.29C188.483 269.29 188.362 269.233 188.309 269.187C188.134 269.051 188.035 268.843 188.017 268.595C187.783 265.279 187.101 261.93 186.545 259.384C186.242 257.997 185.884 256.531 185.421 254.775C184.98 253.1 184.555 251.622 184.136 250.227C184.003 249.789 184.228 249.258 184.643 249.061L186.876 247.964C187.29 247.75 187.751 247.948 187.917 248.383C188.418 249.772 188.909 251.244 189.471 252.993C190.035 254.776 190.479 256.268 190.866 257.682C191.253 259.079 191.692 260.738 192.073 262.501C192.503 264.475 192.769 266.031 192.951 267.576C192.969 267.807 192.922 268.06 192.772 268.27C192.639 268.479 192.434 268.611 192.206 268.661L188.9 269.341C188.753 269.369 188.604 269.364 188.466 269.291L188.483 269.29ZM185.963 250.338C186.316 251.506 186.658 252.758 187.027 254.14C187.491 255.913 187.851 257.395 188.173 258.814C188.7 261.196 189.328 264.267 189.613 267.397L191.258 267.057C191.085 265.859 190.857 264.583 190.528 263.065C190.15 261.352 189.729 259.708 189.345 258.344C188.959 256.947 188.518 255.487 187.971 253.72C187.519 252.328 187.113 251.114 186.713 249.967L185.978 250.321L185.963 250.338Z" fill="#F2A638"/>
<path d="M283.343 156.57L273.255 206.688C272.242 211.685 267.889 214.815 263.522 213.662L219.719 202.117C215.352 200.964 212.615 195.981 213.628 190.971L223.716 140.852C224.729 135.855 229.082 132.725 233.449 133.878L277.252 145.423C281.618 146.576 284.356 151.559 283.343 156.57Z" fill="#A82D2D"/>
<path d="M252.928 150.227C252.681 150.529 252.489 150.749 252.27 150.996C252.065 151.243 251.846 151.463 251.641 151.683C251.216 152.136 250.792 152.575 250.34 153C249.464 153.865 248.575 154.661 247.671 155.458C245.851 157.022 243.975 158.464 242.059 159.837C241.087 160.496 240.129 161.168 239.13 161.786C238.158 162.431 237.145 163.021 236.145 163.612C235.146 164.216 234.12 164.737 233.12 165.3C232.094 165.835 231.067 166.343 230.04 166.865L230.67 165.259L235.05 180.455L233.243 179.604C235.598 178.135 237.952 176.666 240.32 175.239C242.689 173.797 245.057 172.37 247.438 170.97C249.82 169.569 252.188 168.142 254.584 166.769C256.979 165.396 259.402 164.078 261.866 162.857L262.92 165.204C260.634 166.81 258.28 168.293 255.912 169.734C253.543 171.175 251.148 172.548 248.78 173.962C246.398 175.376 244.003 176.749 241.621 178.135C239.225 179.522 236.83 180.867 234.407 182.212L233.011 182.981L232.6 181.347L228.466 166.055L228.165 164.929L229.096 164.449C230.081 163.886 231.067 163.351 232.039 162.774C232.997 162.17 233.983 161.621 234.913 160.976C235.858 160.358 236.802 159.741 237.733 159.068C238.664 158.423 239.568 157.723 240.471 157.036C242.264 155.636 244.016 154.153 245.673 152.575C246.508 151.779 247.315 150.982 248.095 150.145C248.492 149.733 248.862 149.294 249.245 148.868C249.423 148.649 249.615 148.443 249.793 148.223C249.971 148.017 250.149 147.77 250.286 147.605L252.941 150.255L252.928 150.227Z" fill="#F2A638"/>
<path d="M253.42 172.137C252.832 172.48 252.243 172.837 251.655 173.18C250.806 173.674 249.957 174.168 249.122 174.676C246.672 176.131 244.167 177.573 241.949 178.849C239.855 180.071 237.555 181.362 234.736 182.926L233.339 183.695C233.148 183.805 232.929 183.805 232.737 183.695C232.545 183.599 232.395 183.407 232.34 183.174L231.929 181.54L227.494 165.136C227.385 164.738 227.563 164.326 227.878 164.147L228.808 163.667L229.849 163.077C230.478 162.72 231.094 162.377 231.71 162.006C232.039 161.8 232.381 161.594 232.737 161.374C233.339 161.004 233.969 160.633 234.558 160.235C235.516 159.604 236.46 158.986 237.35 158.341C238.089 157.833 238.815 157.284 239.513 156.748L240.088 156.309C242.004 154.799 243.688 153.358 245.221 151.902C246.179 150.983 246.946 150.228 247.603 149.5C247.986 149.102 248.342 148.69 248.684 148.292L248.903 148.031C249.013 147.894 249.136 147.771 249.232 147.633C249.41 147.427 249.588 147.194 249.697 147.029C249.82 146.865 249.998 146.755 250.19 146.741C250.381 146.727 250.573 146.796 250.724 146.947L253.379 149.596C253.53 149.747 253.612 149.953 253.626 150.173C253.626 150.392 253.571 150.612 253.434 150.777C253.174 151.093 252.982 151.312 252.75 151.573C252.613 151.738 252.462 151.889 252.312 152.053L252.106 152.273C251.654 152.74 251.23 153.193 250.778 153.618C250.012 154.373 249.163 155.156 248.082 156.089C246.384 157.558 244.523 159 242.415 160.51L241.812 160.921C241.046 161.443 240.252 161.992 239.444 162.486C238.472 163.118 237.46 163.722 236.474 164.298C235.803 164.696 235.132 165.067 234.475 165.424C234.12 165.616 233.764 165.808 233.408 166.001C232.888 166.275 232.367 166.536 231.861 166.797L234.955 177.532C236.816 176.378 238.445 175.376 239.965 174.47C242.497 172.933 244.783 171.546 247.096 170.201C247.945 169.707 248.78 169.199 249.629 168.705C251.162 167.799 252.709 166.879 254.255 165.987C257.061 164.381 259.388 163.132 261.579 162.061C261.921 161.896 262.332 162.061 262.496 162.445L263.55 164.793C263.728 165.177 263.605 165.644 263.29 165.877C261.264 167.291 259.019 168.746 256.254 170.435C255.309 171.011 254.365 171.574 253.407 172.137H253.42ZM249.232 172.754C249.82 172.411 250.409 172.054 250.997 171.711C252.531 170.805 254.064 169.913 255.583 168.979C258.074 167.469 260.128 166.152 261.976 164.875L261.538 163.887C259.553 164.875 257.431 166.028 254.912 167.469C253.366 168.348 251.832 169.268 250.313 170.174C249.464 170.668 248.629 171.176 247.781 171.67C245.481 173.015 243.195 174.402 240.663 175.939C239.088 176.886 237.391 177.93 235.447 179.138L235.748 180.167C235.776 180.277 235.79 180.401 235.776 180.51C237.856 179.344 239.65 178.328 241.306 177.367C243.524 176.09 246.029 174.663 248.465 173.207C248.725 173.056 248.985 172.905 249.232 172.754ZM233.476 181.787L234.106 181.444C234.297 181.334 234.475 181.238 234.653 181.142L233.107 180.414L233.462 181.801L233.476 181.787ZM229.616 167.497L232.723 178.987C232.723 178.987 232.833 178.891 232.888 178.849C233.161 178.685 233.421 178.506 233.682 178.355L230.547 167.483L230.328 167.593C230.328 167.593 230.246 167.634 230.205 167.648C229.999 167.703 229.78 167.648 229.616 167.511V167.497ZM231.437 165.246C231.902 165.012 232.367 164.779 232.819 164.532C233.161 164.34 233.517 164.147 233.887 163.955C234.53 163.612 235.187 163.255 235.817 162.871C236.816 162.28 237.815 161.69 238.774 161.059C239.568 160.564 240.348 160.029 241.101 159.521L241.689 159.123C243.756 157.654 245.577 156.24 247.247 154.799C248.301 153.879 249.136 153.124 249.889 152.383C250.327 151.957 250.751 151.518 251.162 151.079L251.367 150.859C251.504 150.708 251.641 150.571 251.778 150.42C251.819 150.379 251.86 150.338 251.901 150.283L250.354 148.745C250.354 148.745 250.34 148.773 250.327 148.773C250.217 148.91 250.094 149.061 249.971 149.212L249.793 149.432L249.738 149.486C249.369 149.912 248.999 150.324 248.616 150.736C247.931 151.477 247.151 152.259 246.165 153.193C244.591 154.675 242.88 156.158 240.909 157.695L240.334 158.135C239.622 158.67 238.883 159.233 238.13 159.755C237.227 160.413 236.269 161.045 235.338 161.649C234.694 162.088 234.051 162.473 233.435 162.843C233.093 163.049 232.751 163.255 232.408 163.475C231.861 163.804 231.313 164.106 230.766 164.408C231.053 164.436 231.286 164.655 231.382 164.971L231.464 165.246H231.437ZM229.041 165.355L229.37 166.563C229.37 166.563 229.37 166.522 229.397 166.508L230.027 164.902C230.027 164.902 230.054 164.834 230.068 164.806L229.055 165.369L229.041 165.355Z" fill="#F2A638"/>
<path d="M243.865 162.349C245.097 164.463 246.233 166.646 247.328 168.856C248.437 171.052 249.477 173.29 250.504 175.527C251.53 177.779 252.53 180.03 253.515 182.295L254.994 185.699L256.431 189.118L256.28 188.857C256.28 188.857 256.362 189.008 256.39 189.049L256.445 189.159C256.472 189.227 256.513 189.31 256.527 189.378C256.568 189.502 256.609 189.639 256.636 189.763C256.664 189.886 256.677 189.996 256.705 190.12C256.718 190.23 256.718 190.339 256.732 190.463C256.746 190.902 256.691 191.3 256.609 191.657L256.54 191.918L256.458 192.151C256.403 192.302 256.349 192.453 256.28 192.604C256.143 192.851 256.007 193.14 255.856 193.346C255.705 193.552 255.555 193.785 255.404 193.977L254.939 194.526C254.61 194.842 254.295 195.171 253.953 195.432C253.625 195.707 253.283 195.981 252.94 196.201C252.598 196.448 252.256 196.668 251.914 196.874C251.229 197.313 250.517 197.656 249.819 198.027L248.752 195.679C249.354 195.226 249.97 194.801 250.531 194.334C250.668 194.224 250.819 194.101 250.955 193.991L251.366 193.634C251.654 193.401 251.9 193.153 252.146 192.893C252.406 192.646 252.598 192.371 252.831 192.124L253.118 191.74C253.214 191.616 253.269 191.492 253.351 191.369C253.433 191.245 253.447 191.136 253.515 191.026C253.529 190.971 253.543 190.93 253.556 190.888L253.584 190.82C253.584 190.82 253.584 190.792 253.584 190.779C253.584 190.71 253.584 190.683 253.584 190.71C253.584 190.71 253.584 190.737 253.584 190.779C253.584 190.779 253.584 190.834 253.611 190.861L253.638 190.93V190.971C253.638 190.971 253.707 191.053 253.734 191.094L253.584 190.834L251.982 187.511L250.408 184.162C249.368 181.924 248.341 179.687 247.328 177.436C246.329 175.184 245.343 172.906 244.412 170.599C243.482 168.293 242.592 165.973 241.798 163.598L243.851 162.39L243.865 162.349Z" fill="#F2A638"/>
<path d="M251.859 197.834C251.435 198.081 250.997 198.315 250.559 198.534L250.135 198.754C249.779 198.933 249.368 198.782 249.19 198.383L248.136 196.036C247.972 195.665 248.068 195.199 248.383 194.965L248.848 194.622C249.286 194.306 249.724 193.977 250.135 193.647L250.299 193.51C250.381 193.442 250.463 193.373 250.545 193.304L250.942 192.947C251.216 192.714 251.449 192.481 251.681 192.247C251.859 192.083 251.969 191.945 252.092 191.808C252.174 191.712 252.243 191.63 252.325 191.533L252.585 191.177C252.585 191.177 252.653 191.08 252.667 191.039C252.708 190.971 252.736 190.902 252.777 190.847L251.339 187.868L249.765 184.519C248.615 182.062 247.616 179.851 246.685 177.779C245.494 175.102 244.563 172.919 243.756 170.915C242.989 169.007 241.99 166.481 241.114 163.859C240.977 163.461 241.128 163.022 241.456 162.829L243.509 161.621C243.838 161.429 244.235 161.553 244.44 161.896C245.795 164.23 247.014 166.618 247.931 168.444C248.889 170.352 249.902 172.48 251.12 175.143C252.065 177.216 253.05 179.44 254.145 181.924L257.047 188.733V188.761C257.116 188.884 257.171 189.008 257.198 189.09C257.253 189.241 257.307 189.406 257.335 189.557C257.362 189.694 257.39 189.818 257.403 189.955C257.417 190.106 257.431 190.216 257.431 190.325C257.458 190.888 257.403 191.382 257.28 191.863L257.212 192.124C257.212 192.124 257.198 192.179 257.184 192.206L257.061 192.536C257.006 192.673 256.952 192.824 256.897 192.947L256.774 193.194C256.664 193.414 256.541 193.634 256.404 193.84L256.281 194.018C256.158 194.197 256.034 194.375 255.898 194.526L255.131 195.363C254.871 195.611 254.611 195.871 254.323 196.091C254.022 196.352 253.666 196.64 253.283 196.887C252.941 197.134 252.571 197.368 252.215 197.587C252.078 197.67 251.955 197.752 251.818 197.834H251.859ZM250.162 196.928C250.655 196.681 251.12 196.42 251.572 196.132C251.914 195.926 252.243 195.72 252.571 195.473C252.927 195.24 253.242 194.979 253.543 194.732C253.79 194.554 254.009 194.334 254.241 194.101L254.501 193.853L254.926 193.359C255.021 193.249 255.104 193.126 255.199 192.989L255.336 192.783C255.432 192.659 255.501 192.494 255.583 192.343L255.692 192.124C255.692 192.124 255.747 191.973 255.788 191.863L255.939 191.382C256.021 191.08 256.048 190.765 256.034 190.463C256.034 190.339 256.034 190.271 256.021 190.202C256.021 190.133 255.993 190.023 255.966 189.927C255.952 189.845 255.911 189.749 255.884 189.667C255.87 189.612 255.843 189.557 255.829 189.516L255.692 189.268C255.637 189.172 255.61 189.063 255.596 188.953L252.886 182.624C251.805 180.14 250.819 177.93 249.875 175.87C248.67 173.235 247.657 171.121 246.713 169.226C245.891 167.579 244.81 165.479 243.619 163.392L242.716 163.928C243.509 166.248 244.385 168.471 245.084 170.187C245.878 172.178 246.808 174.333 247.986 176.982C248.916 179.055 249.916 181.252 251.052 183.695L254.05 190.01C254.159 190.12 254.228 190.271 254.269 190.422C254.269 190.422 254.269 190.463 254.269 190.476L254.323 190.573C254.529 190.943 254.447 191.424 254.132 191.684C254.063 191.739 253.995 191.781 253.913 191.808C253.899 191.835 253.885 191.863 253.872 191.877C253.817 191.986 253.748 192.096 253.666 192.206L253.393 192.577C253.393 192.577 253.351 192.618 253.338 192.645C253.269 192.728 253.187 192.81 253.119 192.892C252.955 193.085 252.79 193.277 252.599 193.455C252.38 193.689 252.106 193.963 251.791 194.21L251.408 194.554C251.298 194.65 251.202 194.718 251.107 194.801L250.956 194.924C250.559 195.254 250.135 195.569 249.697 195.885L250.148 196.873L250.162 196.928Z" fill="#F2A638"/>
<path d="M241.716 183.599C241.867 185.013 241.976 186.372 242.072 187.772C242.154 189.158 242.209 190.558 242.223 191.959C242.223 193.359 242.223 194.773 242.099 196.214C241.99 197.656 241.826 199.111 241.442 200.621L238.226 199.399C238.581 198.314 238.814 197.065 239.006 195.789C239.197 194.512 239.293 193.194 239.375 191.876C239.458 190.558 239.485 189.213 239.499 187.868C239.499 186.536 239.485 185.177 239.43 183.859L241.73 183.599H241.716Z" fill="#F2A638"/>
<path d="M241.772 201.349C241.594 201.445 241.402 201.473 241.21 201.404L237.994 200.182C237.802 200.114 237.651 199.963 237.569 199.757C237.487 199.551 237.473 199.318 237.542 199.112C237.843 198.206 238.076 197.107 238.281 195.652C238.473 194.335 238.568 192.975 238.637 191.822C238.705 190.656 238.746 189.365 238.746 187.869C238.746 186.428 238.733 185.096 238.678 183.915C238.664 183.476 238.938 183.092 239.321 183.051L241.621 182.79C242.004 182.749 242.36 183.064 242.401 183.504C242.538 184.794 242.661 186.126 242.757 187.718C242.853 189.324 242.908 190.669 242.908 191.96C242.908 193.236 242.908 194.76 242.785 196.298C242.675 197.629 242.511 199.194 242.1 200.855C242.045 201.075 241.922 201.253 241.744 201.349H241.772ZM239.143 198.878L240.937 199.565C241.183 198.343 241.306 197.162 241.388 196.147C241.512 194.678 241.512 193.209 241.512 191.973C241.512 190.724 241.457 189.406 241.361 187.841C241.279 186.606 241.197 185.535 241.101 184.519L240.184 184.629C240.211 185.631 240.238 186.73 240.225 187.896C240.225 189.42 240.184 190.752 240.102 191.946C240.033 193.14 239.924 194.554 239.718 195.941C239.554 197.094 239.362 198.055 239.143 198.892V198.878Z" fill="#F2A638"/>
<path d="M258.306 171.464C260.428 173.139 262.508 174.828 264.589 176.557C265.629 177.422 266.656 178.301 267.696 179.179C268.723 180.071 269.75 180.977 270.763 181.98L269.312 184.039C268.326 183.229 267.258 182.446 266.191 181.678C265.123 180.909 264.042 180.154 262.946 179.413C260.77 177.916 258.566 176.461 256.362 175.02L258.306 171.464Z" fill="#F2A638"/>
<path d="M269.627 184.779C269.395 184.916 269.107 184.903 268.875 184.711C267.889 183.887 266.821 183.104 265.795 182.377C264.727 181.608 263.659 180.853 262.564 180.112C260.47 178.684 258.266 177.202 255.994 175.733C255.829 175.623 255.693 175.431 255.651 175.225C255.597 175.005 255.638 174.772 255.734 174.58L257.677 171.024C257.787 170.832 257.951 170.695 258.143 170.654C258.334 170.612 258.54 170.654 258.704 170.777C260.88 172.493 262.934 174.168 265.001 175.884C266.041 176.749 267.081 177.627 268.122 178.519C269.121 179.384 270.175 180.318 271.215 181.361C271.503 181.649 271.544 182.157 271.297 182.5L269.846 184.56C269.778 184.656 269.71 184.724 269.614 184.779H269.627ZM257.376 174.731C259.43 176.076 261.428 177.408 263.317 178.698C264.412 179.439 265.494 180.208 266.575 180.977C267.424 181.581 268.313 182.24 269.176 182.926L269.764 182.089C268.929 181.279 268.081 180.537 267.273 179.837C266.246 178.945 265.22 178.08 264.179 177.215C262.318 175.678 260.47 174.168 258.526 172.63L257.376 174.717V174.731Z" fill="#F2A638"/>
<path d="M44.1054 30.0087L41.2655 31.5211C34.5749 18.9225 37.848 8.97881 51.0206 1.93131C62.0111 -3.9416 70.9158 4.94017 74.0926 10.4591L71.3169 12.0681C70.996 11.5211 63.5193 -1.10972 52.5288 4.76319C40.9286 10.9579 38.2491 18.9869 44.1054 29.9926V30.0087Z" fill="#A82D2D"/>
<path d="M113.581 108.892L108.096 109.029L108.63 130.663L114.116 130.527L113.581 108.892Z" fill="#A82D2D"/>
<path d="M41.5215 32.4062C41.5215 32.4062 15.3689 52.3741 35.954 91.1031C56.5392 129.832 85.1626 114.53 85.1626 114.53L127.777 91.7628C127.777 91.7628 149.87 75.367 129.943 37.8769C110.016 0.386791 75.2952 14.353 75.2952 14.353L41.5215 32.4062Z" fill="#A82D2D"/>
<path d="M89.8634 116.011C89.3981 115.978 42.853 111.344 36.1143 38.6491L38.5049 38.4238C45.0671 109.124 89.6067 113.565 90.056 113.613L89.8634 116.011Z" fill="#F2A638"/>
<path d="M120.38 99.6308L118.198 98.6332C118.358 98.2632 134.323 61.0144 79.5146 16.509L81.0228 14.6426C97.2278 27.8043 117.508 48.8342 122.065 74.2888C124.824 89.6549 120.573 99.2447 120.38 99.6469V99.6308Z" fill="#F2A638"/>
<path d="M104.737 107.643C103.582 106.984 76.178 90.7164 61.417 26.4201L63.7595 25.873C71.3325 58.874 82.4032 78.7775 90.3613 89.6706C98.9612 101.449 105.86 105.487 105.925 105.535L104.737 107.627V107.643Z" fill="#F2A638"/>
<path d="M85.1621 114.53C85.1621 114.53 102.843 99.4538 127.776 91.7627C127.776 91.7627 132.044 96.2518 132.927 101.465C132.927 101.465 118.968 114.321 90.7937 125.118C90.7937 125.118 86.3654 123.911 85.1782 114.53H85.1621Z" fill="#FF584B"/>
<path d="M32.8098 25.809C39.4843 20.7084 56.7482 8.59252 79.3229 0.837064C82.0344 -0.0961657 85.0187 0.933607 86.575 3.34713C87.281 4.44126 88.019 5.72848 88.6447 7.11223C89.7839 9.67057 88.9817 12.6955 86.7836 14.4172C80.462 19.389 65.0432 30.2821 40.3668 40.1775C37.5269 41.3199 34.3019 40.258 32.7135 37.6353C31.8953 36.2998 31.1251 34.5138 30.5154 32.1324C29.9218 29.7672 30.8524 27.2732 32.7777 25.7929L32.8098 25.809Z" fill="#FF584B"/>
<path d="M116.979 133.26C117.06 136.317 114.637 138.875 111.589 138.94C108.54 139.02 105.989 136.59 105.925 133.533C105.845 130.476 108.267 127.918 111.316 127.854C114.364 127.773 116.915 130.203 116.979 133.26Z" fill="#FF584B"/>
<path d="M118.616 142.318C118.712 146.147 140.34 162.495 112.198 163.203C83.5903 163.911 104.849 146.501 104.753 142.672C104.657 138.842 107.689 135.64 111.508 135.56C115.326 135.463 118.519 138.504 118.599 142.334L118.616 142.318Z" fill="#FF584B"/>
<path d="M275.953 267.173L272.686 267.254L272.367 254.368L275.634 254.287L275.953 267.173Z" fill="#A82D2D"/>
<path d="M277.655 267.189C277.703 269.01 276.26 270.533 274.444 270.572C272.629 270.62 271.109 269.173 271.071 267.352C271.023 265.531 272.466 264.007 274.282 263.969C276.097 263.921 277.617 265.368 277.655 267.189Z" fill="#FF584B"/>
<path d="M267.497 277.586C265.844 277.289 264.821 275.574 265.232 273.945C265.805 271.674 267.755 267.016 273.957 267.016C282.165 267.016 283.742 275.162 283.742 275.162C283.742 275.162 283.494 278.401 280.761 277.404C278.028 276.408 280.512 275.076 277.779 275.162C275.046 275.248 277.531 277.701 274.874 277.596C272.218 277.491 273.297 274.913 271.472 274.989C269.647 275.076 270.23 278.037 267.573 277.596C267.545 277.596 267.516 277.596 267.497 277.586Z" fill="#FF584B"/>
<path d="M309.668 187.408L308.043 186.402C309.285 184.38 312.248 178.409 311.13 175.161C310.805 174.212 310.155 173.57 309.132 173.196C307.986 172.775 306.925 172.822 305.864 173.359C302.147 175.237 300.102 182.204 300.083 182.281L298.248 181.754C298.344 181.438 300.542 173.915 305.004 171.653C306.533 170.877 308.148 170.791 309.801 171.404C311.369 171.989 312.42 173.043 312.936 174.538C314.579 179.31 309.868 187.082 309.668 187.408Z" fill="#A82D2D"/>
<path d="M283.227 185.118C277.397 193.206 266.255 211.175 259.298 238.247C258.352 241.937 259.699 245.828 262.738 248.128C266.933 251.319 273.776 255.43 282.844 257.28C286.504 258.027 290.231 256.427 292.334 253.331C297.962 245.004 309.257 226.259 316.424 200.575C317.523 196.637 315.985 192.458 312.602 190.178C308.426 187.37 301.909 183.805 293.222 181.514C289.467 180.527 285.501 181.955 283.236 185.108L283.227 185.118Z" fill="#A82D2D"/>
<path d="M294.522 176.051C298.182 176.923 307.231 179.54 315.975 185.702C317.026 186.44 317.399 187.954 316.883 189.372C316.644 190.024 316.348 190.742 315.975 191.452C315.297 192.765 313.93 193.474 312.707 193.196C309.19 192.42 301.077 190.1 290.977 183.852C289.82 183.133 289.39 181.514 289.983 180.019C290.289 179.252 290.766 178.342 291.521 177.297C292.267 176.262 293.461 175.783 294.522 176.032V176.051Z" fill="#FF584B"/>
<path d="M263.588 247.437C266.713 248.3 274.472 250.763 282.184 255.813C283.111 256.417 283.512 257.548 283.159 258.563C282.996 259.023 282.796 259.541 282.519 260.039C282.022 260.959 280.923 261.4 279.881 261.132C276.88 260.346 269.924 258.17 261.075 252.967C260.062 252.373 259.603 251.155 260.014 250.092C260.224 249.545 260.578 248.903 261.142 248.185C261.705 247.466 262.68 247.188 263.588 247.437Z" fill="#FF584B"/>
<mask id="mask0_560_732" style="mask-type:luminance" maskUnits="userSpaceOnUse" x="259" y="181" width="58" height="77">
<path d="M283.227 185.118C277.397 193.206 266.255 211.175 259.298 238.247C258.352 241.937 259.699 245.828 262.738 248.128C266.933 251.319 273.776 255.43 282.844 257.28C286.504 258.027 290.231 256.427 292.334 253.331C297.962 245.004 309.257 226.259 316.424 200.575C317.523 196.637 315.985 192.458 312.602 190.178C308.426 187.37 301.909 183.805 293.222 181.514C289.467 180.527 285.501 181.955 283.236 185.108L283.227 185.118Z" fill="white"/>
</mask>
<g mask="url(#mask0_560_732)">
<path d="M296.061 198.965C293.385 197.739 291.12 196.454 289.285 195.295C283.504 191.624 280.637 188.309 280.522 188.175L281.612 187.235C281.726 187.37 293.089 200.355 315.88 202.961L315.717 204.389C307.719 203.469 301.144 201.304 296.061 198.965Z" fill="#F2A638"/>
<path d="M288.415 215.382C285.338 213.964 282.739 212.497 280.627 211.156C273.985 206.939 270.698 203.134 270.564 202.981L271.654 202.042C271.787 202.195 284.889 217.174 311.168 220.183L311.006 221.611C301.813 220.557 294.254 218.065 288.415 215.372V215.382Z" fill="#F2A638"/>
<path d="M281.602 230.274C278.525 228.855 275.926 227.389 273.814 226.047C267.173 221.831 263.885 218.026 263.752 217.873L264.841 216.934C264.965 217.087 278.076 232.066 304.355 235.075L304.193 236.503C295 235.448 287.441 232.957 281.602 230.264V230.274Z" fill="#F2A638"/>
<path d="M274.789 245.166C271.712 243.747 269.113 242.281 267.001 240.939C260.359 236.723 257.072 232.918 256.938 232.765L258.028 231.826C258.161 231.979 271.263 246.958 297.542 249.967L297.38 251.395C288.187 250.341 280.628 247.849 274.789 245.156V245.166Z" fill="#F2A638"/>
</g>
</svg>
