<svg width="91" height="279" viewBox="0 0 91 279" fill="none" xmlns="http://www.w3.org/2000/svg">
<path d="M44.116 277.745L0.277832 270.708L26.1382 45.9321L60.0546 0.273193L72.0099 2.19479L89.9038 56.1675L44.116 277.745Z" fill="#DDC6A2" stroke="#AF8446" stroke-width="0.504209" stroke-miterlimit="10"/>
<path d="M5.13525 267.162L30.2169 47.3495L62.1165 4.95673L68.3182 5.94273L85.4445 56.1619L40.8781 272.865L5.13525 267.162Z" stroke="#AF8446" stroke-width="0.504209" stroke-miterlimit="10"/>
<path d="M56.4353 81.6977C68.1402 81.6977 77.6288 72.209 77.6288 60.5041C77.6288 48.7992 68.1402 39.3105 56.4353 39.3105C44.7304 39.3105 35.2417 48.7992 35.2417 60.5041C35.2417 72.209 44.7304 81.6977 56.4353 81.6977Z" fill="#C7A470"/>
<path d="M44.4521 55.0863L49.455 47.0974L52.9565 49.2151L52.5195 49.8706L58.2674 50.7893L57.7296 54.1507L52.9004 53.3832L55.1862 55.0807L53.5671 57.2152L50.4354 54.879L51.7071 53.1927L50.5699 53.0135L47.8359 57.2488L44.4521 55.0975V55.0863ZM44.5081 58.5486L56.8949 56.9071L68.9007 62.8848L66.755 65.8764L62.3347 63.6131L61.9258 66.1621L49.399 64.1621L49.8248 61.5066L61.9202 63.4338L56.3122 60.5934L45.2869 62.0612L44.5138 58.543L44.5081 58.5486ZM67.4216 71.0978L66.8838 74.4592L42.6426 70.5936L43.1804 67.2322L46.4353 67.7532L46.8947 64.8792L50.962 65.529L50.5026 68.403L53.4831 68.8792L53.9425 66.0052L58.0097 66.6551L57.5503 69.5291L60.5308 70.0053L60.979 67.1873L65.0463 67.8372L64.5981 70.6552L67.416 71.1034L67.4216 71.0978ZM61.5392 49.4168L65.1191 51.3776L64.7437 51.9826L69.7354 52.7782L69.1976 56.1396L64.9678 55.4673L67.8978 57.6578L66.2059 59.8931L62.9286 57.4225L64.4748 55.3888L62.7941 55.1199L60.6988 58.5093L57.2534 56.4029L61.5392 49.4112V49.4168Z" fill="#F7E3BE"/>
</svg>
