<svg width="66" height="278" viewBox="0 0 66 278" fill="none" xmlns="http://www.w3.org/2000/svg">
<path d="M62.9132 275.981L18.5428 277.595L0.256836 52.0734L24.6549 0.700152L36.756 0.257568L64.7956 49.7261L62.9132 275.981Z" fill="#FBD089" stroke="#AF8446" stroke-width="0.504209" stroke-miterlimit="10"/>
<path d="M22.6212 273.169L4.53125 52.6726L27.5904 4.88485L33.8706 4.65515L60.42 50.5886L58.7897 271.819L22.6212 273.169Z" fill="url(#paint0_linear_695_796)" stroke="#AF8446" stroke-width="0.504209" stroke-miterlimit="10"/>
<path d="M32.8064 81.6762C44.5113 81.6762 54 72.1875 54 60.4826C54 48.7778 44.5113 39.2891 32.8064 39.2891C21.1015 39.2891 11.6128 48.7778 11.6128 60.4826C11.6128 72.1875 21.1015 81.6762 32.8064 81.6762Z" fill="#DC8200"/>
<path d="M19.9993 57.496L23.355 48.6891L27.1982 50.0841L26.8957 50.8124L32.7109 50.5939L32.8398 53.9945L27.9545 54.1738L30.526 55.3951L29.3495 57.8041L25.8257 56.1234L26.7445 54.2186L25.5904 54.2634L23.7304 58.947L19.9937 57.4904L19.9993 57.496ZM20.7276 60.8742L32.5597 56.8629L45.4954 60.3924L43.9716 63.7482L39.1928 62.3868L39.288 64.9639L26.61 65.4345L26.5092 62.7454L38.7446 62.2916L32.6885 60.5941L22.1617 64.1739L20.722 60.8742H20.7276ZM45.6411 68.7398L45.7699 72.1404L21.2374 73.0536L21.1085 69.653L24.4027 69.5298L24.2962 66.6222L28.4139 66.4709L28.5204 69.3785L31.54 69.2665L31.4336 66.3589L35.5513 66.2076L35.6577 69.1152L38.6774 69.0032L38.571 66.1516L42.6887 66.0003L42.7951 68.8519L45.6467 68.7454L45.6411 68.7398ZM35.6577 48.6163L39.5514 49.8432L39.2992 50.5099L44.3469 50.3194L44.4758 53.72L40.1956 53.8769L43.4954 55.4567L42.2685 57.9778L38.5766 56.1906L39.7026 53.8937L37.9995 53.9553L36.5989 57.6921L32.8118 56.2971L35.6577 48.6051V48.6163Z" fill="#F7E3BE"/>
<defs>
<linearGradient id="paint0_linear_695_796" x1="38.2139" y1="194.615" x2="66.987" y2="22.7159" gradientUnits="userSpaceOnUse">
<stop stop-color="#FDB948"/>
<stop offset="1" stop-color="#FFE9C5" stop-opacity="0.7"/>
</linearGradient>
</defs>
</svg>
