<svg width="91" height="279" viewBox="0 0 91 279" fill="none" xmlns="http://www.w3.org/2000/svg">
<path d="M44.116 277.745L0.277832 270.708L26.1381 45.9321L60.0546 0.273193L72.0099 2.19479L89.9038 56.1675L44.116 277.745Z" fill="#FBD089" stroke="#AF8446" stroke-width="0.504209" stroke-miterlimit="10"/>
<path d="M5.14062 267.162L30.2166 47.3492L62.1162 4.95642L68.318 5.94243L85.4443 56.1616L40.8778 272.865L5.14062 267.162Z" fill="url(#paint0_linear_695_790)" stroke="#AF8446" stroke-width="0.504209" stroke-miterlimit="10"/>
<path d="M56.4353 81.6975C68.1402 81.6975 77.6289 72.2088 77.6289 60.5039C77.6289 48.799 68.1402 39.3103 56.4353 39.3103C44.7304 39.3103 35.2417 48.799 35.2417 60.5039C35.2417 72.2088 44.7304 81.6975 56.4353 81.6975Z" fill="#DC8200"/>
<path d="M44.4521 55.0866L49.455 47.0977L52.9565 49.2153L52.5195 49.8708L58.2674 50.7896L57.7296 54.151L52.9004 53.3835L55.1862 55.081L53.5671 57.2155L50.4354 54.8793L51.7071 53.193L50.5699 53.0137L47.8359 57.2491L44.4521 55.0978V55.0866ZM44.5138 58.5432L56.9005 56.9017L68.9063 62.8794L66.7606 65.871L62.3403 63.6077L61.9314 66.1568L49.4046 64.1567L49.8303 61.5012L61.9258 63.4284L56.3178 60.588L45.2925 62.0559L44.5193 58.5376L44.5138 58.5432ZM67.4216 71.098L66.8838 74.4594L42.6426 70.5938L43.1804 67.2324L46.4353 67.7534L46.8947 64.8794L50.962 65.5293L50.5026 68.4033L53.4831 68.8795L53.9425 66.0055L58.0097 66.6554L57.5503 69.5294L60.5308 70.0055L60.979 67.1876L65.0463 67.8374L64.5981 70.6554L67.416 71.1036L67.4216 71.098ZM61.5392 49.417L65.1191 51.3778L64.7437 51.9829L69.7354 52.7784L69.1976 56.1398L64.9678 55.4675L67.8978 57.658L66.2059 59.8934L62.9286 57.4227L64.4748 55.3891L62.7941 55.1202L60.6988 58.5096L57.2534 56.4031L61.5392 49.4114V49.417Z" fill="#F7E3BE"/>
<defs>
<linearGradient id="paint0_linear_695_790" x1="53.5375" y1="194.489" x2="73.7578" y2="20.5214" gradientUnits="userSpaceOnUse">
<stop stop-color="#FDB948"/>
<stop offset="1" stop-color="#FFE9C5" stop-opacity="0.7"/>
</linearGradient>
</defs>
</svg>
