<svg width="214" height="426" viewBox="0 0 214 426" fill="none" xmlns="http://www.w3.org/2000/svg">
<g filter="url(#filter0_d_600_3335)">
<path d="M136.913 345.981L92.5427 347.595L74.2567 122.073L98.6548 70.7001L110.756 70.2575L138.795 119.726L136.913 345.981Z" fill="#FBD089"/>
<path d="M136.913 345.981L92.5427 347.595L74.2567 122.073L98.6548 70.7001L110.756 70.2575L138.795 119.726L136.913 345.981Z" stroke="#DC8200" stroke-width="0.504209" stroke-miterlimit="10"/>
</g>
<path d="M96.621 343.169L78.5311 122.673L101.59 74.8848L107.87 74.6551L134.42 120.589L132.79 341.819L96.621 343.169Z" fill="url(#paint0_linear_600_3335)" stroke="#AF8446" stroke-width="0.504209" stroke-miterlimit="10"/>
<path d="M106.806 151.676C118.511 151.676 128 142.188 128 130.483C128 118.778 118.511 109.289 106.806 109.289C95.1012 109.289 85.6125 118.778 85.6125 130.483C85.6125 142.188 95.1012 151.676 106.806 151.676Z" fill="#D28618"/>
<path d="M93.9993 127.496L97.355 118.689L101.198 120.084L100.896 120.812L106.711 120.594L106.84 123.994L101.955 124.174L104.526 125.395L103.35 127.804L99.8257 126.123L100.744 124.219L99.5904 124.263L97.7304 128.947L93.9937 127.49L93.9993 127.496ZM94.7276 130.874L106.56 126.863L119.495 130.392L117.972 133.748L113.193 132.387L113.288 134.964L100.61 135.434L100.509 132.745L112.745 132.292L106.689 130.594L96.1617 134.174L94.722 130.874H94.7276ZM119.641 138.74L119.77 142.14L95.2374 143.054L95.1085 139.653L98.4027 139.53L98.2962 136.622L102.414 136.471L102.52 139.378L105.54 139.266L105.434 136.359L109.551 136.208L109.658 139.115L112.677 139.003L112.571 136.152L116.689 136L116.795 138.852L119.647 138.745L119.641 138.74ZM109.658 118.616L113.551 119.843L113.299 120.51L118.347 120.319L118.476 123.72L114.196 123.877L117.495 125.457L116.268 127.978L112.577 126.191L113.703 123.894L112 123.955L110.599 127.692L106.812 126.297L109.658 118.605V118.616Z" fill="white"/>
<defs>
<filter id="filter0_d_600_3335" x="0" y="0" width="213.048" height="425.856" filterUnits="userSpaceOnUse" color-interpolation-filters="sRGB">
<feFlood flood-opacity="0" result="BackgroundImageFix"/>
<feColorMatrix in="SourceAlpha" type="matrix" values="0 0 0 0 0 0 0 0 0 0 0 0 0 0 0 0 0 0 127 0" result="hardAlpha"/>
<feOffset dy="4"/>
<feGaussianBlur stdDeviation="37"/>
<feComposite in2="hardAlpha" operator="out"/>
<feColorMatrix type="matrix" values="0 0 0 0 1 0 0 0 0 1 0 0 0 0 1 0 0 0 0.65 0"/>
<feBlend mode="normal" in2="BackgroundImageFix" result="effect1_dropShadow_600_3335"/>
<feBlend mode="normal" in="SourceGraphic" in2="effect1_dropShadow_600_3335" result="shape"/>
</filter>
<linearGradient id="paint0_linear_600_3335" x1="112.214" y1="264.615" x2="140.987" y2="92.7159" gradientUnits="userSpaceOnUse">
<stop stop-color="#FFE9C5"/>
<stop offset="1" stop-color="white"/>
</linearGradient>
</defs>
</svg>
