<svg width="78" height="256" viewBox="0 0 78 256" fill="none" xmlns="http://www.w3.org/2000/svg">
<path d="M77.15 249.494L36.8097 254.875L0.238403 50.7398L17.9694 1.71622L28.9686 0.24762L58.9106 42.9089L77.15 249.494Z" fill="#FBD089" stroke="#AF8446" stroke-width="0.462147" stroke-miterlimit="10"/>
<path d="M40.1422 250.479L4.19226 50.9088L21.0144 5.27945L26.7194 4.51434L54.9925 44.0793L73.0214 246.058L40.1422 250.479Z" fill="url(#paint0_linear_657_1720)" stroke="#D98D1F" stroke-miterlimit="10"/>
<path d="M30.6733 74.9667C41.4017 74.9667 50.0989 66.2696 50.0989 55.5411C50.0989 44.8127 41.4017 36.1155 30.6733 36.1155C19.9448 36.1155 11.2477 44.8127 11.2477 55.5411C11.2477 66.2696 19.9448 74.9667 30.6733 74.9667Z" fill="#DC8200"/>
<path d="M18.7294 53.9488L21.0144 45.6147L24.6449 46.5493L24.4343 47.2374L29.7233 46.5287L30.1393 49.62L25.6975 50.2157L28.152 51.104L27.2945 53.4045L23.9311 52.1823L24.5986 50.3646L23.5511 50.5032L22.2674 54.9398L18.7294 53.9436V53.9488ZM19.6947 56.9681L30.1341 52.2645L42.2475 54.3442L41.1538 57.5381L36.6761 56.7165L36.9893 59.0632L25.4665 60.614L25.1378 58.1697L36.2653 56.6754L30.5911 55.6587L21.302 59.854L19.6947 56.9733V56.9681ZM43.1153 61.9439L43.5313 65.0352L21.2301 68.034L20.8142 64.9427L23.8079 64.5422L23.4535 61.8977L27.1969 61.3945L27.5512 64.039L30.2933 63.6693L29.939 61.0248L33.6824 60.5215L34.0367 63.166L36.7788 62.7963L36.4296 60.2032L40.173 59.6999L40.5222 62.2931L43.1153 61.9439ZM32.2343 44.4645L35.8956 45.2399L35.7261 45.8715L40.3168 45.2553L40.7327 48.3465L36.8404 48.8703L39.9933 50.0205L39.0998 52.4288L35.5721 51.1245L36.3937 48.9319L34.848 49.1373L33.8981 52.665L30.319 51.7253L32.2395 44.4594L32.2343 44.4645Z" fill="#F7E3BE"/>
<path d="M18.7294 53.9488L21.0144 45.6147L24.6449 46.5493L24.4343 47.2374L29.7233 46.5287L30.1393 49.62L25.6975 50.2157L28.152 51.104L27.2945 53.4045L23.9311 52.1823L24.5986 50.3646L23.5511 50.5032L22.2674 54.9398L18.7294 53.9436V53.9488ZM19.6947 56.9681L30.1341 52.2645L42.2475 54.3442L41.1538 57.5381L36.6761 56.7165L36.9893 59.0632L25.4665 60.614L25.1378 58.1697L36.2653 56.6754L30.5911 55.6587L21.302 59.854L19.6947 56.9733V56.9681ZM43.1153 61.9439L43.5313 65.0352L21.2301 68.034L20.8142 64.9427L23.8079 64.5422L23.4535 61.8977L27.1969 61.3945L27.5512 64.039L30.2933 63.6693L29.939 61.0248L33.6824 60.5215L34.0367 63.166L36.7788 62.7963L36.4296 60.2032L40.173 59.6999L40.5222 62.2931L43.1153 61.9439ZM32.2343 44.4645L35.8956 45.2399L35.7261 45.8715L40.3168 45.2553L40.7327 48.3465L36.8404 48.8703L39.9933 50.0205L39.0998 52.4288L35.5721 51.1245L36.3937 48.9319L34.848 49.1373L33.8981 52.665L30.319 51.7253L32.2395 44.4594L32.2343 44.4645Z" fill="url(#paint1_linear_657_1720)" fill-opacity="0.6"/>
<defs>
<linearGradient id="paint0_linear_657_1720" x1="45.6738" y1="178.522" x2="38.1282" y2="9.68972" gradientUnits="userSpaceOnUse">
<stop stop-color="#FDB948"/>
<stop offset="1" stop-color="#FFE8C2" stop-opacity="0.5"/>
</linearGradient>
<linearGradient id="paint1_linear_657_1720" x1="25.9644" y1="62.6505" x2="22.7917" y2="49.377" gradientUnits="userSpaceOnUse">
<stop stop-color="white" stop-opacity="0"/>
<stop offset="1" stop-color="white"/>
</linearGradient>
</defs>
</svg>
