<svg width="134" height="70" viewBox="0 0 134 70" fill="none" xmlns="http://www.w3.org/2000/svg">
<path d="M85.0282 15.8463C85.0282 15.8463 79.3731 -2.8863 64.5063 0.383071C49.6395 3.65244 47.2537 15.537 48.4466 21.1922C48.4466 21.1922 26.1574 18.8948 16.9237 41.4048C13.7426 49.1806 7.33647 48.8493 3.13931 47.5901C1.23954 47.0158 -0.505633 48.8272 0.134987 50.7049C1.52668 54.659 4.70775 59.4968 11.865 58.9667C23.7496 58.083 26.4446 57.7738 32.6741 62.5453C38.9256 67.2947 54.0796 73.5463 67.4664 62.5453C67.4664 62.5453 78.8649 72.5301 91.2576 68.6643C102.303 65.2182 103.142 56.2937 103.142 56.2937C103.142 56.2937 122.118 68.09 131.396 50.9479C138.288 38.2017 131.109 25.6765 114.452 25.3672C114.452 25.3672 119.047 11.0748 104.446 6.45792C89.7334 1.81894 85.0282 15.8463 85.0282 15.8463Z" fill="#FDE4B6"/>
<path d="M48.4692 21.2141C49.0657 24.6381 50.4574 27.8633 52.8653 30.0723C54.8313 31.8395 57.3496 33.0324 60.1109 33.5184C61.4805 33.8056 62.9163 33.8718 64.3522 33.9381C65.6555 33.9381 66.9368 33.7172 68.1076 33.187C69.3005 32.679 70.4049 31.9279 71.3106 30.978C72.2384 30.0281 72.9675 28.9678 73.5639 27.6424C74.801 25.102 75.4857 22.2081 74.6242 19.6677C74.0278 18.3644 73.2546 17.1494 72.2385 16.2437C71.2223 15.338 69.9853 14.7416 68.682 14.6311C66.0753 14.344 63.1372 15.9124 61.9885 18.1435V18.1877H61.9665C61.7014 18.6958 61.0828 18.8725 60.5748 18.6074C60.0667 18.3423 59.89 17.7238 60.155 17.2157C61.0166 15.581 62.3862 14.4765 63.8883 13.7034C65.3905 12.9302 67.1356 12.5547 68.8586 12.7535C70.5817 12.9302 72.2384 13.7475 73.4534 14.8962C74.6905 16.067 75.5741 17.4808 76.2147 18.9609C77.0762 20.4851 77.2529 22.2744 77.1867 23.9312C77.0762 25.61 76.7007 27.2226 76.1484 28.769C75.5962 30.2711 74.8009 31.9058 73.6081 33.187C72.4373 34.4683 71.0456 35.5728 69.433 36.2797C67.8425 37.0308 66.0532 37.3842 64.308 37.3842C62.6954 37.3621 61.0607 37.2958 59.4481 36.9866C56.2229 36.4785 52.9094 35.1089 50.369 32.7231C47.8066 30.3816 46.1939 27.2005 45.3766 24.0195C45.1557 23.0917 44.979 22.164 44.8465 21.2141C44.8465 21.2141 46.7683 21.0815 48.403 21.2141H48.4692Z" fill="#FEC463"/>
<path d="M101.927 60.1596C101.551 59.784 101.198 59.3864 100.845 58.9888C99.7401 57.7738 98.8344 56.4263 97.9507 55.0788C97.0229 53.5987 96.3602 51.8978 96.1393 50.1527C95.8742 48.4075 96.0509 46.6182 96.5148 44.9614C96.9566 43.2826 97.9065 41.7141 98.8785 40.455C99.8726 39.1517 101.043 37.9588 102.413 36.9868C103.783 36.0369 105.395 35.2417 107.14 35.1312C108.731 34.9103 110.41 34.8661 112.044 35.3079C113.679 35.7277 115.247 36.6775 116.33 38.0471C117.412 39.4167 118.009 41.0735 118.163 42.7745C118.318 44.4533 118.119 46.2206 117.191 47.8111C116.904 48.2971 116.264 48.4517 115.778 48.1645C115.292 47.8773 115.137 47.2367 115.424 46.7507C116.705 44.5638 116.44 41.2282 114.828 39.1737C114.01 38.1134 112.862 37.3844 111.558 37.031C110.233 36.6775 108.797 36.6555 107.383 36.8543C104.755 37.4949 102.678 39.6376 101.198 42.0455C100.403 43.2605 99.8947 44.4533 99.6075 45.7346C99.2982 47.0158 99.2761 48.3633 99.4749 49.6225C99.6737 50.9037 100.16 52.0966 100.867 53.2011C101.596 54.2615 102.325 55.3218 103.164 56.2717C103.164 56.2717 103.098 57.8622 101.949 60.1154L101.927 60.1596Z" fill="#FEC463"/>
</svg>
