<svg width="379" height="197" viewBox="0 0 379 197" fill="none" xmlns="http://www.w3.org/2000/svg">
<path d="M240.491 44.8193C240.491 44.8193 224.497 -8.16353 182.448 1.08347C140.399 10.3305 133.651 43.9445 137.025 59.9393C137.025 59.9393 73.9829 53.4414 47.8664 117.108C38.8693 139.101 20.7503 138.164 8.87915 134.603C3.5059 132.978 -1.4301 138.101 0.381814 143.412C4.31803 154.596 13.3153 168.279 33.5587 166.78C67.1728 164.28 74.7952 163.406 92.4145 176.901C110.096 190.334 152.957 208.016 190.82 176.901C190.82 176.901 223.059 205.142 258.111 194.208C289.35 184.461 291.725 159.22 291.725 159.22C291.725 159.22 345.395 192.584 371.636 144.099C391.13 108.049 370.824 72.6227 323.714 71.748C323.714 71.748 336.71 31.3236 295.411 18.2654C253.799 5.14465 240.491 44.8193 240.491 44.8193Z" fill="#FFF4E0"/>
<path d="M137.088 60.0011C138.775 69.6854 142.712 78.8075 149.522 85.0554C155.083 90.0538 162.205 93.4277 170.015 94.8023C173.889 95.6145 177.95 95.8019 182.011 95.9894C185.698 95.9894 189.321 95.3646 192.633 93.8651C196.007 92.428 199.131 90.3037 201.692 87.6171C204.316 84.9305 206.378 81.9314 208.065 78.1827C211.564 70.9975 213.501 62.8127 211.064 55.6275C209.377 51.9412 207.191 48.5048 204.316 45.9431C201.442 43.3815 197.944 41.6945 194.257 41.3821C186.885 40.5699 178.575 45.006 175.326 51.3164V51.4414H175.263C174.514 52.8784 172.764 53.3782 171.327 52.6285C169.89 51.8787 169.39 50.1293 170.14 48.6923C172.577 44.0688 176.451 40.9448 180.699 38.758C184.948 36.5712 189.884 35.509 194.757 36.0714C199.631 36.5712 204.316 38.8829 207.753 42.1319C211.252 45.4433 213.751 49.442 215.563 53.6281C217.999 57.9392 218.499 63.0001 218.312 67.6861C217.999 72.4345 216.937 76.9956 215.375 81.3691C213.813 85.6177 211.564 90.2412 208.19 93.8651C204.879 97.4889 200.943 100.613 196.382 102.612C191.883 104.737 186.822 105.736 181.886 105.736C177.325 105.674 172.702 105.486 168.141 104.612C159.019 103.175 149.647 99.3008 142.462 92.553C135.214 85.9301 130.653 76.9331 128.341 67.936C127.716 65.3118 127.217 62.6877 126.842 60.0011C126.842 60.0011 132.277 59.6262 136.901 60.0011H137.088Z" fill="#E0A362"/>
<path d="M288.289 170.154C287.226 169.091 286.227 167.967 285.227 166.842C282.103 163.406 279.541 159.595 277.042 155.783C274.418 151.597 272.544 146.786 271.919 141.85C271.169 136.914 271.669 131.854 272.981 127.168C274.23 122.419 276.917 117.983 279.666 114.422C282.478 110.735 285.789 107.362 289.663 104.612C293.537 101.926 298.098 99.6765 303.034 99.3641C307.532 98.7393 312.281 98.6144 316.904 99.8639C321.528 101.051 325.964 103.738 329.025 107.611C332.087 111.485 333.774 116.171 334.211 120.982C334.648 125.731 334.086 130.729 331.462 135.227C330.65 136.602 328.838 137.039 327.463 136.227C326.089 135.415 325.651 133.603 326.464 132.228C330.087 126.043 329.338 116.609 324.777 110.798C322.465 107.799 319.216 105.737 315.53 104.737C311.781 103.738 307.72 103.675 303.721 104.238C296.286 106.049 290.413 112.11 286.227 118.92C283.977 122.357 282.54 125.731 281.728 129.354C280.853 132.978 280.791 136.789 281.353 140.351C281.915 143.975 283.29 147.349 285.289 150.473C287.351 153.472 289.413 156.471 291.787 159.157C291.787 159.157 291.6 163.656 288.351 170.029L288.289 170.154Z" fill="#E0A362"/>
</svg>
