<svg width="254" height="322" viewBox="0 0 254 322" fill="none" xmlns="http://www.w3.org/2000/svg">
<path d="M248.877 10.3525L247.466 29.1931L244.872 63.7091L229.706 265.925L228.899 276.58L227.997 288.648L227.095 300.642L226.63 306.833C225.997 315.326 218.922 321.892 210.406 321.892H42.8295C34.314 321.892 27.2327 315.326 26.6052 306.833L25.2382 288.648L24.3363 276.58L23.5295 265.925L18.3642 197.168L8.35285 63.7091L5.77018 29.1931L4.3584 10.3525H248.872H248.877Z" fill="#FFC871"/>
<path d="M228.003 288.653L226.636 306.838C226.003 315.332 218.927 321.898 210.412 321.898H42.8296C34.314 321.898 27.2327 315.332 26.6052 306.838L25.2383 288.653H228.003Z" fill="#FFC871"/>
<g opacity="0.2" style="mix-blend-mode:multiply">
<path d="M81.2111 321.898H42.8296C34.314 321.898 27.2327 315.332 26.6052 306.844L25.2383 288.654L24.3419 276.586L23.5352 265.936L18.3754 197.179L8.36408 63.7205L5.78141 29.199L4.36963 10.3584H62.645L62.6618 10.5937H62.5721L81.2223 321.898H81.2111Z" fill="#EA502B"/>
</g>
<g opacity="0.2" style="mix-blend-mode:multiply">
<path d="M248.878 10.3584L247.466 29.199L244.872 63.7205L229.712 265.936L228.905 276.586L228.009 288.654L227.113 300.654L226.642 306.844C226.009 315.338 218.933 321.898 210.418 321.898H172.036L190.725 10.5937H190.636L190.653 10.3584H248.889H248.878Z" fill="#EA502B"/>
</g>
<g opacity="0.2" style="mix-blend-mode:multiply">
<path d="M247.466 29.1934L244.872 63.7149H8.35855L5.77588 29.1934H247.466Z" fill="#EA8B2A"/>
</g>
<path d="M229.712 265.931L228.905 276.587H24.3365L23.5298 265.931H229.712Z" fill="#F79D4E"/>
<path d="M44.6339 254.541L35.3004 245.207C33.3172 243.224 33.3172 240.003 35.3004 238.02C37.2836 236.036 40.505 236.036 42.4882 238.02L44.6339 240.165L46.7796 238.02C48.7628 236.036 51.9841 236.036 53.9673 238.02C55.9506 240.003 55.9506 243.224 53.9673 245.207L44.6339 254.541Z" fill="#FFDBDB"/>
<path d="M77.3624 254.541L68.0289 245.207C66.0457 243.224 66.0457 240.003 68.0289 238.02C70.0121 236.036 73.2335 236.036 75.2167 238.02L77.3624 240.165L79.5081 238.02C81.4913 236.036 84.7126 236.036 86.6959 238.02C88.6791 240.003 88.6791 243.224 86.6959 245.207L77.3624 254.541Z" fill="#FFDBDB"/>
<path d="M110.086 254.541L100.752 245.207C98.7688 243.224 98.7688 240.003 100.752 238.02C102.735 236.036 105.957 236.036 107.94 238.02L110.086 240.165L112.231 238.02C114.214 236.036 117.436 236.036 119.419 238.02C121.402 240.003 121.402 243.224 119.419 245.207L110.086 254.541Z" fill="#FFDBDB"/>
<path d="M142.815 254.541L133.481 245.207C131.498 243.224 131.498 240.003 133.481 238.02C135.464 236.036 138.686 236.036 140.669 238.02L142.815 240.165L144.96 238.02C146.943 236.036 150.165 236.036 152.148 238.02C154.131 240.003 154.131 243.224 152.148 245.207L142.815 254.541Z" fill="#FFDBDB"/>
<path d="M175.538 254.541L166.204 245.207C164.221 243.224 164.221 240.003 166.204 238.02C168.187 236.036 171.409 236.036 173.392 238.02L175.538 240.165L177.683 238.02C179.667 236.036 182.888 236.036 184.871 238.02C186.854 240.003 186.854 243.224 184.871 245.207L175.538 254.541Z" fill="#FFDBDB"/>
<path d="M208.26 254.541L198.927 245.207C196.944 243.224 196.944 240.003 198.927 238.02C200.91 236.036 204.131 236.036 206.115 238.02L208.26 240.165L210.406 238.02C212.389 236.036 215.611 236.036 217.594 238.02C219.577 240.003 219.577 243.224 217.594 245.207L208.26 254.541Z" fill="#FFDBDB"/>
<path d="M196.524 0H56.7627V10.594H196.524V0Z" fill="#FD5251"/>
<path d="M57.0148 10.594H1.51263L0 0H57.0148V10.594Z" fill="#E12B1E"/>
<path d="M251.769 10.594H196.267V0H253.281L251.769 10.594Z" fill="#E12B1E"/>
<path opacity="0.47" d="M196.272 10.5933H57.0146V15.6409H196.272V10.5933Z" fill="#F79D4E"/>
<path opacity="0.47" d="M57.0148 15.6409H4.5435L4.03369 10.5933H57.0148V15.6409Z" fill="#D67513"/>
<path opacity="0.47" d="M248.744 15.6409H196.267V10.5933H249.248L248.744 15.6409Z" fill="#D67513"/>
</svg>
